<svg width="24" height="24" viewBox="0 0 24 24" fill="none" xmlns="http://www.w3.org/2000/svg">
<g clip-path="url(#clip0_1223_27687)">
<path fill-rule="evenodd" clip-rule="evenodd" d="M17.207 10.215L11.624 15.799C11.4359 15.9858 11.1816 16.0906 10.9165 16.0906C10.6514 16.0906 10.3971 15.9858 10.209 15.799L6.793 12.383C6.70016 12.2902 6.62651 12.1799 6.57626 12.0586C6.52601 11.9373 6.50015 11.8073 6.50015 11.676C6.50015 11.4108 6.60549 11.1565 6.793 10.969C6.98051 10.7815 7.23482 10.6762 7.5 10.6762C7.76518 10.6762 8.01949 10.7815 8.207 10.969L10.916 13.678L15.793 8.801C15.8858 8.70816 15.9961 8.63451 16.1174 8.58426C16.2387 8.53401 16.3687 8.50815 16.5 8.50815C16.6313 8.50815 16.7613 8.53401 16.8826 8.58426C17.0039 8.63451 17.1142 8.70816 17.207 8.801C17.2998 8.89384 17.3735 9.00407 17.4237 9.12537C17.474 9.24668 17.4998 9.3767 17.4998 9.508C17.4998 9.6393 17.474 9.76932 17.4237 9.89063C17.3735 10.0119 17.2998 10.1222 17.207 10.215ZM12 1C5.925 1 1 5.925 1 12C1 18.075 5.925 23 12 23C18.075 23 23 18.075 23 12C23 5.925 18.075 1 12 1Z" fill="white"/>
<path fill-rule="evenodd" clip-rule="evenodd" d="M12 1C5.925 1 1 5.925 1 12C1 18.075 5.925 23 12 23C18.075 23 23 18.075 23 12C23 5.925 18.075 1 12 1Z" fill="white"/>
<path d="M11.6238 15.7987L17.2069 10.2147C17.2997 10.1218 17.3733 10.0116 17.4236 9.89029C17.4738 9.76898 17.4997 9.63896 17.4997 9.50766C17.4997 9.37636 17.4738 9.24634 17.4236 9.12504C17.3733 9.00373 17.2997 8.89351 17.2069 8.80066C17.114 8.70782 17.0038 8.63417 16.8825 8.58392C16.7612 8.53367 16.6312 8.50781 16.4998 8.50781C16.3685 8.50781 16.2385 8.53367 16.1172 8.58392C15.9959 8.63417 15.8857 8.70782 15.7928 8.80066L10.9158 13.6777L8.20685 10.9687C8.01934 10.7812 7.76503 10.6758 7.49985 10.6758C7.23467 10.6758 6.98036 10.7812 6.79285 10.9687C6.60534 11.1562 6.5 11.4105 6.5 11.6757C6.5 11.807 6.52586 11.937 6.57611 12.0583C6.62636 12.1796 6.7 12.2898 6.79285 12.3827L10.2088 15.7987C10.3969 15.9855 10.6513 16.0903 10.9163 16.0903C11.1814 16.0903 11.4358 15.9855 11.6238 15.7987Z" fill="#2AC769"/>
</g>
<defs>
<clipPath id="clip0_1223_27687">
<rect width="24" height="24" fill="white"/>
</clipPath>
</defs>
</svg>

