<svg width="24" height="24" viewBox="0 0 24 24" fill="none" xmlns="http://www.w3.org/2000/svg">
<g clip-path="url(#clip0_1223_27709)">
<path fill-rule="evenodd" clip-rule="evenodd" d="M12 1C5.925 1 1 5.925 1 12C1 18.075 5.925 23 12 23C18.075 23 23 18.075 23 12C23 5.925 18.075 1 12 1Z" fill="white"/>
<path d="M11.6238 15.7987L17.2069 10.2147C17.2997 10.1218 17.3733 10.0116 17.4236 9.89029C17.4738 9.76898 17.4997 9.63896 17.4997 9.50766C17.4997 9.37636 17.4738 9.24634 17.4236 9.12504C17.3733 9.00373 17.2997 8.89351 17.2069 8.80066C17.114 8.70782 17.0038 8.63417 16.8825 8.58392C16.7612 8.53367 16.6312 8.50781 16.4998 8.50781C16.3685 8.50781 16.2385 8.53367 16.1172 8.58392C15.9959 8.63417 15.8857 8.70782 15.7928 8.80066L10.9158 13.6777L8.20685 10.9687C8.01934 10.7812 7.76503 10.6758 7.49985 10.6758C7.23467 10.6758 6.98036 10.7812 6.79285 10.9687C6.60534 11.1562 6.5 11.4105 6.5 11.6757C6.5 11.807 6.52586 11.937 6.57611 12.0583C6.62636 12.1796 6.7 12.2898 6.79285 12.3827L10.2088 15.7987C10.3969 15.9855 10.6513 16.0903 10.9163 16.0903C11.1814 16.0903 11.4358 15.9855 11.6238 15.7987Z" fill="#2AC769"/>
<path fill-rule="evenodd" clip-rule="evenodd" d="M12 1C5.925 1 1 5.925 1 12C1 18.075 5.925 23 12 23C18.075 23 23 18.075 23 12C23 5.925 18.075 1 12 1Z" fill="white"/>
<path d="M16.4239 15.1172C16.3737 14.9959 16.3 14.8857 16.2072 14.7928L13.4142 11.9998L16.2072 9.20685C16.3 9.114 16.3737 9.00378 16.4239 8.88247C16.4742 8.76117 16.5001 8.63115 16.5001 8.49985C16.5001 8.36855 16.4742 8.23853 16.4239 8.11722C16.3737 7.99592 16.3 7.88569 16.2072 7.79285C16.1144 7.7 16.0041 7.62636 15.8828 7.57611C15.7615 7.52586 15.6315 7.5 15.5002 7.5C15.3689 7.5 15.2389 7.52586 15.1176 7.57611C14.9963 7.62636 14.886 7.7 14.7932 7.79285L12.0002 10.5858L9.2072 7.79285C9.11436 7.7 9.00413 7.62636 8.88283 7.57611C8.76152 7.52586 8.6315 7.5 8.5002 7.5C8.3689 7.5 8.23888 7.52586 8.11758 7.57611C7.99627 7.62636 7.88605 7.7 7.7932 7.79285C7.70036 7.88569 7.62671 7.99592 7.57646 8.11722C7.52621 8.23853 7.50035 8.36855 7.50035 8.49985C7.50035 8.63115 7.52621 8.76117 7.57646 8.88247C7.62671 9.00378 7.70036 9.114 7.7932 9.20685L10.5862 11.9998L7.7932 14.7928C7.70026 14.8856 7.62652 14.9958 7.57621 15.1172C7.5259 15.2385 7.5 15.3685 7.5 15.4998C7.5 15.6312 7.5259 15.7612 7.57621 15.8825C7.62652 16.0039 7.70026 16.1141 7.7932 16.2069C7.88585 16.3 7.99602 16.374 8.11735 16.4244C8.23868 16.4749 8.36879 16.5009 8.5002 16.5009C8.63161 16.5009 8.76172 16.4749 8.88305 16.4244C9.00439 16.374 9.11455 16.3 9.2072 16.2069L12.0002 13.4138L14.7932 16.2069C14.886 16.2997 14.9963 16.3733 15.1176 16.4236C15.2389 16.4738 15.3689 16.4997 15.5002 16.4997C15.6315 16.4997 15.7615 16.4738 15.8828 16.4236C16.0041 16.3733 16.1144 16.2997 16.2072 16.2069C16.3 16.114 16.3737 16.0038 16.4239 15.8825C16.4742 15.7612 16.5001 15.6312 16.5001 15.4998C16.5001 15.3685 16.4742 15.2385 16.4239 15.1172Z" fill="#DD5257"/>
</g>
<defs>
<clipPath id="clip0_1223_27709">
<rect width="24" height="24" fill="white"/>
</clipPath>
</defs>
</svg>
