<svg width="24" height="115" viewBox="0 0 24 115" fill="none" xmlns="http://www.w3.org/2000/svg">
<rect x="3" y="1" width="18" height="114" rx="9" fill="#FDC800"/>
<path d="M15.4394 8.44745L10.916 12.9709L8.56055 10.6154C8.27928 10.3342 7.89778 10.1762 7.5 10.1762C7.10222 10.1762 6.72072 10.3342 6.43945 10.6154C6.15817 10.8967 6.00015 11.2782 6.00015 11.676C6.00015 11.873 6.03895 12.068 6.11432 12.25C6.18969 12.4319 6.30017 12.5973 6.43945 12.7366L9.85544 16.1526L9.85666 16.1538C10.1384 16.4336 10.5194 16.5906 10.9165 16.5906C11.3136 16.5906 11.6946 16.4336 11.9763 16.1538L11.9776 16.1525L17.5606 10.5686C17.5606 10.5685 17.5606 10.5685 17.5606 10.5685C17.6998 10.4293 17.8103 10.2639 17.8857 10.082C17.9611 9.9 17.9998 9.70496 17.9998 9.508C17.9998 9.31104 17.9611 9.116 17.8857 8.93403C17.8103 8.75207 17.6998 8.58672 17.5606 8.44745C17.4213 8.30817 17.2559 8.19769 17.074 8.12232C16.892 8.04695 16.697 8.00815 16.5 8.00815C16.303 8.00815 16.108 8.04695 15.926 8.12232C15.7441 8.19769 15.5787 8.30817 15.4394 8.44745ZM1.5 12C1.5 6.20114 6.20114 1.5 12 1.5C17.7989 1.5 22.5 6.20114 22.5 12C22.5 17.7989 17.7989 22.5 12 22.5C6.20114 22.5 1.5 17.7989 1.5 12Z" fill="white" stroke="#FDC800"/>
<path d="M15.4393 8.44711L10.9158 12.9706L8.5604 10.6151C8.27913 10.3338 7.89763 10.1758 7.49985 10.1758C7.10206 10.1758 6.72057 10.3338 6.4393 10.6151C6.15802 10.8964 6 11.2779 6 11.6757C6 11.8726 6.03879 12.0677 6.11417 12.2496C6.18954 12.4316 6.30002 12.5969 6.4393 12.7362L9.85529 16.1522L9.85651 16.1534C10.1383 16.4333 10.5192 16.5903 10.9163 16.5903C11.3134 16.5903 11.6944 16.4333 11.9762 16.1534L11.9774 16.1522L17.5604 10.5682C17.5604 10.5682 17.5604 10.5682 17.5604 10.5682C17.6997 10.4289 17.8102 10.2636 17.8855 10.0816C17.9609 9.89966 17.9997 9.70462 17.9997 9.50766C17.9997 9.3107 17.9609 9.11567 17.8855 8.93369C17.8102 8.75173 17.6997 8.58638 17.5604 8.44711L17.5604 8.44711C17.4211 8.30783 17.2558 8.19736 17.0738 8.12198C16.8918 8.04661 16.6968 8.00781 16.4998 8.00781C16.3029 8.00781 16.1079 8.04661 15.9259 8.12198C15.7439 8.19736 15.5786 8.30783 15.4393 8.44711Z" fill="#FDC800" stroke="white"/>
<circle cx="12" cy="58" r="4" fill="white"/>
<circle cx="12" cy="104" r="4" fill="white"/>
</svg>
