<svg width="24" height="114" viewBox="0 0 24 114" fill="none" xmlns="http://www.w3.org/2000/svg">
<rect x="3" width="18" height="114" rx="9" fill="#FDC800"/>
<path d="M15.4394 53.4474L10.916 57.9709L8.56055 55.6154C8.27928 55.3342 7.89778 55.1762 7.5 55.1762C7.10222 55.1762 6.72072 55.3342 6.43945 55.6154C6.15817 55.8967 6.00015 56.2782 6.00015 56.676C6.00015 56.873 6.03895 57.068 6.11432 57.25C6.18969 57.4319 6.30017 57.5973 6.43945 57.7366L9.85544 61.1526L9.85666 61.1538C10.1384 61.4336 10.5194 61.5906 10.9165 61.5906C11.3136 61.5906 11.6946 61.4336 11.9763 61.1538L11.9776 61.1525L17.5606 55.5686C17.6998 55.4293 17.8103 55.2639 17.8857 55.082C17.9611 54.9 17.9998 54.705 17.9998 54.508C17.9998 54.311 17.9611 54.116 17.8857 53.934C17.8103 53.7521 17.6998 53.5867 17.5606 53.4474C17.4213 53.3082 17.2559 53.1977 17.074 53.1223C16.892 53.0469 16.697 53.0082 16.5 53.0082C16.303 53.0082 16.108 53.0469 15.926 53.1223C15.7441 53.1977 15.5787 53.3082 15.4394 53.4474ZM1.5 57C1.5 51.2011 6.20114 46.5 12 46.5C17.7989 46.5 22.5 51.2011 22.5 57C22.5 62.7989 17.7989 67.5 12 67.5C6.20114 67.5 1.5 62.7989 1.5 57Z" fill="white" stroke="#FDC800"/>
<path d="M11.9762 61.1534L11.9774 61.1522L17.5604 55.5682C17.5604 55.5682 17.5604 55.5682 17.5604 55.5682C17.6997 55.4289 17.8102 55.2636 17.8855 55.0816C17.9609 54.8997 17.9997 54.7046 17.9997 54.5077C17.9997 54.3107 17.9609 54.1157 17.8855 53.9337C17.8102 53.7517 17.6997 53.5864 17.5604 53.4471L17.5604 53.4471C17.4211 53.3078 17.2558 53.1974 17.0738 53.122C16.8918 53.0466 16.6968 53.0078 16.4998 53.0078C16.3029 53.0078 16.1079 53.0466 15.9259 53.122C15.7439 53.1974 15.5786 53.3078 15.4393 53.4471L10.9158 57.9706L8.5604 55.6151C8.27913 55.3338 7.89763 55.1758 7.49985 55.1758C7.10206 55.1758 6.72057 55.3338 6.4393 55.6151C6.15802 55.8964 6 56.2779 6 56.6757C6 56.8726 6.03879 57.0677 6.11417 57.2496C6.18954 57.4316 6.30002 57.5969 6.4393 57.7362L9.85529 61.1522L9.85651 61.1534C10.1383 61.4333 10.5192 61.5903 10.9163 61.5903C11.3134 61.5903 11.6944 61.4333 11.9762 61.1534Z" fill="#FDC800" stroke="white"/>
<circle cx="12" cy="11" r="4" fill="white"/>
<circle cx="12" cy="103" r="4" fill="white"/>
</svg>
