<svg width="24" height="115" viewBox="0 0 24 115" fill="none" xmlns="http://www.w3.org/2000/svg">
<rect x="3" width="18" height="114" rx="9" fill="#FDC800"/>
<path d="M15.4394 99.4474L10.916 103.971L8.56055 101.615C8.27928 101.334 7.89778 101.176 7.5 101.176C7.10222 101.176 6.72072 101.334 6.43945 101.615C6.15817 101.897 6.00015 102.278 6.00015 102.676C6.00015 102.873 6.03895 103.068 6.11432 103.25C6.18969 103.432 6.30017 103.597 6.43945 103.737L9.85544 107.153L9.85666 107.154C10.1384 107.434 10.5194 107.591 10.9165 107.591C11.3136 107.591 11.6946 107.434 11.9763 107.154L11.9776 107.153L17.5606 101.569C17.6998 101.429 17.8103 101.264 17.8857 101.082C17.9611 100.9 17.9998 100.705 17.9998 100.508C17.9998 100.311 17.9611 100.116 17.8857 99.934C17.8103 99.7521 17.6998 99.5867 17.5606 99.4474C17.4213 99.3082 17.2559 99.1977 17.074 99.1223C16.892 99.0469 16.697 99.0082 16.5 99.0082C16.303 99.0082 16.108 99.0469 15.926 99.1223C15.7441 99.1977 15.5787 99.3082 15.4394 99.4474ZM1.5 103C1.5 97.2011 6.20114 92.5 12 92.5C17.7989 92.5 22.5 97.2011 22.5 103C22.5 108.799 17.7989 113.5 12 113.5C6.20114 113.5 1.5 108.799 1.5 103Z" fill="white" stroke="#FDC800"/>
<path d="M11.9762 107.153L11.9774 107.152L17.5604 101.568C17.5604 101.568 17.5604 101.568 17.5604 101.568C17.6997 101.429 17.8102 101.264 17.8855 101.082C17.9609 100.9 17.9997 100.705 17.9997 100.508C17.9997 100.311 17.9609 100.116 17.8855 99.9337C17.8102 99.7517 17.6997 99.5864 17.5604 99.4471L17.5604 99.4471C17.4211 99.3078 17.2558 99.1974 17.0738 99.122C16.8918 99.0466 16.6968 99.0078 16.4998 99.0078C16.3029 99.0078 16.1079 99.0466 15.9259 99.122C15.7439 99.1974 15.5786 99.3078 15.4393 99.4471L10.9158 103.971L8.5604 101.615C8.27913 101.334 7.89763 101.176 7.49985 101.176C7.10206 101.176 6.72057 101.334 6.4393 101.615C6.15802 101.896 6 102.278 6 102.676C6 102.873 6.03879 103.068 6.11417 103.25C6.18954 103.432 6.30002 103.597 6.4393 103.736L9.85529 107.152L9.85651 107.153C10.1383 107.433 10.5192 107.59 10.9163 107.59C11.3134 107.59 11.6944 107.433 11.9762 107.153Z" fill="#FDC800" stroke="white"/>
<circle cx="12" cy="11" r="4" fill="white"/>
<circle cx="12" cy="57" r="4" fill="white"/>
</svg>
