<svg width="32" height="31" viewBox="0 0 32 31" fill="none" xmlns="http://www.w3.org/2000/svg">
<mask id="path-1-inside-1_12223_13878" fill="white">
<path fill-rule="evenodd" clip-rule="evenodd" d="M11.5219 4.20984C6.5402 5.32167 3.0472 10.0105 3.2432 15.1112C3.3972 19.1175 5.85537 22.7015 13.1692 29.733C13.6312 30.1763 14.3709 30.1787 14.834 29.7342C22.3987 22.4623 24.7694 18.8783 24.7694 14.6993C24.7694 7.94434 18.5475 2.64184 11.5219 4.211"/>
</mask>
<path fill-rule="evenodd" clip-rule="evenodd" d="M11.5219 4.20984C6.5402 5.32167 3.0472 10.0105 3.2432 15.1112C3.3972 19.1175 5.85537 22.7015 13.1692 29.733C13.6312 30.1763 14.3709 30.1787 14.834 29.7342C22.3987 22.4623 24.7694 18.8783 24.7694 14.6993C24.7694 7.94434 18.5475 2.64184 11.5219 4.211" fill="white"/>
<path d="M3.2432 15.1112L1.24468 15.188L1.24468 15.188L3.2432 15.1112ZM13.1692 29.733L11.7831 31.1748L11.7844 31.1761L13.1692 29.733ZM14.834 29.7342L16.2189 31.1772L16.2201 31.176L14.834 29.7342ZM11.0862 2.25786C5.12962 3.58729 1.0129 9.15615 1.24468 15.188L5.24173 15.0344C5.08151 10.8649 7.95079 7.05605 11.9575 6.16181L11.0862 2.25786ZM1.24468 15.188C1.43364 20.1038 4.53735 24.2087 11.7831 31.1748L14.5553 28.2912C7.17339 21.1943 5.36077 18.1312 5.24173 15.0343L1.24468 15.188ZM11.7844 31.1761C13.0164 32.3582 14.9779 32.3681 16.2189 31.1772L13.4492 28.2912C13.7638 27.9892 14.246 27.9945 14.554 28.2899L11.7844 31.1761ZM16.2201 31.176C23.7193 23.967 26.7694 19.8338 26.7694 14.6993H22.7694C22.7694 17.9229 21.0781 20.9576 13.448 28.2923L16.2201 31.176ZM26.7694 14.6993C26.7694 6.68927 19.3858 0.405344 11.0859 2.25909L11.9578 6.16291C17.7093 4.87833 22.7694 9.1994 22.7694 14.6993H26.7694Z" fill="#343337" mask="url(#path-1-inside-1_12223_13878)"/>
<path d="M12.6275 18.5713C13.1422 18.7758 13.6925 18.8757 14.2463 18.8651C15.3372 18.8442 16.3764 18.3961 17.1405 17.6172C17.9046 16.8383 18.3327 15.7907 18.3327 14.6995C18.3327 13.6084 17.9046 12.5608 17.1405 11.7819C16.3764 11.003 15.3372 10.5549 14.2463 10.534C13.6925 10.5233 13.1422 10.6232 12.6275 10.8278C12.1128 11.0324 11.6441 11.3375 11.2487 11.7254C10.8533 12.1132 10.5392 12.576 10.3248 13.0867C10.1104 13.5974 10 14.1457 10 14.6995C10 15.2534 10.1104 15.8017 10.3248 16.3124C10.5392 16.8231 10.8533 17.2859 11.2487 17.6737C11.6441 18.0616 12.1128 18.3667 12.6275 18.5713Z" fill="white" stroke="#343337" stroke-width="2"/>
<mask id="path-4-outside-2_12223_13878" maskUnits="userSpaceOnUse" x="15.834" y="-0.800781" width="17" height="17" fill="black">
<rect fill="white" x="15.834" y="-0.800781" width="17" height="17"/>
<path fill-rule="evenodd" clip-rule="evenodd" d="M24.3001 2.19922C23.7478 2.19922 23.3001 2.64693 23.3001 3.19922V6.69792H19.834C19.2817 6.69792 18.834 7.14563 18.834 7.69792C18.834 8.2502 19.2817 8.69792 19.834 8.69792H23.3001V12.1992C23.3001 12.7515 23.7478 13.1992 24.3001 13.1992C24.8524 13.1992 25.3001 12.7515 25.3001 12.1992V8.69792H28.834C29.3863 8.69792 29.834 8.2502 29.834 7.69792C29.834 7.14563 29.3863 6.69792 28.834 6.69792H25.3001V3.19922C25.3001 2.64693 24.8524 2.19922 24.3001 2.19922Z"/>
</mask>
<path fill-rule="evenodd" clip-rule="evenodd" d="M24.3001 2.19922C23.7478 2.19922 23.3001 2.64693 23.3001 3.19922V6.69792H19.834C19.2817 6.69792 18.834 7.14563 18.834 7.69792C18.834 8.2502 19.2817 8.69792 19.834 8.69792H23.3001V12.1992C23.3001 12.7515 23.7478 13.1992 24.3001 13.1992C24.8524 13.1992 25.3001 12.7515 25.3001 12.1992V8.69792H28.834C29.3863 8.69792 29.834 8.2502 29.834 7.69792C29.834 7.14563 29.3863 6.69792 28.834 6.69792H25.3001V3.19922C25.3001 2.64693 24.8524 2.19922 24.3001 2.19922Z" fill="#343337"/>
<path d="M23.3001 6.69792V8.75852H25.3607V6.69792H23.3001ZM23.3001 8.69792H25.3607V6.63731H23.3001V8.69792ZM25.3001 8.69792V6.63731H23.2395V8.69792H25.3001ZM25.3001 6.69792H23.2395V8.75852H25.3001V6.69792ZM25.3607 3.19922C25.3607 3.78498 24.8859 4.25982 24.3001 4.25982V0.138613C22.6098 0.138613 21.2395 1.50889 21.2395 3.19922H25.3607ZM25.3607 6.69792V3.19922H21.2395V6.69792H25.3607ZM19.834 8.75852H23.3001V4.63731H19.834V8.75852ZM20.8946 7.69792C20.8946 8.28367 20.4197 8.75852 19.834 8.75852V4.63731C18.1437 4.63731 16.7734 6.00759 16.7734 7.69792L20.8946 7.69792ZM19.834 6.63731C20.4197 6.63731 20.8946 7.11216 20.8946 7.69792L16.7734 7.69792C16.7734 9.38824 18.1437 10.7585 19.834 10.7585V6.63731ZM23.3001 6.63731H19.834V10.7585H23.3001V6.63731ZM25.3607 12.1992V8.69792H21.2395V12.1992H25.3607ZM24.3001 11.1386C24.8859 11.1386 25.3607 11.6135 25.3607 12.1992H21.2395C21.2395 13.8895 22.6098 15.2598 24.3001 15.2598V11.1386ZM23.2395 12.1992C23.2395 11.6135 23.7144 11.1386 24.3001 11.1386V15.2598C25.9905 15.2598 27.3607 13.8895 27.3607 12.1992H23.2395ZM23.2395 8.69792V12.1992H27.3607V8.69792H23.2395ZM28.834 6.63731H25.3001V10.7585H28.834V6.63731ZM27.7734 7.69792C27.7734 7.11216 28.2482 6.63731 28.834 6.63731V10.7585C30.5243 10.7585 31.8946 9.38824 31.8946 7.69792H27.7734ZM28.834 8.75852C28.2482 8.75852 27.7734 8.28367 27.7734 7.69792H31.8946C31.8946 6.00759 30.5243 4.63731 28.834 4.63731V8.75852ZM25.3001 8.75852H28.834V4.63731H25.3001V8.75852ZM23.2395 3.19922V6.69792H27.3607V3.19922H23.2395ZM24.3001 4.25982C23.7144 4.25982 23.2395 3.78498 23.2395 3.19922H27.3607C27.3607 1.50889 25.9905 0.138613 24.3001 0.138613V4.25982Z" fill="white" mask="url(#path-4-outside-2_12223_13878)"/>
</svg>
