<svg width="133" height="110" viewBox="0 0 133 110" fill="none" xmlns="http://www.w3.org/2000/svg">
<path d="M1.75462 58.2638C6.6067 40.2817 25.3029 37.0919 49.7055 22.7109C63.3387 14.6765 75.9843 0.00033122 94.2002 0C134.491 -0.000732497 140.716 46.9766 122.233 74.4445C104.896 100.209 71.2766 107.961 44.4164 102.183C5.70459 93.8545 -2.19575 72.9041 1.75462 58.2638Z" fill="#E3DDFF"/>
<path d="M49.8056 88.6921L52.684 82.2891L60.2913 89.9653L57.8825 103.447C57.6221 104.391 54.2839 109.518 53.6991 109.682C53.1094 109.847 46.7036 108.333 43.138 106.997C42.7562 106.854 41.992 106.454 42.1411 105.765C42.4036 104.545 46.3142 104.291 46.9219 102.648C47.646 100.688 47.8394 94.022 49.8053 88.6945" fill="#FFF9E5"/>
<path d="M53.5485 109.816C51.9924 109.564 50.4456 109.255 48.9184 108.861C47.3704 108.463 45.8453 107.992 44.3304 107.476C43.8901 107.326 43.4478 107.173 43.008 107.018C42.5139 106.842 42.0357 106.631 41.6073 106.323C41.1724 106.008 41.1012 105.334 41.418 104.91C41.8618 104.317 42.549 104.033 43.2683 104.074C43.5113 104.087 43.78 104.262 43.9282 104.452C44.0764 104.642 44.1729 104.947 44.1312 105.196C44.0883 105.454 43.972 105.711 43.7583 105.869C43.5371 106.031 43.3018 106.092 43.028 106.079C43.0023 106.075 42.9786 106.075 42.9523 106.077L43.2187 106.073C43.1187 106.075 43.0219 106.09 42.9237 106.117L43.1698 106.045C43.0736 106.074 42.9834 106.114 42.8987 106.167C42.9705 106.122 43.0447 106.078 43.1165 106.034C43.0418 106.083 42.9761 106.135 42.9116 106.198L43.0904 106.014C43.0551 106.05 43.0245 106.088 42.9933 106.13C42.9309 105.66 42.8688 105.188 42.8041 104.717C42.887 104.778 42.9732 104.832 43.0596 104.884L42.8375 104.755C43.2333 104.98 43.6651 105.122 44.0913 105.271C44.5334 105.426 44.9757 105.579 45.421 105.728C46.2336 106.001 47.0521 106.265 47.8757 106.505C48.3277 106.637 48.7781 106.762 49.2338 106.883C49.1487 106.861 49.0635 106.838 48.976 106.815C50.5623 107.231 52.1668 107.554 53.7858 107.816C54.0421 107.857 54.2835 107.983 54.4458 108.194C54.5957 108.389 54.6904 108.688 54.6487 108.937C54.5624 109.46 54.093 109.909 53.5455 109.82L53.5485 109.816Z" fill="#AD7F42"/>
<path d="M85.9795 88.6575L82.9668 82.3164C82.9668 82.3164 76.9413 86.1793 75.523 90.151C73.7226 95.193 77.6101 102.828 78.1801 103.858C78.7501 104.888 81.941 109.573 82.5292 109.724C83.1223 109.878 89.4946 108.229 93.0313 106.819C93.41 106.668 94.1655 106.251 94.002 105.566C93.7138 104.352 89.7988 104.18 89.1566 102.55C88.3913 100.606 88.0575 93.9449 85.9798 88.6599" fill="#FFF9E5"/>
<path d="M82.6827 109.855C84.2331 109.57 85.773 109.229 87.2916 108.803C88.8308 108.372 90.3456 107.869 91.8493 107.322C92.2863 107.163 92.7253 107 93.1617 106.836C93.652 106.649 94.1257 106.429 94.5475 106.111C94.9756 105.788 95.0326 105.112 94.7069 104.695C94.2507 104.112 93.5577 103.842 92.8395 103.898C92.5967 103.916 92.3318 104.097 92.1876 104.29C92.0435 104.483 91.9534 104.789 92.0004 105.038C92.0487 105.295 92.1704 105.55 92.3874 105.704C92.612 105.861 92.8485 105.917 93.1219 105.897C93.1476 105.894 93.1713 105.893 93.1976 105.894L92.9312 105.895C93.0312 105.896 93.1283 105.908 93.227 105.933L92.9795 105.867C93.0762 105.894 93.1673 105.932 93.2531 105.983C93.1803 105.94 93.1052 105.897 93.0325 105.854C93.1083 105.902 93.175 105.953 93.2408 106.014L93.0581 105.834C93.0942 105.87 93.1256 105.906 93.1577 105.948C93.2101 105.477 93.2623 105.003 93.3171 104.532C93.2355 104.594 93.1505 104.65 93.0652 104.704L93.2845 104.57C92.8936 104.803 92.4649 104.954 92.0418 105.112C91.6032 105.277 91.1642 105.439 90.7221 105.597C89.9154 105.887 89.1027 106.168 88.2843 106.426C87.8353 106.567 87.3875 106.702 86.9345 106.832C87.0192 106.808 87.1038 106.784 87.1908 106.759C85.6136 107.208 84.0163 107.564 82.4032 107.86C82.1478 107.907 81.9092 108.038 81.7514 108.252C81.6056 108.45 81.5172 108.752 81.5642 109C81.6615 109.52 82.1402 109.959 82.6857 109.859L82.6827 109.855Z" fill="#AD7F42"/>
<path d="M90.3026 63.1503C97.5845 59.3877 101.045 52.9932 101.901 51.8621C102.038 51.6821 102.268 51.4259 102.566 51.6013C102.86 51.7744 102.91 52.0897 102.216 52.9797C102.612 52.458 103.001 51.8907 103.417 52.3156C103.695 52.5986 103.247 53.2065 102.911 53.6113C103.4 53.0856 103.756 52.7068 104.103 53.0113C104.321 53.2033 104.407 53.5144 103.647 54.3412C104.007 54.0423 104.387 53.4335 104.784 53.728C105.211 54.046 104.704 54.744 104.475 54.9755C104.842 54.5726 105.145 54.2347 105.445 54.4447C105.73 54.6431 105.609 55.0686 105.508 55.3144C105.257 55.9354 102.181 63.3667 91.7874 68.9698C88.6673 70.6526 86.2967 70.5312 85.6013 68.4373C85.2298 67.3195 85.7767 65.9068 87.2746 64.9011C88.0466 64.3841 89.0347 63.8028 90.3006 63.1491L90.3026 63.1503Z" fill="white"/>
<path d="M47.6984 63.1503C40.4165 59.3877 36.9556 52.9932 36.0999 51.8621C35.9626 51.6821 35.733 51.4259 35.4349 51.6013C35.1409 51.7744 35.0908 52.0897 35.7854 52.9797C35.3892 52.458 34.9999 51.8907 34.5844 52.3156C34.3064 52.5986 34.7541 53.2065 35.0896 53.6113C34.6012 53.0856 34.2451 52.7068 33.8976 53.0113C33.6797 53.2033 33.5945 53.5144 34.354 54.3412C33.9942 54.0423 33.614 53.4335 33.2173 53.728C32.7902 54.046 33.2972 54.744 33.5263 54.9755C33.1593 54.5726 32.8563 54.2347 32.556 54.4447C32.2708 54.6431 32.392 55.0686 32.4931 55.3144C32.7441 55.9354 35.8203 63.3667 46.2136 68.9698C49.3337 70.6526 51.7043 70.5312 52.3997 68.4373C52.7712 67.3195 52.2243 65.9068 50.7264 64.9011C49.9544 64.3841 48.9663 63.8028 47.7004 63.1491L47.6984 63.1503Z" fill="white"/>
<path d="M46.1112 72.9481C44.9026 75.0973 44.3 77.7137 44.8107 80.7628C45.8959 87.2303 50.1296 90.0016 54.0322 91.0903C53.4599 96.387 55.986 105.427 64.3807 106.588C74.6664 108.007 78.4984 101.128 79.6231 97.2651C79.9581 96.1114 80.082 94.231 79.7968 92.122C80.0675 92.106 80.3176 92.0864 80.5475 92.0704C84.3464 91.8122 95.0325 87.8149 92.2439 76.4283C92.1097 76.0583 91.9739 75.7004 91.8343 75.3547C95.8399 73.0017 99.8771 68.4561 98.2363 61.6121C97.5536 58.761 96.4225 56.661 95.0476 55.1292C96.2953 52.713 96.8147 49.709 95.8351 46.1724C93.5445 37.891 86.2911 35.7484 81.6432 36.5576C80.451 36.7653 79.1286 37.231 77.8248 37.9461C73.4923 30.6906 68.1943 31.2132 65.1353 31.9044C62.8269 32.4236 59.698 34.5538 57.8711 38.0877C55.935 37.2343 52.5228 36.0925 48.6772 37.0421C44.1419 38.16 39.077 43.4983 39.9613 50.4905C40.2499 52.7799 41.2317 54.6021 41.9135 56.0858C40.6257 58.2733 39.9949 60.9517 40.6185 64.0759C41.5358 68.6659 43.6701 71.3734 46.1137 72.9528L46.1112 72.9481Z" fill="#5A1EFF"/>
<path d="M82.12 42.8519C82.0385 42.8243 80.2 42.1968 80.3838 40.9637C80.6358 39.2689 82.8504 39.0534 84.2317 39.3997C85.5605 39.734 86.4835 40.6033 86.1305 41.9766C85.7776 43.3499 83.6693 43.3991 82.12 42.8519Z" fill="#431DCE"/>
<path d="M87.7529 57.9729C87.6713 57.9454 85.8328 57.3178 86.0167 56.0848C86.2686 54.39 88.4832 54.1745 89.8645 54.5208C91.1933 54.8551 92.1163 55.7244 91.7634 57.0977C91.4104 58.471 89.3022 58.5202 87.7529 57.9729Z" fill="#431DCE"/>
<path d="M51.2333 59.1038C51.1517 59.0763 49.3133 58.4487 49.4971 57.2157C49.7491 55.5209 51.9637 55.3054 53.3449 55.6516C54.6737 55.9859 55.5968 56.8553 55.2438 58.2286C54.8909 59.6019 52.7826 59.6511 51.2333 59.1038Z" fill="#431DCE"/>
<path d="M68.537 85.3382C68.4554 85.3107 66.617 84.6831 66.8008 83.45C67.0528 81.7553 69.2674 81.5397 70.6486 81.886C71.9775 82.2203 72.9005 83.0897 72.5475 84.463C72.1946 85.8363 70.0863 85.8855 68.537 85.3382Z" fill="#431DCE"/>
<path d="M80.9618 74.5452C80.8803 74.5177 79.0418 73.8901 79.2256 72.6571C79.4776 70.9623 81.6922 70.7468 83.0735 71.093C84.4023 71.4273 85.3253 72.2967 84.9723 73.67C84.6194 75.0433 82.5112 75.0925 80.9618 74.5452Z" fill="#431DCE"/>
<path d="M56.8105 70.9241C56.7289 70.8966 54.8904 70.269 55.0743 69.036C55.3262 67.3412 57.5409 67.1257 58.9221 67.4719C60.2509 67.8062 61.1739 68.6756 60.821 70.0489C60.468 71.4222 58.3598 71.4714 56.8105 70.9241Z" fill="#431DCE"/>
<path d="M47.1288 43.3108C47.0472 43.2833 45.2088 42.6557 45.3926 41.4227C45.6446 39.7279 47.8592 39.5124 49.2404 39.8586C50.5693 40.193 51.4923 41.0623 51.1393 42.4356C50.7864 43.8089 48.6781 43.8581 47.1288 43.3108Z" fill="#431DCE"/>
<path d="M66.6945 68.4846C66.2645 68.442 56.5019 67.6163 54.7907 59.5279C52.4389 48.4083 62.1774 43.2792 69.2481 43.1177C76.0469 42.9629 82.0997 46.8803 83.3261 56.1444C84.5524 65.4108 74.9565 69.3013 66.6923 68.4846H66.6945Z" fill="white"/>
<path d="M74.5479 52.9734C73.9024 52.9734 72.7664 52.8966 71.8369 54.1306C72.4824 54.1306 73.541 54.2074 74.1606 54.5159" stroke="#7A706C" stroke-linecap="round" stroke-linejoin="round"/>
<path d="M63.3173 52.9734C63.9628 52.9734 65.0988 52.8966 66.0283 54.1306C65.3828 54.1306 64.3243 54.2074 63.7046 54.5159" stroke="#7A706C" stroke-linecap="round" stroke-linejoin="round"/>
<path d="M62.308 57.7358C63.2065 57.5507 63.7877 56.6581 63.6061 55.7421C63.4245 54.8261 62.5489 54.2336 61.6504 54.4187C60.7518 54.6038 60.1706 55.4965 60.3522 56.4124C60.5338 57.3284 61.4094 57.9209 62.308 57.7358Z" fill="#F9AE85"/>
<path d="M72.573 57.1018C71.0704 57.3913 69.3306 57.0811 68.2512 55.8967C67.9726 55.5916 67.7077 55.2016 67.7445 54.7647C67.7681 54.4869 67.9256 54.2108 68.1849 54.0978C68.4442 53.9847 68.7351 54.0048 68.9667 54.1731C69.4053 54.4982 69.5207 55.0857 69.2087 55.5481C68.9521 55.9275 68.5263 56.1458 68.1246 56.3333C67.1229 56.8017 66.0347 57.039 64.9322 57.0226C64.6743 57.019 64.433 56.7691 64.452 56.5023C64.4734 56.225 64.6842 56.0101 64.9616 56.0138C65.1537 56.0161 65.3442 56.0114 65.5352 55.9992C65.5805 55.9955 65.6257 55.9918 65.6732 55.9876C65.6966 55.9843 65.7184 55.9839 65.7418 55.9806C65.7327 55.9829 65.6663 55.9893 65.7229 55.9828C65.8214 55.9685 65.9204 55.9566 66.0189 55.9423C66.4042 55.88 66.7835 55.782 67.1509 55.6547C67.1933 55.6394 67.2381 55.6235 67.2805 55.6081C67.3028 55.6001 67.3229 55.5927 67.3453 55.5848C67.3361 55.587 67.2747 55.6145 67.3275 55.5916C67.4204 55.554 67.5105 55.5146 67.6023 55.4723C67.7704 55.3939 67.9374 55.3109 68.0998 55.2191C68.1532 55.1887 68.2379 55.1061 68.2952 55.0921C68.2906 55.0932 68.2244 55.1515 68.2618 55.1151C68.2734 55.1024 68.29 55.0909 68.3021 55.0805C68.332 55.0534 68.3586 55.0221 68.3879 54.9927C68.4271 54.9534 68.3609 55.0216 68.362 55.0262C68.3609 55.0216 68.3868 54.988 68.3903 54.9822C68.3938 54.9764 68.4095 54.9404 68.4158 54.9364C68.4066 54.9386 68.386 55.0253 68.3961 54.9758C68.3972 54.9706 68.4067 54.9287 68.4107 54.9252C68.4061 54.9264 68.4026 55.0237 68.4029 54.9741C68.3999 54.9205 68.4145 55.0331 68.4122 55.0337C68.4122 55.0337 68.3983 54.9753 68.3978 54.9729C68.4053 54.9637 68.4245 55.0851 68.418 55.0273C68.4169 55.0226 68.3943 54.9886 68.396 54.9857C68.3902 54.9921 68.4675 55.0622 68.4277 55.0274C68.4181 55.0174 68.405 55.0033 68.3977 54.9927C68.3438 54.9293 68.4722 55.0412 68.4022 55.0015C68.4022 55.0015 68.5026 55.0363 68.454 55.0259C68.3952 55.0131 68.5598 55.0321 68.5015 55.0316C68.4483 55.0323 68.5742 55.0212 68.5673 55.0228C68.5627 55.024 68.6763 54.9714 68.6269 54.9983C68.5822 55.0241 68.6741 54.962 68.6723 54.9649C68.6723 54.9649 68.7285 54.8745 68.7076 54.9192C68.6826 54.9674 68.7314 54.8565 68.7303 54.8617C68.725 54.8803 68.7184 54.924 68.7275 54.85C68.7378 54.7708 68.7311 54.8244 68.7304 54.8419C68.7333 54.9153 68.7289 54.8051 68.7216 54.7946C68.7323 54.8092 68.7432 54.8857 68.7466 54.8997C68.7508 54.9481 68.7355 54.853 68.7246 54.8482C68.7303 54.8518 68.741 54.8863 68.7449 54.8927C68.759 54.9214 68.7731 54.9501 68.7895 54.9782C68.7974 54.9911 68.8059 55.0064 68.8138 55.0193C68.8471 55.0778 68.811 55.0076 68.79 54.9905C68.84 55.0376 68.8801 55.1044 68.9266 55.1573C68.9766 55.2143 69.0311 55.2701 69.0856 55.326C69.1361 55.3754 69.1907 55.4214 69.243 55.4679C69.2833 55.505 69.2157 55.4449 69.2129 55.4432C69.2265 55.4497 69.2424 55.4656 69.2544 55.475C69.2868 55.4992 69.3198 55.5257 69.3522 55.5499C69.4723 55.6367 69.5975 55.7148 69.7257 55.7848C69.7565 55.8019 69.7872 55.8191 69.8197 55.8334C69.8414 55.8429 69.8631 55.8525 69.883 55.8649C69.9326 55.8898 69.8505 55.8506 69.8477 55.8488C69.919 55.8635 69.9936 55.9119 70.0603 55.9376C70.1989 55.9902 70.341 56.0369 70.4854 56.0732C70.5659 56.0955 70.6476 56.1126 70.7315 56.1291C70.7521 56.1339 70.876 56.1554 70.8103 56.1443C70.7446 56.1333 70.868 56.1524 70.8903 56.1544C71.0583 56.1775 71.2263 56.1907 71.3944 56.194C71.57 56.1979 71.7439 56.1948 71.9195 56.1789C71.9384 56.1767 71.955 56.1751 71.9739 56.173C72.0403 56.1666 71.9774 56.1672 71.9504 56.1763C71.9865 56.1649 72.0374 56.1648 72.0752 56.1605C72.1645 56.1485 72.2527 56.1318 72.3409 56.1151C72.5934 56.0655 72.8852 56.2116 72.9387 56.4878C72.9878 56.7453 72.8479 57.0442 72.5742 57.0965L72.573 57.1018Z" fill="#7A706C"/>
<path d="M76.267 57.6889C77.1655 57.5038 77.7467 56.6112 77.5651 55.6952C77.3835 54.7792 76.5079 54.1867 75.6094 54.3719C74.7108 54.557 74.1296 55.4496 74.3112 56.3656C74.4928 57.2816 75.3684 57.874 76.267 57.6889Z" fill="#F9AE85"/>
<path d="M71.721 33.7736C70.8639 33.0548 70.0268 32.3109 69.2435 31.5088C69.0596 31.321 68.8802 31.1304 68.703 30.9374C68.6082 30.834 68.5157 30.7304 68.4231 30.6245C68.378 30.5714 68.3305 30.5185 68.2854 30.4655C68.2654 30.4425 68.1198 30.267 68.2252 30.394C67.8687 29.9623 67.5327 29.5175 67.2193 29.0523C66.9109 28.5916 66.6277 28.1152 66.3719 27.6206C66.3405 27.5596 66.3091 27.4963 66.2777 27.4353C66.2775 27.4305 66.2014 27.2756 66.2464 27.3744C66.2989 27.4824 66.2067 27.2874 66.196 27.2638C66.1669 27.2004 66.1402 27.1368 66.1111 27.0733C65.9938 26.8026 65.8882 26.5288 65.7918 26.2498C65.7065 26.0039 65.6305 25.7575 65.5614 25.506C65.5297 25.3897 65.5004 25.2733 65.4732 25.1543C65.4581 25.0877 65.4429 25.0187 65.4278 24.9521C65.4282 24.9593 65.3712 24.6662 65.3938 24.7902C65.4167 24.919 65.3802 24.7043 65.3765 24.678C65.366 24.6087 65.3556 24.5419 65.3474 24.4725C65.3321 24.353 65.3167 24.2335 65.306 24.1113C65.2777 23.8263 65.2612 23.5408 65.2637 23.2567C65.2644 23.1267 65.2746 22.9986 65.273 22.8712C65.2738 22.7436 65.2673 22.9003 65.2658 22.9173C65.272 22.852 65.2784 22.7891 65.2871 22.7261C65.3209 22.4548 65.3714 22.1875 65.4458 21.9262C65.464 21.865 65.4822 21.8039 65.5006 21.7452C65.5372 21.6254 65.4947 21.7696 65.486 21.7845C65.5369 21.6688 65.5832 21.5533 65.6413 21.4396C65.6995 21.3283 65.7601 21.2169 65.8306 21.1146C65.8042 21.1545 65.715 21.2601 65.8421 21.1092C65.8912 21.0513 65.9378 20.9912 65.9894 20.9356C66.061 20.8573 66.1354 20.7861 66.2097 20.7125C66.052 20.865 66.2941 20.6528 66.351 20.6114C66.4491 20.5414 66.5475 20.4785 66.6507 20.4179C66.7036 20.3887 66.7541 20.3596 66.8069 20.3304C66.9816 20.2348 66.7256 20.3563 66.8439 20.3141C67.0572 20.2358 67.2651 20.1433 67.4837 20.0767C67.6 20.0418 67.7188 20.0092 67.8377 19.9791C67.8983 19.9639 67.9567 19.9513 68.0175 19.9385C68.1272 19.9137 68.1064 19.9219 68.0081 19.939C68.5115 19.8554 69.0166 19.8054 69.5283 19.7935C69.7947 19.7871 70.0616 19.7902 70.3266 19.803C70.3929 19.8068 70.4592 19.8107 70.5255 19.8145C70.5373 19.8139 70.7008 19.8271 70.5824 19.8188C70.452 19.8086 70.6607 19.8268 70.6892 19.8301C70.7722 19.8379 70.8553 19.8481 70.9362 19.8608C71.4614 19.93 71.9838 20.0404 72.4918 20.1923C72.6187 20.2291 72.7437 20.2732 72.8708 20.3148C72.902 20.3253 73.0608 20.3845 72.8924 20.321C72.9549 20.3442 73.0152 20.37 73.0777 20.3933C73.3235 20.4937 73.565 20.6041 73.8 20.7243C74.1633 20.9102 74.5092 21.1259 74.8508 21.3514C74.9948 21.4475 75.1366 21.5461 75.2808 21.6446C75.4004 21.725 75.1191 21.5253 75.2367 21.6131C75.276 21.6424 75.3174 21.6692 75.3566 21.6984C75.4472 21.7636 75.5379 21.8311 75.6262 21.8988C76.2566 22.3766 76.8114 22.904 77.3611 23.4701C77.4606 23.5709 77.235 23.3057 77.316 23.4171C77.3414 23.4519 77.3714 23.4864 77.3991 23.5211C77.452 23.5882 77.5026 23.6578 77.551 23.7299C77.5918 23.7904 77.6301 23.8486 77.6686 23.9116C77.6969 23.9582 77.8303 24.2209 77.7483 24.0422C77.6635 23.8565 77.7702 24.1037 77.7839 24.1415C77.8032 24.1983 77.8156 24.2578 77.8349 24.3145C77.887 24.4611 77.8028 24.1911 77.8092 24.1763C77.8006 24.1936 77.8296 24.2547 77.8186 24.2721C77.8185 24.2697 77.8159 24.3588 77.8209 24.3658C77.8081 24.3448 77.8598 24.0534 77.8288 24.2378C77.823 24.2646 77.8059 24.3016 77.8096 24.3279C77.8198 24.4381 77.9261 24.1053 77.8574 24.1955C77.8373 24.2206 77.7806 24.3149 77.7796 24.3415C77.7741 24.1829 77.9355 24.1529 77.8451 24.2346C77.8225 24.255 77.7935 24.2878 77.7758 24.3128C77.6891 24.4207 77.7712 24.2191 77.8575 24.246C77.8431 24.2419 77.7204 24.3373 77.7092 24.3499C77.6188 24.4315 77.8847 24.3192 77.769 24.3179C77.7454 24.3191 77.6946 24.341 77.6714 24.3494C77.4835 24.4168 77.7405 24.3146 77.7486 24.3358C77.7486 24.3358 77.6262 24.3421 77.6097 24.343C77.3982 24.3635 77.6872 24.3342 77.681 24.3537C77.6813 24.3585 77.5263 24.328 77.5382 24.3298C77.4905 24.3202 77.4404 24.3083 77.3924 24.294C77.3565 24.2838 77.1612 24.2 77.3014 24.2674C77.4272 24.3283 77.3061 24.2671 77.2842 24.2538C77.2358 24.2298 77.1852 24.2084 77.1367 24.182C77.0374 24.1317 76.9401 24.0741 76.8452 24.0165C76.7964 23.9853 76.75 23.954 76.7013 23.9228C76.7354 23.9451 76.8681 24.049 76.7109 23.9271C76.6177 23.8549 76.5267 23.7825 76.4379 23.7053C76.2628 23.553 76.0942 23.3908 75.937 23.2184C75.8995 23.177 75.862 23.1332 75.8245 23.0918C75.8494 23.117 75.9604 23.2629 75.8419 23.1102C75.7713 23.0176 75.7006 22.9249 75.6322 22.8322C75.3158 22.4008 75.0151 21.9518 74.7489 21.4866C74.6816 21.3673 74.6142 21.2456 74.5492 21.1238C74.5178 21.0629 74.4865 21.0019 74.455 20.9386C74.4759 20.9784 74.5294 21.1056 74.442 20.9128C74.3331 20.6681 74.2334 20.4181 74.1498 20.1601C74.1106 20.0369 74.0737 19.9113 74.0438 19.7829C74.0289 19.7211 74.0139 19.6569 74.0014 19.5949C74.0108 19.6402 74.0285 19.8077 74.0063 19.5971C73.9936 19.4846 73.9833 19.3721 73.9778 19.2592C73.9746 19.1944 73.9808 19.1291 73.9776 19.0643C73.9669 18.9445 73.9425 19.2153 73.9799 19.0161C74.0043 18.8897 74.0265 18.7658 74.063 18.6436C74.0041 18.8367 74.1162 18.5735 74.1392 18.5145C74.198 18.3671 74.0295 18.6357 74.1258 18.5297C74.1616 18.4893 74.1948 18.4443 74.2307 18.4064C74.2554 18.381 74.3767 18.2569 74.273 18.356C74.1626 18.4628 74.346 18.3042 74.3574 18.2964C74.419 18.2523 74.693 18.1131 74.4597 18.2165C74.5474 18.1759 74.6354 18.1401 74.7259 18.109C74.8303 18.0723 74.9373 18.0403 75.0469 18.0131C75.0819 18.004 75.2595 17.9684 75.1145 17.9951C74.9554 18.025 75.2225 17.9824 75.227 17.9797C75.6821 17.9202 76.136 17.933 76.5932 17.9649C76.3729 17.9497 76.6146 17.9686 76.7001 17.9786C76.8141 17.992 76.9305 18.0077 77.0446 18.0235C77.2872 18.0592 77.5278 18.1046 77.7689 18.1572C78.2056 18.2526 78.6342 18.375 79.057 18.5217C79.0882 18.5322 79.2612 18.5931 79.1314 18.5468C79.0016 18.5005 79.1747 18.5638 79.2059 18.5742C79.2998 18.6103 79.3938 18.6488 79.4877 18.6873C79.7143 18.7816 79.939 18.8855 80.1591 18.9921C80.5752 19.197 80.9832 19.4263 81.3756 19.6757C81.4731 19.738 81.5731 19.8027 81.6684 19.8676C81.727 19.9079 81.9397 20.0558 81.7708 19.9345C81.974 20.0805 82.1726 20.2291 82.3668 20.3852C82.7331 20.6792 83.0862 20.9932 83.4235 21.3224C83.7509 21.6425 84.0626 21.9778 84.3585 22.3284C84.2107 22.1555 84.4239 22.4093 84.4643 22.4626C84.5373 22.5551 84.6104 22.6476 84.6812 22.7426C84.825 22.9301 84.962 23.1228 85.0968 23.3181C85.364 23.7086 85.6104 24.1099 85.8387 24.5241C86.1108 25.0155 86.8594 25.1624 87.3036 24.8363C87.7934 24.4766 87.9026 23.8694 87.6098 23.343C85.5157 19.5688 81.7367 16.5238 77.4594 15.9085C76.3443 15.7492 75.1437 15.6737 74.0625 16.0566C73.5081 16.2535 72.96 16.5801 72.5818 17.0472C72.0991 17.6447 71.8911 18.3557 71.8652 19.1223C71.8184 20.4195 72.4135 21.7125 73.0527 22.7987C73.6325 23.7821 74.3256 24.7668 75.2222 25.4716C76.1261 26.1832 77.3465 26.8016 78.4967 26.3357C79.5498 25.911 80.097 24.8505 79.8624 23.7339C79.6864 22.8958 79.0914 22.1779 78.5189 21.5816C77.8494 20.8845 77.0745 20.2986 76.2871 19.747C75.4972 19.1932 74.6776 18.7083 73.7755 18.3672C72.5318 17.8992 71.2455 17.6645 69.9197 17.6364C67.5849 17.5879 64.7995 18.2124 63.7027 20.5718C62.6273 22.8844 63.2111 25.8121 64.2346 28.0337C65.332 30.4151 67.0124 32.4104 68.9214 34.1606C69.3716 34.5754 69.8352 34.9752 70.3031 35.3674C70.7292 35.7258 71.4222 35.7527 71.7983 35.2906C72.15 34.8586 72.1787 34.1496 71.723 33.7663L71.721 33.7736Z" fill="#99D651"/>
<path d="M69.6143 31.0181C69.6143 31.0181 74.1459 27.2259 78.5119 32.0217C81.213 34.9897 82.0664 41.1259 78.3667 46.1291C78.1321 46.4444 77.5277 47.0169 77.0636 46.9879C76.1378 46.9319 75.7095 44.1431 75.7095 44.1431C75.7095 44.1431 71.5088 51.7615 66.9986 51.5457C62.8055 51.3448 61.3931 41.4976 61.3931 41.4976C61.3931 41.4976 60.0348 43.1028 59.1054 42.7342C57.6751 42.1675 56.0851 35.6505 59.6742 31.1799C63.0877 26.9278 67.1874 27.9613 69.6143 31.0181Z" fill="#99D651"/>
<path d="M68.7385 34.6304C68.313 36.1467 67.9547 37.6837 67.7487 39.2465C67.6936 39.6608 67.6504 40.077 67.6145 40.4952L67.6365 40.2245C67.5146 41.7228 67.5301 43.2285 67.6091 44.731C67.6351 45.2567 67.2057 45.7865 66.67 45.79C66.1342 45.7935 65.6615 45.399 65.6311 44.8326C65.5574 43.4382 65.5378 42.0386 65.6342 40.6451C65.7293 39.2756 65.9148 37.9184 66.205 36.5775C66.3777 35.7745 66.5817 34.9819 66.8046 34.1907C66.8747 33.9368 67.0076 33.7134 67.2293 33.5648C67.4349 33.4267 67.7431 33.3579 67.9849 33.4249C68.2266 33.4919 68.4649 33.6313 68.5988 33.8578C68.7328 34.0844 68.8106 34.3692 68.7361 34.6281L68.7385 34.6304Z" fill="#80B45D"/>
<path d="M74.1832 34.777C73.9815 34.7079 73.7741 34.668 73.563 34.6476L73.8285 34.67C73.4634 34.6383 73.099 34.669 72.7386 34.7333L73.0006 34.6837C72.5001 34.7792 72.0173 34.946 71.5559 35.1622C71.339 35.2648 70.9939 35.208 70.7903 35.1005C70.5867 34.9931 70.3721 34.7586 70.306 34.5214C70.2368 34.2674 70.2342 33.9763 70.3666 33.7409L70.5119 33.5289C70.6282 33.3978 70.7699 33.3039 70.9347 33.2473C71.5369 32.9636 72.1701 32.7843 72.8263 32.688C73.0935 32.6478 73.3641 32.6315 73.6317 32.6466C73.9656 32.668 74.2953 32.6991 74.6145 32.8055C74.8666 32.8912 75.0775 33.0031 75.2284 33.2384C75.3639 33.448 75.4314 33.7622 75.3657 34.0087C75.3001 34.2575 75.1632 34.498 74.941 34.6345C74.7256 34.7659 74.4327 34.858 74.1854 34.7744L74.1832 34.777Z" fill="#80B45D"/>
<path d="M73.877 38.3828L73.8586 38.3453L73.9694 38.5802C73.693 38.0024 73.3407 37.467 72.9316 36.9754L73.0971 37.1715C72.593 36.5717 72.0121 36.0432 71.376 35.5922L71.5839 35.7403C71.3026 35.5406 71.0102 35.3559 70.7047 35.1935C70.484 35.0749 70.2985 34.8558 70.2204 34.6143C70.1424 34.3729 70.1573 34.0544 70.281 33.8339C70.5481 33.3629 71.1249 33.1408 71.6147 33.402C72.9168 34.0979 74.0724 35.1239 74.9441 36.3305C75.2659 36.7761 75.5185 37.2516 75.7532 37.7497C75.8561 37.9683 75.7959 38.3275 75.6926 38.5302C75.5829 38.7452 75.3572 38.9565 75.1245 39.0238C74.8754 39.0944 74.5899 39.097 74.3589 38.9621L74.1509 38.8139C74.0223 38.6954 73.9302 38.5509 73.8747 38.3829L73.877 38.3828Z" fill="#80B45D"/>
<path d="M66.9465 34.9647C66.8421 34.7631 66.7172 34.5746 66.574 34.4015L66.7395 34.5975C66.5138 34.3299 66.2522 34.1003 65.9684 33.8983L66.1764 34.0465C65.7289 33.7325 65.2354 33.4932 64.7256 33.3028L64.966 33.3915C64.7064 33.2966 64.4426 33.2139 64.1772 33.1457C63.931 33.0837 63.7039 32.9317 63.5632 32.7128C63.4226 32.4938 63.3603 32.1889 63.426 31.9425C63.5633 31.4252 64.0684 31.0407 64.6063 31.1767C65.7729 31.4729 66.9816 31.998 67.8508 32.8654C68.1438 33.1584 68.4128 33.4887 68.6035 33.8616C68.729 34.1078 68.8025 34.3519 68.7408 34.6318C68.6887 34.868 68.5247 35.1315 68.3161 35.2577C68.0937 35.3919 67.819 35.4686 67.5605 35.3976C67.3259 35.3327 67.0641 35.1945 66.9465 34.9647Z" fill="#80B45D"/>
<path d="M66.8566 34.6333C66.7394 34.6513 66.6223 34.6694 66.5077 34.6921L66.7697 34.6426C65.9607 34.7996 65.1712 35.0664 64.429 35.4295L64.6595 35.3165C64.1065 35.5904 63.5772 35.916 63.1063 36.3229L63.2986 36.1542C63.2353 36.2104 63.1721 36.269 63.1089 36.3276C62.9127 36.5133 62.6997 36.6446 62.4242 36.6588C62.1816 36.6712 61.8865 36.5757 61.7102 36.3994C61.5339 36.2232 61.3868 35.9708 61.3853 35.7014C61.3845 35.4463 61.4503 35.1542 61.6397 34.9736C62.7084 33.956 64.0695 33.2676 65.4787 32.8823C65.8979 32.7669 66.3281 32.6822 66.7593 32.6192C66.9961 32.5854 67.3002 32.7189 67.4733 32.8785C67.6464 33.0381 67.7975 33.3239 67.7982 33.5765C67.7994 33.8388 67.7279 34.112 67.5438 34.3044C67.3507 34.5044 67.1333 34.595 66.8591 34.6356L66.8566 34.6333Z" fill="#80B45D"/>
<ellipse cx="31.0633" cy="16.6111" rx="7.75173" ry="7.75174" fill="#E3DDFF"/>
<ellipse cx="19.2509" cy="26.9472" rx="3.32217" ry="3.32217" fill="#E3DDFF"/>
</svg>
