<svg width="24" height="24" viewBox="0 0 24 24" fill="none" xmlns="http://www.w3.org/2000/svg">
<path fill-rule="evenodd" clip-rule="evenodd" d="M14.7714 4.60039C15.0179 4.60839 15.2516 4.71193 15.4231 4.88912C15.5947 5.06632 15.6906 5.30327 15.6906 5.54989C15.6906 5.79651 15.5947 6.03346 15.4231 6.21066C15.2516 6.38785 15.0179 6.49139 14.7714 6.49939C14.5249 6.49139 14.2912 6.38785 14.1196 6.21066C13.9481 6.03346 13.8522 5.79651 13.8522 5.54989C13.8522 5.30327 13.9481 5.06632 14.1196 4.88912C14.2912 4.71193 14.5249 4.60839 14.7714 4.60039ZM3.50039 6.64939H11.8304C12.0536 7.24989 12.4548 7.76795 12.9803 8.13429C13.5059 8.50062 14.1308 8.69778 14.7714 8.69939C15.4119 8.69758 16.0365 8.50032 16.5619 8.134C17.0872 7.76768 17.4883 7.24973 17.7114 6.64939H20.5004C20.7921 6.64939 21.0719 6.5335 21.2782 6.32721C21.4845 6.12092 21.6004 5.84113 21.6004 5.54939C21.6004 5.25765 21.4845 4.97786 21.2782 4.77157C21.0719 4.56528 20.7921 4.44939 20.5004 4.44939H17.7114C17.4881 3.84923 17.087 3.3315 16.5616 2.96537C16.0363 2.59923 15.4117 2.40213 14.7714 2.40039C14.1309 2.40221 13.5063 2.59933 12.9808 2.96544C12.4553 3.33155 12.054 3.84923 11.8304 4.44939H3.50039C3.20865 4.44939 2.92886 4.56528 2.72257 4.77157C2.51628 4.97786 2.40039 5.25765 2.40039 5.54939C2.40039 5.84113 2.51628 6.12092 2.72257 6.32721C2.92886 6.5335 3.20865 6.64939 3.50039 6.64939ZM20.5004 10.8994H3.50039C3.20865 10.8994 2.92886 11.0153 2.72257 11.2216C2.51628 11.4279 2.40039 11.7077 2.40039 11.9994C2.40039 12.2911 2.51628 12.5709 2.72257 12.7772C2.92886 12.9835 3.20865 13.0994 3.50039 13.0994H20.5004C20.7921 13.0994 21.0719 12.9835 21.2782 12.7772C21.4845 12.5709 21.6004 12.2911 21.6004 11.9994C21.6004 11.7077 21.4845 11.4279 21.2782 11.2216C21.0719 11.0153 20.7921 10.8994 20.5004 10.8994ZM9.22939 19.4004C8.98524 19.3892 8.7548 19.2843 8.58598 19.1076C8.41717 18.9308 8.32297 18.6958 8.32297 18.4514C8.32297 18.207 8.41717 17.972 8.58598 17.7952C8.7548 17.6185 8.98524 17.5136 9.22939 17.5024C9.47588 17.5104 9.7096 17.6139 9.88113 17.7911C10.0527 17.9683 10.1486 18.2053 10.1486 18.4519C10.1486 18.6985 10.0527 18.9355 9.88113 19.1127C9.7096 19.2899 9.47588 19.3934 9.22939 19.4014M20.5004 17.3504H12.1704C11.9472 16.7499 11.546 16.2318 11.0205 15.8655C10.4949 15.4992 9.87002 15.302 9.22939 15.3004C8.58893 15.3022 7.96427 15.4995 7.43891 15.8658C6.91355 16.2321 6.51251 16.75 6.28939 17.3504H3.50039C3.20865 17.3504 2.92886 17.4663 2.72257 17.6726C2.51628 17.8789 2.40039 18.1587 2.40039 18.4504C2.40039 18.7421 2.51628 19.0219 2.72257 19.2282C2.92886 19.4345 3.20865 19.5504 3.50039 19.5504H6.28939C6.51251 20.1507 6.91355 20.6687 7.43891 21.035C7.96427 21.4013 8.58893 21.5986 9.22939 21.6004C9.86996 21.5985 10.4947 21.4012 11.0202 21.0349C11.5457 20.6686 11.947 20.1507 12.1704 19.5504H20.5004C20.7921 19.5504 21.0719 19.4345 21.2782 19.2282C21.4845 19.0219 21.6004 18.7421 21.6004 18.4504C21.6004 18.1587 21.4845 17.8789 21.2782 17.6726C21.0719 17.4663 20.7921 17.3504 20.5004 17.3504Z" fill="#343337"/>
</svg>
