<svg width="14" height="15" viewBox="0 0 14 15" fill="none" xmlns="http://www.w3.org/2000/svg">
<path fill-rule="evenodd" clip-rule="evenodd" d="M11.6945 9.9751L3.85329 9.9751L5.30812 8.52027C5.41969 8.3982 5.47987 8.23779 5.47613 8.07246C5.47239 7.90712 5.40501 7.7496 5.28803 7.6327C5.17106 7.5158 5.0135 7.44853 4.84816 7.44489C4.68282 7.44126 4.52246 7.50154 4.40045 7.61319L1.85071 10.1635C1.7906 10.2228 1.74287 10.2935 1.7103 10.3714C1.67772 10.4493 1.66095 10.5329 1.66095 10.6174C1.66095 10.7018 1.67772 10.7854 1.7103 10.8633C1.74287 10.9412 1.7906 11.0119 1.85071 11.0712L4.40045 13.6204C4.45973 13.6812 4.5305 13.7298 4.60867 13.7631C4.68684 13.7964 4.77086 13.8139 4.85583 13.8144C4.9408 13.815 5.02505 13.7987 5.10367 13.7665C5.1823 13.7343 5.25373 13.6867 5.31384 13.6267C5.37395 13.5666 5.42152 13.4952 5.45381 13.4166C5.48609 13.338 5.50245 13.2537 5.50191 13.1688C5.50138 13.0838 5.48398 12.9998 5.45071 12.9216C5.41744 12.8434 5.36897 12.7726 5.30812 12.7133L3.85329 11.2584L11.6945 11.2584C11.8646 11.2584 12.0278 11.1908 12.1482 11.0705C12.2685 10.9502 12.3361 10.7869 12.3361 10.6168C12.3361 10.4466 12.2685 10.2834 12.1482 10.163C12.0278 10.0427 11.8646 9.9751 11.6945 9.9751ZM2.30396 5.02669L10.1451 5.02669L8.69087 6.48152C8.57319 6.60242 8.50786 6.7648 8.50902 6.93352C8.51019 7.10223 8.57776 7.2637 8.6971 7.38296C8.81643 7.50222 8.97794 7.56968 9.14666 7.57074C9.31537 7.5718 9.47771 7.50636 9.59854 7.3886L12.1489 4.83885C12.2088 4.77942 12.2563 4.70872 12.2887 4.63083C12.3212 4.55294 12.3379 4.4694 12.3379 4.38502C12.3379 4.30064 12.3212 4.2171 12.2887 4.13921C12.2563 4.06132 12.2088 3.99062 12.1489 3.93119L9.59854 1.38085C9.53894 1.32125 9.46819 1.27398 9.39032 1.24172C9.31245 1.20947 9.22899 1.19287 9.1447 1.19287C9.06042 1.19287 8.97696 1.20947 8.89909 1.24172C8.82122 1.27398 8.75047 1.32125 8.69087 1.38085C8.63127 1.44045 8.584 1.5112 8.55174 1.58907C8.51949 1.66694 8.50289 1.7504 8.50289 1.83469C8.50289 1.91897 8.51949 2.00243 8.55174 2.0803C8.584 2.15817 8.63127 2.22892 8.69087 2.28852L10.1457 3.74335L2.30454 3.74335C2.13436 3.74335 1.97115 3.81096 1.85081 3.93129C1.73048 4.05163 1.66287 4.21484 1.66287 4.38502C1.66287 4.5552 1.73048 4.71841 1.85081 4.83875C1.97115 4.95908 2.13436 5.02669 2.30454 5.02669" fill="currentColor"/>
</svg>
