<svg width="20" height="20" viewBox="0 0 20 20" fill="none" xmlns="http://www.w3.org/2000/svg">
<path fill-rule="evenodd" clip-rule="evenodd" d="M2.62639 15.9602C2.23587 16.3507 2.23587 16.9839 2.62639 17.3744C3.01691 17.7649 3.65008 17.7649 4.0406 17.3744L10.0002 11.4149L15.9597 17.3744C16.3502 17.765 16.9834 17.765 17.3739 17.3744C17.7645 16.9839 17.7645 16.3507 17.3739 15.9602L11.4144 10.0007L17.3739 4.04109C17.7645 3.65057 17.7645 3.0174 17.3739 2.62688C16.9834 2.23635 16.3502 2.23635 15.9597 2.62688L10.0002 8.58644L4.0406 2.62688C3.65008 2.23635 3.01691 2.23635 2.62639 2.62688C2.23587 3.0174 2.23587 3.65057 2.62639 4.04109L8.58595 10.0007L2.62639 15.9602Z" fill="#343337"/>
</svg>
