<svg width="16" height="16" viewBox="0 0 16 16" fill="none" xmlns="http://www.w3.org/2000/svg">
<path fill-rule="evenodd" clip-rule="evenodd" d="M2.66634 6.83203C2.66634 4.53084 4.53182 2.66536 6.83301 2.66536C9.13419 2.66536 10.9997 4.53084 10.9997 6.83203C10.9997 9.13322 9.13419 10.9987 6.83301 10.9987C4.53182 10.9987 2.66634 9.13322 2.66634 6.83203ZM6.83301 1.33203C3.79544 1.33203 1.33301 3.79447 1.33301 6.83203C1.33301 9.8696 3.79544 12.332 6.83301 12.332C8.11154 12.332 9.28817 11.8958 10.2222 11.164L13.4606 14.4024C13.7209 14.6627 14.143 14.6627 14.4034 14.4024C14.6637 14.142 14.6637 13.7199 14.4034 13.4596L11.165 10.2212C11.8968 9.2872 12.333 8.11056 12.333 6.83203C12.333 3.79447 9.87057 1.33203 6.83301 1.33203Z" fill="#88888E"/>
</svg>
