<svg width="42" height="42" viewBox="0 0 42 42" fill="none" xmlns="http://www.w3.org/2000/svg">
<circle cx="21" cy="21" r="21" fill="white"/>
<mask id="mask0_11328_192510" style="mask-type:alpha" maskUnits="userSpaceOnUse" x="0" y="0" width="42" height="42">
<circle cx="21" cy="21" r="21" fill="white"/>
</mask>
<g mask="url(#mask0_11328_192510)">
<path d="M28.2397 12.2957C29.7002 11.366 32.1234 10.731 33.8684 11.0028C34.8946 11.1628 35.9385 11.526 36.7716 12.1509C37.8562 12.9662 38.5751 14.2819 38.9408 15.5443C39.1948 16.4257 39.0196 17.3503 38.7656 18.2139C38.1915 20.1697 36.2738 20.599 35.6134 20.8123L35.6058 20.825C35.588 20.8962 36.8072 21.427 36.9545 21.5058C38.2398 22.1865 38.8164 23.36 39.1669 24.4852C39.7409 26.3293 38.8697 28.7525 37.4727 29.9361C36.0477 31.1426 35.273 30.9851 33.5306 31.0613C34.0157 31.4093 34.5618 31.9072 34.9098 32.3288C35.5804 33.1441 35.8547 33.7309 36.1773 34.7494C36.9825 37.3072 35.0648 40.2715 33.081 41.5923C32.0574 42.273 30.4064 42.4076 28.989 42.0266C27.7241 41.6837 27.5345 42.146 26.7954 40.7947C26.9046 41.9733 26.256 41.892 26.0147 43.0502C25.7962 44.1069 24.8767 45.2143 23.975 45.8747C21.6357 47.5791 18.8569 47.2311 16.5048 45.6334C16.1086 45.3642 15.7403 45.0492 15.4177 44.6936C14.1756 43.3195 14.0156 41.6812 13.7362 39.959L13.721 39.8854C12.2477 40.942 10.3478 41.2163 8.61551 40.7947C7.27438 40.467 5.89515 39.2097 5.40493 37.9651C4.86644 36.5986 5.32364 34.7317 5.92563 33.4337C6.21265 32.8139 6.68256 32.2577 7.16262 31.77C7.30486 31.6278 7.83827 31.2772 7.84843 31.0563C7.2439 30.9826 7.66554 31.0461 7.20326 30.9648C6.08311 30.7692 4.92994 30.6168 4.03331 29.8701C3.27131 29.2351 2.75568 28.3206 2.61344 27.358C2.41532 26.0016 2.74298 24.6148 3.34751 23.3981C3.90377 22.2754 4.81564 20.8885 5.99929 20.3628C6.08311 20.3247 6.16693 20.2916 6.25583 20.2612C6.41585 20.2078 6.58096 20.1697 6.7486 20.1494C5.60813 19.8294 4.27716 18.9861 3.82757 17.8761C3.56595 17.2309 3.59389 16.507 3.74629 15.8339C4.12221 14.1778 5.26014 12.7097 6.78924 11.907C7.71126 11.4219 8.76791 11.1857 9.81948 11.206C10.9523 11.2288 12.3265 11.8181 13.2993 12.41" fill="#5A1EFF"/>
<path d="M28.2397 12.2957C29.7002 11.366 32.1234 10.731 33.8684 11.0028C34.8946 11.1628 35.9385 11.526 36.7716 12.1509C37.8562 12.9662 38.5751 14.2819 38.9408 15.5443C39.1948 16.4257 39.0196 17.3503 38.7656 18.2139C38.1915 20.1697 36.2738 20.599 35.6134 20.8123L35.6058 20.825C35.588 20.8962 36.8072 21.427 36.9545 21.5058C38.2398 22.1865 38.8164 23.36 39.1669 24.4852C39.7409 26.3293 38.8697 28.7525 37.4727 29.9361C36.0477 31.1426 35.273 30.9851 33.5306 31.0613C34.0157 31.4093 34.5618 31.9072 34.9098 32.3288C35.5804 33.1441 35.8547 33.7309 36.1773 34.7494C36.9825 37.3072 35.0648 40.2715 33.081 41.5923C32.0574 42.273 30.4064 42.4076 28.989 42.0266C27.7241 41.6837 27.5345 42.146 26.7954 40.7947C26.9046 41.9733 26.256 41.892 26.0147 43.0502C25.7962 44.1069 24.8767 45.2143 23.975 45.8747C21.6357 47.5791 18.8569 47.2311 16.5048 45.6334C16.1086 45.3642 15.7403 45.0492 15.4177 44.6936C14.1756 43.3195 14.0156 41.6812 13.7362 39.959L13.721 39.8854C12.2477 40.942 10.3478 41.2163 8.61551 40.7947C7.27438 40.467 5.89515 39.2097 5.40493 37.9651C4.86644 36.5986 5.32364 34.7317 5.92563 33.4337C6.21265 32.8139 6.68256 32.2577 7.16262 31.77C7.30486 31.6278 7.83827 31.2772 7.84843 31.0563C7.2439 30.9826 7.66554 31.0461 7.20326 30.9648C6.08311 30.7692 4.92994 30.6168 4.03331 29.8701C3.27131 29.2351 2.75568 28.3206 2.61344 27.358C2.41532 26.0016 2.74298 24.6148 3.34751 23.3981C3.90377 22.2754 4.81564 20.8885 5.99929 20.3628C6.08311 20.3247 6.16693 20.2916 6.25583 20.2612C6.41585 20.2078 6.58096 20.1697 6.7486 20.1494C5.60813 19.8294 4.27716 18.9861 3.82757 17.8761C3.56595 17.2309 3.59389 16.507 3.74629 15.8339C4.12221 14.1778 5.26014 12.7097 6.78924 11.907C7.71126 11.4219 8.76791 11.1857 9.81948 11.206C10.9523 11.2288 12.3265 11.8181 13.2993 12.41" stroke="#2E2211" stroke-width="1.0292" stroke-linecap="round" stroke-linejoin="round"/>
<path d="M15.3806 28.2797C15.2384 28.2975 15.1368 28.3254 14.959 28.3966C14.8244 28.4499 14.8142 28.4931 14.7634 28.5515C14.5424 28.8106 14.7456 29.1484 15.3019 29.344C15.8582 29.5396 16.7345 29.5497 17.1561 29.344C17.3187 29.2652 17.4101 29.1636 17.4406 29.0544C17.5016 28.836 17.3009 28.5947 16.8894 28.4321C16.4779 28.2695 15.8607 28.201 15.3806 28.2772" fill="#431DCE"/>
<path d="M15.3284 28.1C15.0998 28.133 14.8128 28.2016 14.6579 28.3845C14.5283 28.5369 14.4445 28.7172 14.508 28.923C14.6553 29.4081 15.3056 29.5834 15.745 29.6469C16.2251 29.7154 16.7889 29.7332 17.2385 29.5199C17.4595 29.4157 17.6551 29.21 17.6373 28.9509C17.6195 28.6918 17.4265 28.5166 17.2258 28.3921C16.6848 28.0594 15.9406 28.006 15.3284 28.1C15.2268 28.1152 15.171 28.2422 15.1964 28.3337C15.2243 28.4429 15.3284 28.481 15.43 28.4658C15.8568 28.4023 16.3216 28.4454 16.7305 28.5826C16.9413 28.6537 17.5052 28.9255 17.1217 29.1516C16.8143 29.3344 16.38 29.3243 16.0371 29.2989C15.6942 29.2735 15.2294 29.2024 14.9627 28.9433C14.8763 28.8595 14.8407 28.7833 14.8992 28.6918C15.0008 28.5369 15.2472 28.4937 15.43 28.4683C15.5316 28.4531 15.5875 28.3235 15.5621 28.2346C15.5342 28.1254 15.43 28.0873 15.3284 28.1025V28.1Z" fill="#431DCE"/>
<path d="M10.6541 21.4555C10.5118 21.4733 10.4102 21.5012 10.2324 21.5723C10.0978 21.6257 10.0877 21.6689 10.0369 21.7273C9.81588 21.9864 10.0191 22.3242 10.5753 22.5198C11.1316 22.7153 12.0079 22.7255 12.4296 22.5198C12.5921 22.441 12.6836 22.3394 12.714 22.2302C12.775 22.0118 12.5743 21.7705 12.1629 21.6079C11.7514 21.4453 11.1341 21.3768 10.6541 21.453" fill="#431DCE"/>
<path d="M10.6019 21.2758C10.3733 21.3088 10.0862 21.3774 9.93131 21.5603C9.80176 21.7127 9.71794 21.893 9.78144 22.0987C9.92877 22.5839 10.579 22.7591 11.0184 22.8226C11.4985 22.8912 12.0624 22.909 12.512 22.6956C12.7329 22.5915 12.9285 22.3858 12.9108 22.1267C12.893 21.8676 12.6999 21.6923 12.4993 21.5679C11.9582 21.2351 11.214 21.1818 10.6019 21.2758C10.5003 21.291 10.4444 21.418 10.4698 21.5095C10.4977 21.6187 10.6019 21.6568 10.7035 21.6415C11.1302 21.578 11.595 21.6212 12.004 21.7584C12.2148 21.8295 12.7787 22.1013 12.3951 22.3273C12.0878 22.5102 11.6534 22.5001 11.3105 22.4747C10.9676 22.4493 10.5028 22.3781 10.2361 22.1191C10.1497 22.0352 10.1142 21.959 10.1726 21.8676C10.2742 21.7127 10.5206 21.6695 10.7035 21.6441C10.8051 21.6288 10.861 21.4993 10.8356 21.4104C10.8076 21.3012 10.7035 21.2631 10.6019 21.2783V21.2758Z" fill="#431DCE"/>
<path d="M15.9037 16.8517C15.0744 17.1089 14.4212 17.8612 13.8854 18.4741C12.8188 19.6927 12.135 21.2598 12.2932 22.8558C12.5611 25.5238 14.9724 27.6149 17.5112 28.521C18.5242 28.8815 19.5984 29.093 20.6803 29.1411C23.2854 29.2565 25.8396 28.2037 27.5313 26.3362C30.1543 23.4351 29.1107 19.1928 26.207 16.8349C26.0845 16.7363 24.6378 15.5249 24.5102 15.4336" fill="white"/>
<path d="M15.9037 16.8517C15.0744 17.1089 14.4212 17.8612 13.8854 18.4741C12.8188 19.6927 12.135 21.2598 12.2932 22.8558C12.5611 25.5238 14.9724 27.6149 17.5112 28.521C18.5242 28.8815 19.5984 29.093 20.6803 29.1411C23.2854 29.2565 25.8396 28.2037 27.5313 26.3362C30.1543 23.4351 29.1107 19.1928 26.207 16.8349C26.0845 16.7363 24.6378 15.5249 24.5102 15.4336" stroke="#2E2211" stroke-width="1.0292" stroke-linecap="round" stroke-linejoin="round"/>
<path d="M28.2728 9.87267C28.509 10.6931 28.4735 11.5084 28.2372 12.2959C27.841 13.609 27.3228 14.8587 26.4745 15.956C26.2916 16.1948 26.0833 16.3929 25.8496 16.5453C25.3721 16.8628 24.9098 16.7764 24.6025 16.2583C24.3612 15.7782 24.3993 15.8341 24.1961 15.3388C24.0614 15.6284 23.5509 16.4615 23.2944 16.8984C22.5857 18.0642 21.7043 19.0625 20.5181 19.7534C19.2278 20.5027 18.133 20.1725 17.2262 19.131C16.4541 18.2446 16.3347 17.1295 16.1188 16.0475C16.035 15.6233 15.9435 15.0873 15.8775 14.6606C15.7708 14.3736 15.3568 14.6098 15.0113 14.8029C14.5414 15.0416 14.1223 15.3744 13.6651 15.636C13.2308 15.8824 13.0149 15.7909 12.8345 15.3185C12.6059 14.719 12.7761 13.6852 13.0682 13.1087C13.9014 11.0766 15.2247 9.1259 17.2974 8.42994C17.9984 8.1861 18.6969 7.92447 19.3853 8.10482C19.9745 8.25976 20.4394 8.6941 20.6045 9.28593L20.6273 9.32657C21.5798 8.8719 22.5628 8.49598 23.6042 8.32072C24.6634 8.14292 25.7328 8.03624 26.7869 8.41978C27.493 8.67632 28.0467 9.04462 28.2601 9.82187" fill="#99D651"/>
<path d="M28.2728 9.87267C28.509 10.6931 28.4735 11.5084 28.2372 12.2959C27.841 13.609 27.3228 14.8587 26.4745 15.956C26.2916 16.1948 26.0833 16.3929 25.8496 16.5453C25.3721 16.8628 24.9098 16.7764 24.6025 16.2583C24.3612 15.7782 24.3993 15.8341 24.1961 15.3388C24.0614 15.6284 23.5509 16.4615 23.2944 16.8984C22.5857 18.0642 21.7043 19.0625 20.5181 19.7534C19.2278 20.5027 18.133 20.1725 17.2262 19.131C16.4541 18.2446 16.3347 17.1295 16.1188 16.0475C16.035 15.6233 15.9435 15.0873 15.8775 14.6606C15.7708 14.3736 15.3568 14.6098 15.0113 14.8029C14.5414 15.0416 14.1223 15.3744 13.6651 15.636C13.2308 15.8824 13.0149 15.7909 12.8345 15.3185C12.6059 14.719 12.7761 13.6852 13.0682 13.1087C13.9014 11.0766 15.2247 9.1259 17.2974 8.42994C17.9984 8.1861 18.6969 7.92447 19.3853 8.10482C19.9745 8.25976 20.4394 8.6941 20.6045 9.28593L20.6273 9.32657C21.5798 8.8719 22.5628 8.49598 23.6042 8.32072C24.6634 8.14292 25.7328 8.03624 26.7869 8.41978C27.493 8.67632 28.0467 9.04462 28.2601 9.82187" stroke="#2E2211" stroke-width="1.0292" stroke-linecap="round" stroke-linejoin="round"/>
<path d="M9.07987 12.7797C8.93763 12.7975 8.83602 12.8254 8.65822 12.8965C8.5236 12.9499 8.51344 12.9931 8.46264 13.0515C8.24166 13.3106 8.44486 13.6484 9.00113 13.844C9.55739 14.0396 10.4337 14.0497 10.8553 13.844C11.0179 13.7652 11.1093 13.6636 11.1398 13.5544C11.2008 13.336 11.0001 13.0947 10.5886 12.9321C10.1772 12.7695 9.55993 12.701 9.07987 12.7772" fill="#431DCE"/>
<path d="M9.02765 12.6C8.79905 12.633 8.51203 12.7016 8.35709 12.8845C8.22755 13.0369 8.14373 13.2172 8.20723 13.423C8.35455 13.9081 9.00479 14.0834 9.44422 14.1469C9.92428 14.2154 10.4882 14.2332 10.9377 14.0199C11.1587 13.9157 11.3543 13.71 11.3365 13.4509C11.3188 13.1918 11.1257 13.0166 10.925 12.8921C10.384 12.5594 9.6398 12.506 9.02765 12.6C8.92605 12.6152 8.87017 12.7422 8.89557 12.8337C8.92351 12.9429 9.02765 12.981 9.12925 12.9658C9.55598 12.9023 10.0208 12.9454 10.4297 13.0826C10.6406 13.1537 11.2045 13.4255 10.8209 13.6516C10.5136 13.8344 10.0792 13.8243 9.73632 13.7989C9.39342 13.7735 8.92859 13.7024 8.66189 13.4433C8.57553 13.3595 8.53997 13.2833 8.59839 13.1918C8.69999 13.0369 8.94637 12.9937 9.12925 12.9683C9.23085 12.9531 9.28673 12.8235 9.26133 12.7346C9.23339 12.6254 9.12925 12.5873 9.02765 12.6025V12.6Z" fill="#431DCE"/>
<path d="M20.1961 37.9008C20.0538 37.9186 19.9522 37.9465 19.7744 38.0176C19.6398 38.071 19.6297 38.1142 19.5789 38.1726C19.3579 38.4317 19.5611 38.7695 20.1173 38.9651C20.6736 39.1607 21.5499 39.1708 21.9716 38.9651C22.1341 38.8863 22.2256 38.7847 22.256 38.6755C22.317 38.4571 22.1163 38.2158 21.7049 38.0532C21.2934 37.8906 20.6761 37.8221 20.1961 37.8983" fill="#431DCE"/>
<path d="M20.1487 37.7211C19.9201 37.7541 19.6331 37.8227 19.4782 38.0056C19.3486 38.158 19.2648 38.3383 19.3283 38.5441C19.4756 39.0292 20.1259 39.2045 20.5653 39.268C21.0454 39.3365 21.6093 39.3543 22.0588 39.141C22.2798 39.0368 22.4754 38.8311 22.4576 38.572C22.4398 38.3129 22.2468 38.1376 22.0461 38.0132C21.5051 37.6804 20.7609 37.6271 20.1487 37.7211C20.0471 37.7363 19.9913 37.8633 20.0167 37.9548C20.0446 38.064 20.1487 38.1021 20.2503 38.0869C20.6771 38.0234 21.1419 38.0665 21.5508 38.2037C21.7617 38.2748 22.3255 38.5466 21.942 38.7727C21.6347 38.9555 21.2003 38.9454 20.8574 38.92C20.5145 38.8946 20.0497 38.8235 19.783 38.5644C19.6966 38.4806 19.6611 38.4044 19.7195 38.3129C19.8211 38.158 20.0675 38.1148 20.2503 38.0894C20.3519 38.0741 20.4078 37.9446 20.3824 37.8557C20.3545 37.7465 20.2503 37.7084 20.1487 37.7236V37.7211Z" fill="#431DCE"/>
<path d="M29.9236 31.3656C29.7814 31.3834 29.6798 31.4114 29.502 31.4825C29.3674 31.5358 29.3572 31.579 29.3064 31.6374C29.0854 31.8965 29.2886 32.2343 29.8449 32.4299C30.4011 32.6255 31.2774 32.6357 31.6991 32.4299C31.8617 32.3512 31.9531 32.2496 31.9836 32.1404C32.0445 31.9219 31.8439 31.6806 31.4324 31.518C31.0209 31.3555 30.4037 31.2869 29.9236 31.3631" fill="#431DCE"/>
<path d="M29.8714 31.1859C29.6428 31.219 29.3558 31.2875 29.2008 31.4704C29.0713 31.6228 28.9875 31.8032 29.051 32.0089C29.1983 32.494 29.8485 32.6693 30.288 32.7328C30.768 32.8014 31.3319 32.8192 31.7815 32.6058C32.0025 32.5017 32.1981 32.2959 32.1803 32.0368C32.1625 31.7778 31.9695 31.6025 31.7688 31.478C31.2278 31.1453 30.4835 31.092 29.8714 31.1859C29.7698 31.2012 29.7139 31.3282 29.7393 31.4196C29.7673 31.5288 29.8714 31.5669 29.973 31.5517C30.3997 31.4882 30.8646 31.5314 31.2735 31.6685C31.4843 31.7397 32.0482 32.0114 31.6647 32.2375C31.3573 32.4204 30.923 32.4102 30.5801 32.3848C30.2372 32.3594 29.7723 32.2883 29.5056 32.0292C29.4193 31.9454 29.3837 31.8692 29.4421 31.7778C29.5437 31.6228 29.7901 31.5796 29.973 31.5542C30.0746 31.539 30.1305 31.4095 30.1051 31.3206C30.0771 31.2113 29.973 31.1732 29.8714 31.1885V31.1859Z" fill="#431DCE"/>
<path d="M33.2967 21.7836C33.1544 21.8014 33.0528 21.8293 32.875 21.9005C32.7404 21.9538 32.7302 21.997 32.6794 22.0554C32.4585 22.3145 32.6617 22.6523 33.2179 22.8479C33.7742 23.0435 34.6505 23.0536 35.0721 22.8479C35.2347 22.7691 35.3261 22.6675 35.3566 22.5583C35.4176 22.3399 35.2169 22.0986 34.8054 21.936C34.394 21.7735 33.7767 21.7049 33.2967 21.7811" fill="#431DCE"/>
<path d="M33.2445 21.6039C33.0158 21.6369 32.7288 21.7055 32.5739 21.8884C32.4443 22.0408 32.3605 22.2211 32.424 22.4269C32.5713 22.912 33.2216 23.0873 33.661 23.1508C34.1411 23.2194 34.705 23.2371 35.1545 23.0238C35.3755 22.9196 35.5711 22.7139 35.5533 22.4548C35.5355 22.1957 35.3425 22.0205 35.1418 21.896C34.6008 21.5633 33.8566 21.5099 33.2445 21.6039C33.1428 21.6191 33.087 21.7461 33.1124 21.8376C33.1403 21.9468 33.2445 21.9849 33.3461 21.9697C33.7728 21.9062 34.2376 21.9493 34.6465 22.0865C34.8574 22.1576 35.4212 22.4294 35.0377 22.6555C34.7304 22.8384 34.296 22.8282 33.9531 22.8028C33.6102 22.7774 33.1454 22.7063 32.8787 22.4472C32.7923 22.3634 32.7568 22.2872 32.8152 22.1957C32.9168 22.0408 33.1632 21.9976 33.3461 21.9722C33.4477 21.957 33.5035 21.8274 33.4781 21.7385C33.4502 21.6293 33.3461 21.5912 33.2445 21.6064V21.6039Z" fill="#431DCE"/>
<path d="M30.4392 13.1977C30.297 13.2155 30.1954 13.2434 30.0176 13.3145C29.883 13.3679 29.8728 13.411 29.822 13.4695C29.601 13.7285 29.8042 14.0664 30.3605 14.2619C30.9168 14.4575 31.7931 14.4677 32.2147 14.2619C32.3773 14.1832 32.4687 14.0816 32.4992 13.9724C32.5602 13.7539 32.3595 13.5126 31.948 13.3501C31.5365 13.1875 30.9193 13.1189 30.4392 13.1951" fill="#431DCE"/>
<path d="M30.387 13.018C30.1584 13.051 29.8714 13.1196 29.7165 13.3024C29.5869 13.4548 29.5031 13.6352 29.5666 13.8409C29.7139 14.3261 30.3642 14.5013 30.8036 14.5648C31.2837 14.6334 31.8475 14.6512 32.2971 14.4378C32.5181 14.3337 32.7137 14.128 32.6959 13.8689C32.6781 13.6098 32.4851 13.4345 32.2844 13.3101C31.7434 12.9773 30.9992 12.924 30.387 13.018C30.2854 13.0332 30.2295 13.1602 30.2549 13.2516C30.2829 13.3609 30.387 13.399 30.4886 13.3837C30.9154 13.3202 31.3802 13.3634 31.7891 13.5006C31.9999 13.5717 32.5638 13.8435 32.1803 14.0695C31.8729 14.2524 31.4386 14.2423 31.0957 14.2169C30.7528 14.1915 30.288 14.1203 30.0213 13.8612C29.9349 13.7774 29.8993 13.7012 29.9578 13.6098C30.0594 13.4548 30.3057 13.4117 30.4886 13.3863C30.5902 13.371 30.6461 13.2415 30.6207 13.1526C30.5928 13.0434 30.4886 13.0053 30.387 13.0205V13.018Z" fill="#431DCE"/>
<path d="M20.1825 11.7129C19.7913 12.4749 19.583 13.2953 19.3849 14.1589C19.2122 14.9362 19.075 15.6677 19.0293 16.5288" stroke="#80B45D" stroke-width="1.71534" stroke-linecap="round" stroke-linejoin="round"/>
<path d="M22.36 11.1621C22.1644 11.1723 21.7478 11.2154 21.4507 11.378C21.1306 11.538 21.1331 11.6066 21.4303 11.82C21.9231 12.173 22.9416 12.5744 23.5208 12.8461" stroke="#80B45D" stroke-width="1.71534" stroke-linecap="round" stroke-linejoin="round"/>
<path d="M18.8084 11.0156C19.0472 11.0334 19.5527 11.0893 19.9388 11.262C20.3528 11.4322 20.3629 11.5008 20.048 11.7065C19.5247 12.0443 18.369 12.4025 17.6553 12.5803" stroke="#80B45D" stroke-width="1.71534" stroke-linecap="round" stroke-linejoin="round"/>
<path d="M23.4968 4.54293C22.6408 4.01715 21.6325 4.12383 20.8019 4.62167C20.3523 4.89091 19.7833 5.65038 20.4107 6.09488C20.5834 6.2168 20.8146 6.20918 20.9822 6.08472" stroke="#2E2211" stroke-width="1.0292" stroke-linecap="round" stroke-linejoin="round"/>
<path d="M18.1608 7.91586C17.9982 6.75254 18.9457 5.259 20.0861 4.8907C20.3833 4.79418 20.7466 4.85006 20.965 5.08628C21.2063 5.35044 21.2215 5.81273 20.9853 6.08705" stroke="#2E2211" stroke-width="1.0292" stroke-linecap="round" stroke-linejoin="round"/>
<path d="M18.6055 21.4016C18.575 21.4016 18.5522 21.4092 18.509 21.4321C18.476 21.4473 18.4683 21.4651 18.448 21.4879C18.3693 21.5845 18.3566 21.7343 18.4328 21.841C18.509 21.9477 18.6741 21.9909 18.7833 21.9248C18.8265 21.8994 18.857 21.8613 18.8798 21.8181C18.923 21.7318 18.9205 21.62 18.8671 21.5337C18.8138 21.4473 18.7071 21.3914 18.6055 21.4016Z" fill="#2E2211"/>
<path d="M18.6048 21.1515C18.5235 21.1566 18.4702 21.1744 18.3965 21.2074C18.361 21.2226 18.3305 21.2455 18.3 21.2709C18.2746 21.2937 18.2543 21.3242 18.234 21.3496L18.2746 21.2988C18.2467 21.3344 18.2136 21.3699 18.1933 21.4131C18.173 21.4563 18.1527 21.4995 18.1425 21.5452C18.1222 21.6392 18.1197 21.7408 18.1476 21.8322C18.2035 22.0075 18.3432 22.1446 18.5235 22.1929C18.7039 22.2412 18.9045 22.1929 19.0265 22.0507C19.0874 21.977 19.1382 21.8906 19.1535 21.7941C19.1611 21.7433 19.1687 21.6951 19.1611 21.6443C19.156 21.6112 19.1535 21.5757 19.1458 21.5452C19.1382 21.5147 19.1204 21.4766 19.1077 21.4461C19.0239 21.2658 18.8055 21.1337 18.6073 21.1515C18.5388 21.1566 18.4778 21.1769 18.427 21.2252C18.3838 21.2683 18.3508 21.342 18.3533 21.4055C18.3559 21.469 18.3787 21.5401 18.427 21.5858C18.4753 21.629 18.5413 21.6671 18.6073 21.6595C18.6277 21.6595 18.648 21.6595 18.6683 21.6595L18.5997 21.6493C18.6226 21.6519 18.6454 21.6595 18.6658 21.6671L18.6048 21.6417C18.6277 21.6519 18.6505 21.6646 18.6708 21.6798L18.62 21.6392C18.6404 21.6544 18.6581 21.6722 18.6734 21.6925L18.6327 21.6417C18.6454 21.6595 18.6556 21.6773 18.6658 21.6976L18.6404 21.6366C18.6505 21.6595 18.6556 21.6824 18.6607 21.7078L18.6505 21.6392C18.6531 21.6671 18.6556 21.6925 18.6505 21.7205L18.6607 21.6519C18.6556 21.6798 18.6505 21.7052 18.6404 21.7306L18.6658 21.6697C18.6556 21.6925 18.6429 21.7128 18.6277 21.7332L18.6683 21.6824C18.6556 21.7001 18.6404 21.7154 18.6226 21.7281L18.6734 21.6874C18.6581 21.6976 18.6454 21.7052 18.6302 21.7128L18.6912 21.6874C18.6734 21.6951 18.6531 21.7001 18.6327 21.7027L18.7013 21.6925C18.6759 21.6951 18.6505 21.6951 18.6251 21.6925L18.6937 21.7027C18.6683 21.6976 18.6429 21.6925 18.62 21.6824L18.681 21.7078C18.6581 21.6976 18.6353 21.6849 18.615 21.6697L18.6658 21.7103C18.648 21.6951 18.6302 21.6798 18.6175 21.662L18.6581 21.7128C18.6429 21.6951 18.6327 21.6747 18.6226 21.6519L18.648 21.7128C18.6404 21.69 18.6327 21.6697 18.6302 21.6468L18.6404 21.7154C18.6378 21.6874 18.6378 21.6595 18.6404 21.6316L18.6302 21.7001C18.6353 21.6747 18.6404 21.6493 18.6505 21.6265L18.6251 21.6874C18.6353 21.6646 18.648 21.6417 18.6632 21.6214L18.6226 21.6722C18.6429 21.6468 18.6607 21.6239 18.6785 21.5985L18.6378 21.6493C18.6378 21.6493 18.6531 21.629 18.6658 21.6214L18.615 21.662C18.6302 21.6519 18.6454 21.6443 18.6607 21.6366L18.5997 21.662C18.6175 21.6544 18.6353 21.6493 18.6531 21.6468L18.5845 21.657C18.5845 21.657 18.5972 21.657 18.6023 21.657C18.6708 21.6519 18.7318 21.6316 18.7826 21.5833C18.8258 21.5401 18.8588 21.4665 18.8563 21.403C18.8537 21.3395 18.8309 21.2683 18.7826 21.2226C18.7343 21.1769 18.6708 21.1439 18.6023 21.149L18.6048 21.1515Z" fill="#2E2211"/>
<path d="M20.96 22.6348C20.4139 23.2139 19.6595 23.3358 18.8848 23.4171" stroke="#2E2211" stroke-width="1.0292" stroke-linecap="round" stroke-linejoin="round"/>
<path d="M22.949 23.4171C22.2099 23.3688 21.5748 23.2164 20.9424 22.7109" stroke="#2E2211" stroke-width="1.0292" stroke-linecap="round" stroke-linejoin="round"/>
<path d="M21.1595 22.3089C21.1595 22.3089 21.1366 22.2911 21.1036 22.2784C21.0807 22.2683 21.063 22.2683 21.0376 22.2657C20.9309 22.253 20.8064 22.2708 20.7429 22.314C20.6794 22.3572 20.6972 22.4207 20.7861 22.4486C20.8217 22.4588 20.8623 22.4639 20.9055 22.4664C20.9918 22.4664 21.0807 22.4512 21.1341 22.4181C21.1874 22.3851 21.2001 22.3394 21.1569 22.3064" fill="#2E2211"/>
<path d="M21.2963 22.1749C21.276 22.1546 21.2531 22.1368 21.2277 22.1266C21.1922 22.1114 21.1566 22.0936 21.1185 22.0885C21.0576 22.0784 20.9966 22.0708 20.9331 22.0758C20.8137 22.0835 20.6766 22.1089 20.5927 22.2003C20.5623 22.2333 20.5394 22.2714 20.5267 22.3146C20.5115 22.3756 20.5216 22.4365 20.547 22.4924C20.5826 22.5661 20.6562 22.6092 20.7324 22.6372C20.7909 22.6575 20.8594 22.6651 20.9229 22.6626C20.9864 22.66 21.0525 22.655 21.116 22.6372C21.1541 22.627 21.1896 22.6118 21.2252 22.594C21.2709 22.5686 21.3065 22.533 21.337 22.4924C21.3649 22.4543 21.3801 22.3984 21.3776 22.3502C21.3725 22.2841 21.3471 22.2206 21.2963 22.1774C21.2582 22.1444 21.215 22.1216 21.1617 22.1216C21.116 22.1216 21.0601 22.1419 21.0271 22.1774C20.9941 22.213 20.9687 22.2613 20.9712 22.3121C20.9737 22.3629 20.989 22.4137 21.0271 22.4467C21.0322 22.4518 21.0347 22.4543 21.0398 22.4594L21.0093 22.4213C21.0093 22.4213 21.0144 22.4289 21.0169 22.434L20.9966 22.3883C20.9966 22.3883 20.9991 22.3959 21.0017 22.401L20.9941 22.3502C20.9941 22.3502 20.9941 22.3578 20.9941 22.3629L21.0017 22.3121C21.0017 22.3121 21.0017 22.3222 20.9991 22.3248L21.0195 22.279C21.0195 22.279 21.0118 22.2917 21.0093 22.2968L21.0398 22.2587C21.0398 22.2587 21.0296 22.2714 21.022 22.2765L21.0601 22.246C21.0449 22.2562 21.0296 22.2663 21.0118 22.274L21.0576 22.2536C21.022 22.2689 20.9839 22.2765 20.9483 22.2816L20.9991 22.274C20.9483 22.279 20.8975 22.279 20.8493 22.274L20.9001 22.2816C20.8747 22.2765 20.8493 22.2714 20.8239 22.2613L20.8696 22.2816C20.8696 22.2816 20.8493 22.2714 20.8391 22.2638L20.8772 22.2943C20.8772 22.2943 20.8645 22.2841 20.8594 22.2765L20.8899 22.3146C20.8899 22.3146 20.8823 22.3019 20.8798 22.2968L20.9001 22.3425C20.9001 22.3425 20.9001 22.3349 20.8975 22.3324L20.9052 22.3832C20.9052 22.3832 20.9052 22.373 20.9052 22.3679L20.8975 22.4187C20.8975 22.4187 20.8975 22.4111 20.9001 22.4086L20.8798 22.4543C20.8798 22.4543 20.8874 22.4416 20.8899 22.4365L20.8594 22.4746C20.8594 22.4746 20.8721 22.4619 20.8772 22.4568L20.8391 22.4873C20.8391 22.4873 20.8645 22.4721 20.8798 22.4645L20.834 22.4848C20.8696 22.4695 20.9077 22.4619 20.9458 22.4568L20.895 22.4645C20.9534 22.4568 21.0093 22.4594 21.0677 22.4645L21.0169 22.4568C21.0372 22.4594 21.055 22.467 21.0753 22.4746L21.0296 22.4543C21.0296 22.4543 21.0525 22.4645 21.0601 22.4721L21.022 22.4416C21.022 22.4416 21.0245 22.4441 21.0271 22.4467C21.0652 22.4797 21.1109 22.5026 21.1617 22.5026C21.2074 22.5026 21.2633 22.4822 21.2963 22.4467C21.3293 22.4111 21.3547 22.3629 21.3522 22.3121C21.3497 22.2613 21.3344 22.2105 21.2963 22.1774V22.1749Z" fill="#2E2211"/>
<path d="M22.8653 21.3547C22.8348 21.3547 22.8119 21.3623 22.7688 21.3852C22.7357 21.4004 22.7281 21.4182 22.7078 21.4411C22.6291 21.5376 22.6164 21.6874 22.6926 21.7941C22.7688 21.9008 22.9339 21.944 23.0431 21.8779C23.0863 21.8525 23.1167 21.8144 23.1396 21.7713C23.1828 21.6849 23.1802 21.5731 23.1269 21.4868C23.0736 21.4004 22.9669 21.3445 22.8653 21.3547Z" fill="#2E2211"/>
<path d="M22.8646 21.1046C22.7833 21.1097 22.73 21.1275 22.6563 21.1605C22.6207 21.1757 22.5903 21.1986 22.5598 21.224C22.5344 21.2469 22.514 21.2773 22.4937 21.3027L22.5344 21.2519C22.5064 21.2875 22.4734 21.3231 22.4531 21.3662C22.4328 21.4094 22.4124 21.4526 22.4023 21.4983C22.382 21.5923 22.3794 21.6939 22.4074 21.7853C22.4633 21.9606 22.603 22.0978 22.7833 22.146C22.9636 22.1943 23.1643 22.146 23.2862 22.0038C23.3472 21.9301 23.398 21.8438 23.4132 21.7472C23.4208 21.6964 23.4285 21.6482 23.4208 21.5974C23.4158 21.5644 23.4132 21.5288 23.4056 21.4983C23.398 21.4678 23.3802 21.4297 23.3675 21.3993C23.2837 21.2189 23.0652 21.0868 22.8671 21.1046C22.7985 21.1097 22.7376 21.13 22.6868 21.1783C22.6436 21.2215 22.6106 21.2951 22.6131 21.3586C22.6157 21.4221 22.6385 21.4932 22.6868 21.539C22.735 21.5821 22.8011 21.6202 22.8671 21.6126C22.8874 21.6126 22.9078 21.6126 22.9281 21.6126L22.8595 21.6025C22.8824 21.605 22.9052 21.6126 22.9255 21.6202L22.8646 21.5948C22.8874 21.605 22.9103 21.6177 22.9306 21.6329L22.8798 21.5923C22.9001 21.6075 22.9179 21.6253 22.9332 21.6456L22.8925 21.5948C22.9052 21.6126 22.9154 21.6304 22.9255 21.6507L22.9001 21.5898C22.9103 21.6126 22.9154 21.6355 22.9205 21.6609L22.9103 21.5923C22.9128 21.6202 22.9154 21.6456 22.9103 21.6736L22.9205 21.605C22.9154 21.6329 22.9103 21.6583 22.9001 21.6837L22.9255 21.6228C22.9154 21.6456 22.9027 21.666 22.8874 21.6863L22.9281 21.6355C22.9154 21.6533 22.9001 21.6685 22.8824 21.6812L22.9332 21.6406C22.9179 21.6507 22.9052 21.6583 22.89 21.666L22.9509 21.6406C22.9332 21.6482 22.9128 21.6533 22.8925 21.6558L22.9611 21.6456C22.9357 21.6482 22.9103 21.6482 22.8849 21.6456L22.9535 21.6558C22.9281 21.6507 22.9027 21.6456 22.8798 21.6355L22.9408 21.6609C22.9179 21.6507 22.8951 21.638 22.8747 21.6228L22.9255 21.6634C22.9078 21.6482 22.89 21.6329 22.8773 21.6152L22.9179 21.666C22.9027 21.6482 22.8925 21.6279 22.8824 21.605L22.9078 21.666C22.9001 21.6431 22.8925 21.6228 22.89 21.5999L22.9001 21.6685C22.8976 21.6406 22.8976 21.6126 22.9001 21.5847L22.89 21.6533C22.8951 21.6279 22.9001 21.6025 22.9103 21.5796L22.8849 21.6406C22.8951 21.6177 22.9078 21.5948 22.923 21.5745L22.8824 21.6253C22.9027 21.5999 22.9205 21.5771 22.9382 21.5517L22.8976 21.6025C22.8976 21.6025 22.9128 21.5821 22.9255 21.5745L22.8747 21.6152C22.89 21.605 22.9052 21.5974 22.9205 21.5898L22.8595 21.6152C22.8773 21.6075 22.8951 21.6025 22.9128 21.5999L22.8443 21.6101C22.8443 21.6101 22.857 21.6101 22.862 21.6101C22.9306 21.605 22.9916 21.5847 23.0424 21.5364C23.0856 21.4932 23.1186 21.4196 23.116 21.3561C23.1135 21.2926 23.0906 21.2215 23.0424 21.1757C22.9941 21.13 22.9306 21.097 22.862 21.1021L22.8646 21.1046Z" fill="#2E2211"/>
<path d="M17.177 22.7833C17.177 22.7833 17.1643 22.7883 17.1592 22.7909C17.1516 22.7934 17.1465 22.7985 17.1415 22.801C17.1288 22.8087 17.1161 22.8163 17.1059 22.8239C17.083 22.8417 17.0627 22.862 17.0449 22.8849C17.0348 22.9001 17.0246 22.9153 17.017 22.9331C17.0094 22.9509 17.0068 22.9661 16.9992 22.9839C16.9891 23.0119 16.984 23.0398 16.9814 23.0703C16.9814 23.0855 16.9814 23.1008 16.9814 23.1185C16.9814 23.1846 16.9967 23.2481 17.0272 23.3065C17.0526 23.3548 17.0907 23.4005 17.1338 23.4335C17.2278 23.5046 17.3548 23.5275 17.4691 23.497C17.5352 23.4792 17.5936 23.4437 17.6368 23.3903C17.6825 23.337 17.7079 23.2684 17.713 23.1973C17.7231 23.0754 17.6774 22.9509 17.5885 22.8671C17.5402 22.8214 17.4818 22.7909 17.4183 22.7731C17.3548 22.7553 17.2862 22.7553 17.2227 22.7731C17.205 22.7782 17.1897 22.7833 17.1745 22.7883" fill="#F9AE85"/>
<path d="M17.1096 22.5443C16.9826 22.5824 16.8607 22.684 16.8023 22.8009C16.7464 22.9101 16.7185 23.0371 16.7286 23.1616C16.7489 23.4308 16.9267 23.6619 17.1884 23.7407C17.45 23.8194 17.7218 23.7204 17.8742 23.5019C18.0113 23.3038 17.9986 23.0092 17.8691 22.811C17.7853 22.6815 17.6684 22.5951 17.5236 22.5418C17.3966 22.4961 17.2341 22.4961 17.1096 22.5443C17.0461 22.5697 16.9928 22.6002 16.9572 22.6612C16.9242 22.7145 16.9115 22.7958 16.9318 22.8568C16.9521 22.9177 16.9902 22.9787 17.0487 23.0092C17.1071 23.0396 17.1833 23.06 17.2442 23.0346C17.2722 23.0219 17.3027 23.0168 17.3331 23.0117L17.2646 23.0219C17.3001 23.0168 17.3357 23.0168 17.3687 23.0219L17.3001 23.0117C17.3382 23.0168 17.3738 23.0269 17.4093 23.0422L17.3484 23.0168C17.3789 23.0295 17.4068 23.0473 17.4322 23.0676L17.3814 23.0269C17.4068 23.0473 17.4271 23.0676 17.4474 23.093L17.4068 23.0422C17.4271 23.0701 17.4449 23.0981 17.4601 23.1311L17.4347 23.0701C17.45 23.1057 17.4601 23.1412 17.4652 23.1793L17.4551 23.1108C17.4601 23.1463 17.4601 23.1793 17.4551 23.2149L17.4652 23.1463C17.4601 23.1793 17.4525 23.2098 17.4398 23.2428L17.4652 23.1819C17.4525 23.2098 17.4398 23.2327 17.422 23.2555L17.4627 23.2047C17.4449 23.2276 17.4246 23.2454 17.4043 23.2632L17.4551 23.2225C17.4322 23.2378 17.4093 23.253 17.3839 23.2632L17.4449 23.2378C17.4144 23.2505 17.3865 23.2581 17.3535 23.2632L17.422 23.253C17.3865 23.2581 17.3509 23.2581 17.3154 23.253L17.3839 23.2632C17.3484 23.2581 17.3154 23.2505 17.2823 23.2352L17.3433 23.2606C17.3154 23.2479 17.2874 23.2327 17.262 23.2149L17.3128 23.2555C17.2849 23.2327 17.2595 23.2073 17.2366 23.1793L17.2773 23.2301C17.2569 23.2022 17.2417 23.1743 17.229 23.1438L17.2544 23.2047C17.2417 23.1717 17.2315 23.1387 17.2265 23.1057L17.2366 23.1743C17.2315 23.1362 17.2315 23.0981 17.2366 23.0625L17.2265 23.1311C17.2315 23.0879 17.2442 23.0473 17.262 23.0092L17.2366 23.0701C17.2468 23.0498 17.2569 23.032 17.2722 23.0142L17.2315 23.065C17.2442 23.0498 17.2595 23.0346 17.2747 23.0219L17.2239 23.0625C17.2468 23.0447 17.2722 23.0295 17.2976 23.0168L17.2366 23.0422H17.2468C17.3738 23.0015 17.4678 22.8593 17.4246 22.7272C17.3814 22.5951 17.2493 22.5088 17.1122 22.5494L17.1096 22.5443Z" fill="#F9AE85"/>
<path d="M24.6311 22.7969C24.6311 22.7969 24.6438 22.802 24.6489 22.8046C24.6565 22.8071 24.6616 22.8122 24.6666 22.8147C24.6793 22.8223 24.692 22.83 24.7022 22.8376C24.7251 22.8554 24.7454 22.8757 24.7632 22.8985C24.7733 22.9138 24.7835 22.929 24.7911 22.9468C24.7987 22.9646 24.8013 22.9798 24.8089 22.9976C24.8191 23.0255 24.8241 23.0535 24.8267 23.084C24.8267 23.0992 24.8267 23.1144 24.8267 23.1322C24.8267 23.1983 24.8114 23.2618 24.781 23.3202C24.7556 23.3684 24.7174 23.4142 24.6743 23.4472C24.5803 23.5183 24.4533 23.5412 24.339 23.5107C24.2729 23.4929 24.2145 23.4573 24.1713 23.404C24.1256 23.3507 24.1002 23.2821 24.0951 23.211C24.085 23.089 24.1307 22.9646 24.2196 22.8808C24.2679 22.835 24.3263 22.8046 24.3898 22.7868C24.4533 22.769 24.5219 22.769 24.5854 22.7868C24.6031 22.7919 24.6184 22.7969 24.6336 22.802" fill="#F9AE85"/>
<path d="M24.5648 23.038H24.5749C24.5546 23.0329 24.5343 23.0227 24.514 23.0151C24.5394 23.0303 24.5648 23.043 24.5876 23.0608L24.5368 23.0202C24.5521 23.0329 24.5673 23.0481 24.58 23.0634L24.5394 23.0126C24.5521 23.0303 24.5648 23.0481 24.5749 23.0684L24.5495 23.0075C24.5648 23.0481 24.5775 23.0888 24.5851 23.1294L24.5749 23.0608C24.58 23.0989 24.5775 23.137 24.5749 23.1726L24.5851 23.104C24.58 23.1396 24.5698 23.1726 24.5571 23.2031L24.5825 23.1421C24.5698 23.1726 24.5521 23.2005 24.5343 23.2285L24.5749 23.1777C24.5521 23.2056 24.5267 23.231 24.4987 23.2539L24.5495 23.2132C24.5241 23.231 24.4962 23.2462 24.4682 23.2589L24.5292 23.2335C24.4962 23.2462 24.4632 23.2564 24.4276 23.2615L24.4962 23.2513C24.4606 23.2564 24.4251 23.2539 24.3895 23.2513L24.4581 23.2615C24.4276 23.2564 24.3971 23.2488 24.3666 23.2361L24.4276 23.2615C24.4022 23.2513 24.3793 23.2361 24.3565 23.2208L24.4073 23.2615C24.3844 23.2437 24.3666 23.2259 24.3489 23.2031L24.3895 23.2539C24.3717 23.231 24.359 23.2056 24.3463 23.1802L24.3717 23.2412C24.359 23.2107 24.3514 23.1777 24.3463 23.1446L24.3565 23.2132C24.3539 23.1777 24.3539 23.1446 24.3565 23.1091L24.3463 23.1777C24.3514 23.1396 24.3616 23.104 24.3768 23.0684L24.3514 23.1294C24.3666 23.0989 24.3819 23.0684 24.4047 23.0405L24.3641 23.0913C24.3844 23.0659 24.4047 23.0456 24.4301 23.0253L24.3793 23.0659C24.4047 23.0456 24.4327 23.0303 24.4632 23.0151L24.4022 23.0405C24.4378 23.0253 24.4733 23.0151 24.5114 23.01L24.4428 23.0202C24.4784 23.0151 24.514 23.0176 24.547 23.0202L24.4784 23.01C24.5089 23.0151 24.5368 23.0227 24.5673 23.0329C24.6232 23.0557 24.7121 23.038 24.7629 23.0075C24.8137 22.977 24.867 22.916 24.8797 22.8551C24.895 22.789 24.8924 22.7179 24.8543 22.6595C24.8162 22.6011 24.768 22.568 24.7019 22.5426C24.4708 22.4487 24.1685 22.5325 24.0085 22.7204C23.9348 22.8093 23.8739 22.9135 23.8536 23.0278C23.8282 23.1726 23.8434 23.3047 23.9044 23.4393C23.9526 23.5485 24.0491 23.6425 24.1558 23.6933C24.2854 23.7568 24.4174 23.772 24.5597 23.7492C24.801 23.7111 25.0093 23.5129 25.0651 23.2742C25.0982 23.137 25.088 22.9948 25.0372 22.8652C24.9788 22.7154 24.8569 22.5858 24.6994 22.5376C24.5724 22.4995 24.4174 22.5833 24.387 22.7154C24.3565 22.8475 24.4276 22.9872 24.5648 23.0278V23.038Z" fill="#F9AE85"/>
</g>
</svg>
