<svg width="16" height="16" viewBox="0 0 16 16" fill="none" xmlns="http://www.w3.org/2000/svg">
<path d="M7.99889 12.8474C10.675 12.8474 12.8445 10.678 12.8445 8.00182C12.8445 5.32569 10.675 3.15625 7.99889 3.15625C5.32276 3.15625 3.15332 5.32569 3.15332 8.00182C3.15332 10.678 5.32276 12.8474 7.99889 12.8474Z" stroke="#343337" stroke-width="1.3" stroke-linecap="round" stroke-linejoin="round"/>
<path d="M7.99933 8.53968C8.29668 8.53968 8.53773 8.29864 8.53773 8.00129C8.53773 7.70394 8.29668 7.46289 7.99933 7.46289C7.70199 7.46289 7.46094 7.70394 7.46094 8.00129C7.46094 8.29864 7.70199 8.53968 7.99933 8.53968Z" stroke="#343337" stroke-width="1.14286" stroke-linecap="round" stroke-linejoin="round"/>
<path d="M7.99916 3.15554V1.00195M7.99916 15.0003V12.8467M12.8447 8.00112H14.9983M1 8.00112H3.15359" stroke="#343337" stroke-width="1.3" stroke-linecap="round" stroke-linejoin="round"/>
</svg>
