<svg width="16" height="16" viewBox="0 0 16 16" fill="none" xmlns="http://www.w3.org/2000/svg">
<path d="M1 12.9612V3.64987C1 3.25468 1.23273 2.89656 1.59386 2.73606L5.11433 1.17141C5.36091 1.06182 5.64132 1.05653 5.89186 1.15674L10.1081 2.84326C10.3587 2.94347 10.6391 2.93818 10.8857 2.82859L13.5939 1.62495C14.2551 1.33105 15 1.8151 15 2.53876V11.8501C15 12.2453 14.7673 12.6034 14.4061 12.7639L10.8857 14.3286C10.6391 14.4382 10.3587 14.4435 10.1081 14.3433L5.89186 12.6567C5.64132 12.5565 5.36091 12.5618 5.11433 12.6714L2.40614 13.875C1.74485 14.169 1 13.6849 1 12.9612Z" stroke="#343337" stroke-width="1.5"/>
<path d="M5.5 1V12.5" stroke="#343337" stroke-width="1.5"/>
<path d="M10.5 3V14.5" stroke="#343337" stroke-width="1.5"/>
</svg>
