<svg width="129" height="100" viewBox="0 0 129 100" fill="none" xmlns="http://www.w3.org/2000/svg">
<ellipse opacity="0.25" cx="64.4995" cy="86.3628" rx="64.0903" ry="13.6362" fill="#FFBBF8"/>
<rect x="28.3896" y="32.3887" width="70.4645" height="53.9734" rx="1.18106" fill="#FFBBF8"/>
<path d="M32.1475 13.5767C32.8005 12.568 33.9202 11.959 35.1218 11.959L91.6251 11.959C92.8071 11.959 93.9113 12.5485 94.5691 13.5306L108.3 34.0351C108.826 34.8198 108.263 35.8734 107.319 35.8734H19.8853C18.9492 35.8734 18.3852 34.8363 18.8939 34.0505L32.1475 13.5767Z" fill="#FFBBF8"/>
<rect x="40.1348" y="42.0957" width="9.44845" height="9.44845" rx="1.18106" fill="white"/>
<rect x="51.9453" y="42.0957" width="9.44845" height="9.44845" rx="1.18106" fill="white"/>
<rect x="40.1348" y="53.9062" width="9.44845" height="9.44845" rx="1.18106" fill="white"/>
<rect x="51.9453" y="53.9062" width="9.44845" height="9.44845" rx="1.18106" fill="white"/>
<path d="M74.2969 65.8057C74.2969 63.4472 76.2089 61.5352 78.5675 61.5352C80.926 61.5352 82.838 63.4472 82.838 65.8057V86.3629H74.2969V65.8057Z" fill="white"/>
<path d="M40.1348 0H56.1494V12.369H40.1348V0Z" fill="#FFBBF8"/>
<rect x="39.0664" width="18.1499" height="3.2384" rx="1.6192" fill="#FFBBF8"/>
<path d="M96.0088 39.4203L96.0085 39.4204C86.5934 41.6517 80.0076 50.7028 80.5024 60.4899C80.8818 67.9816 85.4498 74.9446 101.132 89.7161C101.193 89.7739 101.278 89.8088 101.377 89.8077C101.475 89.8067 101.558 89.7704 101.619 89.7108C117.451 74.0493 121.631 67.0059 121.537 59.1923L96.0088 39.4203ZM96.0088 39.4203C109.39 36.2473 121.375 46.2456 121.537 59.1914L96.0088 39.4203Z" fill="#FF6DF0" stroke="white" stroke-width="4.36083"/>
<path d="M106.598 64.9627L106.597 64.9636C105.163 66.4717 103.198 67.351 101.12 67.4147C100.067 67.4469 99.0168 67.2682 98.0303 66.8916C97.0454 66.5104 96.1471 65.9397 95.3809 65.2084C94.6201 64.4781 94.0086 63.5992 93.5889 62.6289C93.1693 61.6587 92.9477 60.61 92.9342 59.5484C92.9207 58.4878 93.1171 57.435 93.5139 56.4531C93.9111 55.4702 94.4966 54.5793 95.2411 53.8263C95.9851 53.0739 96.8712 52.4798 97.8444 52.0775C98.8163 51.6758 99.8668 51.4727 100.921 51.4771C102.996 51.4915 104.987 52.3251 106.462 53.7974C107.937 55.2694 108.775 57.2618 108.802 59.3507C108.829 61.4385 108.036 63.4543 106.598 64.9627Z" fill="white" stroke="#FF6DF0" stroke-width="1.45361"/>
</svg>
