<svg width="59" height="110" viewBox="0 0 59 110" fill="none" xmlns="http://www.w3.org/2000/svg">
<ellipse cx="26.7387" cy="100.055" rx="25.9687" ry="9.94546" fill="#F5F5F5"/>
<path d="M33.4629 26.1606C32.2312 25.0383 31.0347 23.8807 29.9195 22.6454C29.6583 22.356 29.4042 22.0631 29.1501 21.7631C29.016 21.6043 28.8854 21.4455 28.7548 21.2831C28.6913 21.2019 28.6242 21.1208 28.5607 21.0396C28.5325 21.0043 28.3278 20.7361 28.476 20.9302C27.9748 20.2702 27.5019 19.589 27.0678 18.8832C26.6372 18.1844 26.249 17.4609 25.9031 16.7162C25.8608 16.6244 25.8184 16.5292 25.7761 16.4374C25.7726 16.4303 25.6737 16.1974 25.7337 16.3456C25.8043 16.508 25.6808 16.215 25.6667 16.1798C25.6279 16.0845 25.5926 15.9892 25.5537 15.8939C25.3984 15.488 25.2573 15.0751 25.1338 14.6586C25.0243 14.2916 24.9291 13.921 24.8443 13.5504C24.8055 13.3775 24.7702 13.201 24.7349 13.0281C24.7173 12.9293 24.6996 12.8269 24.682 12.7281C24.6855 12.7387 24.6185 12.3011 24.6432 12.4881C24.6679 12.6787 24.6291 12.3611 24.6255 12.3222C24.6149 12.2199 24.6044 12.1211 24.5973 12.0187C24.5832 11.8423 24.5691 11.6623 24.562 11.4858C24.5408 11.0658 24.5373 10.6458 24.5585 10.2258C24.5691 10.0353 24.5938 9.8482 24.6008 9.65762C24.6114 9.47057 24.5902 9.69997 24.5867 9.72468C24.6008 9.62939 24.6149 9.53763 24.6326 9.44234C24.7032 9.04705 24.7985 8.65883 24.9291 8.27767C24.9608 8.18944 24.9926 8.1012 25.0243 8.01297C25.0879 7.84004 25.0138 8.04827 24.9996 8.06944C25.0843 7.90356 25.162 7.73416 25.2573 7.57534C25.3526 7.41652 25.4549 7.2577 25.5643 7.10947C25.522 7.16594 25.3808 7.3177 25.582 7.10242C25.6596 7.02124 25.7337 6.93654 25.8149 6.85889C25.9278 6.74949 26.0443 6.65067 26.1643 6.54832C25.9173 6.76007 26.2949 6.46714 26.3831 6.41067C26.5349 6.31538 26.6902 6.23068 26.8455 6.14951C26.9266 6.10716 27.0078 6.07186 27.0854 6.03304C27.3572 5.90246 26.9619 6.0648 27.1419 6.01187C27.4701 5.91304 27.7842 5.79305 28.116 5.71187C28.2925 5.66952 28.4725 5.6307 28.6525 5.59541C28.7442 5.57776 28.8324 5.56364 28.9242 5.54953C29.0901 5.52129 29.0583 5.53188 28.9101 5.54953C29.6689 5.46482 30.4312 5.42953 31.1971 5.45071C31.5959 5.4613 31.9947 5.486 32.3935 5.52482C32.4923 5.53541 32.5911 5.546 32.69 5.55659C32.7076 5.55659 32.9511 5.58835 32.7747 5.56717C32.5806 5.54247 32.8911 5.58482 32.9335 5.59188C33.057 5.60953 33.1805 5.6307 33.3041 5.65541C34.0876 5.79658 34.8605 5.99775 35.6122 6.25891C35.7993 6.32597 35.9863 6.39656 36.1698 6.46714C36.2157 6.48479 36.4522 6.58361 36.2016 6.47773C36.2934 6.51655 36.3816 6.55891 36.4734 6.59773C36.8333 6.7636 37.1863 6.9436 37.5321 7.14124C38.0615 7.44123 38.5662 7.7871 39.0603 8.14003C39.2721 8.29179 39.4768 8.4506 39.685 8.60236C39.8579 8.72942 39.4521 8.41531 39.6215 8.55295C39.678 8.59883 39.738 8.64472 39.7944 8.68707C39.925 8.78942 40.0556 8.8953 40.1826 9.00117C41.0897 9.74938 41.8838 10.5717 42.6673 11.4434C42.8084 11.5987 42.4873 11.1929 42.6037 11.3623C42.639 11.4152 42.6814 11.4681 42.7202 11.5211C42.7943 11.6234 42.8649 11.7293 42.932 11.8387C42.9884 11.9305 43.0414 12.0222 43.0943 12.114C43.1331 12.1846 43.3131 12.5834 43.2037 12.3116C43.0908 12.0328 43.232 12.4034 43.2496 12.4634C43.2743 12.5481 43.2884 12.6363 43.3131 12.721C43.3802 12.9399 43.2743 12.5375 43.2849 12.5128C43.2708 12.5375 43.3096 12.6293 43.2919 12.654C43.2955 12.6505 43.2814 12.781 43.2884 12.7916C43.2708 12.7599 43.3696 12.3328 43.3096 12.6046C43.299 12.6434 43.2708 12.6963 43.2743 12.7352C43.2814 12.8975 43.4649 12.414 43.359 12.5446C43.3272 12.5799 43.2355 12.714 43.232 12.7528C43.2355 12.5163 43.479 12.4881 43.3378 12.6011C43.3025 12.6293 43.2567 12.6752 43.2284 12.7105C43.0908 12.8622 43.2284 12.5693 43.3555 12.6187C43.3343 12.6116 43.1437 12.7458 43.1261 12.7599C42.9849 12.8728 43.3908 12.7281 43.2178 12.7175C43.1825 12.714 43.1049 12.7458 43.0696 12.7563C42.7802 12.8446 43.179 12.7105 43.1861 12.7422C43.1861 12.7458 43.0025 12.7422 42.9778 12.7422C42.6602 12.7563 43.0978 12.7352 43.0837 12.7634C43.0802 12.7705 42.8543 12.714 42.8684 12.7175C42.7978 12.6999 42.7237 12.6787 42.6531 12.654C42.6002 12.6363 42.3143 12.4987 42.519 12.6081C42.7026 12.7069 42.5261 12.6046 42.4943 12.5869C42.4237 12.5481 42.3496 12.5128 42.279 12.4705C42.1343 12.3893 41.9932 12.2975 41.8555 12.2058C41.7849 12.1564 41.7179 12.1069 41.6473 12.0575C41.6967 12.0928 41.8873 12.2587 41.6614 12.0646C41.5273 11.9517 41.3967 11.8387 41.2661 11.7187C41.012 11.4823 40.7756 11.2282 40.5497 10.9635C40.4968 10.8999 40.4438 10.8329 40.3909 10.7693C40.4262 10.8082 40.5815 11.0305 40.4156 10.7976C40.3168 10.6564 40.2179 10.5152 40.1191 10.3705C39.6744 9.71056 39.2615 9.02941 38.8945 8.32355C38.7992 8.14356 38.7109 7.96003 38.6227 7.77298C38.5803 7.68122 38.538 7.58946 38.4956 7.49417C38.5239 7.55416 38.5945 7.74828 38.478 7.45535C38.3333 7.08477 38.1992 6.71066 38.0968 6.3295C38.0474 6.14245 38.0015 5.9554 37.9662 5.76834C37.9486 5.67658 37.931 5.58129 37.9168 5.48953C37.9274 5.55659 37.9415 5.80364 37.9239 5.49306C37.9133 5.32718 37.9063 5.16131 37.9063 4.99543C37.9063 4.90014 37.9204 4.80485 37.9204 4.70956C37.9133 4.53309 37.8568 4.92837 37.9274 4.63897C37.9733 4.45545 38.0157 4.27545 38.0792 4.09899C37.9768 4.38133 38.1639 4.00017 38.2027 3.91547C38.3015 3.70018 38.0298 4.08487 38.1815 3.93664C38.238 3.88017 38.2909 3.81665 38.3474 3.76018C38.3862 3.72488 38.5768 3.54842 38.4145 3.68959C38.2415 3.83782 38.5274 3.61901 38.5451 3.60842C38.6403 3.54842 39.0639 3.36137 38.7039 3.49901C38.838 3.44607 38.9721 3.40019 39.1097 3.35784C39.2686 3.31196 39.4309 3.27314 39.5968 3.24137C39.6497 3.23078 39.9215 3.19196 39.6991 3.2202C39.4591 3.25196 39.8615 3.20961 39.8685 3.20608C40.5532 3.15314 41.2344 3.20608 41.9155 3.28725C41.5873 3.24843 41.9473 3.29431 42.0743 3.31549C42.2437 3.34372 42.4167 3.37548 42.5861 3.40725C42.9461 3.47783 43.3061 3.56254 43.659 3.65783C44.3049 3.83076 44.9401 4.04252 45.5648 4.28957C45.6107 4.30722 45.8683 4.40957 45.6742 4.33192C45.4836 4.25428 45.7378 4.36016 45.7836 4.38133C45.9213 4.44133 46.0589 4.50486 46.1966 4.56839C46.5283 4.72367 46.8565 4.89308 47.1812 5.06954C47.7918 5.4013 48.3812 5.76834 48.9529 6.16715C49.0976 6.26597 49.2388 6.36832 49.38 6.47067C49.4647 6.5342 49.7717 6.77066 49.5282 6.57655C49.8211 6.80596 50.107 7.04242 50.3894 7.28594C50.9187 7.74475 51.4234 8.23179 51.9034 8.74354C52.3693 9.23764 52.814 9.75644 53.2304 10.2929C53.0222 10.0282 53.3222 10.4164 53.3787 10.4976C53.481 10.6388 53.5834 10.7835 53.6857 10.9246C53.8869 11.2105 54.0775 11.5034 54.2645 11.8034C54.6351 12.3964 54.9739 13.0069 55.288 13.6316C55.6621 14.3763 56.7738 14.6445 57.4621 14.1998C58.2244 13.7092 58.4291 12.8234 58.0303 12.0258C55.1715 6.31891 49.7329 1.5579 43.3696 0.326178C41.7108 0.00501247 39.9179 -0.192628 38.2662 0.287356C37.4192 0.534406 36.5722 0.975567 35.9722 1.63202C35.2063 2.47552 34.8393 3.50607 34.744 4.62838C34.5781 6.53067 35.3722 8.47884 36.251 10.1235C37.0451 11.6128 38.0121 13.1128 39.3039 14.2175C40.6062 15.3327 42.3885 16.3315 44.1496 15.7351C45.7589 15.188 46.6589 13.6704 46.3907 12.0117C46.186 10.7658 45.3495 9.66821 44.5343 8.74707C43.5814 7.67063 42.4626 6.75302 41.3226 5.88128C40.1791 5.00955 38.9897 4.2331 37.6627 3.66489C35.8346 2.88138 33.9217 2.44022 31.9347 2.29905C28.4372 2.052 24.2161 2.75786 22.3986 6.14245C20.6163 9.45998 21.2727 13.8116 22.6421 17.1538C24.1103 20.7396 26.4819 23.796 29.2136 26.517C29.8595 27.1594 30.523 27.7841 31.1971 28.3982C31.8112 28.9593 32.8453 29.0511 33.4417 28.3982C34.024 27.7946 34.1193 26.757 33.4629 26.1606Z" fill="#F5F5F5"/>
<path d="M30.5106 21.9461C30.5106 21.9461 37.5833 16.7121 43.7736 24.0919C47.6029 28.6588 48.4252 37.7467 42.5101 44.8229C42.136 45.2712 41.1867 46.0652 40.4949 45.9876C39.1114 45.8358 38.6738 41.703 38.6738 41.703C38.6738 41.703 31.8164 52.5874 25.0684 51.9274C18.8004 51.3133 17.4098 36.7303 17.4098 36.7303C17.4098 36.7303 15.2534 38.9855 13.8911 38.3749C11.7877 37.4326 9.89243 27.7306 15.5993 21.4273C21.0309 15.4345 27.1013 17.2662 30.5106 21.9461Z" fill="#F5F5F5"/>
<path d="M28.929 27.1905C28.1773 29.3857 27.5279 31.6198 27.1009 33.9032C26.9879 34.5103 26.8926 35.1173 26.8079 35.7279C26.8256 35.5973 26.8432 35.4632 26.8609 35.3326C26.5679 37.5278 26.4797 39.7442 26.4868 41.9571C26.4903 42.7335 25.8021 43.4782 25.0009 43.4429C24.1927 43.4076 23.5186 42.79 23.5151 41.9571C23.508 39.903 23.5822 37.8419 23.8292 35.802C24.0727 33.7938 24.4504 31.8139 24.9833 29.8657C25.3009 28.7011 25.668 27.547 26.0597 26.4035C26.1868 26.0364 26.3985 25.7153 26.7409 25.5176C27.0585 25.3306 27.5279 25.2529 27.8844 25.3694C28.2443 25.4859 28.5902 25.7082 28.7702 26.0506C28.9608 26.3894 29.0596 26.8129 28.929 27.1905Z" fill="white"/>
<path d="M37.0811 27.8223C36.7846 27.7059 36.4741 27.6318 36.16 27.5859C36.2905 27.6035 36.4247 27.6212 36.5552 27.6388C36.0117 27.5647 35.4612 27.5824 34.9176 27.6494C35.0482 27.6318 35.1823 27.6141 35.3129 27.5965C34.5577 27.6988 33.82 27.9071 33.1142 28.1929C32.7789 28.327 32.2671 28.2176 31.9707 28.0447C31.6636 27.8647 31.3707 27.5118 31.2895 27.1588C31.2013 26.7777 31.2225 26.3506 31.4378 26.0154C31.5154 25.9165 31.5931 25.8142 31.6707 25.7154C31.8542 25.5318 32.073 25.4048 32.3271 25.3342C33.2518 24.9636 34.2118 24.7483 35.2035 24.653C35.6059 24.6142 36.0117 24.6107 36.4141 24.6566C36.9117 24.713 37.4058 24.7836 37.8752 24.9636C38.2458 25.1083 38.5528 25.2918 38.761 25.6448C38.9481 25.9624 39.0257 26.4318 38.9093 26.7883C38.7928 27.1483 38.5705 27.4941 38.2281 27.6741C37.8893 27.8471 37.4446 27.9635 37.0811 27.8223Z" fill="white"/>
<path d="M36.3524 33.1048C36.3453 33.0872 36.3382 33.066 36.3277 33.0484C36.3771 33.1648 36.4265 33.2848 36.4759 33.4013C36.1053 32.5296 35.6147 31.7143 35.0395 30.9626C35.1171 31.0614 35.1948 31.1637 35.2724 31.2626C34.563 30.3414 33.7301 29.5226 32.8125 28.8097C32.9113 28.8873 33.0136 28.965 33.1125 29.0426C32.7031 28.7285 32.2796 28.4356 31.8349 28.1744C31.5137 27.9838 31.2525 27.6486 31.1537 27.2886C31.0549 26.9321 31.1008 26.4592 31.3019 26.1451C31.736 25.471 32.6184 25.1886 33.3348 25.6122C35.2371 26.7345 36.8923 28.3297 38.1064 30.1685C38.5546 30.8461 38.9005 31.5661 39.2146 32.3143C39.3523 32.6425 39.2358 33.1648 39.0664 33.4578C38.8864 33.7648 38.5335 34.0578 38.1805 34.1389C37.7994 34.2272 37.3723 34.206 37.037 33.9907C36.9382 33.913 36.8359 33.8354 36.7371 33.7578C36.55 33.5742 36.4229 33.3554 36.3524 33.1048Z" fill="white"/>
<path d="M26.2134 27.5576C26.0722 27.2541 25.8993 26.9683 25.6981 26.7C25.7758 26.7988 25.8534 26.9012 25.9311 27C25.6134 26.5871 25.2358 26.2306 24.8264 25.913C24.9252 25.9906 25.0276 26.0683 25.1264 26.1459C24.477 25.6518 23.757 25.2601 23.0053 24.9424C23.1217 24.9919 23.2417 25.0413 23.3582 25.0907C22.977 24.9319 22.5888 24.7907 22.1935 24.6707C21.83 24.5613 21.4983 24.3178 21.3077 23.9895C21.1206 23.6719 21.043 23.2025 21.1594 22.846C21.403 22.0978 22.19 21.5684 22.9841 21.8084C24.7099 22.3308 26.4852 23.1954 27.7239 24.5366C28.1404 24.9883 28.5215 25.4965 28.7792 26.0577C28.9486 26.4283 29.0404 26.7918 28.9274 27.2012C28.8321 27.5471 28.5674 27.9176 28.2463 28.087C27.9004 28.2706 27.4839 28.3588 27.1028 28.2353C26.7534 28.1259 26.3722 27.9 26.2134 27.5576Z" fill="white"/>
<path d="M26.1113 27.05C25.9348 27.0677 25.7584 27.0853 25.5854 27.11C25.716 27.0924 25.8501 27.0748 25.9807 27.0571C24.7561 27.2265 23.5526 27.5618 22.4126 28.0382C22.5291 27.9888 22.6491 27.9394 22.7655 27.89C21.915 28.25 21.0962 28.6912 20.3621 29.2523C20.4609 29.1747 20.5633 29.097 20.6621 29.0194C20.5597 29.097 20.4609 29.1782 20.3656 29.2594C20.0586 29.517 19.7303 29.6935 19.3174 29.6935C18.9539 29.6935 18.5198 29.5311 18.2692 29.2594C18.0081 28.977 17.8175 28.6065 17.8351 28.2112C17.8528 27.8371 17.9728 27.4136 18.2692 27.163C19.9456 25.7477 22.0385 24.8372 24.1773 24.3784C24.8161 24.2407 25.4654 24.1454 26.1148 24.089C26.4748 24.0572 26.9195 24.2796 27.163 24.5231C27.4207 24.7807 27.6148 25.2042 27.5971 25.5713C27.5795 25.956 27.4524 26.3548 27.163 26.6195C26.856 26.8948 26.5207 27.0148 26.1113 27.05Z" fill="white"/>
<path d="M42.7253 51.4714C43.7844 53.256 45.4681 58.5324 43.7301 65.3615C41.5576 73.898 31.9357 76.9706 25.2179 73.6139C18.5 70.2571 25.5262 63.1248 29.6185 67.4969C35.365 73.6363 26.5691 82.1042 21.6102 83.4141C16.6512 84.7241 12.1615 83.7869 9.69885 82.491" stroke="#E4E3E7" stroke-width="1.5" stroke-dasharray="2 2"/>
</svg>
