<svg width="339" height="215" viewBox="0 0 339 215" fill="none" xmlns="http://www.w3.org/2000/svg">
<g clip-path="url(#clip0_12116_217138)">
<g clip-path="url(#clip1_12116_217138)">
<rect x="59.0288" y="8.63281" width="220.921" height="478.367" rx="28.8158" fill="white"/>
<rect x="59.0291" y="7.79492" width="220.921" height="32.9908" fill="white"/>
<path d="M76.4265 21.8089C76.4265 22.1525 76.5002 22.4808 76.6475 22.7938C76.7978 23.1068 77.0187 23.3845 77.3102 23.6269C77.6048 23.8693 77.9638 24.0549 78.3872 24.1838L77.8994 24.9846C77.4422 24.8404 77.0479 24.6271 76.7165 24.3449C76.3851 24.0626 76.1259 23.7296 75.9387 23.3461C75.7515 23.7941 75.4815 24.1822 75.1286 24.5105C74.7788 24.8389 74.3585 25.0859 73.8676 25.2515L73.3521 24.4415C73.7847 24.3004 74.1544 24.0948 74.4613 23.8248C74.7712 23.5548 75.0044 23.2464 75.1609 22.8997C75.3173 22.5529 75.3956 22.1924 75.3956 21.8181V21.7168H73.6374V20.8884H78.1571V21.7168H76.4265V21.8089ZM74.4843 27.0281C74.4843 26.6998 74.5978 26.4175 74.8249 26.1813C75.0519 25.945 75.3772 25.7655 75.8006 25.6428C76.224 25.517 76.7242 25.4541 77.301 25.4541C77.8748 25.4541 78.3703 25.517 78.7876 25.6428C79.2049 25.7655 79.5256 25.945 79.7496 26.1813C79.9766 26.4175 80.0902 26.6998 80.0902 27.0281C80.0902 27.3595 79.9766 27.6449 79.7496 27.8842C79.5256 28.1235 79.2049 28.3061 78.7876 28.4319C78.3703 28.5577 77.8748 28.6206 77.301 28.6206C76.7242 28.6206 76.224 28.5577 75.8006 28.4319C75.3772 28.3061 75.0519 28.1235 74.8249 27.8842C74.5978 27.6449 74.4843 27.3595 74.4843 27.0281ZM75.506 27.0281C75.506 27.2828 75.661 27.4776 75.9709 27.6126C76.2808 27.7476 76.7242 27.8167 77.301 27.8198C77.8717 27.8167 78.3105 27.7476 78.6173 27.6126C78.9242 27.4776 79.0776 27.2828 79.0776 27.0281C79.0776 26.7765 78.9242 26.5847 78.6173 26.4528C78.3105 26.3209 77.8717 26.2549 77.301 26.2549C76.7272 26.2549 76.2839 26.3209 75.9709 26.4528C75.661 26.5847 75.506 26.7765 75.506 27.0281ZM78.9855 20.3084H80.0073V22.3059H81.1671V23.1436H80.0073V25.27H78.9855V20.3084ZM88.1077 23.475H89.3872V24.3403H88.1077V28.6298H87.086V20.3084H88.1077V23.475ZM81.8851 20.9896H82.8977V23.07H84.8584V20.9896H85.8801V26.6783H81.8851V20.9896ZM84.8584 25.8407V23.8708H82.8977V25.8407H84.8584ZM96.3923 21.5603C96.3892 22.1065 96.3754 22.5821 96.3508 22.9871C96.3263 23.3891 96.2665 23.8493 96.1713 24.3679H97.322V25.1963H94.0174V28.639H92.9864V25.1963H89.737V24.3679H95.1312C95.2324 23.8647 95.2969 23.4075 95.3245 22.9963C95.3552 22.5852 95.3705 22.1341 95.3705 21.6432H90.6299V20.8147H96.3923V21.5603ZM104.824 28.6298H103.812V20.3084H104.824V28.6298ZM98.3621 21.1185H99.3747V25.6658C100.685 25.6443 101.915 25.5185 103.066 25.2884L103.195 26.1444C101.9 26.4145 100.528 26.5464 99.0801 26.5403H98.3621V21.1185Z" fill="#343337"/>
<path d="M259.92 21.9336L262.276 24.2901L259.92 26.6466" stroke="#BDBAC1" stroke-width="0.589122" stroke-linecap="round" stroke-linejoin="round"/>
<rect x="59.0291" y="40.7852" width="220.921" height="32.9908" fill="white"/>
<path d="M75.5429 54.7255C75.5429 55.1059 75.5981 55.4833 75.7086 55.8577C75.819 56.2289 76.0047 56.5557 76.2655 56.838C76.514 56.5649 76.6904 56.2428 76.7948 55.8715C76.9021 55.5002 76.9574 55.1182 76.9604 54.7255V54.6518H76.4358V53.8326H78.8291V54.6518H77.9362V54.7255C77.9331 55.2256 78.0328 55.6966 78.2353 56.1384C78.4409 56.5803 78.7646 56.9132 79.2065 57.1372L78.6726 57.8828C78.0988 57.576 77.6922 57.0727 77.4529 56.3732C77.2197 57.1188 76.8224 57.6527 76.2609 57.9748C75.6994 57.6496 75.3035 57.1218 75.0734 56.3916C74.8249 57.0973 74.4199 57.5944 73.8583 57.8828L73.3152 57.1372C73.6129 56.9807 73.8568 56.772 74.047 56.5112C74.2404 56.2504 74.38 55.9666 74.4659 55.6598C74.5518 55.3529 74.5947 55.0415 74.5947 54.7255V54.6518H73.6282V53.8326H76.0768V54.6518H75.5429V54.7255ZM74.8249 58.564H80.5136V61.5188H74.8249V58.564ZM79.5194 60.6903V59.3648H75.8374V60.6903H79.5194ZM79.4918 53.2987H80.5136V58.1497H79.4918V53.2987ZM88.209 56.5296H85.8893V57.4041H89.1755V58.2326H81.5906V57.4041H84.8584V56.5296H82.5479V53.6393H88.209V56.5296ZM82.4282 58.9322H88.2458V61.62H87.2241V59.7422H82.4282V58.9322ZM87.1964 55.7196V54.4401H83.542V55.7196H87.1964ZM97.3312 58.6284H89.7278V57.7999H93.0232V57.1096H90.6943V54.9004H95.3705V54.2836H90.6667V53.4828H96.3923V55.646H91.7069V56.3087H96.558V57.1096H94.0358V57.7999H97.3312V58.6284ZM90.5747 59.1531H96.4383V61.5648H95.4073V59.9631H90.5747V59.1531Z" fill="#343337"/>
<path d="M259.92 54.9238L262.276 57.2803L259.92 59.6368" stroke="#BDBAC1" stroke-width="0.589122" stroke-linecap="round" stroke-linejoin="round"/>
<rect x="59.0291" y="73.7773" width="220.921" height="32.9908" fill="white"/>
<path d="M80.0994 87.5428C80.0963 88.0889 80.0825 88.5645 80.0579 88.9695C80.0334 89.3715 79.9736 89.8317 79.8784 90.3503H81.0291V91.1787H77.7245V94.6214H76.6935V91.1787H73.4441V90.3503H78.8383C78.9395 89.8471 79.004 89.3899 79.0316 88.9787C79.0623 88.5676 79.0776 88.1165 79.0776 87.6256H74.337V86.7971H80.0994V87.5428ZM88.7705 94.6122H87.7856V90.3503H86.9019V94.2072H85.9353V86.4381H86.9019V89.5034H87.7856V86.2909H88.7705V94.6122ZM81.8483 87.193H85.1161V92.4674H81.8483V87.193ZM84.1588 91.6574V88.003H82.8056V91.6574H84.1588ZM99.117 94.6122H98.132V90.4055H97.2115V94.1888H96.2542V86.4474H97.2115V89.5679H98.132V86.2909H99.117V94.6122ZM92.3328 87.2482H93.3638V91.639C94.1769 91.6236 94.9686 91.5408 95.7387 91.3905L95.84 92.2833C94.8642 92.4552 93.8793 92.5411 92.8851 92.5411H92.3328V87.2482ZM107.089 94.6122H106.067V92.4122H101.418V91.6022H107.089V94.6122ZM100.231 88.767C100.231 88.3804 100.326 88.0352 100.516 87.7315C100.706 87.4246 100.967 87.1853 101.299 87.0135C101.63 86.8386 102.001 86.7511 102.412 86.7511C102.759 86.7511 103.078 86.811 103.37 86.9306C103.661 87.0503 103.907 87.2206 104.106 87.4415H106.067V86.2909H107.089V91.2064H106.067V90.1018H104.115C103.916 90.3257 103.67 90.5006 103.379 90.6264C103.087 90.7492 102.771 90.8105 102.431 90.8105C102.017 90.8105 101.642 90.7231 101.308 90.5482C100.973 90.3733 100.709 90.1309 100.516 89.821C100.326 89.5111 100.231 89.1598 100.231 88.767ZM101.206 88.767C101.206 89.0033 101.259 89.2104 101.363 89.3884C101.467 89.5663 101.612 89.7044 101.796 89.8026C101.983 89.8977 102.195 89.9453 102.431 89.9453C102.658 89.9422 102.862 89.8931 103.043 89.798C103.227 89.7029 103.371 89.5663 103.476 89.3884C103.583 89.2104 103.637 89.0033 103.637 88.767C103.637 88.54 103.583 88.339 103.476 88.1641C103.371 87.9892 103.227 87.8542 103.043 87.7591C102.862 87.664 102.658 87.6164 102.431 87.6164C102.195 87.6164 101.983 87.664 101.796 87.7591C101.612 87.8542 101.467 87.9892 101.363 88.1641C101.259 88.339 101.206 88.54 101.206 88.767ZM106.067 89.2733V88.2792H104.553C104.592 88.4479 104.612 88.6105 104.612 88.767C104.612 88.9388 104.591 89.1076 104.548 89.2733H106.067Z" fill="#343337"/>
<path d="M259.92 87.916L262.276 90.2725L259.92 92.629" stroke="#BDBAC1" stroke-width="0.589122" stroke-linecap="round" stroke-linejoin="round"/>
<rect x="59.0291" y="106.768" width="220.921" height="32.9908" fill="white"/>
<path d="M77.7429 120.423C77.7429 120.849 77.8717 121.265 78.1295 121.67C78.3903 122.075 78.7493 122.425 79.2065 122.719C79.6637 123.011 80.1761 123.206 80.7437 123.304L80.2835 124.16C79.59 124.016 78.9717 123.744 78.4286 123.345C77.8855 122.946 77.4775 122.466 77.2044 121.905C77.0233 122.273 76.7794 122.61 76.4726 122.917C76.1657 123.221 75.8129 123.48 75.414 123.695C75.0151 123.907 74.5855 124.062 74.1253 124.16L73.6742 123.304C74.2327 123.202 74.739 123.006 75.1931 122.715C75.6503 122.42 76.0077 122.07 76.2655 121.665C76.5263 121.26 76.6567 120.846 76.6567 120.423V119.806H77.7429V120.423ZM73.4441 125.697H81.0475V126.544H73.4441V125.697ZM86.2759 120.791H85.5487V122.954C85.966 122.917 86.3189 122.877 86.6073 122.834L86.681 123.589C85.9261 123.727 85.1268 123.821 84.283 123.87C83.4392 123.916 82.5724 123.939 81.6826 123.939L81.5722 123.092L82.5295 123.087V120.791H81.7931V119.962H86.2759V120.791ZM82.3362 126.756C82.8793 126.679 83.3533 126.536 83.7584 126.328C84.1664 126.119 84.4794 125.867 84.6973 125.573C84.9151 125.275 85.024 124.958 85.024 124.62V124.454H86.0458V124.62C86.0427 124.958 86.1501 125.275 86.368 125.573C86.5858 125.867 86.8988 126.119 87.3069 126.328C87.7181 126.536 88.1967 126.679 88.7429 126.756L88.3379 127.556C87.6966 127.452 87.1335 127.259 86.6487 126.977C86.1639 126.694 85.7957 126.346 85.5441 125.932C85.2864 126.346 84.9151 126.694 84.4303 126.977C83.9455 127.259 83.3825 127.452 82.7412 127.556L82.3362 126.756ZM83.5144 123.064C83.8611 123.055 84.2079 123.041 84.5546 123.023V120.791H83.5144V123.064ZM87.132 119.281H88.1538V121.49H89.3136V122.337H88.1538V124.887H87.132V119.281ZM99.117 127.602H98.132V123.331H97.2391V127.216H96.2818V119.502H97.2391V122.503H98.132V119.281H99.117V127.602ZM91.9094 125.154C92.7685 124.657 93.4083 124.082 93.8287 123.428C94.2521 122.771 94.5022 122.012 94.5789 121.15H92.296V120.33H95.573C95.573 121.125 95.4779 121.854 95.2877 122.517C95.0974 123.179 94.7752 123.795 94.3211 124.362C93.867 124.927 93.2595 125.427 92.4985 125.863L91.9094 125.154ZM107.089 123.543H106.067V121.435H104.41V120.616H106.067V119.281H107.089V123.543ZM100.074 122.77C100.51 122.638 100.88 122.445 101.183 122.19C101.49 121.932 101.72 121.635 101.874 121.297C102.03 120.956 102.109 120.597 102.109 120.22V119.557H103.14V120.22C103.136 120.567 103.21 120.898 103.36 121.214C103.511 121.53 103.733 121.811 104.028 122.056C104.322 122.299 104.68 122.484 105.1 122.613L104.557 123.405C104.112 123.258 103.727 123.043 103.402 122.761C103.077 122.478 102.82 122.145 102.633 121.762C102.449 122.191 102.185 122.564 101.842 122.88C101.501 123.193 101.09 123.43 100.608 123.589L100.074 122.77ZM101.612 123.902H107.089V126.056H102.624V126.691H107.355V127.501H101.621V125.292H106.076V124.703H101.612V123.902ZM118.107 126.59H110.504V125.752H112.262V123.649C111.924 123.456 111.662 123.212 111.475 122.917C111.291 122.623 111.2 122.294 111.203 121.932C111.203 121.496 111.334 121.113 111.594 120.782C111.858 120.447 112.225 120.189 112.694 120.008C113.164 119.824 113.695 119.732 114.287 119.732C114.882 119.732 115.414 119.824 115.884 120.008C116.356 120.189 116.725 120.447 116.989 120.782C117.255 121.113 117.389 121.496 117.389 121.932C117.392 122.288 117.303 122.61 117.122 122.899C116.941 123.187 116.686 123.43 116.358 123.626V125.752H118.107V126.59ZM112.207 121.932C112.207 122.211 112.292 122.457 112.464 122.669C112.639 122.877 112.883 123.038 113.196 123.152C113.512 123.265 113.876 123.322 114.287 123.322C114.698 123.322 115.062 123.265 115.378 123.152C115.697 123.038 115.944 122.877 116.119 122.669C116.297 122.457 116.386 122.211 116.386 121.932C116.386 121.65 116.297 121.403 116.119 121.191C115.944 120.979 115.697 120.818 115.378 120.708C115.062 120.597 114.698 120.542 114.287 120.542C113.873 120.542 113.507 120.597 113.191 120.708C112.878 120.818 112.636 120.979 112.464 121.191C112.292 121.4 112.207 121.647 112.207 121.932ZM115.318 125.752V124.017C114.993 124.088 114.649 124.123 114.287 124.123C113.94 124.123 113.603 124.089 113.274 124.022V125.752H115.318ZM121.642 121.058C121.639 121.365 121.715 121.662 121.872 121.951C122.031 122.236 122.263 122.491 122.567 122.715C122.871 122.939 123.234 123.107 123.658 123.221L123.179 124.012C122.709 123.884 122.301 123.687 121.955 123.423C121.611 123.156 121.343 122.839 121.149 122.471C120.962 122.888 120.695 123.248 120.348 123.552C120.002 123.856 119.586 124.08 119.101 124.224L118.622 123.433C119.046 123.304 119.408 123.118 119.709 122.876C120.009 122.63 120.236 122.351 120.39 122.038C120.543 121.725 120.62 121.398 120.62 121.058V121.012H118.88V120.202H120.62V119.244H121.651V120.202H123.381V121.012H121.642V121.058ZM119.976 126.028C119.972 125.703 120.084 125.425 120.312 125.195C120.539 124.962 120.864 124.786 121.287 124.666C121.714 124.543 122.219 124.482 122.801 124.482C123.388 124.482 123.892 124.543 124.316 124.666C124.742 124.786 125.071 124.962 125.301 125.195C125.531 125.425 125.646 125.703 125.646 126.028C125.646 126.354 125.531 126.634 125.301 126.871C125.071 127.107 124.742 127.286 124.316 127.409C123.889 127.532 123.384 127.593 122.801 127.593C122.219 127.593 121.714 127.53 121.287 127.405C120.864 127.282 120.539 127.102 120.312 126.866C120.084 126.633 119.972 126.354 119.976 126.028ZM120.988 126.028C120.985 126.274 121.142 126.464 121.458 126.599C121.777 126.734 122.225 126.802 122.801 126.802C123.388 126.802 123.837 126.736 124.15 126.604C124.466 126.469 124.624 126.277 124.624 126.028C124.624 125.78 124.468 125.591 124.155 125.462C123.845 125.333 123.394 125.267 122.801 125.264C122.219 125.267 121.769 125.335 121.453 125.467C121.14 125.596 120.985 125.783 120.988 126.028ZM123.133 121.564H124.596V119.281H125.618V124.316H124.596V122.392H123.133V121.564ZM136.176 127.602H135.191V123.396H134.271V127.179H133.314V119.438H134.271V122.558H135.191V119.281H136.176V127.602ZM129.392 120.238H130.423V124.629C131.236 124.614 132.028 124.531 132.798 124.381L132.899 125.274C131.924 125.445 130.939 125.531 129.945 125.531H129.392V120.238ZM144.148 127.602H143.126V125.402H138.478V124.592H144.148V127.602ZM137.29 121.757C137.29 121.371 137.385 121.025 137.576 120.722C137.766 120.415 138.027 120.176 138.358 120.004C138.689 119.829 139.061 119.741 139.472 119.741C139.819 119.741 140.138 119.801 140.429 119.921C140.721 120.041 140.966 120.211 141.166 120.432H143.126V119.281H144.148V124.197H143.126V123.092H141.175C140.975 123.316 140.73 123.491 140.438 123.617C140.147 123.739 139.831 123.801 139.49 123.801C139.076 123.801 138.702 123.713 138.367 123.538C138.033 123.364 137.769 123.121 137.576 122.811C137.385 122.501 137.29 122.15 137.29 121.757ZM138.266 121.757C138.266 121.994 138.318 122.201 138.422 122.379C138.527 122.557 138.671 122.695 138.855 122.793C139.042 122.888 139.254 122.936 139.49 122.936C139.717 122.932 139.921 122.883 140.102 122.788C140.286 122.693 140.431 122.557 140.535 122.379C140.642 122.201 140.696 121.994 140.696 121.757C140.696 121.53 140.642 121.329 140.535 121.154C140.431 120.979 140.286 120.844 140.102 120.749C139.921 120.654 139.717 120.607 139.49 120.607C139.254 120.607 139.042 120.654 138.855 120.749C138.671 120.844 138.527 120.979 138.422 121.154C138.318 121.329 138.266 121.53 138.266 121.757ZM143.126 122.264V121.269H141.612C141.652 121.438 141.672 121.601 141.672 121.757C141.672 121.929 141.65 122.098 141.607 122.264H143.126Z" fill="#343337"/>
<path d="M259.92 120.906L262.276 123.263L259.92 125.619" stroke="#BDBAC1" stroke-width="0.589122" stroke-linecap="round" stroke-linejoin="round"/>
<rect x="59.0291" y="139.758" width="220.921" height="32.9908" fill="white"/>
<path d="M80.3755 160.602H79.363V152.271H80.3755V160.602ZM73.8952 152.999H77.8165V156.119H74.9537V157.794C75.6472 157.788 76.2885 157.764 76.8776 157.721C77.4667 157.678 78.0712 157.604 78.691 157.5L78.783 158.337C78.1387 158.448 77.5035 158.525 76.8776 158.568C76.2547 158.611 75.5613 158.632 74.7973 158.632H74.6316H73.9044V155.309H76.7763V153.827H73.8952V152.999ZM89.1847 157.859H87.3989V160.593H86.3772V157.859H84.4073V160.593H83.3579V157.859H81.5814V157.03H89.1847V157.859ZM82.5019 152.594H83.5144V153.588H87.2333V152.594H88.2642V156.183H82.5019V152.594ZM87.2333 155.364V154.388H83.5144V155.364H87.2333ZM96.6224 153.385V153.496C96.6163 153.907 96.6009 154.292 96.5764 154.651C96.5518 155.007 96.4997 155.401 96.4199 155.834L95.4073 155.742C95.481 155.355 95.5316 155.002 95.5592 154.683C95.5899 154.364 95.6083 154.048 95.6144 153.735H92.3789V152.888H96.6224V153.385ZM92.0521 156.496C92.721 156.49 93.2073 156.484 93.5111 156.478V154.784H94.5236V156.446C95.5086 156.403 96.3585 156.331 97.0734 156.23L97.1287 156.966C96.3585 157.104 95.55 157.196 94.7031 157.242C93.8563 157.288 92.9465 157.313 91.9738 157.316L91.8818 156.496H92.0521ZM93.1245 157.951H94.1554V159.599H98.8776V160.427H93.1245V157.951ZM97.5613 152.271H98.6107V154.867H99.6877V155.723H98.6107V158.503H97.5613V152.271ZM107.052 160.602H106.039V152.271H107.052V160.602ZM100.571 152.999H104.493V156.119H101.63V157.794C102.323 157.788 102.965 157.764 103.554 157.721C104.143 157.678 104.747 157.604 105.367 157.5L105.459 158.337C104.815 158.448 104.18 158.525 103.554 158.568C102.931 158.611 102.237 158.632 101.473 158.632H101.308H100.581V155.309H103.453V153.827H100.571V152.999Z" fill="#343337"/>
<path d="M259.92 153.896L262.276 156.253L259.92 158.609" stroke="#BDBAC1" stroke-width="0.589122" stroke-linecap="round" stroke-linejoin="round"/>
<path d="M192.485 158.716H186.397V158.222H189.135V156.599H187.115V153.481H191.73V156.599H189.71V158.222H192.485V158.716ZM191.161 156.128V153.952H187.691V156.128H191.161ZM198.142 155.882H193.677V153.316H198.052V153.802H194.275V155.41H198.142V155.882ZM192.832 156.764H198.92V157.243H196.145V159.546H195.569V157.243H192.832V156.764ZM203.278 154.154C203.278 154.446 203.347 154.726 203.484 154.995C203.621 155.264 203.813 155.503 204.06 155.709C204.307 155.916 204.592 156.076 204.916 156.188L204.617 156.644C204.238 156.51 203.908 156.313 203.626 156.054C203.347 155.794 203.136 155.491 202.994 155.145C202.852 155.521 202.635 155.852 202.343 156.136C202.052 156.418 201.71 156.629 201.319 156.772L201.005 156.315C201.334 156.198 201.627 156.031 201.883 155.814C202.14 155.595 202.34 155.342 202.482 155.055C202.626 154.768 202.7 154.468 202.702 154.154V153.87H201.184V153.391H204.774V153.87H203.278V154.154ZM201.872 157.28H206.225V159.569H205.642V157.759H201.872V157.28ZM205.642 152.92H206.225V154.677H207.227V155.178H206.225V156.929H205.642V152.92ZM209.758 153.967C209.755 154.278 209.823 154.575 209.96 154.857C210.099 155.139 210.294 155.387 210.543 155.601C210.793 155.813 211.079 155.974 211.403 156.083L211.074 156.54C210.708 156.403 210.386 156.203 210.109 155.941C209.833 155.68 209.622 155.374 209.477 155.025C209.335 155.424 209.117 155.772 208.823 156.068C208.531 156.365 208.185 156.59 207.783 156.742L207.462 156.263C207.801 156.143 208.099 155.971 208.356 155.747C208.615 155.52 208.816 155.256 208.958 154.954C209.1 154.65 209.172 154.328 209.175 153.989V153.301H209.758V153.967ZM208.546 158.312C208.546 158.048 208.635 157.822 208.812 157.635C208.991 157.446 209.248 157.303 209.582 157.205C209.916 157.106 210.314 157.056 210.775 157.056C211.234 157.056 211.63 157.106 211.964 157.205C212.298 157.303 212.555 157.446 212.735 157.635C212.914 157.822 213.004 158.048 213.004 158.312C213.004 158.574 212.914 158.797 212.735 158.982C212.555 159.169 212.298 159.311 211.964 159.408C211.63 159.505 211.234 159.554 210.775 159.554C210.314 159.554 209.916 159.505 209.582 159.408C209.248 159.311 208.991 159.169 208.812 158.982C208.635 158.797 208.546 158.574 208.546 158.312ZM209.13 158.312C209.13 158.469 209.194 158.606 209.324 158.724C209.454 158.838 209.641 158.927 209.885 158.989C210.132 159.051 210.422 159.083 210.756 159.083C211.098 159.083 211.393 159.051 211.643 158.989C211.892 158.929 212.084 158.842 212.219 158.727C212.353 158.61 212.42 158.472 212.42 158.312C212.42 158.148 212.354 158.007 212.222 157.89C212.09 157.77 211.899 157.679 211.65 157.617C211.403 157.552 211.112 157.519 210.775 157.519C210.436 157.519 210.142 157.552 209.893 157.617C209.646 157.679 209.456 157.77 209.324 157.89C209.194 158.007 209.13 158.148 209.13 158.312ZM210.91 154.348H212.391V152.92H212.981V156.861H212.391V154.834H210.91V154.348ZM216.275 154.707C216.275 155.101 216.356 155.493 216.518 155.882C216.68 156.268 216.898 156.612 217.172 156.914C217.449 157.215 217.751 157.44 218.077 157.587L217.718 158.05C217.337 157.866 216.993 157.588 216.686 157.217C216.38 156.843 216.147 156.42 215.987 155.949C215.835 156.45 215.604 156.899 215.295 157.295C214.986 157.691 214.637 157.988 214.248 158.185L213.874 157.691C214.203 157.542 214.506 157.311 214.783 157C215.06 156.688 215.279 156.331 215.441 155.93C215.606 155.526 215.689 155.119 215.692 154.707V153.496H216.275V154.707ZM218.803 152.92H219.394V159.584H218.803V152.92ZM224.62 157.654C225.36 157.614 225.996 157.554 226.527 157.475L226.572 157.908C225.941 158.023 225.29 158.099 224.62 158.136C223.949 158.174 223.242 158.193 222.499 158.193H222.219L222.137 157.706C222.964 157.701 223.6 157.691 224.044 157.676V156.427H224.62V157.654ZM222.339 156.196C222.668 156.098 222.958 155.956 223.21 155.769C223.464 155.58 223.662 155.358 223.804 155.104C223.949 154.847 224.024 154.573 224.029 154.281H222.503V153.795H224.044V152.972H224.62V153.795H226.183V154.281H224.62C224.625 154.56 224.701 154.823 224.848 155.07C224.995 155.314 225.197 155.527 225.454 155.709C225.71 155.889 226.003 156.026 226.332 156.121L226.056 156.585C225.657 156.465 225.307 156.282 225.005 156.035C224.706 155.786 224.481 155.494 224.332 155.16C224.19 155.514 223.969 155.819 223.67 156.076C223.373 156.333 223.024 156.522 222.623 156.644L222.339 156.196ZM226.968 152.92H227.551V159.584H226.968V152.92ZM234.226 159.569H233.665V156.083H232.685V159.225H232.146V153.069H232.685V155.597H233.665V152.92H234.226V159.569ZM228.788 153.735H231.279V154.221H229.372V157.422C229.863 157.42 230.279 157.406 230.621 157.381C230.962 157.354 231.309 157.305 231.66 157.235L231.713 157.729C231.339 157.806 230.97 157.857 230.606 157.882C230.242 157.907 229.778 157.921 229.215 157.923H228.788V153.735Z" fill="#88888E"/>
<path d="M238.734 159.038C238.412 159.038 238.119 158.977 237.855 158.854C237.593 158.73 237.384 158.559 237.226 158.342C237.072 158.123 236.988 157.876 236.976 157.602H237.627C237.642 157.761 237.7 157.905 237.802 158.032C237.905 158.159 238.037 158.26 238.199 158.335C238.363 158.409 238.542 158.447 238.734 158.447C238.965 158.447 239.172 158.394 239.354 158.29C239.539 158.185 239.683 158.042 239.788 157.86C239.893 157.678 239.945 157.475 239.945 157.25C239.945 157.018 239.89 156.81 239.781 156.626C239.673 156.439 239.524 156.292 239.332 156.184C239.142 156.077 238.928 156.024 238.689 156.024C238.203 156.016 237.866 156.178 237.679 156.51H237.028L237.41 153.548H240.342V154.146H237.971L237.769 155.732H237.821C237.946 155.637 238.094 155.561 238.266 155.504C238.441 155.446 238.621 155.418 238.808 155.418C239.147 155.418 239.453 155.496 239.724 155.653C239.999 155.808 240.213 156.024 240.368 156.3C240.525 156.577 240.603 156.889 240.603 157.235C240.603 157.579 240.522 157.888 240.36 158.163C240.198 158.437 239.975 158.651 239.691 158.806C239.409 158.96 239.09 159.038 238.734 159.038ZM243.134 159.038C242.735 159.038 242.394 158.929 242.109 158.712C241.828 158.495 241.612 158.179 241.462 157.762C241.315 157.346 241.242 156.844 241.242 156.255C241.242 155.675 241.315 155.176 241.462 154.76C241.612 154.341 241.829 154.022 242.113 153.802C242.397 153.583 242.738 153.473 243.134 153.473C243.528 153.473 243.867 153.583 244.151 153.802C244.435 154.022 244.652 154.341 244.802 154.76C244.951 155.176 245.026 155.675 245.026 156.255C245.026 156.844 244.951 157.346 244.802 157.762C244.655 158.179 244.439 158.495 244.155 158.712C243.873 158.929 243.533 159.038 243.134 159.038ZM241.892 156.255C241.892 156.719 241.941 157.114 242.038 157.441C242.138 157.767 242.28 158.016 242.465 158.185C242.649 158.355 242.872 158.439 243.134 158.439C243.393 158.439 243.615 158.355 243.8 158.185C243.987 158.016 244.127 157.767 244.222 157.441C244.319 157.114 244.368 156.719 244.368 156.255C244.368 155.792 244.319 155.395 244.222 155.066C244.125 154.737 243.984 154.487 243.8 154.315C243.615 154.143 243.393 154.057 243.134 154.057C242.875 154.057 242.653 154.143 242.468 154.315C242.284 154.487 242.142 154.737 242.042 155.066C241.942 155.395 241.892 155.792 241.892 156.255ZM247.519 159.038C247.121 159.038 246.779 158.929 246.495 158.712C246.213 158.495 245.998 158.179 245.848 157.762C245.701 157.346 245.627 156.844 245.627 156.255C245.627 155.675 245.701 155.176 245.848 154.76C245.998 154.341 246.214 154.022 246.499 153.802C246.783 153.583 247.123 153.473 247.519 153.473C247.913 153.473 248.252 153.583 248.537 153.802C248.821 154.022 249.038 154.341 249.187 154.76C249.337 155.176 249.412 155.675 249.412 156.255C249.412 156.844 249.337 157.346 249.187 157.762C249.04 158.179 248.825 158.495 248.54 158.712C248.259 158.929 247.918 159.038 247.519 159.038ZM246.278 156.255C246.278 156.719 246.327 157.114 246.424 157.441C246.524 157.767 246.666 158.016 246.85 158.185C247.035 158.355 247.258 158.439 247.519 158.439C247.779 158.439 248.001 158.355 248.185 158.185C248.372 158.016 248.513 157.767 248.608 157.441C248.705 157.114 248.754 156.719 248.754 156.255C248.754 155.792 248.705 155.395 248.608 155.066C248.51 154.737 248.37 154.487 248.185 154.315C248.001 154.143 247.779 154.057 247.519 154.057C247.26 154.057 247.038 154.143 246.854 154.315C246.669 154.487 246.527 154.737 246.428 155.066C246.328 155.395 246.278 155.792 246.278 156.255ZM250.222 153.548H252.062C252.471 153.548 252.814 153.623 253.09 153.772C253.367 153.922 253.573 154.126 253.707 154.386C253.842 154.642 253.909 154.937 253.909 155.268C253.909 155.597 253.842 155.893 253.707 156.154C253.573 156.414 253.367 156.619 253.09 156.772C252.816 156.921 252.476 156.996 252.07 156.996H250.895V158.963H250.222V153.548ZM252.04 156.398C252.451 156.398 252.754 156.295 252.948 156.091C253.143 155.886 253.241 155.612 253.244 155.268C253.241 154.924 253.142 154.651 252.945 154.449C252.75 154.247 252.446 154.146 252.032 154.146H250.895V156.398H252.04Z" fill="#3478F6"/>
<rect x="59.0291" y="172.748" width="220.921" height="32.9908" fill="white"/>
<path d="M77.6968 186.081C77.6938 186.983 77.5833 187.802 77.3655 188.539C77.1507 189.275 76.7687 189.961 76.2194 190.596C75.6733 191.231 74.9231 191.794 73.9688 192.285L73.4073 191.503C74.0885 191.15 74.6515 190.766 75.0964 190.352C75.5444 189.935 75.8927 189.474 76.1412 188.971L73.5914 189.211L73.4441 188.336L76.4588 188.152C76.5692 187.775 76.6413 187.36 76.6751 186.909H73.8768V186.081H77.6968ZM77.6784 188.511H79.3906V185.262H80.4123V193.583H79.3906V189.349H77.6784V188.511ZM85.6684 188.41H82.9437V189.459C83.6648 189.456 84.2754 189.439 84.7755 189.408C85.2787 189.378 85.7789 189.321 86.2759 189.238L86.3588 190.076C85.8188 190.159 85.2772 190.214 84.7341 190.241C84.191 190.269 83.4776 190.284 82.5939 190.288H81.9127V187.618H84.6466V186.652H81.9035V185.832H85.6684V188.41ZM83.0542 190.904H84.0759V192.589H88.7797V193.417H83.0542V190.904ZM86.1194 187.323H87.537V185.271H88.5588V191.392H87.537V188.189H86.1194V187.323ZM96.5027 190.435H90.6667V185.915H96.4291V186.744H91.7069V187.747H96.2358V188.548H91.7069V189.625H96.5027V190.435ZM89.737 191.733H97.3404V192.57H89.737V191.733ZM107.236 190.076H106.26V185.271H107.236V190.076ZM100.442 185.869H103.719V187.241H104.612V185.427H105.579V189.984H104.612V188.088H103.719V189.524H100.442V185.869ZM102.771 188.759V186.661H101.409V188.759H102.771ZM101.63 190.426H107.236V193.482H101.63V190.426ZM106.223 192.653V191.226H102.633V192.653H106.223ZM115.244 193.592H114.232V189.082H112.538V191.576H108.58V185.906H109.611V187.977H111.535V185.906H112.538V188.244H114.232V185.262H115.244V193.592ZM111.535 190.757V188.778H109.611V190.757H111.535ZM119.515 186.302C119.512 186.652 119.589 186.988 119.745 187.31C119.902 187.632 120.132 187.917 120.436 188.166C120.74 188.411 121.105 188.597 121.531 188.723L121.043 189.524C120.568 189.376 120.157 189.157 119.81 188.865C119.463 188.571 119.193 188.223 119 187.821C118.803 188.256 118.527 188.634 118.171 188.953C117.819 189.272 117.398 189.508 116.91 189.662L116.413 188.861C116.849 188.726 117.22 188.526 117.527 188.262C117.834 187.999 118.066 187.698 118.222 187.36C118.382 187.02 118.46 186.667 118.457 186.302V185.519H119.515V186.302ZM117.84 190.113H118.853V190.969H122.323V190.113H123.345V193.482H117.84V190.113ZM122.323 192.653V191.77H118.853V192.653H122.323ZM122.314 185.262H123.345V189.726H122.314V185.262Z" fill="#343337"/>
<path d="M259.92 186.887L262.276 189.243L259.92 191.6" stroke="#BDBAC1" stroke-width="0.589122" stroke-linecap="round" stroke-linejoin="round"/>
<rect x="59.0291" y="205.74" width="220.921" height="32.9908" fill="white"/>
</g>
<rect x="55.1867" y="4.79071" width="228.605" height="486.051" rx="32.6579" stroke="#F5F5F5" stroke-width="7.6842"/>
<g filter="url(#filter0_d_12116_217138)">
<g clip-path="url(#clip2_12116_217138)">
<rect x="35.3694" y="101.883" width="269.27" height="40.211" fill="white"/>
<path d="M58.1787 118.337C58.1787 118.857 58.3357 119.364 58.6499 119.857C58.9678 120.351 59.4053 120.777 59.9626 121.136C60.5198 121.492 61.1444 121.729 61.8363 121.849L61.2753 122.892C60.4301 122.716 59.6765 122.386 59.0145 121.899C58.3526 121.413 57.8552 120.828 57.5223 120.143C57.3017 120.592 57.0044 121.004 56.6304 121.378C56.2564 121.748 55.8263 122.064 55.3401 122.326C54.8539 122.584 54.3304 122.773 53.7694 122.892L53.2196 121.849C53.9003 121.725 54.5173 121.486 55.0708 121.131C55.6281 120.772 56.0638 120.345 56.3779 119.852C56.6958 119.358 56.8548 118.853 56.8548 118.337V117.585H58.1787V118.337ZM52.9391 124.766H62.2065V125.798H52.9391V124.766ZM68.5792 118.786H67.6929V121.422C68.2015 121.378 68.6316 121.329 68.9831 121.277L69.0729 122.197C68.1529 122.365 67.1786 122.479 66.1502 122.539C65.1217 122.595 64.0652 122.623 62.9807 122.623L62.846 121.591L64.0129 121.585V118.786H63.1153V117.776H68.5792V118.786ZM63.7772 126.056C64.4392 125.963 65.017 125.789 65.5107 125.534C66.0081 125.28 66.3895 124.973 66.6551 124.614C66.9206 124.252 67.0534 123.865 67.0534 123.453V123.251H68.2987V123.453C68.295 123.865 68.4259 124.252 68.6914 124.614C68.9569 124.973 69.3384 125.28 69.8358 125.534C70.337 125.789 70.9204 125.963 71.5861 126.056L71.0924 127.032C70.3108 126.905 69.6245 126.67 69.0336 126.325C68.4427 125.981 67.9939 125.557 67.6873 125.052C67.3731 125.557 66.9206 125.981 66.3297 126.325C65.7388 126.67 65.0525 126.905 64.2709 127.032L63.7772 126.056ZM65.2133 121.557C65.636 121.546 66.0586 121.529 66.4812 121.507V118.786H65.2133V121.557ZM69.6226 116.946H70.868V119.639H72.2817V120.671H70.868V123.779H69.6226V116.946ZM84.2305 127.088H83.03V121.883H81.9417V126.617H80.7749V117.215H81.9417V120.873H83.03V116.946H84.2305V127.088ZM75.4456 124.104C76.4928 123.498 77.2725 122.797 77.7849 122C78.301 121.2 78.6058 120.274 78.6993 119.223H75.9168V118.225H79.911C79.911 119.194 79.7951 120.082 79.5632 120.89C79.3313 121.697 78.9386 122.447 78.3851 123.139C77.8316 123.827 77.0911 124.437 76.1637 124.968L75.4456 124.104ZM93.9467 122.141H92.7013V119.571H90.6818V118.573H92.7013V116.946H93.9467V122.141ZM85.3974 121.198C85.9284 121.037 86.3791 120.802 86.7493 120.491C87.1233 120.177 87.4038 119.814 87.5908 119.403C87.7815 118.988 87.8769 118.55 87.8769 118.09V117.282H89.1335V118.09C89.1298 118.513 89.2195 118.917 89.4028 119.302C89.586 119.687 89.8572 120.029 90.2162 120.329C90.5752 120.624 91.0109 120.85 91.5233 121.007L90.8613 121.972C90.319 121.793 89.8497 121.531 89.4532 121.187C89.0568 120.843 88.7445 120.437 88.5164 119.97C88.292 120.493 87.9704 120.948 87.5515 121.333C87.1364 121.714 86.6353 122.002 86.0481 122.197L85.3974 121.198ZM87.271 122.578H93.9467V125.203H88.5052V125.978H94.2721V126.965H87.2823V124.272H92.7125V123.554H87.271V122.578ZM107.377 125.854H98.1092V124.833H100.252V122.27C99.8407 122.034 99.521 121.737 99.2928 121.378C99.0684 121.019 98.9581 120.618 98.9618 120.177C98.9618 119.646 99.1208 119.179 99.4387 118.775C99.7603 118.367 100.207 118.053 100.779 117.832C101.352 117.608 101.999 117.496 102.72 117.496C103.446 117.496 104.095 117.608 104.667 117.832C105.243 118.053 105.692 118.367 106.013 118.775C106.339 119.179 106.501 119.646 106.501 120.177C106.505 120.611 106.397 121.004 106.176 121.355C105.955 121.707 105.645 122.002 105.245 122.242V124.833H107.377V125.854ZM100.185 120.177C100.185 120.517 100.289 120.817 100.499 121.075C100.712 121.329 101.009 121.525 101.391 121.664C101.776 121.802 102.219 121.871 102.72 121.871C103.222 121.871 103.665 121.802 104.05 121.664C104.439 121.525 104.74 121.329 104.953 121.075C105.17 120.817 105.278 120.517 105.278 120.177C105.278 119.833 105.17 119.532 104.953 119.274C104.74 119.016 104.439 118.82 104.05 118.685C103.665 118.55 103.222 118.483 102.72 118.483C102.216 118.483 101.77 118.55 101.385 118.685C101.004 118.82 100.708 119.016 100.499 119.274C100.289 119.528 100.185 119.829 100.185 120.177ZM103.977 124.833V122.718C103.581 122.804 103.162 122.847 102.72 122.847C102.298 122.847 101.886 122.806 101.486 122.724V124.833H103.977ZM111.685 119.111C111.681 119.485 111.775 119.848 111.965 120.2C112.16 120.547 112.442 120.858 112.812 121.131C113.183 121.404 113.626 121.609 114.142 121.748L113.559 122.713C112.986 122.556 112.489 122.316 112.066 121.995C111.647 121.669 111.32 121.282 111.085 120.833C110.856 121.342 110.531 121.782 110.108 122.152C109.686 122.522 109.179 122.795 108.588 122.971L108.005 122.006C108.521 121.849 108.962 121.623 109.329 121.327C109.695 121.028 109.972 120.688 110.159 120.306C110.346 119.925 110.439 119.526 110.439 119.111V119.055H108.319V118.068H110.439V116.901H111.696V118.068H113.805V119.055H111.685V119.111ZM109.654 125.17C109.65 124.773 109.787 124.435 110.064 124.154C110.34 123.87 110.737 123.655 111.253 123.509C111.773 123.36 112.388 123.285 113.099 123.285C113.813 123.285 114.428 123.36 114.944 123.509C115.464 123.655 115.864 123.87 116.145 124.154C116.425 124.435 116.565 124.773 116.565 125.17C116.565 125.566 116.425 125.908 116.145 126.196C115.864 126.484 115.464 126.703 114.944 126.853C114.424 127.002 113.809 127.077 113.099 127.077C112.388 127.077 111.773 127 111.253 126.847C110.737 126.698 110.34 126.479 110.064 126.191C109.787 125.907 109.65 125.566 109.654 125.17ZM110.888 125.17C110.885 125.469 111.075 125.701 111.46 125.865C111.849 126.03 112.395 126.112 113.099 126.112C113.813 126.112 114.361 126.032 114.742 125.871C115.127 125.707 115.32 125.473 115.32 125.17C115.32 124.867 115.129 124.637 114.748 124.48C114.37 124.323 113.82 124.242 113.099 124.239C112.388 124.242 111.84 124.325 111.455 124.485C111.073 124.643 110.885 124.871 110.888 125.17ZM113.502 119.728H115.286V116.946H116.532V123.083H115.286V120.738H113.502V119.728ZM129.401 127.088H128.2V121.961H127.078V126.572H125.911V117.137H127.078V120.94H128.2V116.946H129.401V127.088ZM121.132 118.113H122.388V123.464C123.379 123.446 124.344 123.345 125.283 123.162L125.406 124.25C124.217 124.459 123.017 124.564 121.805 124.564H121.132V118.113ZM139.117 127.088H137.871V124.407H132.205V123.42H139.117V127.088ZM130.758 119.964C130.758 119.493 130.874 119.072 131.106 118.702C131.338 118.328 131.656 118.036 132.06 117.827C132.464 117.613 132.916 117.507 133.417 117.507C133.84 117.507 134.229 117.58 134.584 117.726C134.939 117.872 135.238 118.079 135.482 118.348H137.871V116.946H139.117V122.937H137.871V121.591H135.493C135.25 121.864 134.951 122.077 134.595 122.23C134.24 122.38 133.855 122.455 133.44 122.455C132.935 122.455 132.478 122.348 132.071 122.135C131.663 121.922 131.342 121.626 131.106 121.249C130.874 120.871 130.758 120.443 130.758 119.964ZM131.947 119.964C131.947 120.252 132.011 120.504 132.138 120.721C132.265 120.938 132.441 121.106 132.665 121.226C132.894 121.342 133.152 121.4 133.44 121.4C133.716 121.396 133.965 121.336 134.186 121.221C134.41 121.105 134.586 120.938 134.713 120.721C134.844 120.504 134.909 120.252 134.909 119.964C134.909 119.687 134.844 119.442 134.713 119.229C134.586 119.016 134.41 118.851 134.186 118.735C133.965 118.619 133.716 118.562 133.44 118.562C133.152 118.562 132.894 118.619 132.665 118.735C132.441 118.851 132.265 119.016 132.138 119.229C132.011 119.442 131.947 119.687 131.947 119.964ZM137.871 120.581V119.369H136.026C136.074 119.575 136.099 119.773 136.099 119.964C136.099 120.173 136.072 120.379 136.02 120.581H137.871Z" fill="#343337"/>
<path d="M280.226 119.115L283.098 121.987L280.226 124.86" stroke="#BDBAC1" stroke-width="0.718053" stroke-linecap="round" stroke-linejoin="round"/>
</g>
</g>
<rect x="4.5" y="6" width="317" height="311" fill="url(#paint0_linear_12116_217138)"/>
</g>
<defs>
<filter id="filter0_d_12116_217138" x="8.44208" y="74.9555" width="323.125" height="94.0656" filterUnits="userSpaceOnUse" color-interpolation-filters="sRGB">
<feFlood flood-opacity="0" result="BackgroundImageFix"/>
<feColorMatrix in="SourceAlpha" type="matrix" values="0 0 0 0 0 0 0 0 0 0 0 0 0 0 0 0 0 0 127 0" result="hardAlpha"/>
<feOffset/>
<feGaussianBlur stdDeviation="13.4637"/>
<feComposite in2="hardAlpha" operator="out"/>
<feColorMatrix type="matrix" values="0 0 0 0 0 0 0 0 0 0 0 0 0 0 0 0 0 0 0.15 0"/>
<feBlend mode="normal" in2="BackgroundImageFix" result="effect1_dropShadow_12116_217138"/>
<feBlend mode="normal" in="SourceGraphic" in2="effect1_dropShadow_12116_217138" result="shape"/>
</filter>
<linearGradient id="paint0_linear_12116_217138" x1="163" y1="6" x2="163" y2="317" gradientUnits="userSpaceOnUse">
<stop offset="0.452086" stop-color="white" stop-opacity="0"/>
<stop offset="0.61445" stop-color="white"/>
</linearGradient>
<clipPath id="clip0_12116_217138">
<rect width="339" height="215" fill="white"/>
</clipPath>
<clipPath id="clip1_12116_217138">
<rect x="59.0288" y="8.63281" width="220.921" height="478.367" rx="28.8158" fill="white"/>
</clipPath>
<clipPath id="clip2_12116_217138">
<rect x="35.3694" y="101.883" width="269.27" height="40.211" rx="6.09668" fill="white"/>
</clipPath>
</defs>
</svg>
