<svg width="8" height="8" viewBox="0 0 8 8" fill="none" xmlns="http://www.w3.org/2000/svg">
<mask id="path-1-inside-1_11919_214390" fill="white">
<path fill-rule="evenodd" clip-rule="evenodd" d="M3.9755 0C3.57384 0 3.24822 0.325611 3.24822 0.727273V3.27131H0.727273C0.325611 3.27131 0 3.59692 0 3.99858C0 4.40024 0.325611 4.72585 0.727273 4.72585H3.24822V7.27273C3.24822 7.67439 3.57384 8 3.9755 8C4.37716 8 4.70277 7.67439 4.70277 7.27273V4.72585H7.27273C7.67439 4.72585 8 4.40024 8 3.99858C8 3.59692 7.67439 3.27131 7.27273 3.27131H4.70277V0.727273C4.70277 0.325611 4.37716 0 3.9755 0Z"/>
</mask>
<path fill-rule="evenodd" clip-rule="evenodd" d="M3.9755 0C3.57384 0 3.24822 0.325611 3.24822 0.727273V3.27131H0.727273C0.325611 3.27131 0 3.59692 0 3.99858C0 4.40024 0.325611 4.72585 0.727273 4.72585H3.24822V7.27273C3.24822 7.67439 3.57384 8 3.9755 8C4.37716 8 4.70277 7.67439 4.70277 7.27273V4.72585H7.27273C7.67439 4.72585 8 4.40024 8 3.99858C8 3.59692 7.67439 3.27131 7.27273 3.27131H4.70277V0.727273C4.70277 0.325611 4.37716 0 3.9755 0Z" fill="#343337"/>
<path d="M3.24822 3.27131V3.52131H3.49822V3.27131H3.24822ZM3.24822 4.72585H3.49822V4.47585H3.24822V4.72585ZM4.70277 4.72585V4.47585H4.45277V4.72585H4.70277ZM4.70277 3.27131H4.45277V3.52131H4.70277V3.27131ZM3.49822 0.727273C3.49822 0.463682 3.71191 0.25 3.9755 0.25V-0.25C3.43576 -0.25 2.99822 0.18754 2.99822 0.727273H3.49822ZM3.49822 3.27131V0.727273H2.99822V3.27131H3.49822ZM0.727273 3.52131H3.24822V3.02131H0.727273V3.52131ZM0.25 3.99858C0.25 3.73499 0.463682 3.52131 0.727273 3.52131V3.02131C0.18754 3.02131 -0.25 3.45885 -0.25 3.99858H0.25ZM0.727273 4.47585C0.463682 4.47585 0.25 4.26217 0.25 3.99858H-0.25C-0.25 4.53831 0.18754 4.97585 0.727273 4.97585V4.47585ZM3.24822 4.47585H0.727273V4.97585H3.24822V4.47585ZM3.49822 7.27273V4.72585H2.99822V7.27273H3.49822ZM3.9755 7.75C3.71191 7.75 3.49822 7.53632 3.49822 7.27273H2.99822C2.99822 7.81246 3.43576 8.25 3.9755 8.25V7.75ZM4.45277 7.27273C4.45277 7.53632 4.23909 7.75 3.9755 7.75V8.25C4.51523 8.25 4.95277 7.81246 4.95277 7.27273H4.45277ZM4.45277 4.72585V7.27273H4.95277V4.72585H4.45277ZM7.27273 4.47585H4.70277V4.97585H7.27273V4.47585ZM7.75 3.99858C7.75 4.26217 7.53632 4.47585 7.27273 4.47585V4.97585C7.81246 4.97585 8.25 4.53831 8.25 3.99858H7.75ZM7.27273 3.52131C7.53632 3.52131 7.75 3.73499 7.75 3.99858H8.25C8.25 3.45885 7.81246 3.02131 7.27273 3.02131V3.52131ZM4.70277 3.52131H7.27273V3.02131H4.70277V3.52131ZM4.45277 0.727273V3.27131H4.95277V0.727273H4.45277ZM3.9755 0.25C4.23909 0.25 4.45277 0.463682 4.45277 0.727273H4.95277C4.95277 0.18754 4.51523 -0.25 3.9755 -0.25V0.25Z" fill="white" mask="url(#path-1-inside-1_11919_214390)"/>
</svg>
