<svg width="173" height="134" viewBox="0 0 173 134" fill="none" xmlns="http://www.w3.org/2000/svg">
<ellipse cx="86.5" cy="115.728" rx="85.8818" ry="18.2727" fill="#EFF2FE"/>
<rect x="57.1094" y="34.707" width="6.26596" height="8.93005" rx="1.53529" fill="white"/>
<rect x="117.721" y="34.707" width="6.36406" height="8.90968" rx="1.53529" fill="white"/>
<rect x="46.9648" y="3.39062" width="78.6044" height="112.332" fill="#AFCBFF"/>
<rect x="75.583" y="11.7773" width="6.54164" height="9.13636" rx="1.53529" fill="white"/>
<rect x="92.2119" y="11.7773" width="6.54164" height="9.13636" rx="1.53529" fill="white"/>
<rect x="75.3467" y="32.1855" width="6.26596" height="8.93005" fill="white"/>
<rect x="92.2119" y="31.0918" width="6.54164" height="9.13636" rx="1.53529" fill="white"/>
<rect x="75.583" y="31.0918" width="6.26596" height="8.93005" rx="1.53529" fill="white"/>
<rect x="91.6377" y="52.6074" width="6.26596" height="8.93005" fill="white"/>
<rect x="75.583" y="51.0957" width="6.54164" height="9.13636" rx="1.53529" fill="white"/>
<rect x="75.583" y="73.2051" width="6.54164" height="8.93005" rx="1.53529" fill="white"/>
<rect x="91.6377" y="73.0098" width="6.26596" height="9.13636" rx="1.53529" fill="white"/>
<rect x="88.9062" y="51.4824" width="11.3265" height="12.3537" fill="#AFCBFF"/>
<rect x="72.7285" y="30.0703" width="11.3265" height="12.3537" fill="#AFCBFF"/>
<rect x="43.8389" width="84.6509" height="6.15519" rx="3.07759" fill="#AFCBFF"/>
<path d="M80.1172 99.172C80.1172 98.3241 80.8046 97.6367 81.6525 97.6367H90.8426C91.6905 97.6367 92.3779 98.3241 92.3779 99.172V115.727H80.1172V99.172Z" fill="white"/>
<path d="M128.752 52.5643L128.752 52.5642C146.857 48.2712 163.075 61.8022 163.294 79.3186C163.421 89.9174 157.729 99.4306 136.522 120.409C136.246 120.681 135.778 120.687 135.495 120.42C114.49 100.635 108.281 91.2349 107.767 81.0737C107.097 67.8341 116.004 55.5855 128.752 52.5643Z" fill="#5691FF" stroke="white" stroke-width="5.30372"/>
<path d="M143.07 87.1163L143.069 87.1175C141.132 89.1554 138.475 90.3438 135.667 90.4299C134.245 90.4733 132.825 90.2319 131.492 89.7231C130.161 89.2079 128.947 88.4364 127.912 87.448C126.884 86.4612 126.057 85.2736 125.49 83.9625C124.923 82.6514 124.624 81.2343 124.605 79.8C124.587 78.3669 124.853 76.9443 125.389 75.6174C125.925 74.2892 126.717 73.0855 127.723 72.0679C128.728 71.0511 129.926 70.2483 131.241 69.7047C132.554 69.1618 133.974 68.8873 135.398 68.8933C138.203 68.9127 140.893 70.0392 142.887 72.0288C144.879 74.018 146.012 76.7104 146.048 79.533C146.084 82.3541 145.014 85.078 143.07 87.1163Z" fill="#5691FF" stroke="#5691FF" stroke-width="1.76791"/>
<path d="M143.074 87.1222L143.073 87.1233C141.136 89.1614 138.479 90.35 135.671 90.436C134.249 90.4795 132.829 90.238 131.496 89.7292C130.165 89.2141 128.951 88.4427 127.915 87.4543C126.887 86.4674 126.06 85.2795 125.493 83.968C124.926 82.6568 124.627 81.2396 124.608 79.8052C124.59 78.3719 124.856 76.9492 125.392 75.6222C125.928 74.2939 126.72 73.09 127.726 72.0724C128.731 71.0554 129.929 70.2525 131.244 69.7089C132.558 69.166 133.978 68.8914 135.402 68.8974C138.207 68.9168 140.898 70.0435 142.891 72.0333C144.884 74.0227 146.016 76.7153 146.053 79.5381C146.089 82.3595 145.019 85.0837 143.074 87.1222Z" fill="#5691FF" stroke="#5691FF" stroke-width="1.76807"/>
<path fill-rule="evenodd" clip-rule="evenodd" d="M136.565 81.4826V84.0549C136.565 84.3341 136.454 84.6019 136.255 84.7993C136.056 84.9967 135.787 85.1076 135.505 85.1076C135.224 85.1076 134.955 84.9967 134.756 84.7993C134.557 84.6019 134.446 84.3341 134.446 84.0549V81.4826C134.124 81.2992 133.857 81.035 133.671 80.7165C133.485 80.3981 133.386 80.0365 133.386 79.6683C133.399 79.1186 133.628 78.5958 134.024 78.2117C134.42 77.8275 134.951 77.6124 135.505 77.6124C136.058 77.6124 136.59 77.8275 136.986 78.2117C137.382 78.5958 137.611 79.1186 137.624 79.6683C137.624 80.4462 137.195 81.1176 136.565 81.4826ZM131.76 72.6206C131.762 71.6345 132.157 70.6892 132.859 69.9921C133.561 69.295 134.513 68.9029 135.505 68.902C136.498 68.9029 137.45 69.295 138.152 69.9922C138.854 70.6894 139.248 71.6347 139.249 72.6206H131.76ZM143.277 72.6206H141.605C141.603 71.0144 140.96 69.4744 139.817 68.3386C138.673 67.2028 137.123 66.564 135.505 66.5625C133.888 66.564 132.338 67.2028 131.194 68.3385C130.05 69.4743 129.407 71.0143 129.405 72.6206H127.733C126.983 72.6206 126.264 72.9164 125.734 73.4429C125.204 73.9694 124.906 74.6834 124.906 75.428V87.3594C124.906 88.104 125.204 88.818 125.734 89.3445C126.264 89.871 126.983 90.1668 127.733 90.1668H143.277C143.648 90.1669 144.016 90.0944 144.359 89.9534C144.702 89.8124 145.014 89.6056 145.276 89.3449C145.539 89.0842 145.747 88.7747 145.889 88.434C146.031 88.0933 146.105 87.7282 146.105 87.3594V75.428C146.105 75.0592 146.031 74.6941 145.889 74.3534C145.747 74.0127 145.539 73.7032 145.276 73.4425C145.014 73.1818 144.702 72.975 144.359 72.834C144.016 72.693 143.648 72.6205 143.277 72.6206Z" fill="white"/>
</svg>
