<svg width="97" height="76" viewBox="0 0 97 76" fill="none" xmlns="http://www.w3.org/2000/svg">
<ellipse cx="48.5" cy="65.3543" rx="48.5" ry="10.3191" fill="#EFF2FE"/>
<rect x="31.9023" y="19.5996" width="3.53857" height="5.04306" rx="0.867022" fill="white"/>
<rect x="66.1309" y="19.5996" width="3.59397" height="5.03156" rx="0.867022" fill="white"/>
<rect x="26.1729" y="1.91406" width="44.3902" height="63.4373" fill="#AFCBFF"/>
<rect x="42.335" y="6.65039" width="3.69426" height="5.15957" rx="0.867022" fill="white"/>
<rect x="51.7246" y="6.65039" width="3.69426" height="5.15957" rx="0.867022" fill="white"/>
<rect x="42.2002" y="18.1758" width="3.53857" height="5.04306" fill="white"/>
<rect x="51.7246" y="17.5586" width="3.69426" height="5.15957" rx="0.867022" fill="white"/>
<rect x="42.335" y="17.5586" width="3.53857" height="5.04306" rx="0.867022" fill="white"/>
<rect x="51.4004" y="29.709" width="3.53857" height="5.04306" fill="white"/>
<rect x="42.335" y="28.8555" width="3.69426" height="5.15957" rx="0.867022" fill="white"/>
<rect x="42.335" y="41.3418" width="3.69426" height="5.04306" rx="0.867022" fill="white"/>
<rect x="51.4004" y="41.2305" width="3.53857" height="5.15957" rx="0.867022" fill="white"/>
<rect x="49.8584" y="29.0742" width="6.39643" height="6.97652" fill="#AFCBFF"/>
<rect x="40.7217" y="16.9824" width="6.39643" height="6.97652" fill="#AFCBFF"/>
<rect x="24.4072" width="47.8048" height="3.47602" rx="1.73801" fill="#AFCBFF"/>
<path d="M44.8955 56.0057C44.8955 55.5269 45.2837 55.1387 45.7625 55.1387H50.9525C51.4313 55.1387 51.8195 55.5269 51.8195 56.0057V65.3547H44.8955V56.0057Z" fill="white"/>
<path d="M72.3609 29.6849L72.3607 29.6849C65.1616 31.3911 60.1317 38.3082 60.5096 45.7849L72.3609 29.6849ZM72.3609 29.6849C82.5847 27.2606 91.7432 34.9015 91.8673 44.7932M72.3609 29.6849L91.8673 44.7932M91.8673 44.7932C91.9394 50.779 88.7252 56.1514 76.748 67.9993C76.5922 68.1525 76.3281 68.1555 76.1685 68.0052C64.3066 56.8319 60.8003 51.5235 60.5096 45.7851L91.8673 44.7932Z" fill="#5691FF" stroke="white" stroke-width="2.99517"/>
<path d="M80.4465 49.1971L80.4459 49.1978C79.352 50.3487 77.8518 51.0198 76.2659 51.0684C75.4628 51.0929 74.661 50.9566 73.9082 50.6692C73.1565 50.3783 72.4709 49.9426 71.8862 49.3844C71.3057 48.8272 70.839 48.1565 70.5188 47.4161C70.1985 46.6757 70.0294 45.8754 70.0191 45.0654C70.0089 44.2561 70.1587 43.4527 70.4615 42.7034C70.7646 41.9533 71.2114 41.2735 71.7796 40.6989C72.3473 40.1246 73.0236 39.6713 73.7663 39.3643C74.5081 39.0577 75.3098 38.9027 76.114 38.9061C77.6978 38.917 79.2175 39.5532 80.343 40.6768C81.4683 41.8002 82.1078 43.3206 82.1283 44.9146C82.1489 46.5078 81.5444 48.0461 80.4465 49.1971Z" fill="#5691FF" stroke="#5691FF" stroke-width="0.998389"/>
<path d="M80.4484 49.2022L80.4478 49.2028C79.3538 50.3538 77.8535 51.025 76.2674 51.0736C75.4642 51.0981 74.6624 50.9617 73.9096 50.6743C73.1579 50.3835 72.4723 49.9478 71.8876 49.3897C71.3069 48.8324 70.8401 48.1616 70.5198 47.4209C70.1995 46.6804 70.0304 45.8801 70.0201 45.07C70.0098 44.2606 70.1597 43.4572 70.4625 42.7078C70.7656 41.9576 71.2125 41.2778 71.7807 40.7031C72.3485 40.1288 73.0248 39.6754 73.7676 39.3684C74.5094 39.0617 75.3112 38.9067 76.1155 38.9101C77.6995 38.9211 79.2193 39.5573 80.3449 40.681C81.4703 41.8045 82.1098 43.3251 82.1304 44.9192C82.151 46.5125 81.5464 48.051 80.4484 49.2022Z" fill="#5691FF" stroke="#5691FF" stroke-width="0.998484"/>
<path fill-rule="evenodd" clip-rule="evenodd" d="M76.7737 46.0176V47.4703C76.7737 47.6279 76.7106 47.7792 76.5984 47.8907C76.4861 48.0021 76.3339 48.0648 76.1751 48.0648C76.0164 48.0648 75.8641 48.0021 75.7519 47.8907C75.6396 47.7792 75.5766 47.6279 75.5766 47.4703V46.0176C75.395 45.9141 75.2441 45.7648 75.1391 45.585C75.034 45.4051 74.9784 45.201 74.978 44.993C74.9854 44.6826 75.1147 44.3874 75.3383 44.1704C75.562 43.9535 75.8622 43.832 76.1748 43.832C76.4874 43.832 76.7876 43.9535 77.0113 44.1704C77.2349 44.3874 77.3642 44.6826 77.3716 44.993C77.3716 45.4323 77.1295 45.8115 76.7737 46.0176ZM74.0602 41.013C74.0609 40.4561 74.284 39.9223 74.6805 39.5286C75.077 39.1349 75.6145 38.9135 76.1751 38.913C76.7357 38.9135 77.2732 39.1349 77.6696 39.5286C78.0659 39.9224 78.2889 40.4562 78.2894 41.013H74.0602ZM80.564 41.013H79.6196C79.6187 40.1059 79.2555 39.2362 78.6097 38.5948C77.964 37.9534 77.0884 37.5927 76.1751 37.5918C75.2618 37.5927 74.3862 37.9534 73.7403 38.5948C73.0944 39.2362 72.7311 40.1058 72.73 41.013H71.7856C71.3623 41.013 70.9563 41.18 70.657 41.4773C70.3576 41.7747 70.1895 42.1779 70.1895 42.5984V49.3364C70.1895 49.7569 70.3576 50.1602 70.657 50.4575C70.9563 50.7548 71.3623 50.9218 71.7856 50.9218H80.564C80.7736 50.9219 80.9813 50.881 81.175 50.8013C81.3687 50.7217 81.5448 50.6049 81.6931 50.4577C81.8413 50.3105 81.959 50.1357 82.0392 49.9433C82.1195 49.7509 82.1608 49.5447 82.1608 49.3364V42.5984C82.1608 42.3902 82.1195 42.1839 82.0392 41.9915C81.959 41.7991 81.8413 41.6243 81.6931 41.4771C81.5448 41.3299 81.3687 41.2131 81.175 41.1335C80.9813 41.0538 80.7736 41.0129 80.564 41.013Z" fill="white"/>
</svg>
