<svg width="16" height="17" viewBox="0 0 16 17" fill="none" xmlns="http://www.w3.org/2000/svg">
<path d="M1.11144 8.49935C1.11144 4.69478 4.19514 1.61046 8.00033 1.61046C11.8049 1.61046 14.8892 4.69481 14.8892 8.49935C14.8892 12.3045 11.8049 15.3882 8.00033 15.3882C4.19512 15.3882 1.11144 12.3046 1.11144 8.49935Z" stroke="#BDBAC1" stroke-width="0.888889"/>
<path d="M9.12351 8.67924C9.54274 8.41065 10.1152 8.04389 10.3063 7.212C10.4557 6.56267 10.317 5.92733 9.91567 5.42333C9.46166 4.85333 8.70433 4.5 7.93833 4.5C7.30663 4.50071 6.70099 4.75196 6.25431 5.19865C5.80763 5.64533 5.55637 6.25096 5.55566 6.88267C5.55566 7.0418 5.61888 7.19441 5.7314 7.30693C5.84392 7.41945 5.99653 7.48267 6.15566 7.48267C6.31479 7.48267 6.46741 7.41945 6.57993 7.30693C6.69245 7.19441 6.75566 7.0418 6.75566 6.88267C6.75566 6.23067 7.28633 5.69933 7.93833 5.69933C8.34166 5.69933 8.749 5.88467 8.977 6.17067C9.151 6.38933 9.20433 6.64933 9.137 6.94333C9.059 7.282 8.857 7.42533 8.47566 7.66867L8.47449 7.66942C7.99459 7.97669 7.33833 8.39687 7.33833 9.466C7.33833 9.62513 7.40155 9.77774 7.51407 9.89026C7.62659 10.0028 7.7792 10.066 7.93833 10.066C8.09746 10.066 8.25007 10.0028 8.3626 9.89026C8.47512 9.77774 8.53833 9.62513 8.53833 9.466C8.53833 9.07333 8.68833 8.95733 9.12233 8.68L9.12351 8.67924Z" fill="#BDBAC1"/>
<path d="M7.38331 12.137C7.53334 12.287 7.73682 12.3713 7.949 12.3713C8.16117 12.3713 8.36465 12.287 8.51468 12.137C8.66471 11.987 8.749 11.7835 8.749 11.5713C8.749 11.3592 8.66471 11.1557 8.51468 11.0056C8.36465 10.8556 8.16117 10.7713 7.949 10.7713C7.73682 10.7713 7.53334 10.8556 7.38331 11.0056C7.23328 11.1557 7.149 11.3592 7.149 11.5713C7.149 11.7835 7.23328 11.987 7.38331 12.137Z" fill="#BDBAC1"/>
</svg>
