<svg width="97" height="76" viewBox="0 0 97 76" fill="none" xmlns="http://www.w3.org/2000/svg">
<ellipse opacity="0.25" cx="48.5" cy="65.3543" rx="48.5" ry="10.3191" fill="#A4E17B"/>
<path d="M14.3887 11.3398H45.4894V65.3552H15.3871C14.8357 65.3552 14.3887 64.9082 14.3887 64.3568V11.3398Z" fill="#B9E09E"/>
<path d="M51.5098 11.3398H82.6105V64.3568C82.6105 64.9082 82.1635 65.3552 81.6121 65.3552H51.5098V11.3398Z" fill="#B9E09E"/>
<rect x="35.5693" width="25.8615" height="64.9073" fill="#B9E09E"/>
<path d="M12.3828 10.2265C12.3828 9.48981 12.98 8.89258 13.7168 8.89258H35.569V11.5605H13.7168C12.98 11.5605 12.3828 10.9632 12.3828 10.2265Z" fill="#B9E09E"/>
<rect x="33.7861" width="29.4286" height="2.6679" rx="1.33395" fill="#B9E09E"/>
<path d="M61.4316 8.89258H83.2839C84.0206 8.89258 84.6178 9.48981 84.6178 10.2265C84.6178 10.9632 84.0206 11.5605 83.2839 11.5605H61.4316V8.89258Z" fill="#B9E09E"/>
<rect x="14.3887" y="46.3477" width="68.2209" height="19.0054" rx="0.998389" fill="#B9E09E"/>
<path d="M31.4453 56.3944C31.4453 55.8163 31.9139 55.3477 32.492 55.3477H46.3728C46.9509 55.3477 47.4195 55.8163 47.4195 56.3944V65.3315H31.4453V56.3944Z" fill="#F5F2FF"/>
<path d="M49.416 56.3944C49.416 55.8163 49.8847 55.3477 50.4627 55.3477H64.3435C64.9216 55.3477 65.3902 55.8163 65.3902 56.3944V60.3396V65.3315H49.416V56.3944Z" fill="#F5F2FF"/>
<rect x="22.1924" y="43.1758" width="3.69658" height="5.15992" rx="0.998389" fill="white"/>
<rect x="32.002" y="43.1758" width="3.69658" height="5.15992" rx="0.998389" fill="white"/>
<rect x="41.8115" y="7.11523" width="3.69658" height="5.15992" rx="0.998389" fill="white"/>
<rect x="22.1924" y="20.4531" width="3.69658" height="5.15992" rx="0.998389" fill="white"/>
<rect x="61.4307" y="20.4531" width="3.69658" height="5.15992" rx="0.998389" fill="white"/>
<rect x="51.6211" y="7.11523" width="3.69658" height="5.15992" rx="0.998389" fill="white"/>
<rect x="32.002" y="20.4531" width="3.69658" height="5.15992" rx="0.998389" fill="white"/>
<rect x="71.2402" y="20.4531" width="3.69658" height="5.15992" rx="0.998389" fill="white"/>
<rect x="51.6211" y="18.2793" width="3.69658" height="5.15992" rx="0.998389" fill="white"/>
<rect x="32.002" y="31.6191" width="3.69658" height="5.15992" rx="0.998389" fill="white"/>
<rect x="71.2402" y="31.6191" width="3.69658" height="5.15992" rx="0.998389" fill="white"/>
<rect x="41.8115" y="18.2793" width="3.69658" height="5.15992" rx="0.998389" fill="white"/>
<rect x="22.1924" y="31.6191" width="3.69658" height="5.15992" rx="0.998389" fill="white"/>
<rect x="61.4307" y="31.6191" width="3.69658" height="5.15992" rx="0.998389" fill="white"/>
<rect x="41.8115" y="29.8359" width="3.69658" height="5.15992" rx="0.998389" fill="white"/>
<rect x="61.4307" y="43.1758" width="3.69658" height="5.15992" rx="0.998389" fill="white"/>
<rect x="51.6211" y="29.8359" width="3.69658" height="5.15992" rx="0.998389" fill="white"/>
<rect x="71.2402" y="43.1758" width="3.69658" height="5.15992" rx="0.998389" fill="white"/>
<path d="M72.3609 29.6556L72.3607 29.6557C65.1616 31.3618 60.1317 38.2789 60.5096 45.7556L72.3609 29.6556ZM72.3609 29.6556C82.5847 27.2313 91.7432 34.8722 91.8673 44.7639M72.3609 29.6556L91.8673 44.7639M91.8673 44.7639C91.9394 50.7497 88.7252 56.1221 76.748 67.97C76.5922 68.1232 76.3281 68.1262 76.1685 67.9759C64.3066 56.8026 60.8003 51.4941 60.5096 45.7558L91.8673 44.7639Z" fill="#87D22E" stroke="white" stroke-width="2.99517"/>
<path d="M80.4465 49.1678L80.4459 49.1685C79.352 50.3194 77.8518 50.9905 76.2659 51.0391C75.4628 51.0636 74.661 50.9273 73.9082 50.6399C73.1566 50.349 72.471 49.9134 71.8863 49.3552C71.3057 48.798 70.8391 48.1273 70.5188 47.3868C70.1985 46.6464 70.0294 45.8461 70.0191 45.0361C70.0089 44.2268 70.1587 43.4234 70.4615 42.6741C70.7646 41.924 71.2114 41.2442 71.7796 40.6696C72.3473 40.0953 73.0236 39.642 73.7663 39.335C74.5081 39.0284 75.3098 38.8734 76.114 38.8768C77.6978 38.8877 79.2175 39.5239 80.343 40.6475C81.4683 41.7709 82.1078 43.2913 82.1283 44.8853C82.1489 46.4785 81.5444 48.0168 80.4465 49.1678Z" fill="white" stroke="#87D22E" stroke-width="0.998389"/>
</svg>
