<svg width="179" height="149" viewBox="0 0 179 149" fill="none" xmlns="http://www.w3.org/2000/svg">
<path d="M1.80003 78.9204C8.37235 54.563 33.697 50.2424 66.7512 30.7627C85.2179 19.8799 102.347 0.000448649 127.021 0C181.597 -0.000992193 190.029 63.6315 164.992 100.838C141.509 135.736 95.97 146.237 59.5869 138.41C7.15041 127.129 -3.55089 98.7512 1.80003 78.9204Z" fill="#E3DDFF"/>
<path d="M66.8876 120.136L70.7865 111.463L81.0909 121.861L77.828 140.122C77.4753 141.4 72.9537 148.345 72.1615 148.567C71.3627 148.791 62.6858 146.741 57.856 144.931C57.3389 144.737 56.3038 144.195 56.5057 143.262C56.8614 141.61 62.1584 141.266 62.9815 139.04C63.9624 136.385 64.2243 127.356 66.8872 120.139" fill="#FFF9E5"/>
<path d="M71.9569 148.748C69.8491 148.407 67.7539 147.989 65.6852 147.455C63.5885 146.916 61.5227 146.278 59.4707 145.579C58.8743 145.376 58.2751 145.168 57.6795 144.958C57.0101 144.72 56.3624 144.434 55.7821 144.016C55.193 143.591 55.0967 142.677 55.5257 142.103C56.1269 141.3 57.0577 140.915 58.032 140.971C58.3612 140.988 58.7252 141.225 58.9259 141.483C59.1267 141.74 59.2574 142.153 59.2008 142.49C59.1427 142.84 58.9852 143.189 58.6958 143.403C58.3961 143.622 58.0774 143.705 57.7066 143.686C57.6717 143.682 57.6396 143.681 57.6039 143.683L57.9648 143.678C57.8294 143.681 57.6983 143.701 57.5653 143.738L57.8986 143.64C57.7683 143.68 57.6461 143.734 57.5314 143.806C57.6287 143.745 57.7291 143.685 57.8264 143.625C57.7252 143.692 57.6362 143.763 57.5489 143.847L57.7911 143.598C57.7433 143.648 57.7018 143.699 57.6596 143.756C57.5751 143.119 57.4909 142.479 57.4032 141.842C57.5156 141.925 57.6323 141.998 57.7493 142.068L57.4485 141.894C57.9846 142.198 58.5695 142.39 59.1468 142.592C59.7456 142.802 60.3448 143.009 60.9479 143.21C62.0486 143.58 63.1573 143.938 64.273 144.264C64.8851 144.443 65.4953 144.612 66.1126 144.775C65.9972 144.745 65.8818 144.715 65.7633 144.684C67.912 145.247 70.0854 145.684 72.2784 146.039C72.6255 146.094 72.9525 146.265 73.1723 146.551C73.3755 146.815 73.5037 147.221 73.4472 147.558C73.3303 148.266 72.6945 148.874 71.9529 148.754L71.9569 148.748Z" fill="#AD7F42"/>
<path d="M115.886 120.089L111.805 111.5C111.805 111.5 103.643 116.732 101.722 122.112C99.2835 128.942 104.549 139.284 105.321 140.679C106.093 142.074 110.416 148.42 111.212 148.625C112.016 148.833 120.647 146.6 125.438 144.689C125.951 144.484 126.974 143.921 126.753 142.992C126.362 141.347 121.059 141.115 120.189 138.908C119.153 136.273 118.701 127.251 115.886 120.093" fill="#FFF9E5"/>
<path d="M111.42 148.801C113.52 148.416 115.606 147.953 117.663 147.377C119.748 146.793 121.8 146.112 123.837 145.37C124.429 145.154 125.023 144.934 125.615 144.712C126.279 144.459 126.92 144.16 127.492 143.73C128.072 143.292 128.149 142.377 127.708 141.812C127.09 141.022 126.151 140.656 125.178 140.732C124.849 140.756 124.49 141.002 124.295 141.263C124.1 141.524 123.978 141.94 124.042 142.276C124.107 142.625 124.272 142.97 124.566 143.178C124.87 143.391 125.19 143.467 125.561 143.44C125.595 143.435 125.627 143.434 125.663 143.436L125.302 143.438C125.438 143.438 125.569 143.456 125.703 143.489L125.368 143.399C125.499 143.436 125.622 143.487 125.738 143.556C125.64 143.498 125.538 143.44 125.44 143.382C125.542 143.446 125.633 143.516 125.722 143.598L125.474 143.354C125.523 143.403 125.566 143.453 125.609 143.509C125.68 142.871 125.751 142.229 125.825 141.59C125.714 141.675 125.599 141.751 125.484 141.823L125.781 141.643C125.251 141.959 124.671 142.163 124.098 142.377C123.503 142.6 122.909 142.819 122.31 143.033C121.217 143.426 120.116 143.807 119.008 144.156C118.4 144.348 117.793 144.53 117.18 144.706C117.294 144.674 117.409 144.641 117.527 144.607C115.39 145.215 113.227 145.699 111.042 146.099C110.696 146.162 110.373 146.34 110.159 146.63C109.961 146.898 109.842 147.307 109.905 147.643C110.037 148.348 110.686 148.942 111.424 148.807L111.42 148.801Z" fill="#AD7F42"/>
<path d="M121.742 85.5376C131.605 80.441 136.293 71.7794 137.452 70.2474C137.638 70.0035 137.949 69.6564 138.353 69.8941C138.751 70.1285 138.819 70.5556 137.878 71.7612C138.415 71.0545 138.942 70.286 139.505 70.8616C139.882 71.2449 139.275 72.0684 138.821 72.6167C139.482 71.9046 139.965 71.3915 140.436 71.8039C140.731 72.0641 140.846 72.4854 139.817 73.6053C140.305 73.2005 140.82 72.3758 141.357 72.7748C141.935 73.2055 141.249 74.1509 140.938 74.4645C141.436 73.9188 141.846 73.4611 142.253 73.7456C142.639 74.0143 142.475 74.5906 142.338 74.9235C141.998 75.7648 137.831 85.8307 123.753 93.4203C119.527 95.6997 116.316 95.5353 115.374 92.6991C114.871 91.1849 115.611 89.2713 117.64 87.9092C118.686 87.2089 120.024 86.4215 121.739 85.536L121.742 85.5376Z" fill="white"/>
<path d="M64.0335 85.5376C54.1699 80.441 49.482 71.7794 48.323 70.2474C48.1369 70.0035 47.8261 69.6564 47.4223 69.8941C47.024 70.1285 46.9561 70.5556 47.897 71.7612C47.3604 71.0545 46.8329 70.286 46.2702 70.8616C45.8936 71.2449 46.5001 72.0684 46.9544 72.6167C46.293 71.9046 45.8106 71.3915 45.3399 71.8039C45.0447 72.0641 44.9293 72.4854 45.9581 73.6053C45.4707 73.2005 44.9557 72.3758 44.4184 72.7748C43.8399 73.2055 44.5266 74.1509 44.8369 74.4645C44.3398 73.9188 43.9294 73.4611 43.5226 73.7456C43.1364 74.0143 43.3005 74.5906 43.4374 74.9235C43.7774 75.7648 47.9442 85.8307 62.0224 93.4203C66.2487 95.6997 69.4597 95.5353 70.4016 92.6991C70.9048 91.1849 70.164 89.2713 68.135 87.9092C67.0894 87.2089 65.751 86.4214 64.0363 85.536L64.0335 85.5376Z" fill="white"/>
<path d="M61.8833 98.8096C60.2462 101.721 59.43 105.265 60.1216 109.395C61.5917 118.155 67.3264 121.909 72.6126 123.384C71.8373 130.558 75.259 142.804 86.63 144.375C100.562 146.298 105.753 136.981 107.276 131.748C107.73 130.185 107.898 127.638 107.512 124.781C107.878 124.76 108.217 124.733 108.529 124.711C113.674 124.362 128.149 118.947 124.372 103.524C124.19 103.022 124.006 102.538 123.817 102.069C129.243 98.8823 134.711 92.725 132.489 83.4546C131.564 79.5926 130.032 76.7482 128.169 74.6733C129.859 71.4004 130.563 67.3313 129.236 62.541C126.133 51.3235 116.308 48.4213 110.013 49.5173C108.398 49.7987 106.606 50.4296 104.841 51.3981C98.972 41.5703 91.7957 42.2782 87.6521 43.2144C84.5253 43.9177 80.2871 46.8031 77.8125 51.5899C75.19 50.434 70.568 48.8874 65.359 50.1736C59.2157 51.6878 52.3553 58.9188 53.553 68.39C53.9439 71.491 55.2738 73.9593 56.1974 75.969C54.453 78.9321 53.5986 82.56 54.4432 86.7919C55.6858 93.0091 58.5768 96.6766 61.8867 98.8159L61.8833 98.8096Z" fill="#5A1EFF"/>
<path d="M110.658 58.0437C110.548 58.0064 108.058 57.1563 108.307 55.4862C108.648 53.1905 111.648 52.8986 113.519 53.3676C115.319 53.8204 116.569 54.998 116.091 56.8582C115.613 58.7184 112.757 58.785 110.658 58.0437Z" fill="#431DCE"/>
<path d="M118.288 78.5261C118.178 78.4888 115.688 77.6388 115.937 75.9686C116.278 73.6729 119.278 73.381 121.149 73.85C122.949 74.3028 124.199 75.4804 123.721 77.3406C123.243 79.2008 120.387 79.2674 118.288 78.5261Z" fill="#431DCE"/>
<path d="M68.8222 80.0554C68.7117 80.0181 66.2214 79.1681 66.4704 77.4979C66.8117 75.2022 69.8115 74.9103 71.6824 75.3793C73.4824 75.8321 74.7326 77.0097 74.2545 78.8699C73.7765 80.7301 70.9208 80.7967 68.8222 80.0554Z" fill="#431DCE"/>
<path d="M92.2605 115.593C92.15 115.555 89.6597 114.705 89.9088 113.035C90.2501 110.739 93.2499 110.447 95.1208 110.916C96.9207 111.369 98.171 112.547 97.6929 114.407C97.2148 116.267 94.3591 116.334 92.2605 115.593Z" fill="#431DCE"/>
<path d="M109.09 100.973C108.979 100.936 106.489 100.086 106.738 98.4158C107.08 96.1202 110.079 95.8283 111.95 96.2973C113.75 96.7501 115 97.9277 114.522 99.7879C114.044 101.648 111.189 101.715 109.09 100.973Z" fill="#431DCE"/>
<path d="M76.3759 96.0691C76.2654 96.0318 73.7751 95.1817 74.0241 93.5115C74.3655 91.2159 77.3652 90.924 79.2361 91.393C81.0361 91.8458 82.2863 93.0234 81.8083 94.8836C81.3302 96.7438 78.4745 96.8104 76.3759 96.0691Z" fill="#431DCE"/>
<path d="M63.2616 58.6648C63.1511 58.6275 60.6608 57.7774 60.9099 56.1072C61.2512 53.8116 64.251 53.5197 66.1219 53.9887C67.9218 54.4415 69.1721 55.6191 68.694 57.4793C68.2159 59.3395 65.3602 59.4061 63.2616 58.6648Z" fill="#431DCE"/>
<path d="M89.7637 92.7648C89.1813 92.707 75.9574 91.5886 73.6395 80.6326C70.4539 65.5707 83.6451 58.6232 93.2227 58.4044C102.432 58.1947 110.631 63.501 112.292 76.0496C113.953 88.6012 100.955 93.871 89.7607 92.7648H89.7637Z" fill="white"/>
<path d="M100.401 71.753C99.527 71.753 97.9882 71.649 96.7291 73.3205C97.6035 73.3205 99.0373 73.4245 99.8767 73.8423" stroke="#7A706C" stroke-width="1.26624" stroke-linecap="round" stroke-linejoin="round"/>
<path d="M85.1893 71.753C86.0636 71.753 87.6024 71.649 88.8615 73.3205C87.9871 73.3205 86.5532 73.4245 85.7139 73.8423" stroke="#7A706C" stroke-width="1.26624" stroke-linecap="round" stroke-linejoin="round"/>
<path d="M83.8218 78.2031C85.0389 77.9524 85.8261 76.7433 85.5802 75.5026C85.3342 74.2618 84.1482 73.4593 82.9311 73.71C81.714 73.9608 80.9267 75.1699 81.1727 76.4106C81.4186 77.6513 82.6047 78.4539 83.8218 78.2031Z" fill="#F9AE85"/>
<path d="M97.7256 77.3451C95.6903 77.7372 93.3337 77.3171 91.8716 75.7128C91.4941 75.2995 91.1353 74.7712 91.1852 74.1794C91.2172 73.8031 91.4305 73.4292 91.7817 73.276C92.1329 73.1229 92.527 73.1501 92.8407 73.378C93.4349 73.8185 93.5912 74.6142 93.1685 75.2405C92.821 75.7545 92.2441 76.0501 91.7001 76.3042C90.3432 76.9386 88.8692 77.26 87.3759 77.2378C87.0265 77.233 86.6997 76.8945 86.7255 76.5331C86.7544 76.1575 87.04 75.8663 87.4156 75.8713C87.6759 75.8745 87.9339 75.8681 88.1927 75.8515C88.2539 75.8466 88.3152 75.8416 88.3795 75.8358C88.4113 75.8314 88.4407 75.8309 88.4725 75.8264C88.4601 75.8295 88.3702 75.8381 88.4469 75.8294C88.5803 75.81 88.7144 75.7939 88.8478 75.7746C89.3697 75.6901 89.8834 75.5573 90.3812 75.385C90.4387 75.3642 90.4992 75.3426 90.5567 75.3218C90.587 75.311 90.6142 75.301 90.6444 75.2902C90.632 75.2933 90.5489 75.3304 90.6204 75.2995C90.7462 75.2485 90.8682 75.1952 90.9925 75.1379C91.2203 75.0317 91.4465 74.9193 91.6665 74.795C91.7389 74.7538 91.8535 74.6419 91.9311 74.6229C91.9249 74.6244 91.8353 74.7033 91.886 74.654C91.9016 74.6368 91.9242 74.6212 91.9405 74.6072C91.9811 74.5704 92.017 74.5281 92.0568 74.4882C92.1098 74.435 92.0201 74.5273 92.0216 74.5337C92.0201 74.5273 92.0553 74.4819 92.06 74.474C92.0647 74.4662 92.0859 74.4174 92.0945 74.4119C92.0821 74.415 92.0541 74.5324 92.0678 74.4654C92.0694 74.4583 92.0822 74.4016 92.0876 74.3969C92.0814 74.3984 92.0766 74.5302 92.0771 74.4631C92.073 74.3904 92.0928 74.543 92.0897 74.5438C92.0897 74.5438 92.0709 74.4646 92.0701 74.4615C92.0803 74.4489 92.1062 74.6134 92.0975 74.5351C92.096 74.5288 92.0653 74.4827 92.0677 74.4788C92.0599 74.4874 92.1646 74.5823 92.1107 74.5353C92.0976 74.5217 92.0799 74.5026 92.0699 74.4883C91.997 74.4024 92.171 74.554 92.0761 74.5002C92.0761 74.5002 92.2121 74.5472 92.1463 74.5332C92.0666 74.5159 92.2896 74.5416 92.2106 74.5409C92.1385 74.5418 92.309 74.5268 92.2997 74.5291C92.2935 74.5306 92.4474 74.4594 92.3805 74.4959C92.3198 74.5308 92.4444 74.4467 92.442 74.4506C92.442 74.4506 92.518 74.3281 92.4897 74.3887C92.4559 74.4539 92.5221 74.3037 92.5205 74.3108C92.5133 74.336 92.5044 74.3951 92.5167 74.295C92.5306 74.1877 92.5216 74.2603 92.5207 74.2839C92.5246 74.3835 92.5187 74.2342 92.5087 74.2199C92.5233 74.2398 92.5381 74.3433 92.5426 74.3623C92.5483 74.4279 92.5275 74.299 92.5128 74.2926C92.5206 74.2974 92.5349 74.3441 92.5403 74.3528C92.5594 74.3917 92.5785 74.4305 92.6007 74.4686C92.6114 74.4861 92.6229 74.5067 92.6336 74.5242C92.6788 74.6036 92.6299 74.5084 92.6014 74.4852C92.6691 74.549 92.7234 74.6395 92.7865 74.7112C92.8541 74.7884 92.9279 74.864 93.0018 74.9397C93.0702 75.0067 93.1442 75.0689 93.215 75.132C93.2696 75.1822 93.178 75.1008 93.1742 75.0984C93.1927 75.1073 93.2142 75.1288 93.2304 75.1416C93.2743 75.1743 93.319 75.2103 93.3629 75.2431C93.5256 75.3606 93.6952 75.4664 93.8689 75.5611C93.9105 75.5844 93.9522 75.6077 93.9962 75.627C94.0256 75.6399 94.0549 75.6528 94.0819 75.6696C94.149 75.7034 94.0379 75.6503 94.034 75.6479C94.1307 75.6677 94.2317 75.7334 94.3221 75.7682C94.5098 75.8393 94.7023 75.9027 94.8979 75.9518C95.0069 75.982 95.1175 76.0051 95.2313 76.0275C95.2591 76.0341 95.427 76.0632 95.338 76.0482C95.249 76.0332 95.4162 76.0592 95.4464 76.0618C95.6739 76.0931 95.9015 76.111 96.1292 76.1154C96.367 76.1207 96.6025 76.1165 96.8404 76.095C96.866 76.0921 96.8885 76.0899 96.9141 76.087C97.004 76.0783 96.9188 76.0791 96.8823 76.0914C96.9312 76.0761 97.0002 76.0759 97.0513 76.0701C97.1723 76.0538 97.2917 76.0312 97.4112 76.0086C97.7533 75.9414 98.1485 76.1392 98.221 76.5134C98.2875 76.8622 98.098 77.2671 97.7272 77.338L97.7256 77.3451Z" fill="#7A706C"/>
<path d="M102.73 78.1406C103.947 77.8899 104.734 76.6808 104.488 75.4401C104.242 74.1993 103.056 73.3968 101.839 73.6475C100.622 73.8983 99.8347 75.1074 100.081 76.3481C100.327 77.5888 101.513 78.3914 102.73 78.1406Z" fill="#F9AE85"/>
<path d="M96.5724 45.7467C95.4115 44.773 94.2777 43.7653 93.2167 42.6789C92.9675 42.4244 92.7245 42.1663 92.4845 41.9048C92.3561 41.7648 92.2308 41.6245 92.1054 41.481C92.0443 41.4092 91.98 41.3375 91.9189 41.2657C91.8917 41.2345 91.6945 40.9968 91.8373 41.1688C91.3544 40.584 90.8993 39.9815 90.4748 39.3514C90.057 38.7274 89.6734 38.0822 89.3269 37.4122C89.2844 37.3296 89.2418 37.2438 89.1993 37.1612C89.199 37.1547 89.0959 36.9448 89.1569 37.0786C89.2281 37.2249 89.1031 36.9608 89.0887 36.9289C89.0493 36.8429 89.0131 36.7568 88.9736 36.6708C88.8148 36.3041 88.6718 35.9333 88.5412 35.5553C88.4256 35.2223 88.3227 34.8885 88.2291 34.5478C88.1862 34.3903 88.1464 34.2326 88.1096 34.0715C88.0892 33.9813 88.0686 33.8878 88.0481 33.7976C88.0486 33.8073 87.9714 33.4104 88.0021 33.5783C88.0331 33.7527 87.9836 33.4619 87.9786 33.4263C87.9644 33.3325 87.9503 33.2419 87.9393 33.148C87.9185 32.9861 87.8977 32.8241 87.8831 32.6586C87.8448 32.2727 87.8225 31.8859 87.8258 31.5011C87.8267 31.325 87.8405 31.1515 87.8384 30.9789C87.8394 30.8061 87.8308 31.0184 87.8287 31.0413C87.8371 30.9529 87.8457 30.8677 87.8575 30.7823C87.9032 30.4149 87.9717 30.0528 88.0725 29.6988C88.0972 29.616 88.1219 29.5333 88.1467 29.4538C88.1962 29.2915 88.1387 29.4868 88.1269 29.5069C88.1959 29.3502 88.2586 29.1938 88.3373 29.0398C88.4162 28.889 88.4982 28.7381 88.5937 28.5996C88.558 28.6536 88.4372 28.7967 88.6093 28.5922C88.6758 28.5139 88.7389 28.4324 88.8088 28.3571C88.9058 28.251 89.0066 28.1546 89.1072 28.0549C88.8936 28.2614 89.2215 27.974 89.2987 27.9179C89.4315 27.8231 89.5648 27.738 89.7046 27.6558C89.7762 27.6163 89.8446 27.5769 89.9162 27.5374C90.1528 27.4079 89.806 27.5724 89.9663 27.5152C90.2552 27.4091 90.5368 27.2838 90.8329 27.1936C90.9905 27.1464 91.1514 27.1023 91.3124 27.0614C91.3945 27.0409 91.4736 27.0238 91.5559 27.0065C91.7045 26.9728 91.6763 26.984 91.5432 27.0072C92.2251 26.8939 92.9092 26.8261 93.6023 26.8101C93.9632 26.8013 94.3248 26.8056 94.6838 26.823C94.7736 26.8281 94.8633 26.8333 94.9531 26.8385C94.9691 26.8376 95.1906 26.8556 95.0302 26.8443C94.8536 26.8305 95.1362 26.8551 95.1748 26.8597C95.2873 26.8702 95.3999 26.884 95.5094 26.9012C96.2208 26.995 96.9284 27.1444 97.6165 27.3503C97.7885 27.4001 97.9577 27.4599 98.13 27.5162C98.1722 27.5304 98.3873 27.6106 98.1592 27.5245C98.2439 27.556 98.3255 27.5909 98.4102 27.6224C98.7431 27.7586 99.0703 27.908 99.3885 28.0709C99.8806 28.3227 100.349 28.6148 100.812 28.9203C101.007 29.0504 101.199 29.184 101.394 29.3174C101.556 29.4264 101.175 29.1559 101.335 29.2748C101.388 29.3145 101.444 29.3507 101.497 29.3903C101.62 29.4786 101.743 29.5701 101.862 29.6617C102.716 30.3089 103.468 31.0233 104.212 31.7902C104.347 31.9267 104.041 31.5675 104.151 31.7183C104.185 31.7655 104.226 31.8123 104.264 31.8592C104.335 31.9501 104.404 32.0444 104.469 32.142C104.525 32.224 104.577 32.3028 104.629 32.3881C104.667 32.4514 104.848 32.8072 104.737 32.5651C104.622 32.3135 104.766 32.6484 104.785 32.6996C104.811 32.7765 104.828 32.8571 104.854 32.934C104.925 33.1325 104.811 32.7667 104.819 32.7467C104.808 32.7701 104.847 32.8528 104.832 32.8764C104.832 32.8732 104.828 32.994 104.835 33.0034C104.818 32.975 104.888 32.5802 104.846 32.8301C104.838 32.8663 104.815 32.9164 104.82 32.952C104.833 33.1013 104.977 32.6505 104.884 32.7727C104.857 32.8067 104.78 32.9345 104.779 32.9704C104.772 32.7557 104.99 32.7151 104.868 32.8257C104.837 32.8533 104.798 32.8977 104.774 32.9316C104.656 33.0778 104.768 32.8048 104.885 32.8411C104.865 32.8356 104.699 32.9648 104.684 32.9818C104.561 33.0924 104.921 32.9403 104.765 32.9386C104.733 32.9402 104.664 32.9698 104.632 32.9812C104.378 33.0725 104.726 32.934 104.737 32.9628C104.737 32.9628 104.571 32.9713 104.549 32.9725C104.262 33.0002 104.654 32.9606 104.646 32.9871C104.646 32.9936 104.436 32.9522 104.452 32.9546C104.388 32.9416 104.32 32.9256 104.255 32.9061C104.206 32.8923 103.941 32.7788 104.131 32.8701C104.302 32.9526 104.138 32.8697 104.108 32.8517C104.042 32.8192 103.974 32.7901 103.908 32.7544C103.774 32.6863 103.642 32.6083 103.513 32.5302C103.447 32.488 103.384 32.4455 103.318 32.4033C103.365 32.4335 103.544 32.5742 103.332 32.4092C103.205 32.3113 103.082 32.2134 102.962 32.1087C102.724 31.9025 102.496 31.6828 102.283 31.4492C102.232 31.3932 102.182 31.3338 102.131 31.2778C102.164 31.3119 102.315 31.5095 102.154 31.3026C102.059 31.1772 101.963 31.0517 101.87 30.9261C101.442 30.3418 101.034 29.7336 100.674 29.1034C100.583 28.9418 100.491 28.777 100.403 28.612C100.361 28.5295 100.318 28.4469 100.276 28.3611C100.304 28.415 100.377 28.5873 100.258 28.3261C100.111 27.9947 99.9756 27.6561 99.8623 27.3066C99.8093 27.1398 99.7593 26.9696 99.7188 26.7957C99.6986 26.712 99.6783 26.625 99.6614 26.5411C99.674 26.6024 99.698 26.8293 99.6679 26.544C99.6508 26.3917 99.6369 26.2392 99.6293 26.0864C99.625 25.9986 99.6334 25.9101 99.6291 25.8224C99.6146 25.6601 99.5816 26.0269 99.6322 25.757C99.6653 25.5858 99.6954 25.418 99.7448 25.2525C99.665 25.5141 99.8168 25.1575 99.848 25.0777C99.9277 24.878 99.6995 25.2418 99.8299 25.0981C99.8783 25.0435 99.9233 24.9825 99.9719 24.9311C100.005 24.8968 100.17 24.7286 100.029 24.863C99.8798 25.0076 100.128 24.7927 100.144 24.7821C100.227 24.7224 100.598 24.5338 100.282 24.674C100.401 24.619 100.52 24.5705 100.643 24.5283C100.784 24.4787 100.929 24.4353 101.078 24.3984C101.125 24.3862 101.366 24.3379 101.169 24.3741C100.954 24.4145 101.315 24.3568 101.322 24.3532C101.938 24.2727 102.553 24.29 103.172 24.3331C102.874 24.3126 103.201 24.3382 103.317 24.3518C103.471 24.3699 103.629 24.3911 103.783 24.4125C104.112 24.4608 104.438 24.5223 104.765 24.5936C105.356 24.7229 105.937 24.8886 106.509 25.0874C106.552 25.1015 106.786 25.184 106.61 25.1213C106.434 25.0587 106.669 25.1444 106.711 25.1585C106.838 25.2074 106.965 25.2595 107.093 25.3117C107.4 25.4393 107.704 25.5802 108.002 25.7246C108.566 26.002 109.118 26.3127 109.65 26.6504C109.782 26.7349 109.917 26.8225 110.047 26.9104C110.126 26.965 110.414 27.1653 110.185 27.0011C110.461 27.1988 110.729 27.4001 110.993 27.6115C111.489 28.0098 111.967 28.4351 112.424 28.881C112.867 29.3146 113.29 29.7688 113.69 30.2437C113.49 30.0095 113.779 30.3532 113.834 30.4254C113.933 30.5507 114.032 30.676 114.127 30.8047C114.322 31.0588 114.508 31.3198 114.69 31.5842C115.052 32.1133 115.386 32.6568 115.695 33.2179C116.064 33.8835 117.078 34.0824 117.68 33.6407C118.343 33.1535 118.491 32.331 118.094 31.6179C115.258 26.5057 110.139 22.3811 104.345 21.5477C102.835 21.3319 101.209 21.2297 99.7442 21.7483C98.9931 22.015 98.2507 22.4574 97.7384 23.09C97.0846 23.8995 96.8028 24.8625 96.7678 25.9009C96.7044 27.6579 97.5105 29.4094 98.3763 30.8807C99.1616 32.2127 100.101 33.5466 101.315 34.5012C102.539 35.4651 104.192 36.3027 105.75 35.6717C107.177 35.0964 107.918 33.6599 107.6 32.1474C107.362 31.0122 106.556 30.0399 105.781 29.2322C104.874 28.2878 103.824 27.4942 102.757 26.7471C101.687 25.9969 100.577 25.3401 99.3553 24.8781C97.6708 24.2442 95.9283 23.9263 94.1325 23.8882C90.97 23.8225 87.197 24.6683 85.7114 27.8643C84.2547 30.9968 85.0456 34.9624 86.4319 37.9717C87.9184 41.1974 90.1945 43.9001 92.7803 46.2708C93.3901 46.8327 94.018 47.3742 94.6519 47.9055C95.2291 48.3909 96.1678 48.4274 96.6772 47.8014C97.1535 47.2163 97.1924 46.2559 96.5751 45.7367L96.5724 45.7467Z" fill="#99D651"/>
<path d="M93.7188 42.0146C93.7188 42.0146 99.857 36.8779 105.771 43.3739C109.43 47.3943 110.586 55.7059 105.574 62.483C105.256 62.9101 104.438 63.6856 103.809 63.6462C102.555 63.5704 101.975 59.7928 101.975 59.7928C101.975 59.7928 96.285 70.1123 90.1757 69.8199C84.496 69.5478 82.5829 56.2094 82.5829 56.2094C82.5829 56.2094 80.7431 58.3837 79.4841 57.8844C77.5467 57.1169 75.393 48.2893 80.2546 42.2338C84.8783 36.4742 90.4315 37.8741 93.7188 42.0146Z" fill="#99D651"/>
<path d="M92.5321 46.9066C91.9558 48.9606 91.4704 51.0424 91.1913 53.1593C91.1167 53.7206 91.0583 54.2843 91.0095 54.8507L91.0394 54.4841C90.8743 56.5136 90.8952 58.5532 91.0023 60.5883C91.0375 61.3004 90.4558 62.0181 89.7302 62.0227C89.0045 62.0274 88.3642 61.4931 88.323 60.726C88.2232 58.8372 88.1966 56.9413 88.3271 55.0537C88.4561 53.1988 88.7073 51.3605 89.1003 49.5441C89.3343 48.4564 89.6106 47.3828 89.9126 46.3111C90.0075 45.9672 90.1876 45.6645 90.4878 45.4633C90.7663 45.2762 91.1838 45.1831 91.5113 45.2738C91.8387 45.3645 92.1614 45.5533 92.3429 45.8602C92.5243 46.1671 92.6297 46.5528 92.5288 46.9036L92.5321 46.9066Z" fill="#80B45D"/>
<path d="M99.9068 47.1058C99.6336 47.0123 99.3527 46.9582 99.0668 46.9306L99.4264 46.961C98.9318 46.9179 98.4383 46.9596 97.9501 47.0466L98.3049 46.9795C97.627 47.1089 96.9731 47.3348 96.348 47.6277C96.0543 47.7666 95.5869 47.6896 95.3111 47.5441C95.0353 47.3985 94.7446 47.081 94.6551 46.7596C94.5614 46.4156 94.5579 46.0213 94.7371 45.7025L94.934 45.4153C95.0915 45.2377 95.2835 45.1104 95.5067 45.0338C96.3223 44.6496 97.18 44.4067 98.0689 44.2762C98.4308 44.2218 98.7974 44.1997 99.1598 44.2202C99.6121 44.2491 100.059 44.2913 100.491 44.4354C100.833 44.5515 101.118 44.703 101.323 45.0218C101.506 45.3057 101.598 45.7313 101.509 46.0651C101.42 46.4022 101.234 46.7279 100.933 46.9129C100.642 47.0909 100.245 47.2156 99.9099 47.1024L99.9068 47.1058Z" fill="#80B45D"/>
<path d="M99.4934 51.9896L99.4685 51.9388L99.6185 52.257C99.2441 51.4744 98.7669 50.7492 98.2128 50.0833L98.4369 50.3489C97.754 49.5364 96.9672 48.8206 96.1056 48.2096L96.3873 48.4103C96.0062 48.1398 95.6101 47.8896 95.1963 47.6696C94.8974 47.5089 94.6461 47.2122 94.5404 46.8851C94.4347 46.5581 94.4549 46.1267 94.6224 45.828C94.9842 45.19 95.7655 44.8891 96.4289 45.2429C98.1927 46.1856 99.7579 47.5754 100.939 49.2098C101.375 49.8132 101.717 50.4574 102.035 51.1321C102.174 51.4281 102.093 51.9148 101.953 52.1892C101.804 52.4805 101.498 52.7668 101.183 52.8579C100.846 52.9535 100.459 52.9571 100.146 52.7743L99.8644 52.5736C99.6902 52.4131 99.5654 52.2174 99.4902 51.9898L99.4934 51.9896Z" fill="#80B45D"/>
<path d="M90.1051 47.3596C89.9637 47.0865 89.7944 46.8311 89.6005 46.5966L89.8247 46.8622C89.519 46.4998 89.1647 46.1887 88.7802 45.9151L89.0619 46.1158C88.4557 45.6906 87.7874 45.3663 87.0967 45.1084L87.4224 45.2286C87.0707 45.1 86.7134 44.988 86.3539 44.8956C86.0204 44.8117 85.7129 44.6058 85.5223 44.3092C85.3318 44.0126 85.2474 43.5997 85.3364 43.2659C85.5224 42.5652 86.2065 42.0444 86.9351 42.2286C88.5154 42.6298 90.1526 43.3411 91.3299 44.516C91.7269 44.9129 92.0912 45.3603 92.3496 45.8653C92.5195 46.1989 92.619 46.5295 92.5355 46.9087C92.4649 47.2285 92.2428 47.5855 91.9602 47.7564C91.659 47.9382 91.2868 48.0421 90.9367 47.946C90.619 47.858 90.2644 47.6708 90.1051 47.3596Z" fill="#80B45D"/>
<path d="M89.9835 46.9098C89.8248 46.9342 89.6662 46.9587 89.511 46.9895L89.8658 46.9223C88.77 47.1351 87.7006 47.4965 86.6953 47.9882L87.0075 47.8353C86.2584 48.2062 85.5415 48.6473 84.9037 49.1984L85.1642 48.9698C85.0784 49.046 84.9928 49.1253 84.9072 49.2047C84.6414 49.4563 84.3528 49.6342 83.9796 49.6533C83.6511 49.6702 83.2514 49.5408 83.0126 49.3021C82.7737 49.0633 82.5746 48.7215 82.5725 48.3565C82.5714 48.0111 82.6606 47.6153 82.9171 47.3707C84.3646 45.9924 86.2083 45.0599 88.1171 44.538C88.685 44.3817 89.2677 44.267 89.8518 44.1816C90.1725 44.1358 90.5844 44.3167 90.8189 44.5328C91.0534 44.749 91.258 45.1361 91.259 45.4784C91.2605 45.8336 91.1637 46.2037 90.9144 46.4642C90.6528 46.7352 90.3583 46.8579 89.9869 46.9128L89.9835 46.9098Z" fill="#80B45D"/>
<circle cx="41.5" cy="22.5" r="10.5" fill="#E3DDFF"/>
<circle cx="25.5" cy="36.5" r="4.5" fill="#E3DDFF"/>
</svg>
