<svg width="225" height="122" viewBox="0 0 225 122" fill="none" xmlns="http://www.w3.org/2000/svg">
<g clip-path="url(#clip0_11886_206032)">
<path d="M109.48 82.5853L118.04 76.0489L122 91.6355L108.673 107.957C107.621 109.036 99.4378 113.545 98.5614 113.354C97.6771 113.162 90.587 106.65 87.0148 102.366C86.6324 101.908 85.9533 100.837 86.6677 100.021C87.931 98.5758 93.1533 100.977 95.1813 99.2087C97.6001 97.0974 102.907 88.3275 109.478 82.5883" fill="#FFF9E5"/>
<path d="M98.5062 113.313C96.6638 111.858 94.8774 110.333 93.1822 108.707C91.4636 107.059 89.8308 105.329 88.2459 103.545C87.7856 103.026 87.3246 102.502 86.8688 101.977C86.358 101.384 85.8946 100.756 85.5722 100.03C85.2456 99.2912 85.6733 98.3223 86.4155 97.9714C87.4541 97.4818 88.5734 97.5852 89.4831 98.1551C89.7916 98.3458 90.0078 98.7765 90.0551 99.1409C90.1025 99.5052 89.9935 99.9888 89.7464 100.298C89.4905 100.62 89.1398 100.887 88.738 100.949C88.3233 101.012 87.9681 100.927 87.6204 100.712C87.5891 100.69 87.5585 100.672 87.5228 100.655L87.8746 100.84C87.7418 100.772 87.6037 100.723 87.4544 100.69L87.832 100.768C87.6834 100.739 87.5344 100.729 87.3829 100.74C87.5113 100.731 87.6426 100.724 87.771 100.714C87.6353 100.728 87.5087 100.752 87.3762 100.791L87.7524 100.668C87.6777 100.693 87.6087 100.722 87.5353 100.757C87.8166 100.073 88.1001 99.3858 88.3786 98.6994C88.4401 98.8415 88.5111 98.9766 88.5844 99.1086L88.3931 98.7749C88.7375 99.3635 89.1931 99.8652 89.6363 100.372C90.095 100.899 90.5559 101.423 91.0241 101.943C91.8771 102.895 92.7446 103.839 93.6372 104.755C94.1266 105.258 94.6198 105.749 95.1231 106.239C95.029 106.148 94.9348 106.056 94.8378 105.963C96.5937 107.661 98.4445 109.247 100.362 110.76C100.666 110.998 100.884 111.342 100.934 111.745C100.979 112.118 100.872 112.593 100.625 112.903C100.109 113.552 99.1474 113.828 98.4989 113.317L98.5062 113.313Z" fill="#AD7F42"/>
<path d="M117.217 57.2C113.989 59.1557 111.158 62.1789 109.395 66.5985C105.659 75.9747 108.829 82.7782 112.909 87.1064C107.999 93.705 104.054 107.557 113.764 115.301C125.664 124.786 135.951 118.5 140.427 114.21C141.763 112.928 143.405 110.527 144.711 107.52C145.066 107.699 145.398 107.858 145.702 108.007C150.715 110.473 167.402 113.073 172.869 95.9164C172.992 95.3266 173.103 94.7517 173.199 94.1903C180.129 94.0321 188.832 90.9903 192.163 80.7044C193.551 76.42 193.779 72.8 193.249 69.753C196.737 67.4721 199.769 63.8737 201.323 58.4611C204.967 45.7892 197.478 37.587 190.954 35.2238C189.281 34.6178 187.238 34.2577 185.023 34.2419C185.271 21.4206 178.151 18.1969 173.732 16.8519C170.4 15.8338 164.756 16.3448 159.65 19.6792C157.874 17.1166 154.456 13.0806 148.837 11.4966C142.213 9.62593 131.582 12.9588 127.177 22.882C125.733 26.1303 125.536 29.2718 125.227 31.7428C121.868 33.6907 118.953 36.7751 117.274 41.3778C114.808 48.1408 115.371 53.3079 117.216 57.2081L117.217 57.2Z" fill="#5A1EFF"/>
<path d="M186.358 44.8986C186.275 44.8023 184.41 42.6229 185.637 41.1339C187.323 39.0868 190.351 40.4324 191.853 41.9048C193.297 43.3229 193.788 45.1472 192.23 46.6965C190.672 48.2459 187.916 46.7595 186.358 44.8986Z" fill="#431DCE"/>
<path d="M182.043 68.914C181.96 68.8178 180.095 66.6383 181.322 65.1494C183.008 63.1022 186.036 64.4478 187.538 65.9202C188.982 67.3383 189.473 69.1626 187.915 70.712C186.357 72.2613 183.6 70.7749 182.043 68.914Z" fill="#431DCE"/>
<path d="M133.799 42.4272C133.716 42.331 131.85 40.1515 133.078 38.6626C134.764 36.6154 137.791 37.961 139.293 39.4334C140.738 40.8515 141.229 42.6758 139.671 44.2252C138.113 45.7745 135.356 44.2881 133.799 42.4272Z" fill="#431DCE"/>
<path d="M136.082 89.858C135.999 89.7617 134.133 87.5823 135.361 86.0933C137.047 84.0462 140.074 85.3918 141.576 86.8641C143.02 88.2822 143.512 90.1066 141.954 91.6559C140.396 93.2053 137.639 91.7189 136.082 89.858Z" fill="#431DCE"/>
<path d="M160.497 85.3062C160.414 85.21 158.549 83.0305 159.776 81.5416C161.462 79.4944 164.49 80.84 165.992 82.3124C167.436 83.7305 167.927 85.5548 166.369 87.1042C164.811 88.6535 162.055 87.1671 160.497 85.3062Z" fill="#431DCE"/>
<path d="M131.944 62.1C131.861 62.0037 129.996 59.8243 131.223 58.3353C132.909 56.2882 135.936 57.6337 137.439 59.1061C138.883 60.5242 139.374 62.3485 137.816 63.8979C136.258 65.4473 133.501 63.9609 131.944 62.1Z" fill="#431DCE"/>
<path d="M140.614 18.7129C140.531 18.6166 138.665 16.4372 139.893 14.9482C141.579 12.9011 144.606 14.2467 146.108 15.7191C147.552 17.1371 148.044 18.9615 146.486 20.5108C144.928 22.0602 142.171 20.5738 140.614 18.7129Z" fill="#431DCE"/>
<path d="M165.394 52.655C166.218 52.9294 167.138 52.4551 167.447 51.5956C167.756 50.7361 167.339 49.8168 166.514 49.5425C165.689 49.2681 164.77 49.7424 164.461 50.6019C164.152 51.4614 164.569 52.3806 165.394 52.655Z" fill="#7A706C"/>
<path d="M155.234 46.9031C156.058 47.1775 156.977 46.7032 157.287 45.8437C157.596 44.9841 157.178 44.0649 156.354 43.7906C155.529 43.5162 154.61 43.9905 154.301 44.85C153.991 45.7095 154.409 46.6287 155.234 46.9031Z" fill="#7A706C"/>
<path d="M148.808 47.6453C150.216 48.5099 151.933 48.2963 152.644 47.1684C153.355 46.0405 152.79 44.4253 151.383 43.5607C149.975 42.6962 148.258 42.9097 147.547 44.0376C146.836 45.1655 147.401 46.7808 148.808 47.6453Z" fill="#F9AE85"/>
<path d="M163.445 55.2268C161.465 54.4484 159.674 52.7624 159.334 50.5103C159.245 49.9298 159.239 49.2563 159.622 48.7528C159.865 48.4328 160.264 48.2157 160.655 48.2732C161.046 48.3308 161.37 48.5742 161.51 48.9529C161.769 49.6783 161.447 50.4794 160.723 50.8068C160.128 51.0751 159.461 51.0201 158.846 50.946C157.312 50.7618 155.856 50.2316 154.58 49.3823C154.282 49.184 154.194 48.6986 154.424 48.3885C154.665 48.0675 155.078 47.9647 155.399 48.1778C155.622 48.3252 155.848 48.4628 156.081 48.5917C156.137 48.6212 156.192 48.6507 156.251 48.6813C156.281 48.695 156.307 48.7109 156.337 48.7245C156.324 48.7204 156.242 48.6782 156.313 48.713C156.439 48.7697 156.564 48.8297 156.69 48.8864C157.189 49.1004 157.708 49.2666 158.236 49.3884C158.298 49.4016 158.362 49.4159 158.424 49.4292C158.456 49.4363 158.485 49.4424 158.518 49.4495C158.505 49.4454 158.412 49.4325 158.492 49.4445C158.629 49.4686 158.765 49.4885 158.905 49.5061C159.163 49.5373 159.422 49.562 159.684 49.5727C159.77 49.5759 159.933 49.5391 160.011 49.5651C160.004 49.563 159.882 49.5841 159.954 49.568C159.977 49.5612 160.006 49.5598 160.028 49.5562C160.084 49.5458 160.139 49.5278 160.196 49.514C160.273 49.4957 160.142 49.5288 160.14 49.5353C160.142 49.5288 160.199 49.5075 160.207 49.5031C160.216 49.4986 160.262 49.4667 160.273 49.4665C160.26 49.4624 160.169 49.5522 160.219 49.4997C160.224 49.4942 160.268 49.4504 160.275 49.4492C160.269 49.4471 160.189 49.5628 160.228 49.5028C160.266 49.4353 160.196 49.5832 160.193 49.5822C160.193 49.5822 160.222 49.5007 160.223 49.4975C160.239 49.4918 160.167 49.6539 160.204 49.5788C160.207 49.5723 160.207 49.5139 160.211 49.5117C160.199 49.5151 160.235 49.6584 160.216 49.5862C160.212 49.5668 160.208 49.5398 160.208 49.5214C160.194 49.4038 160.257 49.6365 160.206 49.5355C160.206 49.5355 160.296 49.6533 160.248 49.6042C160.189 49.5444 160.366 49.6913 160.299 49.6468C160.236 49.6076 160.392 49.6888 160.382 49.6857C160.376 49.6836 160.55 49.7051 160.471 49.7007C160.399 49.6984 160.554 49.6921 160.55 49.6943C160.55 49.6943 160.686 49.6265 160.627 49.6652C160.56 49.705 160.704 49.6068 160.698 49.6123C160.677 49.631 160.636 49.6791 160.704 49.596C160.777 49.5075 160.728 49.5676 160.714 49.5883C160.66 49.6799 160.741 49.5426 160.74 49.5242C160.741 49.5501 160.695 49.6513 160.688 49.6708C160.655 49.7329 160.711 49.6057 160.702 49.5917C160.706 49.6003 160.691 49.6503 160.691 49.6611C160.685 49.7066 160.679 49.7521 160.677 49.7986C160.676 49.8202 160.674 49.8451 160.673 49.8667C160.666 49.9631 160.679 49.8504 160.668 49.8138C160.689 49.9087 160.684 50.0201 160.698 50.1194C160.712 50.2263 160.732 50.3352 160.752 50.4442C160.773 50.5423 160.801 50.6392 160.826 50.7351C160.844 50.8106 160.812 50.6867 160.81 50.6824C160.821 50.7006 160.827 50.7319 160.833 50.7523C160.852 50.8061 160.87 50.8632 160.889 50.917C160.962 51.1129 161.048 51.302 161.143 51.4835C161.166 51.5275 161.188 51.5716 161.215 51.6134C161.233 51.6413 161.251 51.6692 161.265 51.6992C161.303 51.7669 161.238 51.6574 161.236 51.6531C161.308 51.7246 161.357 51.8397 161.415 51.9211C161.536 52.0893 161.666 52.253 161.806 52.4058C161.883 52.4934 161.965 52.5756 162.051 52.6588C162.071 52.6802 162.199 52.7996 162.131 52.7367C162.063 52.6738 162.192 52.7899 162.216 52.8091C162.395 52.9635 162.581 53.106 162.775 53.2364C162.977 53.3732 163.182 53.5003 163.4 53.6131C163.423 53.6247 163.444 53.6353 163.468 53.6468C163.55 53.689 163.476 53.6424 163.438 53.6332C163.489 53.6466 163.548 53.6847 163.596 53.7079C163.71 53.7604 163.826 53.8065 163.942 53.8526C164.275 53.9823 164.502 54.3793 164.35 54.7554C164.207 55.1055 163.811 55.3637 163.451 55.2213L163.445 55.2268Z" fill="#7A706C"/>
<path d="M167.366 58.1569C168.867 59.0593 170.652 58.8705 171.353 57.7353C172.054 56.6001 171.406 54.9482 169.905 54.0458C168.404 53.1434 166.619 53.3322 165.918 54.4674C165.217 55.6027 165.865 57.2545 167.366 58.1569Z" fill="#F9AE85"/>
<path d="M145.69 65.8377C145.176 65.4621 133.394 57.1237 137.646 45.097C143.493 28.5637 159.979 28.9645 169.116 33.9936C177.901 38.8298 182.497 48.529 176.693 61.7598C170.886 74.9936 155.567 73.0513 145.687 65.8361L145.69 65.8377Z" fill="white"/>
<path fill-rule="evenodd" clip-rule="evenodd" d="M0 32.4504C0 29.4402 2.44022 27 5.45038 27L139.55 27C142.56 27 145 29.4402 145 32.4504V63.7515C145 64.5239 144.428 65.1652 143.689 65.3925C140.062 66.5093 137.425 69.8874 137.425 73.8812C137.425 77.8751 140.062 81.2532 143.689 82.37C144.428 82.5973 145 83.2386 145 84.011V116.321C145 119.331 142.56 121.771 139.55 121.771H5.45038C2.44022 121.771 0 119.331 0 116.321L0 83.1063C0 82.9145 0.159492 82.7617 0.351317 82.7617C5.25588 82.7617 9.23182 78.7858 9.23182 73.8812C9.23182 68.9767 5.25588 65.0007 0.351317 65.0007C0.159492 65.0007 0 64.848 0 64.6562L0 32.4504Z" fill="#E3DDFF"/>
<g filter="url(#filter0_d_11886_206032)">
<path d="M72.4913 42.5095C73.0556 42.0775 73.8396 42.0775 74.4039 42.5095L81.2675 47.7644C81.5527 47.9828 81.9041 48.097 82.2633 48.088L90.9048 47.871C91.6153 47.8531 92.2495 48.3139 92.4521 48.9952L94.9161 57.2808C95.0185 57.6252 95.2357 57.9241 95.5315 58.1279L102.65 63.0317C103.236 63.4349 103.478 64.1805 103.241 64.8507L100.364 73.0022C100.245 73.341 100.245 73.7105 100.364 74.0492L103.241 82.2007C103.478 82.871 103.236 83.6166 102.65 84.0197L95.5315 88.9235C95.2357 89.1273 95.0185 89.4262 94.9161 89.7706L92.4521 98.0562C92.2495 98.7375 91.6153 99.1983 90.9048 99.1804L82.2633 98.9634C81.9041 98.9544 81.5527 99.0686 81.2675 99.287L74.4039 104.542C73.8396 104.974 73.0556 104.974 72.4913 104.542L65.6277 99.287C65.3425 99.0686 64.9911 98.9544 64.6319 98.9634L55.9904 99.1804C55.2799 99.1983 54.6456 98.7375 54.4431 98.0562L51.9791 89.7706C51.8767 89.4262 51.6595 89.1273 51.3636 88.9235L44.245 84.0197C43.6596 83.6166 43.4174 82.871 43.6539 82.2007L46.5307 74.0492C46.6503 73.7105 46.6503 73.341 46.5307 73.0022L43.6539 64.8507C43.4174 64.1805 43.6596 63.4349 44.245 63.0317L51.3636 58.1279C51.6595 57.9241 51.8767 57.6252 51.9791 57.2808L54.4431 48.9952C54.6456 48.3139 55.2799 47.8531 55.9904 47.871L64.6319 48.088C64.991 48.097 65.3425 47.9828 65.6277 47.7645L72.4913 42.5095Z" fill="#5A1EFF"/>
<path d="M94.4628 80.7628C94.4628 82.6133 92.9864 84.1056 91.1702 84.1056C89.3539 84.1056 87.8775 82.6133 87.8775 80.7628C87.8775 78.9242 89.3539 77.4199 91.1702 77.4199C92.9864 77.4199 94.4628 78.9242 94.4628 80.7628Z" fill="white"/>
<path fill-rule="evenodd" clip-rule="evenodd" d="M65.4614 61.8766C64.75 60.7322 63.4909 60.0293 62.1336 60.0293C59.9669 60.0293 58.209 61.7785 58.209 63.9445V83.7041H63.7525V69.0694L69.6465 78.0152C70.1016 78.3814 70.6177 78.7176 70.9164 78.6829C71.3204 78.6359 71.9976 78.1947 72.4174 77.8829L78.2982 68.955V83.7041H83.9235V63.9527C83.9235 61.7866 82.1738 60.0293 80.007 60.0293C78.6498 60.0293 77.3988 60.7241 76.6793 61.8766L71.0703 70.9003L65.4614 61.8766Z" fill="white"/>
</g>
<path d="M163.883 51.6621C164.708 51.9365 165.627 51.4622 165.936 50.6026C166.245 49.7431 165.828 48.8239 165.003 48.5495C164.178 48.2752 163.259 48.7495 162.95 49.609C162.641 50.4685 163.058 51.3877 163.883 51.6621Z" fill="#7A706C"/>
<path d="M153.723 45.9102C154.547 46.1845 155.467 45.7102 155.776 44.8507C156.085 43.9912 155.667 43.072 154.843 42.7976C154.018 42.5232 153.099 42.9976 152.79 43.8571C152.48 44.7166 152.898 45.6358 153.723 45.9102Z" fill="#7A706C"/>
<path d="M147.298 46.6519C148.705 47.5165 150.422 47.303 151.133 46.175C151.844 45.0471 151.279 43.4319 149.872 42.5674C148.464 41.7028 146.747 41.9163 146.036 43.0442C145.326 44.1722 145.89 45.7874 147.298 46.6519Z" fill="#F9AE85"/>
<path d="M161.935 54.2323C159.954 53.4539 158.163 51.7679 157.823 49.5159C157.734 48.9353 157.728 48.2618 158.111 47.7583C158.355 47.4383 158.753 47.2212 159.144 47.2788C159.535 47.3363 159.859 47.5797 159.999 47.9585C160.258 48.6838 159.936 49.4849 159.212 49.8123C158.617 50.0807 157.95 50.0256 157.335 49.9515C155.801 49.7673 154.345 49.2371 153.07 48.3878C152.771 48.1895 152.683 47.7041 152.913 47.394C153.154 47.073 153.567 46.9702 153.888 47.1833C154.111 47.3307 154.337 47.4683 154.57 47.5972C154.626 47.6267 154.681 47.6563 154.74 47.6868C154.77 47.7005 154.796 47.7164 154.826 47.73C154.813 47.7259 154.731 47.6837 154.802 47.7185C154.928 47.7752 155.053 47.8352 155.179 47.8919C155.678 48.106 156.197 48.2721 156.725 48.3939C156.787 48.4071 156.851 48.4214 156.913 48.4347C156.945 48.4418 156.974 48.4479 157.007 48.4551C156.994 48.4509 156.901 48.4381 156.981 48.45C157.119 48.4741 157.254 48.494 157.395 48.5116C157.652 48.5428 157.911 48.5675 158.173 48.5782C158.259 48.5814 158.422 48.5446 158.5 48.5706C158.493 48.5686 158.371 48.5896 158.443 48.5735C158.466 48.5667 158.495 48.5653 158.517 48.5618C158.573 48.5513 158.628 48.5333 158.685 48.5195C158.762 48.5012 158.631 48.5343 158.629 48.5408C158.631 48.5343 158.688 48.513 158.696 48.5086C158.705 48.5042 158.751 48.4722 158.762 48.4721C158.749 48.4679 158.658 48.5578 158.708 48.5052C158.713 48.4997 158.757 48.4559 158.764 48.4547C158.758 48.4526 158.678 48.5683 158.717 48.5083C158.755 48.4408 158.685 48.5887 158.682 48.5877C158.682 48.5877 158.711 48.5062 158.712 48.503C158.728 48.4974 158.656 48.6594 158.694 48.5843C158.696 48.5778 158.696 48.5194 158.7 48.5172C158.688 48.5206 158.724 48.6639 158.705 48.5917C158.701 48.5723 158.697 48.5453 158.697 48.527C158.683 48.4093 158.746 48.642 158.695 48.541C158.695 48.541 158.785 48.6588 158.737 48.6097C158.678 48.5499 158.855 48.6968 158.788 48.6523C158.725 48.6131 158.881 48.6943 158.871 48.6912C158.865 48.6891 159.039 48.7106 158.96 48.7062C158.888 48.7039 159.044 48.6976 159.039 48.6998C159.039 48.6998 159.175 48.6321 159.116 48.6707C159.049 48.7105 159.193 48.6124 159.187 48.6178C159.167 48.6365 159.125 48.6846 159.193 48.6015C159.267 48.513 159.217 48.5731 159.203 48.5938C159.149 48.6854 159.23 48.5481 159.229 48.5297C159.23 48.5556 159.184 48.6568 159.177 48.6764C159.144 48.7384 159.2 48.6112 159.191 48.5972C159.195 48.6058 159.181 48.6558 159.18 48.6666C159.174 48.7121 159.168 48.7576 159.166 48.8041C159.165 48.8257 159.163 48.8506 159.162 48.8723C159.156 48.9686 159.168 48.856 159.157 48.8194C159.179 48.9142 159.173 49.0256 159.187 49.1249C159.201 49.2318 159.221 49.3407 159.241 49.4497C159.262 49.5478 159.29 49.6448 159.315 49.7407C159.333 49.8161 159.301 49.6922 159.299 49.6879C159.31 49.7061 159.316 49.7374 159.323 49.7578C159.342 49.8117 159.359 49.8687 159.379 49.9225C159.451 50.1184 159.537 50.3075 159.632 50.489C159.655 50.5331 159.677 50.5771 159.704 50.6189C159.722 50.6468 159.74 50.6747 159.754 50.7048C159.792 50.7724 159.727 50.6629 159.725 50.6586C159.797 50.7301 159.846 50.8452 159.904 50.9266C160.025 51.0948 160.155 51.2585 160.296 51.4113C160.372 51.4989 160.454 51.5811 160.54 51.6643C160.56 51.6857 160.688 51.8051 160.62 51.7422C160.552 51.6793 160.681 51.7955 160.705 51.8146C160.884 51.969 161.07 52.1115 161.264 52.2419C161.466 52.3788 161.671 52.5058 161.889 52.6187C161.913 52.6302 161.933 52.6408 161.957 52.6524C162.039 52.6945 161.965 52.6479 161.927 52.6387C161.978 52.6521 162.037 52.6902 162.085 52.7134C162.199 52.766 162.315 52.812 162.431 52.8581C162.764 52.9878 162.992 53.3848 162.839 53.7609C162.696 54.111 162.3 54.3692 161.94 54.2269L161.935 54.2323Z" fill="#7A706C"/>
<path d="M165.855 57.1629C167.356 58.0653 169.141 57.8766 169.842 56.7414C170.543 55.6061 169.895 53.9543 168.394 53.0519C166.893 52.1495 165.109 52.3383 164.407 53.4735C163.706 54.6087 164.354 56.2606 165.855 57.1629Z" fill="#F9AE85"/>
<path d="M159.574 76.7151C149.093 83.2616 138.112 82.8275 135.984 83.0665C135.644 83.106 135.134 83.2064 135.134 83.728C135.134 84.2425 135.507 84.5502 137.198 84.3345C136.215 84.4467 135.178 84.5149 135.413 85.3807C135.568 85.9591 136.703 85.8464 137.487 85.7231C136.428 85.9516 135.662 86.1218 135.792 86.8069C135.875 87.2373 136.215 87.5872 137.874 87.2386C137.209 87.4752 136.125 87.4996 136.204 88.2408C136.291 89.0393 137.589 88.9192 138.066 88.8003C137.26 88.9661 136.587 89.0989 136.631 89.65C136.671 90.1724 137.318 90.3428 137.715 90.4009C138.716 90.5535 150.752 92.2845 166.015 83.1199C170.598 80.3691 172.257 77.2017 170.063 74.6882C168.892 73.346 166.633 72.9678 164.175 74.1362C162.91 74.7393 161.396 75.5731 159.574 76.7115L159.574 76.7151Z" fill="white"/>
<path d="M216.287 36.4059C217.924 34.3417 220.521 33.6703 222.104 34.9076C223.516 36.0102 223.65 38.2592 222.527 40.2133C222.45 40.3588 222.355 40.5148 222.241 40.6809C219.649 44.4712 211.889 46.7641 208.797 47.5491C208.114 47.7225 207.468 47.2319 207.451 46.5273C207.374 43.39 207.492 35.5268 210.357 32.1076C210.399 32.0497 210.442 31.9914 210.487 31.9343C212.122 29.8411 214.74 29.1541 216.333 30.3989C217.917 31.6361 217.894 34.3178 216.287 36.4059Z" fill="#DD5257"/>
<path d="M214.851 54.7928C216.487 54.1118 218.203 54.4935 218.695 55.6514C219.132 56.6833 218.451 57.986 217.147 58.7553C217.054 58.8144 216.947 58.8744 216.825 58.9343C214.28 60.1962 209.654 59.4676 207.342 58.9826C206.619 58.831 206.273 58.0443 206.648 57.4088C207.826 55.4162 210.329 51.6397 212.898 50.645C212.942 50.625 212.987 50.6047 213.031 50.5857C214.676 49.8879 216.41 50.267 216.904 51.432C217.395 52.5898 216.477 54.0894 214.851 54.7928Z" fill="#EC7478"/>
<path fill-rule="evenodd" clip-rule="evenodd" d="M174.037 11.4104C172.013 10.4716 169.351 10.4309 166.082 11.764C158.073 15.0298 154.94 24.7702 156.285 26.5602C157.159 27.7238 160.123 26.602 160.123 26.602C160.123 26.602 154.149 40.597 159.242 43.922C164.72 47.4982 175.971 40.5345 175.971 40.5345C175.971 40.5345 174.314 44.5187 175.43 45.268C175.988 45.6451 177.195 45.3325 177.737 45.0887C186.304 41.2023 190.059 32.5009 189.01 26.6219C187.313 17.1215 178.657 18.8063 178.657 18.8063C178.456 16.9756 177.888 15.2889 176.964 13.9357C176.973 13.4706 176.996 13.0046 177.034 12.5374C177.038 12.4856 177.043 12.4331 177.048 12.3805C177.053 12.328 177.057 12.2754 177.062 12.2237C177.064 12.2189 177.079 12.0769 177.079 12.067C177.08 12.0563 177.081 12.0454 177.083 12.0348C177.088 11.9904 177.093 11.9497 177.094 11.9374C177.101 11.8848 177.109 11.8327 177.116 11.7805C177.124 11.7283 177.131 11.6761 177.138 11.6235C177.204 11.1801 177.287 10.7412 177.386 10.302C177.473 9.91478 177.572 9.53376 177.684 9.15092C177.735 8.9741 177.79 8.79884 177.85 8.62189C177.867 8.57242 177.884 8.52213 177.901 8.47185C177.919 8.42147 177.936 8.3711 177.953 8.32154C177.95 8.32563 177.977 8.25289 178.004 8.18014C178.018 8.14123 178.032 8.10231 178.042 8.07514C178.046 8.0664 178.049 8.05721 178.053 8.04786C178.074 7.99501 178.098 7.9368 178.104 7.9219C178.108 7.91334 178.111 7.90481 178.115 7.89629C178.153 7.80617 178.189 7.71841 178.23 7.62924C178.305 7.46011 178.38 7.29098 178.463 7.12172C178.652 6.7247 178.856 6.3355 179.083 5.96207C179.13 5.88504 179.179 5.80994 179.227 5.73518C179.286 5.64378 179.345 5.5529 179.399 5.45966C179.408 5.44514 179.415 5.43338 179.421 5.42404C179.457 5.37458 179.494 5.32613 179.531 5.27829C179.788 4.94475 180.062 4.62867 180.362 4.33801C180.424 4.27848 180.487 4.21894 180.549 4.16166C180.582 4.13701 180.614 4.11226 180.647 4.08753C180.76 4.00231 180.872 3.91745 180.991 3.83854C181.131 3.74779 181.273 3.65822 181.419 3.5815C181.44 3.57336 181.468 3.56276 181.504 3.54923C181.539 3.53573 181.575 3.52169 181.611 3.50765C181.682 3.47958 181.753 3.45151 181.826 3.42773C181.946 3.38726 182.065 3.35396 182.185 3.32049C182.19 3.31913 182.195 3.31778 182.2 3.31642C182.114 3.34233 182.226 3.32106 182.346 3.29814C182.421 3.2838 182.5 3.2688 182.536 3.26435C182.714 3.24367 182.887 3.23277 183.065 3.22825C183.109 3.22833 183.153 3.22801 183.197 3.2277C183.241 3.22738 183.285 3.22707 183.33 3.22714C183.341 3.2272 183.351 3.22722 183.36 3.22721C183.368 3.22878 183.377 3.23057 183.389 3.23263C183.505 3.25113 183.621 3.26684 183.737 3.28255C183.952 3.31163 184.168 3.34072 184.38 3.38755C184.554 3.42669 184.728 3.47064 184.902 3.51786C184.99 3.54225 185.073 3.56833 185.159 3.59598C185.169 3.59873 185.177 3.60131 185.185 3.60372C185.87 3.85888 186.531 4.15817 187.172 4.51074C187.511 4.6973 187.844 4.8969 188.167 5.10795L188.408 5.26869C188.423 5.27651 188.618 5.41378 188.476 5.31601C188.379 5.24828 188.438 5.29113 188.505 5.33926C188.545 5.36849 188.588 5.39966 188.601 5.40921C188.699 5.48026 188.795 5.55456 188.887 5.63056C189.272 5.93351 189.643 6.25761 189.995 6.60086C189.438 8.01905 189.27 9.60998 189.229 11.0608C189.181 12.7842 189.275 14.5925 189.846 16.1799C190.42 17.7817 191.465 19.4921 193.278 19.7191C194.935 19.9293 196.459 18.9293 197.045 17.2826C197.485 16.0468 197.304 14.663 197.055 13.4562C196.764 12.0451 196.252 10.7038 195.698 9.39866C195.218 8.26701 194.67 7.18709 193.973 6.19768C193.972 6.19779 193.973 6.19757 193.973 6.19768C193.996 6.18898 194.019 6.17944 194.042 6.17025C194.086 6.1529 194.13 6.13564 194.172 6.12206L194.177 6.12066C194.189 6.11715 194.207 6.11167 194.227 6.10553C194.26 6.10001 194.31 6.09026 194.35 6.08231C194.385 6.07557 194.413 6.07011 194.418 6.0696C194.459 6.06488 194.543 6.06402 194.618 6.06328C194.75 6.06194 194.85 6.06094 194.61 6.03902C194.752 6.04961 194.891 6.06672 195.029 6.0919C195.189 6.11996 195.349 6.15609 195.508 6.20031C195.522 6.20422 195.553 6.21378 195.585 6.2238C195.65 6.24908 195.756 6.28827 195.76 6.2882C196.379 6.54285 196.939 6.8921 197.488 7.26897C197.328 7.15954 197.37 7.18969 197.45 7.24748C197.503 7.28545 197.572 7.33535 197.612 7.36543C197.744 7.46659 197.878 7.57257 198.009 7.67698C198.285 7.90171 198.552 8.1379 198.813 8.38387C199.287 8.82978 199.728 9.30528 200.144 9.80865C200.154 9.82081 200.18 9.85176 200.204 9.88197C200.234 9.91953 200.276 9.9707 200.289 9.98708C200.379 10.1035 200.467 10.2231 200.554 10.3428C200.765 10.6332 200.965 10.935 201.157 11.237C201.518 11.8123 201.85 12.4139 202.146 13.0306C202.22 13.1844 202.294 13.343 202.363 13.4985C202.37 13.5154 202.381 13.5401 202.393 13.5678C202.446 13.6901 202.524 13.8714 202.455 13.7011C202.589 14.0297 202.715 14.3586 202.832 14.6936C203.06 15.3502 203.256 16.0234 203.42 16.7053C203.579 17.3678 203.706 18.039 203.801 18.7187C203.773 18.5304 203.782 18.6012 203.797 18.7176C203.809 18.8093 203.824 18.9293 203.828 18.9734C203.847 19.149 203.866 19.3247 203.88 19.5021C203.912 19.8551 203.933 20.2099 203.948 20.5665C203.976 21.278 203.969 21.9885 203.929 22.7027C203.883 23.5511 204.707 24.2931 205.523 24.1878C206.421 24.0714 207.038 23.3493 207.085 22.4396C207.431 15.9212 205.086 9.13207 200.198 5.18719C198.923 4.16027 197.474 3.1814 195.814 2.89535C194.962 2.74945 194.016 2.77946 193.173 3.11938C192.707 3.30779 192.289 3.56182 191.913 3.86982C191.132 3.14948 190.282 2.51085 189.364 1.94824C186.47 0.174495 182.479 -1.04047 179.24 1.27275C176.096 3.51772 174.521 7.75094 174.037 11.4104ZM192.424 10.0288C192.493 10.1736 192.561 10.3194 192.629 10.466C192.702 10.6287 192.774 10.7923 192.845 10.9567C192.874 11.0219 192.902 11.0873 192.931 11.1528C192.937 11.1667 192.943 11.1806 192.949 11.1945C192.963 11.2278 192.977 11.2611 192.99 11.2947C193.053 11.4471 193.113 11.6027 193.171 11.7567C193.581 12.8351 193.86 13.9235 194.101 15.0575C194.104 15.082 194.107 15.1067 194.11 15.1314C194.113 15.1536 194.116 15.1758 194.119 15.1978C194.132 15.3251 194.141 15.4541 194.145 15.5848C194.148 15.6946 194.15 15.7995 194.149 15.9109C194.149 15.9385 194.144 16.0069 194.139 16.0744C194.136 16.1158 194.134 16.1568 194.132 16.188C194.124 16.2367 194.116 16.2818 194.113 16.2989C194.102 16.3435 194.089 16.3877 194.076 16.4319C194.076 16.4332 194.076 16.4346 194.075 16.4359C194.06 16.4432 194.043 16.453 194.027 16.4658C193.99 16.472 193.952 16.4894 193.926 16.5056C193.922 16.5064 193.917 16.5072 193.912 16.5079C193.893 16.5039 193.872 16.5006 193.853 16.4978L193.735 16.4375C193.734 16.437 193.733 16.4364 193.731 16.4359C193.689 16.3991 193.649 16.3621 193.656 16.3678C193.603 16.3202 193.55 16.2678 193.501 16.2137C193.487 16.1993 193.455 16.1568 193.425 16.1175C193.412 16.0998 193.399 16.0828 193.389 16.0693C193.375 16.0481 193.362 16.0271 193.348 16.006C193.32 15.9643 193.293 15.9224 193.268 15.8785C193.183 15.7394 193.106 15.5921 193.032 15.4464C193.014 15.408 192.996 15.3699 192.979 15.3319C192.967 15.3065 192.955 15.2812 192.943 15.2557C192.94 15.2477 192.937 15.2392 192.934 15.2301C192.874 15.0664 192.817 14.9043 192.766 14.7372C192.666 14.4079 192.582 14.0702 192.521 13.7273C192.513 13.6863 192.507 13.6444 192.5 13.6026C192.496 13.5784 192.492 13.5543 192.488 13.5303C192.488 13.5253 192.487 13.5201 192.487 13.5148C192.471 13.3407 192.455 13.1665 192.442 12.994C192.385 12.1926 192.361 11.3793 192.394 10.5699C192.402 10.3909 192.412 10.2095 192.424 10.0288ZM192.479 13.4778C192.48 13.4833 192.482 13.4913 192.483 13.5009C192.482 13.4931 192.481 13.4854 192.479 13.4778ZM192.493 13.5781C192.496 13.6099 192.499 13.6378 192.5 13.6437C192.5 13.6496 192.498 13.6337 192.493 13.5781ZM193.753 16.4546C193.767 16.4665 193.78 16.4776 193.791 16.4863C193.709 16.4697 193.642 16.4631 193.794 16.4889C193.807 16.4993 193.815 16.5054 193.816 16.504C193.819 16.5016 193.816 16.4972 193.81 16.4916C193.815 16.4924 193.82 16.4932 193.827 16.4941C193.82 16.4927 193.814 16.4913 193.808 16.4899C193.797 16.4804 193.776 16.4677 193.753 16.4546ZM193.864 16.5036L193.883 16.5132C193.885 16.5127 193.887 16.5123 193.89 16.5119C193.882 16.5091 193.873 16.5063 193.864 16.5036ZM193.907 16.52C193.906 16.5213 193.904 16.5225 193.903 16.5238L193.915 16.5298C193.916 16.5267 193.913 16.5233 193.907 16.52ZM193.975 16.5352C193.973 16.5335 193.971 16.5317 193.968 16.5299C193.972 16.5241 193.976 16.5186 193.98 16.5133C193.998 16.5056 194.017 16.4979 194.037 16.4908C194.038 16.4907 194.039 16.4906 194.04 16.4905C194.016 16.5058 193.992 16.5216 193.975 16.5352Z" fill="#99D651"/>
<path fill-rule="evenodd" clip-rule="evenodd" d="M180.825 26.858C181.026 27.0158 181.211 27.1906 181.376 27.3889L181.381 27.3872C181.627 27.6809 182.07 27.7746 182.446 27.7586C182.835 27.7409 183.199 27.5218 183.479 27.2389C183.758 26.9594 183.922 26.4914 183.917 26.1124C183.913 25.6878 183.735 25.3832 183.485 25.0831C183.166 24.7059 182.774 24.4211 182.369 24.1463C182.043 23.9287 181.688 23.7507 181.318 23.6071C180.413 23.251 179.471 23.0224 178.485 22.9555C178.232 22.9092 177.978 22.9297 177.727 23.0184L177.653 23.055C177.531 23.0948 177.41 23.1496 177.295 23.2193C176.967 23.4191 176.698 23.8269 176.606 24.2013C176.514 24.5757 176.574 24.999 176.757 25.3159C176.985 25.7061 177.185 26.1123 177.365 26.5285C177.734 27.4523 178.004 28.4215 178.16 29.4203C178.258 30.2228 178.279 31.0363 178.21 31.8513C178.155 32.1021 178.159 32.3489 178.224 32.5887L178.368 32.9351C178.551 33.2809 178.91 33.4856 179.277 33.5744C179.621 33.6556 180.069 33.5422 180.375 33.3395C180.664 33.1483 181.021 32.7198 181.064 32.3574C181.161 31.5313 181.219 30.7219 181.166 29.9015C181.097 28.8263 180.912 27.7582 180.616 26.7309C180.687 26.7715 180.757 26.8138 180.825 26.858ZM180.994 26.9715L181.012 26.9849C181.006 26.9804 181 26.9759 180.994 26.9715ZM178.219 31.8217L178.22 31.8221L178.227 31.7593L178.219 31.8217ZM178.188 29.6058L178.196 29.6608C178.193 29.6425 178.191 29.6241 178.188 29.6058ZM177.307 26.3852C177.299 26.3666 177.291 26.348 177.283 26.3294L177.307 26.3852Z" fill="#80B45D"/>
<path fill-rule="evenodd" clip-rule="evenodd" d="M169.768 28.2337C171.149 26.4529 172.68 24.8003 174.275 23.2183C174.344 23.164 174.408 23.1056 174.464 23.045C174.489 23.0172 174.513 22.989 174.536 22.9605L174.55 22.9468L174.549 22.9438L174.556 22.935C174.842 22.6522 174.964 22.2297 174.974 21.8419C174.978 21.7006 174.956 21.5642 174.915 21.4353C174.908 20.9694 174.84 20.5075 174.738 20.0629C174.331 18.2823 173.228 16.7051 171.997 15.4607C171.429 14.8877 170.492 15.0256 169.912 15.6077C169.635 15.8848 169.473 16.3326 169.477 16.7245C169.481 17.1164 169.647 17.4831 169.907 17.745C169.971 17.8102 170.034 17.8764 170.097 17.9434C168.501 17.7334 166.849 17.7937 165.255 18.2113C164.873 18.3116 164.559 18.6508 164.358 18.9899C164.147 19.3486 164.132 19.7916 164.215 20.1552C164.298 20.5188 164.594 20.8626 164.91 21.0245C165.269 21.2084 165.641 21.191 166.035 21.0888C166.094 21.0743 166.153 21.0597 166.211 21.0455C167.013 20.893 167.821 20.8525 168.621 20.881C169.718 20.9555 170.799 21.161 171.832 21.4956C171.871 21.5098 171.909 21.5243 171.948 21.5389C171.259 22.2276 170.586 22.9286 169.93 23.652C168.538 25.1859 167.262 26.8164 166.088 28.5278C164.893 30.2698 163.837 32.1032 162.851 33.9689C162.451 34.727 162.728 35.5804 163.389 35.962C164.051 36.3436 164.988 35.9643 165.362 35.2622C166.384 33.3288 167.481 31.4339 168.727 29.637C169.066 29.1616 169.411 28.6931 169.768 28.2337ZM171.723 21.4562C171.687 21.4435 171.651 21.4311 171.615 21.4192L171.723 21.4562Z" fill="#80B45D"/>
</g>
<defs>
<filter id="filter0_d_11886_206032" x="-20.0814" y="-20.0033" width="187.058" height="187.057" filterUnits="userSpaceOnUse" color-interpolation-filters="sRGB">
<feFlood flood-opacity="0" result="BackgroundImageFix"/>
<feColorMatrix in="SourceAlpha" type="matrix" values="0 0 0 0 0 0 0 0 0 0 0 0 0 0 0 0 0 0 127 0" result="hardAlpha"/>
<feOffset/>
<feGaussianBlur stdDeviation="30.8903"/>
<feComposite in2="hardAlpha" operator="out"/>
<feColorMatrix type="matrix" values="0 0 0 0 1 0 0 0 0 1 0 0 0 0 1 0 0 0 0.5 0"/>
<feBlend mode="normal" in2="BackgroundImageFix" result="effect1_dropShadow_11886_206032"/>
<feBlend mode="normal" in="SourceGraphic" in2="effect1_dropShadow_11886_206032" result="shape"/>
</filter>
<clipPath id="clip0_11886_206032">
<rect width="225" height="122" fill="white"/>
</clipPath>
</defs>
</svg>
