<svg width="16" height="16" viewBox="0 0 16 16" fill="none" xmlns="http://www.w3.org/2000/svg">
<circle cx="8" cy="8" r="8" fill="white"/>
<path fill-rule="evenodd" clip-rule="evenodd" d="M11.7869 6.70182L7.72655 10.7629C7.58976 10.8988 7.40479 10.975 7.212 10.975C7.01921 10.975 6.83424 10.8988 6.69745 10.7629L4.21309 8.27855C4.14557 8.21102 4.09201 8.13086 4.05546 8.04264C4.01892 7.95441 4.00011 7.85986 4.00011 7.76436C4.00011 7.57151 4.07672 7.38655 4.21309 7.25018C4.34946 7.11381 4.53442 7.0372 4.72727 7.0372C4.92013 7.0372 5.10508 7.11381 5.24145 7.25018L7.21164 9.22036L10.7585 5.67345C10.8261 5.60593 10.9062 5.55237 10.9945 5.51583C11.0827 5.47928 11.1772 5.46047 11.2727 5.46047C11.3682 5.46047 11.4628 5.47928 11.551 5.51583C11.6392 5.55237 11.7194 5.60593 11.7869 5.67345C11.8544 5.74098 11.908 5.82114 11.9445 5.90936C11.9811 5.99759 11.9999 6.09214 11.9999 6.18764C11.9999 6.28313 11.9811 6.37769 11.9445 6.46591C11.908 6.55413 11.8544 6.63429 11.7869 6.70182ZM8 0C3.58182 0 0 3.58182 0 8C0 12.4182 3.58182 16 8 16C12.4182 16 16 12.4182 16 8C16 3.58182 12.4182 0 8 0Z" fill="#DD5257"/>
</svg>
