<svg width="12" height="11" viewBox="0 0 12 11" fill="none" xmlns="http://www.w3.org/2000/svg">
<path fill-rule="evenodd" clip-rule="evenodd" d="M7.20995 5.50073L10.9773 1.7334C11.0516 1.65911 11.1106 1.57091 11.1508 1.47384C11.1911 1.37677 11.2118 1.27272 11.2118 1.16763C11.2119 1.06255 11.1912 0.958485 11.151 0.861388C11.1108 0.76429 11.0519 0.676058 10.9776 0.60173C10.9033 0.527402 10.8151 0.468433 10.7181 0.42819C10.621 0.387947 10.5169 0.367218 10.4119 0.367188C10.3068 0.367157 10.2027 0.387824 10.1056 0.428009C10.0085 0.468195 9.92028 0.527112 9.84595 0.601397L6.07862 4.3694L2.31062 0.601397C2.15886 0.459647 1.95796 0.382407 1.75033 0.385978C1.54269 0.389549 1.34457 0.473652 1.19777 0.620537C1.05097 0.767421 0.966988 0.965594 0.96354 1.17323C0.960091 1.38087 1.03745 1.58172 1.17929 1.7334L4.94729 5.50073L1.17929 9.26806C1.06793 9.38019 0.992208 9.52275 0.961654 9.6778C0.931099 9.83285 0.947073 9.99348 1.00757 10.1395C1.06806 10.2855 1.17037 10.4103 1.30164 10.4983C1.4329 10.5863 1.58726 10.6336 1.74529 10.6341C1.94995 10.6341 2.15462 10.5561 2.31062 10.4001L6.07862 6.63206L9.84595 10.4001C9.92015 10.4745 10.0083 10.5336 10.1054 10.5739C10.2024 10.6142 10.3065 10.6349 10.4116 10.6349C10.5167 10.6349 10.6208 10.6142 10.7179 10.5739C10.8149 10.5336 10.9031 10.4745 10.9773 10.4001C11.0517 10.3258 11.1107 10.2375 11.1509 10.1404C11.1912 10.0433 11.2119 9.93919 11.2119 9.83406C11.2119 9.72893 11.1912 9.62483 11.1509 9.52771C11.1107 9.43059 11.0517 9.34236 10.9773 9.26806L7.20995 5.50073Z" fill="#BDBAC1"/>
</svg>
