<svg width="16" height="16" viewBox="0 0 16 16" fill="none" xmlns="http://www.w3.org/2000/svg">
<path fill-rule="evenodd" clip-rule="evenodd" d="M9.20971 8.00073L12.977 4.2334C13.0514 4.15911 13.1103 4.07091 13.1506 3.97384C13.1908 3.87677 13.2116 3.77272 13.2116 3.66763C13.2116 3.56255 13.1909 3.45849 13.1508 3.36139C13.1106 3.26429 13.0517 3.17606 12.9774 3.10173C12.9031 3.0274 12.8149 2.96843 12.7178 2.92819C12.6207 2.88795 12.5167 2.86722 12.4116 2.86719C12.3065 2.86716 12.2025 2.88782 12.1054 2.92801C12.0083 2.9682 11.92 3.02711 11.8457 3.1014L8.07838 6.8694L4.31038 3.1014C4.15862 2.95965 3.95772 2.88241 3.75008 2.88598C3.54245 2.88955 3.34433 2.97365 3.19753 3.12054C3.05073 3.26742 2.96674 3.46559 2.9633 3.67323C2.95985 3.88087 3.03721 4.08172 3.17904 4.2334L6.94704 8.00073L3.17904 11.7681C3.06768 11.8802 2.99196 12.0227 2.96141 12.1778C2.93085 12.3329 2.94683 12.4935 3.00732 12.6395C3.06782 12.7855 3.17013 12.9103 3.30139 12.9983C3.43266 13.0863 3.58701 13.1336 3.74504 13.1341C3.94971 13.1341 4.15438 13.0561 4.31038 12.9001L8.07838 9.13206L11.8457 12.9001C11.9199 12.9745 12.0081 13.0336 12.1051 13.0739C12.2022 13.1142 12.3063 13.1349 12.4114 13.1349C12.5165 13.1349 12.6205 13.1142 12.7176 13.0739C12.8147 13.0336 12.9028 12.9745 12.977 12.9001C13.0514 12.8258 13.1104 12.7375 13.1507 12.6404C13.191 12.5433 13.2117 12.4392 13.2117 12.3341C13.2117 12.2289 13.191 12.1248 13.1507 12.0277C13.1104 11.9306 13.0514 11.8424 12.977 11.7681L9.20971 8.00073Z" fill="#88888E"/>
</svg>
