<svg width="16" height="16" viewBox="0 0 16 16" fill="none" xmlns="http://www.w3.org/2000/svg">
<path d="M1.11119 7.99935C1.11119 4.19478 4.1949 1.11046 8.00008 1.11046C11.8046 1.11046 14.889 4.19481 14.889 7.99935C14.889 11.8045 11.8046 14.8882 8.00008 14.8882C4.19487 14.8882 1.11119 11.8046 1.11119 7.99935Z" fill="white" stroke="#88888E" stroke-width="0.888889"/>
<path d="M9.12351 8.17924C9.54274 7.91065 10.1152 7.54389 10.3063 6.712C10.4557 6.06267 10.317 5.42733 9.91567 4.92333C9.46166 4.35333 8.70433 4 7.93833 4C7.30663 4.00071 6.70099 4.25196 6.25431 4.69865C5.80763 5.14533 5.55637 5.75096 5.55566 6.38267C5.55566 6.5418 5.61888 6.69441 5.7314 6.80693C5.84392 6.91945 5.99653 6.98267 6.15566 6.98267C6.31479 6.98267 6.46741 6.91945 6.57993 6.80693C6.69245 6.69441 6.75566 6.5418 6.75566 6.38267C6.75566 5.73067 7.28633 5.19933 7.93833 5.19933C8.34166 5.19933 8.749 5.38467 8.977 5.67067C9.151 5.88933 9.20433 6.14933 9.137 6.44333C9.059 6.782 8.857 6.92533 8.47566 7.16867L8.47449 7.16942C7.99459 7.47669 7.33833 7.89687 7.33833 8.966C7.33833 9.12513 7.40155 9.27774 7.51407 9.39026C7.62659 9.50279 7.7792 9.566 7.93833 9.566C8.09746 9.566 8.25007 9.50279 8.3626 9.39026C8.47512 9.27774 8.53833 9.12513 8.53833 8.966C8.53833 8.57333 8.68833 8.45733 9.12233 8.18L9.12351 8.17924Z" fill="#88888E"/>
<path d="M7.38331 11.637C7.53334 11.787 7.73682 11.8713 7.949 11.8713C8.16117 11.8713 8.36465 11.787 8.51468 11.637C8.66471 11.487 8.749 11.2835 8.749 11.0713C8.749 10.8592 8.66471 10.6557 8.51468 10.5056C8.36465 10.3556 8.16117 10.2713 7.949 10.2713C7.73682 10.2713 7.53334 10.3556 7.38331 10.5056C7.23328 10.6557 7.149 10.8592 7.149 11.0713C7.149 11.2835 7.23328 11.487 7.38331 11.637Z" fill="#88888E"/>
</svg>
