<svg width="16" height="16" viewBox="0 0 16 16" fill="none" xmlns="http://www.w3.org/2000/svg">
<g clip-path="url(#clip0_6761_59914)">
<g clip-path="url(#clip1_6761_59914)">
<circle cx="8.00004" cy="8.00065" r="6.83333" transform="rotate(180 8.00004 8.00065)" stroke="#DD5257"/>
<path fill-rule="evenodd" clip-rule="evenodd" d="M8.2 10.4C8.41217 10.4 8.61566 10.4843 8.76569 10.6343C8.91571 10.7843 9 10.9878 9 11.2C9 11.4122 8.91571 11.6157 8.76569 11.7657C8.61566 11.9157 8.41217 12 8.2 12C7.98783 12 7.78434 11.9157 7.63431 11.7657C7.48429 11.6157 7.4 11.4122 7.4 11.2C7.4 10.9878 7.48429 10.7843 7.63431 10.6343C7.78434 10.4843 7.98783 10.4 8.2 10.4ZM7.53333 5.44333C7.53333 5.26652 7.60357 5.09695 7.7286 4.97193C7.85362 4.84691 8.02319 4.77667 8.2 4.77667C8.37681 4.77667 8.54638 4.84691 8.6714 4.97193C8.79643 5.09695 8.86667 5.26652 8.86667 5.44333L8.86667 8.77667C8.86667 8.95348 8.79643 9.12305 8.6714 9.24807C8.54638 9.3731 8.37681 9.44333 8.2 9.44333C8.02319 9.44333 7.85362 9.3731 7.7286 9.24807C7.60357 9.12305 7.53333 8.95348 7.53333 8.77667L7.53333 5.44333Z" fill="#DD5257"/>
</g>
</g>
<defs>
<clipPath id="clip0_6761_59914">
<rect width="16" height="16" fill="white" transform="translate(16 16) rotate(180)"/>
</clipPath>
<clipPath id="clip1_6761_59914">
<rect width="16" height="16" fill="white" transform="translate(16 16) rotate(180)"/>
</clipPath>
</defs>
</svg>
