<svg width="16" height="16" viewBox="0 0 16 16" fill="none" xmlns="http://www.w3.org/2000/svg">
<path fill-rule="evenodd" clip-rule="evenodd" d="M11.0596 10.0313C11.1272 10.0988 11.1807 10.179 11.2173 10.2672C11.2538 10.3554 11.2726 10.45 11.2726 10.5455C11.2726 10.6409 11.2538 10.7355 11.2173 10.8237C11.1807 10.912 11.1272 10.9921 11.0596 11.0596C10.9921 11.1272 10.912 11.1807 10.8237 11.2173C10.7355 11.2538 10.6409 11.2726 10.5455 11.2726C10.45 11.2726 10.3554 11.2538 10.2672 11.2173C10.179 11.1807 10.0988 11.1272 10.0313 11.0596L8 9.02836L5.96873 11.0596C5.90134 11.1274 5.82123 11.1812 5.73298 11.2179C5.64474 11.2546 5.55012 11.2735 5.45455 11.2735C5.35898 11.2735 5.26435 11.2546 5.17611 11.2179C5.08787 11.1812 5.00775 11.1274 4.94036 11.0596C4.87277 10.9922 4.81914 10.912 4.78255 10.8238C4.74596 10.7355 4.72713 10.641 4.72713 10.5455C4.72713 10.4499 4.74596 10.3554 4.78255 10.2671C4.81914 10.1789 4.87277 10.0988 4.94036 10.0313L6.97164 8L4.94036 5.96873C4.87284 5.9012 4.81928 5.82104 4.78273 5.73282C4.74619 5.6446 4.72738 5.55004 4.72738 5.45455C4.72738 5.35905 4.74619 5.2645 4.78273 5.17627C4.81928 5.08805 4.87284 5.00789 4.94036 4.94036C5.00789 4.87284 5.08805 4.81928 5.17627 4.78273C5.2645 4.74619 5.35905 4.72738 5.45455 4.72738C5.55004 4.72738 5.6446 4.74619 5.73282 4.78273C5.82104 4.81928 5.9012 4.87284 5.96873 4.94036L8 6.97164L10.0313 4.94036C10.0988 4.87284 10.179 4.81928 10.2672 4.78273C10.3554 4.74619 10.45 4.72738 10.5455 4.72738C10.6409 4.72738 10.7355 4.74619 10.8237 4.78273C10.912 4.81928 10.9921 4.87284 11.0596 4.94036C11.1272 5.00789 11.1807 5.08805 11.2173 5.17627C11.2538 5.2645 11.2726 5.35905 11.2726 5.45455C11.2726 5.55004 11.2538 5.6446 11.2173 5.73282C11.1807 5.82104 11.1272 5.9012 11.0596 5.96873L9.02836 8L11.0596 10.0313ZM8 0C3.58182 0 0 3.58182 0 8C0 12.4182 3.58182 16 8 16C12.4182 16 16 12.4182 16 8C16 3.58182 12.4182 0 8 0Z" fill="#D5D4D9"/>
</svg>
