<svg width="33" height="32" viewBox="0 0 33 32" fill="none" xmlns="http://www.w3.org/2000/svg">
<path d="M0.5 16C0.5 24.8366 7.66344 32 16.5 32C25.3366 32 32.5 24.8366 32.5 16C32.5 7.16344 25.3366 0 16.5 0C7.66344 0 0.5 7.16344 0.5 16Z" fill="black"/>
<path d="M16.6614 10.4622C17.2665 10.4622 18.025 10.0406 18.4767 9.47837C18.8858 8.96887 19.1841 8.25731 19.1841 7.54576C19.1841 7.44913 19.1756 7.3525 19.1586 7.27344C18.4853 7.29979 17.6756 7.73902 17.1898 8.32759C16.8063 8.7756 16.4569 9.47837 16.4569 10.1987C16.4569 10.3041 16.4739 10.4095 16.4824 10.4447C16.525 10.4535 16.5932 10.4622 16.6614 10.4622ZM14.5307 21.0916C15.3574 21.0916 15.7239 20.5206 16.7551 20.5206C17.8034 20.5206 18.0336 21.074 18.954 21.074C19.8574 21.074 20.4625 20.2132 21.0336 19.3698C21.6728 18.4035 21.937 17.4548 21.954 17.4109C21.8944 17.3933 20.1642 16.6642 20.1642 14.6174C20.1642 12.8429 21.5279 12.0435 21.6046 11.982C20.7012 10.6467 19.329 10.6116 18.954 10.6116C17.9398 10.6116 17.1131 11.2441 16.5932 11.2441C16.0307 11.2441 15.2892 10.6467 14.4114 10.6467C12.7409 10.6467 11.0449 12.0698 11.0449 14.7579C11.0449 16.427 11.6756 18.1927 12.4512 19.3347C13.1159 20.301 13.6955 21.0916 14.5307 21.0916Z" fill="white"/>
</svg>
