<svg width="40" height="40" viewBox="0 0 40 40" fill="none" xmlns="http://www.w3.org/2000/svg">
<path fill-rule="evenodd" clip-rule="evenodd" d="M20.0003 1.66797C9.87533 1.66797 1.66699 9.8763 1.66699 20.0013C1.66699 30.1263 9.87533 38.3346 20.0003 38.3346C30.1253 38.3346 38.3337 30.1263 38.3337 20.0013C38.3337 9.8763 30.1253 1.66797 20.0003 1.66797Z" fill="white"/>
<path d="M19.3734 26.3324L28.6784 17.0257C28.8332 16.871 28.9559 16.6873 29.0396 16.4851C29.1234 16.2829 29.1665 16.0662 29.1665 15.8474C29.1665 15.6286 29.1234 15.4119 29.0396 15.2097C28.9559 15.0075 28.8332 14.8238 28.6784 14.6691C28.5237 14.5143 28.34 14.3916 28.1378 14.3078C27.9356 14.2241 27.7189 14.181 27.5001 14.181C27.2812 14.181 27.0645 14.2241 26.8624 14.3078C26.6602 14.3916 26.4765 14.5143 26.3217 14.6691L18.1934 22.7974L13.6784 18.2824C13.3659 17.9699 12.942 17.7943 12.5001 17.7943C12.0581 17.7943 11.6343 17.9699 11.3217 18.2824C11.0092 18.5949 10.8337 19.0188 10.8337 19.4607C10.8337 19.6796 10.8768 19.8963 10.9605 20.0984C11.0443 20.3006 11.167 20.4843 11.3217 20.6391L17.0151 26.3324C17.3285 26.6437 17.7524 26.8185 18.1942 26.8185C18.6361 26.8185 19.0599 26.6437 19.3734 26.3324Z" fill="#2AC769"/>
</svg>
