<svg width="40" height="40" viewBox="0 0 40 40" fill="none" xmlns="http://www.w3.org/2000/svg">
<path d="M33.334 18.3307H26.6673L23.334 21.6641V9.9974C23.334 8.16406 24.834 6.66406 26.6673 6.66406H33.334C35.1673 6.66406 36.6673 8.16406 36.6673 9.9974V14.9974C36.6673 16.8307 35.1673 18.3307 33.334 18.3307Z" fill="#FDC800"/>
<path d="M14.1667 22.4974C17.8486 22.4974 20.8333 19.5126 20.8333 15.8307C20.8333 12.1488 17.8486 9.16406 14.1667 9.16406C10.4848 9.16406 7.5 12.1488 7.5 15.8307C7.5 19.5126 10.4848 22.4974 14.1667 22.4974Z" fill="#FFD28F"/>
<path d="M25.0007 30.5833C25.0007 30.5833 22.0007 25 14.1673 25C6.33398 25 3.33398 30.5833 3.33398 30.5833V33.3333H25.0007V30.5833Z" fill="#5A1EFF"/>
</svg>
