<svg width="188" height="24" viewBox="0 0 188 24" fill="none" xmlns="http://www.w3.org/2000/svg">
<path d="M10.2581 18.6716V18.6886H4.78029V5.30195H10.2581C13.9496 5.30195 16.9607 8.30123 16.9607 11.9783C16.9607 15.6723 13.9496 18.6716 10.2581 18.6716ZM10.2581 0.540386L0 0.523438V23.4501L10.2581 23.4671V23.4501C16.6034 23.4501 21.758 18.3158 21.758 11.9953C21.758 5.67474 16.6034 0.540386 10.2581 0.540386Z" fill="#000046"/>
<path d="M54.4555 2.92832C54.4555 1.6066 53.3837 0.539062 52.0568 0.539062C50.7299 0.539062 49.6582 1.6066 49.6582 2.92832V18.7042V21.0765V23.4827H67.5715V18.7042H54.4555V2.92832Z" fill="#000046"/>
<path d="M73.8188 0.539062C72.4907 0.539062 71.418 1.6066 71.418 2.92832V23.4658H76.2196V2.92832C76.2196 1.6066 75.1469 0.539062 73.8188 0.539062Z" fill="#000046"/>
<path d="M109.649 0.539062C108.321 0.539062 107.248 1.6066 107.248 2.92832V23.4658H112.05V2.92832C112.05 1.6066 110.977 0.539062 109.649 0.539062Z" fill="#000046"/>
<path d="M162.127 0.539062C160.8 0.539062 159.729 1.6066 159.729 2.92832V13.7223C159.729 16.7894 157.228 19.2803 154.149 19.2803C151.07 19.2803 148.569 16.7894 148.569 13.7223V2.92832C148.569 1.6066 147.497 0.539062 146.17 0.539062C144.843 0.539062 143.771 1.6066 143.771 2.92832V13.5021C143.771 19.1956 148.416 23.8216 154.132 23.8216C159.848 23.8216 164.492 19.1956 164.492 13.5021V2.92832C164.526 1.6066 163.454 0.539062 162.127 0.539062Z" fill="#000046"/>
<path d="M128.222 19.2234C124.258 19.2234 121.026 16.0038 121.026 12.0557C121.026 8.10745 124.258 4.88788 128.222 4.88788C132.186 4.88788 135.418 8.10745 135.418 12.0557C135.418 16.0038 132.186 19.2234 128.222 19.2234ZM128.222 0.109375C121.604 0.109375 116.229 5.46402 116.229 12.0557C116.229 18.6473 121.604 24.0019 128.222 24.0019C134.839 24.0019 140.215 18.6473 140.215 12.0557C140.198 5.46402 134.822 0.109375 128.222 0.109375Z" fill="#000046"/>
<path d="M31.1346 14.6713L34.4519 6.75791L37.7692 14.6713H31.1346ZM34.4519 0.539062C32.8868 0.539062 31.4578 1.48799 30.8624 2.92832L22.2715 23.4658H27.4601L29.2293 19.2125H39.6575L41.4267 23.4658H46.6153L38.0244 2.92832C37.446 1.48799 36.034 0.539062 34.4519 0.539062Z" fill="#000046"/>
<path d="M91.6099 4.88788C94.8251 4.88788 97.5469 6.98907 98.4656 9.88668H103.382C102.361 4.3287 97.4619 0.109375 91.5928 0.109375C84.9753 0.109375 79.5996 5.46402 79.5996 12.0557C79.5996 18.6473 84.9753 24.0019 91.5928 24.0019C97.4619 24.0019 102.344 19.7826 103.382 14.2246H98.4656C97.5469 17.1222 94.808 19.2234 91.6099 19.2234C87.6461 19.2234 84.4139 16.0038 84.4139 12.0557C84.4139 8.10745 87.6461 4.88788 91.6099 4.88788Z" fill="#000046"/>
<path d="M177.809 9.76306C175.699 9.45805 173.454 9.06831 173.454 7.17047C173.454 5.73013 174.594 4.56092 177.23 4.56092C180.003 4.56092 181.858 5.84875 182.351 7.2213H187.046C186.859 4.42536 183.474 0.00269774 177.281 0.00269774C172.705 -0.0989727 168.435 2.68002 168.435 7.17047C168.435 9.01748 169.439 12.4912 176.142 13.5418C180.037 14.1518 182.436 14.6432 182.436 16.6089C182.436 18.4898 179.748 19.3201 177.809 19.2523C174.917 19.2523 172.671 17.795 172.365 16.253H167.551C167.551 18.8795 170.953 23.7936 177.894 23.8105C183.389 24.0139 187.454 20.7096 187.454 16.6258C187.454 11.4406 181.211 10.2545 177.809 9.76306Z" fill="#000046"/>
</svg>
