<svg width="20" height="20" viewBox="0 0 20 20" fill="none" xmlns="http://www.w3.org/2000/svg">
<path fill-rule="evenodd" clip-rule="evenodd" d="M14.0723 5.53578C14.0724 6.07147 13.9669 6.60191 13.762 7.09684C13.557 7.59177 13.2566 8.04149 12.8779 8.42031C12.4991 8.79913 12.0495 9.09965 11.5546 9.3047C11.0597 9.50974 10.5293 9.61531 9.99357 9.61536C8.91171 9.61547 7.87411 9.18581 7.10904 8.4209C6.34397 7.65598 5.91409 6.61848 5.91398 5.53661C5.91393 5.00093 6.01939 4.47048 6.22433 3.97555C6.42928 3.48063 6.7297 3.03091 7.10845 2.65209C7.87336 1.88702 8.91087 1.45714 9.99273 1.45703C11.0746 1.45692 12.1122 1.88658 12.8773 2.6515C13.6423 3.41641 14.0722 4.45392 14.0723 5.53578ZM9.99315 10.8633C4.11898 10.8633 1.83398 14.6016 1.83398 16.3408C1.83398 18.0791 6.69815 18.5424 9.99315 18.5424C13.2882 18.5424 18.1523 18.0791 18.1523 16.3408C18.1523 14.6016 15.8673 10.8633 9.99315 10.8633Z" fill="#E4E3E7"/>
</svg>
