<svg width="40" height="40" viewBox="0 0 40 40" fill="none" xmlns="http://www.w3.org/2000/svg">
<path d="M35.8327 30.0013H24.166V11.668H32.9993C33.7493 11.668 34.3327 12.168 34.5827 12.8346L37.4993 21.668V28.3346C37.4993 29.2513 36.7493 30.0013 35.8327 30.0013Z" fill="#FDC800"/>
<path d="M24.1667 29.9987H4.16667C3.25 29.9987 2.5 29.2487 2.5 28.332V7.4987C2.5 6.58203 3.25 5.83203 4.16667 5.83203H22.5C23.4167 5.83203 24.1667 6.58203 24.1667 7.4987V29.9987Z" fill="#5A1EFF"/>
<path d="M30.8327 34.1693C33.1339 34.1693 34.9993 32.3038 34.9993 30.0026C34.9993 27.7014 33.1339 25.8359 30.8327 25.8359C28.5315 25.8359 26.666 27.7014 26.666 30.0026C26.666 32.3038 28.5315 34.1693 30.8327 34.1693Z" fill="#37474F"/>
<path d="M10.8327 34.1693C13.1339 34.1693 14.9993 32.3038 14.9993 30.0026C14.9993 27.7014 13.1339 25.8359 10.8327 25.8359C8.5315 25.8359 6.66602 27.7014 6.66602 30.0026C6.66602 32.3038 8.5315 34.1693 10.8327 34.1693Z" fill="#37474F"/>
<path d="M30.8327 31.6693C31.7532 31.6693 32.4993 30.9231 32.4993 30.0026C32.4993 29.0821 31.7532 28.3359 30.8327 28.3359C29.9122 28.3359 29.166 29.0821 29.166 30.0026C29.166 30.9231 29.9122 31.6693 30.8327 31.6693Z" fill="#78909C"/>
<path d="M10.8327 31.6693C11.7532 31.6693 12.4993 30.9231 12.4993 30.0026C12.4993 29.0821 11.7532 28.3359 10.8327 28.3359C9.91221 28.3359 9.16602 29.0821 9.16602 30.0026C9.16602 30.9231 9.91221 31.6693 10.8327 31.6693Z" fill="#78909C"/>
<path d="M34.1667 20.832H28.3333C27.8333 20.832 27.5 20.4987 27.5 19.9987V14.1654C27.5 13.6654 27.8333 13.332 28.3333 13.332H32.75C33.0833 13.332 33.4167 13.582 33.5 13.9154L34.9167 18.2487C34.9167 18.332 35 18.4154 35 18.4987V19.9987C35 20.4987 34.6667 20.832 34.1667 20.832Z" fill="#37474F"/>
<path d="M18.166 11.5L11.5827 18.0833L8.49935 14.9167L6.66602 16.75L11.5827 21.6667L19.9993 13.25L18.166 11.5Z" fill="#F5F2FF"/>
</svg>
