<svg width="40" height="40" viewBox="0 0 40 40" fill="none" xmlns="http://www.w3.org/2000/svg">
<path fill-rule="evenodd" clip-rule="evenodd" d="M17.6047 3.4946L15.0308 6.06623C14.823 6.27415 14.5412 6.39127 14.2473 6.39196H10.1973C8.32499 6.39196 6.80797 7.90897 6.80797 9.78132V13.8312C6.80739 14.1259 6.69031 14.4084 6.48225 14.6171L3.90834 17.1887C3.27295 17.8243 2.91602 18.6862 2.91602 19.585C2.91602 20.4837 3.27295 21.3456 3.90834 21.9812L6.48225 24.5551C6.69017 24.763 6.80729 25.0447 6.80797 25.3387V29.3886C6.80797 31.261 8.32499 32.778 10.1973 32.778H14.2473C14.5419 32.7785 14.8244 32.8956 15.0331 33.1037L17.6047 35.6776C18.2403 36.313 19.1023 36.6699 20.001 36.6699C20.8997 36.6699 21.7616 36.313 22.3972 35.6776L24.9711 33.1037C25.179 32.8958 25.4607 32.7786 25.7547 32.778H29.8046C31.677 32.778 33.194 31.261 33.194 29.3886V25.3387C33.1946 25.044 33.3117 24.7615 33.5197 24.5528L36.0936 21.9812C36.729 21.3456 37.0859 20.4837 37.0859 19.585C37.0859 18.6862 36.729 17.8243 36.0936 17.1887L33.5197 14.6148C33.3118 14.407 33.1947 14.1252 33.194 13.8312V9.78132C33.194 7.90897 31.677 6.39196 29.8046 6.39196H25.7547C25.4599 6.39188 25.1772 6.27471 24.9689 6.06623L22.3972 3.49232C21.7616 2.85694 20.8997 2.5 20.001 2.5C19.1023 2.5 18.2403 2.85694 17.6047 3.49232V3.4946ZM13.5001 24.4731L24.8891 13.0841L26.5018 14.6968L15.1128 26.0858L13.5001 24.4731ZM14.3065 13.8905V16.1683H16.5843V13.8905H14.3065ZM23.4177 25.2795H25.6955V23.0017H23.4177V25.2795Z" fill="#FDC800"/>
</svg>
