<svg width="24" height="24" viewBox="0 0 24 24" fill="none" xmlns="http://www.w3.org/2000/svg">
<g clip-path="url(#clip0_2002_45002)">
<path fill-rule="evenodd" clip-rule="evenodd" d="M7.71429 13.4063L7.71429 10.5938L4.85714 10.5938L4.85714 13.4063L7.71429 13.4063ZM2 6.375L2 17.625C2 18.1223 2.20068 18.5992 2.55789 18.9508C2.9151 19.3025 3.39959 19.5 3.90476 19.5L20.0952 19.5C20.6004 19.5 21.0849 19.3025 21.4421 18.9508C21.7993 18.5992 22 18.1223 22 17.625L22 6.375C22 5.87772 21.7993 5.40081 21.4421 5.04918C21.0849 4.69754 20.6004 4.5 20.0952 4.5L3.90476 4.5C3.39959 4.5 2.9151 4.69755 2.55789 5.04918C2.20068 5.40081 2 5.87772 2 6.375Z" fill="#FDC800"/>
<rect x="4" y="10" width="5" height="4" fill="#FDC800"/>
<path d="M1 6L10.8237 13.1445C11.525 13.6545 12.475 13.6545 13.1763 13.1445L23 6" stroke="white" stroke-width="1.5" stroke-linejoin="round"/>
</g>
<defs>
<clipPath id="clip0_2002_45002">
<rect width="24" height="24" fill="white" transform="translate(0 24) rotate(-90)"/>
</clipPath>
</defs>
</svg>
