<svg width="12" height="15" viewBox="0 0 12 15" fill="none" xmlns="http://www.w3.org/2000/svg">
<path fill-rule="evenodd" clip-rule="evenodd" d="M6.6 9.38224V10.8482C6.6 11.0074 6.53679 11.16 6.42426 11.2725C6.31174 11.385 6.15913 11.4482 6 11.4482C5.84087 11.4482 5.68826 11.385 5.57574 11.2725C5.46321 11.16 5.4 11.0074 5.4 10.8482V9.38224C5.21803 9.27772 5.06678 9.12714 4.96145 8.94564C4.85613 8.76413 4.80045 8.55809 4.8 8.34824C4.80739 8.03497 4.93702 7.73701 5.1612 7.51805C5.38537 7.2991 5.68631 7.17652 5.99967 7.17652C6.31303 7.17652 6.61396 7.2991 6.83814 7.51805C7.06231 7.73701 7.19195 8.03497 7.19933 8.34824C7.19933 8.79157 6.95667 9.17424 6.6 9.38224ZM3.88 4.33157C3.88071 3.76959 4.10431 3.23084 4.50175 2.83352C4.8992 2.4362 5.43802 2.21277 6 2.21224C6.56192 2.21277 7.10067 2.43623 7.49801 2.83356C7.89535 3.2309 8.1188 3.76965 8.11933 4.33157H3.88ZM10.3993 4.33157H9.45267C9.45179 3.41614 9.08774 2.53845 8.44043 1.89114C7.79312 1.24383 6.91543 0.879789 6 0.878906C5.08451 0.879788 4.20675 1.24381 3.55933 1.8911C2.91192 2.53839 2.54773 3.41608 2.54667 4.33157H1.6C1.17565 4.33157 0.768687 4.50014 0.468629 4.8002C0.168571 5.10026 0 5.50723 0 5.93157V12.7316C0 13.1559 0.168571 13.5629 0.468629 13.8629C0.768687 14.163 1.17565 14.3316 1.6 14.3316H10.3993C10.6095 14.3317 10.8176 14.2903 11.0118 14.21C11.206 14.1296 11.3825 14.0118 11.5311 13.8632C11.6798 13.7146 11.7977 13.5382 11.8781 13.344C11.9586 13.1499 12 12.9417 12 12.7316V5.93157C12 5.7214 11.9586 5.51329 11.8781 5.31913C11.7977 5.12496 11.6798 4.94855 11.5311 4.79997C11.3825 4.65138 11.206 4.53354 11.0118 4.45317C10.8176 4.37281 10.6095 4.33149 10.3993 4.33157Z" fill="#BDBAC1"/>
</svg>
