<svg width="33" height="32" viewBox="0 0 33 32" fill="none" xmlns="http://www.w3.org/2000/svg">
<circle cx="16.5" cy="16" r="16" fill="#FEE500"/>
<path d="M16.9333 10C13.1042 10 10 12.4867 10 15.5538C10 17.5367 11.2977 19.2767 13.2497 20.2593C13.1437 20.6313 12.5674 22.6531 12.5445 22.8119C12.5445 22.8119 12.5307 22.9312 12.6068 22.9767C12.6828 23.0222 12.7721 22.987 12.7721 22.987C12.9904 22.9561 15.3018 21.3065 15.7018 21.0202C16.1016 21.0776 16.513 21.1075 16.9333 21.1075C20.7625 21.1075 23.8667 18.6212 23.8667 15.5538C23.8667 12.4867 20.7625 10 16.9333 10Z" fill="black"/>
</svg>
