<svg width="115" height="16" viewBox="0 0 115 16" fill="none" xmlns="http://www.w3.org/2000/svg">
<path d="M112.167 16.0013C113.639 16.0013 114.833 14.8074 114.833 13.3346C114.833 11.8619 113.639 10.668 112.167 10.668C110.694 10.668 109.5 11.8619 109.5 13.3346C109.5 14.8074 110.694 16.0013 112.167 16.0013Z" fill="#343337"/>
<path d="M28.6107 9.28683V1.89604C28.5987 1.40122 28.3968 0.930723 28.0479 0.58504C27.699 0.239357 27.2308 0.0458732 26.7433 0.0458732C26.2558 0.0458732 25.7876 0.239357 25.4387 0.58504C25.0898 0.930723 24.8878 1.40122 24.8759 1.89604V9.40054C24.8759 10.19 24.567 10.9472 24.0171 11.5054C23.4673 12.0637 22.7216 12.3773 21.944 12.3773C21.1664 12.3773 20.4207 12.0637 19.8709 11.5054C19.3211 10.9472 19.0122 10.19 19.0122 9.40054V1.89604C19.0122 1.39318 18.8155 0.91091 18.4653 0.555337C18.1151 0.199763 17.6401 0 17.1449 0C16.6496 0 16.1745 0.199763 15.8243 0.555337C15.4741 0.91091 15.2773 1.39318 15.2773 1.89604V9.28683C15.2911 11.0623 15.9918 12.7611 17.228 14.0169C18.4642 15.2727 20.137 15.9848 21.8856 15.9998C23.6343 16.0147 25.3186 15.3312 26.5754 14.0966C27.8322 12.8621 28.5608 11.1755 28.604 9.40054H28.6096L28.6107 9.28683Z" fill="#343337"/>
<path d="M44.9485 5.22597C44.9471 4.53955 44.8081 3.86013 44.5395 3.2265C44.2709 2.59288 43.8779 2.01745 43.383 1.53309C42.8882 1.04874 42.3012 0.664921 41.6554 0.403571C41.0097 0.142221 40.3178 0.00844719 39.6194 0.00989108L34.0266 2.98765e-06C33.5342 -0.000871972 33.0616 0.190464 32.7127 0.531949C32.3638 0.873433 32.1672 1.33714 32.166 1.82109V15.1111H35.8928V10.4453H37.7756L41.1581 15.1111H45.4993L41.7873 9.9917C42.7272 9.58363 43.5263 8.91602 44.0875 8.06999C44.6487 7.22396 44.9478 6.23594 44.9485 5.22597ZM35.8973 3.65752H39.625C40.0484 3.65752 40.4544 3.82282 40.7538 4.11707C41.0531 4.41131 41.2212 4.81039 41.2212 5.22651C41.2212 5.64263 41.0531 6.04171 40.7538 6.33595C40.4544 6.6302 40.0484 6.7955 39.625 6.7955H35.8973V3.65752Z" fill="#343337"/>
<path d="M60.0608 5.22598C60.0593 4.53955 59.9203 3.86013 59.6517 3.2265C59.383 2.59288 58.9901 2.01745 58.4952 1.53309C58.0004 1.04874 57.4132 0.664924 56.7674 0.403573C56.1216 0.142223 55.4298 0.0084495 54.7313 0.00989338L49.1381 5.29766e-06C48.8942 -0.000572265 48.6526 0.046081 48.4271 0.137299C48.2016 0.228517 47.9966 0.362534 47.8238 0.531649C47.651 0.700765 47.5138 0.901676 47.42 1.12292C47.3263 1.34417 47.2778 1.58142 47.2773 1.82109V15.1111H51.0043V10.4453H52.8874L56.2701 15.1111H60.6107L56.8982 9.9917C57.8384 9.58379 58.6379 8.91623 59.1993 8.07019C59.7607 7.22415 60.06 6.23607 60.0608 5.22598ZM51.0088 3.65752H54.7357C55.1591 3.65752 55.5652 3.82283 55.8646 4.11707C56.164 4.41131 56.3322 4.81039 56.3322 5.22651C56.3322 5.64263 56.164 6.04171 55.8646 6.33596C55.5652 6.6302 55.1591 6.7955 54.7357 6.7955H51.0088V3.65752Z" fill="#343337"/>
<path d="M13.3232 2.94157C13.6486 2.60628 13.8211 2.16566 13.8039 1.71347C13.7868 1.26128 13.5813 0.833172 13.2313 0.520241C12.8812 0.207311 12.4141 0.034228 11.9295 0.037826C11.4448 0.041424 10.9808 0.221435 10.6361 0.539523L4.08994 6.86877V1.83174C4.08994 1.34593 3.88335 0.880025 3.5154 0.536505C3.14746 0.192985 2.64833 0 2.12798 0C1.60763 0 1.10864 0.192985 0.740697 0.536505C0.372756 0.880025 0.166016 1.34593 0.166016 1.83174V15.1023H4.08994V8.27309L9.7053 15.1111L14.3882 15.1023L8.35063 7.75003L13.3232 2.94157Z" fill="#343337"/>
<path d="M92.4729 0.000363861C92.222 -0.000214361 91.9736 0.0465494 91.7416 0.137982C91.5096 0.229415 91.2987 0.363706 91.1209 0.533219C90.9432 0.702732 90.8021 0.90414 90.7056 1.12591C90.6092 1.34767 90.5592 1.58548 90.5587 1.82571V9.11058L84.4903 0.957013C84.1973 0.563632 83.7813 0.269457 83.3025 0.116841C82.8238 -0.0357754 82.3068 -0.0389613 81.826 0.107747C81.3452 0.254455 80.9255 0.543481 80.6272 0.933221C80.3288 1.32296 80.1674 1.79332 80.166 2.27655V15.1111H83.9954V6.2912L90.5587 15.1111H94.3882V1.82571C94.3876 1.58542 94.3376 1.34761 94.2411 1.12584C94.1445 0.904066 94.0032 0.702651 93.8253 0.533152C93.6475 0.363653 93.4366 0.229368 93.2045 0.137948C92.9725 0.0465293 92.7238 -0.000214442 92.4729 0.000363861Z" fill="#343337"/>
<path d="M70.3908 3.13134e-06C69.7951 -0.000880937 69.2133 0.185453 68.7235 0.534011C68.2337 0.882569 67.8593 1.37668 67.6504 1.95015L62.8887 15H66.4332L67.3585 12.4659H73.4198L74.3442 15H77.8887L73.1268 1.95015C72.9181 1.37746 72.5443 0.883911 72.0554 0.535433C71.5664 0.186954 70.9857 0.000155361 70.3908 3.13134e-06V3.13134e-06ZM68.599 9.06716L70.3908 4.15492L72.1825 9.06716H68.599Z" fill="#343337"/>
<path d="M108.535 0.011003L97.0547 0V3.64945L101.706 3.66042V15.1111H105.43V3.66042H108.535C109.026 3.66042 109.498 3.46817 109.845 3.12597C110.193 2.78376 110.388 2.31964 110.388 1.83569C110.388 1.35175 110.193 0.887623 109.845 0.545421C109.498 0.20322 109.026 0.011003 108.535 0.011003Z" fill="#343337"/>
</svg>
