<svg width="101" height="14" viewBox="0 0 101 14" fill="none" xmlns="http://www.w3.org/2000/svg">
<path d="M98.1693 13.9987C99.458 13.9987 100.503 12.954 100.503 11.6654C100.503 10.3767 99.458 9.33203 98.1693 9.33203C96.8806 9.33203 95.8359 10.3767 95.8359 11.6654C95.8359 12.954 96.8806 13.9987 98.1693 13.9987Z" fill="#BDBAC1"/>
<path d="M25.0573 8.12601V1.65904C25.0469 1.22607 24.8702 0.814386 24.5649 0.511912C24.2596 0.209438 23.8499 0.0401393 23.4234 0.0401393C22.9968 0.0401393 22.5872 0.209438 22.2819 0.511912C21.9766 0.814386 21.7999 1.22607 21.7894 1.65904V8.22551C21.7894 8.91632 21.5191 9.57883 21.038 10.0673C20.5569 10.5558 19.9044 10.8302 19.224 10.8302C18.5436 10.8302 17.8911 10.5558 17.41 10.0673C16.9289 9.57883 16.6587 8.91632 16.6587 8.22551V1.65904C16.6587 1.21904 16.4865 0.79705 16.1801 0.485922C15.8737 0.174794 15.4581 0 15.0247 0C14.5914 0 14.1756 0.174794 13.8692 0.485922C13.5628 0.79705 13.3906 1.21904 13.3906 1.65904V8.12601C13.4027 9.67954 14.0158 11.166 15.0974 12.2648C16.1791 13.3636 17.6428 13.9868 19.1729 13.9999C20.703 14.0129 22.1768 13.4148 23.2765 12.3346C24.3762 11.2544 25.0137 9.77861 25.0515 8.22551H25.0564L25.0573 8.12601Z" fill="#BDBAC1"/>
<path d="M39.3527 4.57275C39.3514 3.97212 39.2298 3.37763 38.9948 2.8232C38.7598 2.26878 38.4159 1.76528 37.9829 1.34146C37.5499 0.917648 37.0363 0.581809 36.4712 0.353126C35.9062 0.124444 35.3008 0.00739132 34.6897 0.00865473L29.796 2.61421e-06C29.3652 -0.000762979 28.9516 0.166657 28.6463 0.465457C28.3411 0.764257 28.169 1.17 28.168 1.59346V13.2223H31.4289V9.13969H33.0764L36.0361 13.2223H39.8347L36.5866 8.74278C37.4091 8.38571 38.1083 7.80155 38.5994 7.06127C39.0904 6.32099 39.3521 5.45647 39.3527 4.57275ZM31.4328 3.20035H34.6946C35.065 3.20035 35.4203 3.34499 35.6823 3.60245C35.9442 3.85991 36.0913 4.20911 36.0913 4.57322C36.0913 4.93733 35.9442 5.28652 35.6823 5.54399C35.4203 5.80145 35.065 5.94609 34.6946 5.94609H31.4328V3.20035Z" fill="#BDBAC1"/>
<path d="M52.5762 4.57275C52.5749 3.97213 52.4533 3.37763 52.2182 2.8232C51.9832 2.26878 51.6394 1.76528 51.2063 1.34146C50.7733 0.91765 50.2595 0.581811 49.6944 0.353128C49.1294 0.124446 48.524 0.00739334 47.9129 0.00865675L43.0188 4.63547e-06C42.8054 -0.000500734 42.594 0.040321 42.3966 0.120137C42.1993 0.199953 42.02 0.317218 41.8688 0.465195C41.7176 0.613172 41.5975 0.78897 41.5155 0.982562C41.4334 1.17615 41.391 1.38375 41.3906 1.59346V13.2223H44.6517V9.13969H46.2994L49.2594 13.2223H53.0573L49.8089 8.74278C50.6316 8.38585 51.3311 7.80174 51.8224 7.06145C52.3137 6.32116 52.5755 5.45658 52.5762 4.57275ZM44.6556 3.20035H47.9167C48.2872 3.20035 48.6425 3.34499 48.9045 3.60245C49.1664 3.85992 49.3137 4.20911 49.3137 4.57322C49.3137 4.93733 49.1664 5.28652 48.9045 5.54399C48.6425 5.80145 48.2872 5.94609 47.9167 5.94609H44.6556V3.20035Z" fill="#BDBAC1"/>
<path d="M11.6806 2.57389C11.9653 2.2805 12.1162 1.89496 12.1012 1.49929C12.0862 1.10362 11.9064 0.729029 11.6001 0.455213C11.2938 0.181398 10.8851 0.0299496 10.461 0.0330979C10.037 0.0362462 9.63097 0.193756 9.32937 0.472085L3.60142 6.0102V1.60278C3.60142 1.1777 3.42065 0.770026 3.0987 0.469444C2.77675 0.168863 2.34 0 1.88469 0C1.42939 0 0.992768 0.168863 0.670818 0.469444C0.348868 0.770026 0.167969 1.1777 0.167969 1.60278V13.2146H3.60142V7.23899L8.51488 13.2223L12.6125 13.2146L7.32954 6.78131L11.6806 2.57389Z" fill="#BDBAC1"/>
<path d="M80.9365 0.00031838C80.717 -0.000187566 80.4996 0.0407309 80.2967 0.120735C80.0937 0.200739 79.9091 0.318244 79.7536 0.466569C79.598 0.614893 79.4746 0.791126 79.3902 0.985173C79.3058 1.17922 79.262 1.3873 79.2616 1.5975V7.97179L73.9518 0.83739C73.6953 0.49318 73.3314 0.235776 72.9124 0.102236C72.4935 -0.0313036 72.0412 -0.0340913 71.6205 0.094279C71.1998 0.222649 70.8325 0.475548 70.5715 0.816572C70.3104 1.1576 70.1692 1.56917 70.168 1.99199V13.2223H73.5187V5.50483L79.2616 13.2223H82.6125V1.5975C82.6119 1.38725 82.5682 1.17917 82.4837 0.985114C82.3992 0.791061 82.2755 0.614822 82.1199 0.46651C81.9643 0.318198 81.7798 0.200698 81.5767 0.120705C81.3737 0.0407134 81.1561 -0.000187637 80.9365 0.00031838Z" fill="#BDBAC1"/>
<path d="M61.6152 2.73994e-06C61.0939 -0.000770824 60.5849 0.162272 60.1563 0.467262C59.7277 0.772251 59.4001 1.2046 59.2173 1.70639L55.0508 13.1251H58.1522L58.9619 10.9077H64.2655L65.0744 13.1251H68.1758L64.0092 1.70639C63.8265 1.20528 63.4995 0.773426 63.0717 0.468506C62.6439 0.163585 62.1357 0.000135941 61.6152 2.73994e-06ZM60.0473 7.9338L61.6152 3.63557L63.1829 7.9338H60.0473Z" fill="#BDBAC1"/>
<path d="M94.9903 0.00962769L84.9453 0V3.19328L89.0153 3.20288V13.2223H92.2734V3.20288H94.9903C95.4204 3.20288 95.8329 3.03466 96.137 2.73523C96.4412 2.43581 96.612 2.02969 96.612 1.60624C96.612 1.18278 96.4412 0.776673 96.137 0.477246C95.8329 0.177818 95.4204 0.00962769 94.9903 0.00962769Z" fill="#BDBAC1"/>
</svg>
