<svg width="44" height="21" viewBox="0 0 44 21" fill="none" xmlns="http://www.w3.org/2000/svg">
<rect width="43.6938" height="20.897" fill="#00C73C"/>
<g clip-path="url(#clip0_8152_83237)">
<path d="M22.7969 6.64844H25.5087C25.9362 6.64844 26.3066 6.70068 26.6248 6.80991C26.9383 6.91915 27.1995 7.07113 27.4085 7.2611C27.6174 7.45582 27.7694 7.68379 27.8692 7.94975C27.9689 8.21571 28.0211 8.50542 28.0211 8.81413V9.03735C28.0211 9.34605 27.9689 9.63576 27.8597 9.90647C27.7504 10.1772 27.5937 10.4146 27.38 10.6189C27.171 10.8231 26.9098 10.9846 26.5963 11.1033C26.2829 11.222 25.9219 11.2838 25.5087 11.2838H23.8417V14.2474H22.7969V6.64844ZM23.8417 7.55556V10.3814H25.3378C26.4349 10.3814 26.981 9.93022 26.981 9.0231V8.83313C26.981 8.39619 26.848 8.07798 26.5868 7.86901C26.3256 7.66004 25.9457 7.56031 25.4517 7.56031H23.8417V7.55556Z" fill="white"/>
<path d="M30.6995 14.3334C30.1154 14.3334 29.6547 14.191 29.3127 13.9013C28.9708 13.6115 28.7998 13.2174 28.7998 12.7092V12.4242C28.7998 11.9303 28.966 11.5313 29.2937 11.2226C29.6262 10.9139 30.1581 10.7572 30.8943 10.7572H32.357V10.42C32.357 10.0353 32.2621 9.7456 32.0768 9.56038C31.8916 9.37515 31.5877 9.28017 31.165 9.28017C30.8278 9.28017 30.5333 9.33241 30.2863 9.43689C30.0346 9.54138 29.7782 9.68386 29.5122 9.85958L29.004 9.09969C29.2842 8.90497 29.6024 8.734 29.9539 8.58677C30.3053 8.44429 30.7138 8.37305 31.1745 8.37305C31.4974 8.37305 31.7919 8.41579 32.0578 8.49653C32.3238 8.57727 32.5565 8.696 32.7465 8.85273C32.9412 9.00946 33.0884 9.20418 33.1977 9.43215C33.3069 9.66011 33.3592 9.91658 33.3592 10.2063V14.248H32.3808V13.5546H32.3713C32.3143 13.659 32.2383 13.7588 32.1433 13.8443C32.0483 13.9345 31.9439 14.0057 31.8346 14.0722C31.6779 14.1577 31.5117 14.2195 31.3359 14.267C31.1697 14.3097 30.956 14.3334 30.6995 14.3334ZM32.3665 11.6216H30.9228C30.5238 11.6216 30.2341 11.6976 30.0631 11.8543C29.8921 12.011 29.8067 12.2247 29.8067 12.4955V12.6427C29.8067 12.9229 29.9064 13.1271 30.1011 13.2553C30.2958 13.3836 30.5333 13.4453 30.8088 13.4453C31.0605 13.4453 31.2789 13.4168 31.4689 13.3551C31.6541 13.2933 31.8251 13.2079 31.9819 13.0844C32.1243 12.9799 32.2241 12.8564 32.2811 12.7187C32.3428 12.5809 32.3713 12.4052 32.3713 12.1868V11.6216H32.3665Z" fill="white"/>
<path d="M36.9401 13.0873L38.4599 8.48047H39.5332L36.5412 16.6256L35.615 16.2979L36.3654 14.3269L34.2615 8.48047H35.3681L36.8973 13.0873H36.9401Z" fill="white"/>
<path d="M5.69922 3.79883V17.0969H18.9973V3.79883H5.69922ZM15.6728 13.4922H13.4074L11.2607 10.3434V13.4922H9.02374V7.40356H11.2939L13.4406 10.5524V7.40356H15.6728V13.4922Z" fill="white"/>
</g>
<defs>
<clipPath id="clip0_8152_83237">
<rect width="33.8342" height="13.2981" fill="white" transform="translate(5.69922 3.79883)"/>
</clipPath>
</defs>
</svg>
