<svg width="24" height="24" viewBox="0 0 24 24" fill="none" xmlns="http://www.w3.org/2000/svg">
<path fill-rule="evenodd" clip-rule="evenodd" d="M12.0001 15.3336C11.5624 15.3336 11.129 15.2474 10.7246 15.0799C10.3202 14.9124 9.95272 14.6669 9.64321 14.3574C9.3337 14.0479 9.08818 13.6804 8.92067 13.276C8.75316 12.8716 8.66694 12.4382 8.66694 12.0005C8.66694 11.5627 8.75316 11.1293 8.92067 10.7249C9.08818 10.3205 9.3337 9.95305 9.64321 9.64354C9.95272 9.33402 10.3202 9.0885 10.7246 8.921C11.129 8.75349 11.5624 8.66727 12.0001 8.66727C12.8841 8.66727 13.7319 9.01845 14.357 9.64354C14.9821 10.2686 15.3333 11.1164 15.3333 12.0005C15.3333 12.8845 14.9821 13.7323 14.357 14.3574C13.7319 14.9825 12.8841 15.3336 12.0001 15.3336ZM20.2119 13.7745C19.7547 13.301 19.4994 12.6683 19.5001 12.01V11.9909C19.4994 11.3326 19.7547 10.6999 20.2119 10.2264L21.0656 9.34455C21.4165 8.98091 21.4838 8.42818 21.2319 7.99091L20.0883 6.01091C19.9656 5.79777 19.7767 5.63045 19.5503 5.53432C19.3239 5.43819 19.0724 5.41848 18.8338 5.47818L17.6383 5.77636C16.9964 5.93709 16.317 5.84018 15.7456 5.50636L15.7292 5.49727C15.1664 5.1702 14.7523 4.63778 14.5738 4.01182L14.2319 2.82182C14.1645 2.58517 14.0219 2.37692 13.8255 2.22863C13.6292 2.08034 13.3898 2.00008 13.1438 2H10.8565C10.3519 2 9.90649 2.33545 9.76831 2.82182L9.40013 4.10273C9.23847 4.6752 8.85847 5.1613 8.34194 5.45636C8.28859 5.4862 8.23586 5.51711 8.18376 5.54909C7.6655 5.85772 7.04611 5.94859 6.46104 5.80182L5.16558 5.47818C4.92708 5.41855 4.67565 5.4382 4.44931 5.53415C4.22297 5.6301 4.03402 5.79713 3.91104 6.01L2.76831 7.99091C2.6454 8.20403 2.59516 8.45136 2.62517 8.69554C2.65518 8.93973 2.76381 9.16753 2.93467 9.34455L3.78831 10.2264C4.24558 10.7 4.50104 11.3327 4.50104 11.99V12.01C4.50104 12.6682 4.24558 13.3009 3.78831 13.7745L3.33104 14.2473C3.04588 14.5421 2.86449 14.9218 2.8143 15.3289C2.76411 15.736 2.84785 16.1484 3.05285 16.5036L3.91194 17.99C4.16467 18.4282 4.67558 18.6455 5.16649 18.5227L6.46194 18.1991C7.04702 18.0523 7.66641 18.1432 8.18467 18.4518C8.23649 18.4836 8.28922 18.5145 8.34285 18.5445C8.86013 18.8373 9.2374 19.3255 9.40103 19.8982L9.76831 21.1791C9.90649 21.6655 10.3519 22 10.8565 22H13.1438C13.6483 22 14.0938 21.6655 14.2319 21.1791L14.5992 19.8982C14.7629 19.3255 15.1401 18.8373 15.6574 18.5445C15.711 18.5145 15.7638 18.4836 15.8156 18.4518C16.3338 18.1432 16.9532 18.0523 17.5383 18.1991L18.8338 18.5227C19.0723 18.5824 19.3237 18.5627 19.55 18.4668C19.7764 18.3708 19.9653 18.2038 20.0883 17.9909L21.2319 16.01C21.3549 15.7969 21.4051 15.5496 21.3751 15.3054C21.3451 15.0612 21.2364 14.8334 21.0656 14.6564L20.2119 13.7745Z" stroke="#343337" stroke-width="1.81818"/>
</svg>
