<svg width="24" height="24" viewBox="0 0 24 24" fill="none" xmlns="http://www.w3.org/2000/svg">
<path fill-rule="evenodd" clip-rule="evenodd" d="M12.9 14.0753V16.2743C12.9 16.513 12.8052 16.7419 12.6364 16.9107C12.4676 17.0795 12.2387 17.1743 12 17.1743C11.7613 17.1743 11.5324 17.0795 11.3636 16.9107C11.1948 16.7419 11.1 16.513 11.1 16.2743V14.0753C10.827 13.9185 10.6002 13.6927 10.4422 13.4204C10.2842 13.1481 10.2007 12.8391 10.2 12.5243C10.2111 12.0544 10.4055 11.6075 10.7418 11.279C11.0781 10.9506 11.5295 10.7667 11.9995 10.7667C12.4695 10.7667 12.9209 10.9506 13.2572 11.279C13.5935 11.6075 13.7879 12.0544 13.799 12.5243C13.799 13.1893 13.435 13.7633 12.9 14.0753ZM8.82 6.49931C8.82106 5.65634 9.15647 4.84821 9.75263 4.25224C10.3488 3.65626 11.157 3.32111 12 3.32031C12.8429 3.32111 13.651 3.65629 14.247 4.2523C14.843 4.8483 15.1782 5.65643 15.179 6.49931H8.82ZM18.599 6.49931H17.179C17.1777 5.12616 16.6316 3.80963 15.6606 2.83867C14.6897 1.8677 13.3731 1.32164 12 1.32031C10.6268 1.32164 9.31012 1.86767 8.339 2.83861C7.36788 3.80954 6.82159 5.12607 6.82 6.49931H5.4C4.76348 6.49931 4.15303 6.75217 3.70294 7.20226C3.25286 7.65234 3 8.26279 3 8.89931V19.0993C3 19.7358 3.25286 20.3463 3.70294 20.7964C4.15303 21.2465 4.76348 21.4993 5.4 21.4993H18.599C18.9143 21.4994 19.2265 21.4375 19.5177 21.3169C19.809 21.1964 20.0737 21.0196 20.2967 20.7967C20.5197 20.5738 20.6965 20.3092 20.8172 20.018C20.9379 19.7267 21 19.4146 21 19.0993V8.89931C21 8.58406 20.9379 8.27189 20.8172 7.98064C20.6965 7.68939 20.5197 7.42478 20.2967 7.2019C20.0737 6.97903 19.809 6.80227 19.5177 6.68171C19.2265 6.56116 18.9143 6.49918 18.599 6.49931Z" fill="#FDC800"/>
</svg>
