<svg width="20" height="20" viewBox="0 0 20 20" fill="none" xmlns="http://www.w3.org/2000/svg">
<g clip-path="url(#clip0_2195_42933)">
<path fill-rule="evenodd" clip-rule="evenodd" d="M11.1296 7.26562H9.15039V10.094H11.1296C11.9096 10.094 12.5437 9.46062 12.5437 8.67979C12.5437 7.89979 11.9104 7.26562 11.1296 7.26562Z" fill="#BDBAC1"/>
<path fill-rule="evenodd" clip-rule="evenodd" d="M11.1302 11.7896H9.15102V14.0521C9.13923 14.2693 9.04467 14.4736 8.88679 14.6232C8.72891 14.7727 8.51972 14.8561 8.30227 14.8561C8.08481 14.8561 7.87562 14.7727 7.71774 14.6232C7.55986 14.4736 7.4653 14.2693 7.45352 14.0521V5.5663H11.1302C11.9552 5.56718 12.7462 5.89544 13.3295 6.47901C13.9127 7.06257 14.2406 7.85374 14.241 8.6788C14.2401 9.50358 13.9121 10.2943 13.3289 10.8775C12.7457 11.4607 11.955 11.7888 11.1302 11.7896ZM9.99935 0.667969C4.84435 0.667969 0.666016 4.84714 0.666016 10.0013C0.666016 15.1563 4.84435 19.3346 9.99935 19.3346C15.1535 19.3346 19.3327 15.1563 19.3327 10.0013C19.3327 4.84714 15.1535 0.667969 9.99935 0.667969Z" fill="#BDBAC1"/>
</g>
<defs>
<clipPath id="clip0_2195_42933">
<rect width="20" height="20" fill="white"/>
</clipPath>
</defs>
</svg>
