<svg width="40" height="40" viewBox="0 0 40 40" fill="none" xmlns="http://www.w3.org/2000/svg">
<path d="M33.334 36.6667H6.66732C4.83398 36.6667 3.33398 35.1667 3.33398 33.3333V15.9167C3.33398 14.8333 3.83398 13.8333 4.75065 13.1667L20.0007 2.5L35.2507 13.1667C36.1673 13.75 36.6673 14.8333 36.6673 15.9167V33.3333C36.6673 35.1667 35.1673 36.6667 33.334 36.6667Z" fill="#78909C"/>
<path d="M11.666 3.33203H28.3327V29.1654H11.666V3.33203Z" fill="#AED581"/>
<path d="M10.834 2.5V30H29.1673V2.5H10.834ZM27.5007 28.3333H12.5007V4.16667H27.5007V28.3333Z" fill="#558B2F"/>
<path d="M28.3346 4.9987C28.3346 6.41536 28.0846 7.4987 26.668 7.4987C25.2513 7.4987 24.168 6.41536 24.168 4.9987C24.168 3.58203 25.2513 3.33203 26.668 3.33203C28.0846 3.33203 28.3346 3.58203 28.3346 4.9987ZM13.3346 3.33203C14.7513 3.33203 15.8346 3.58203 15.8346 4.9987C15.8346 6.41536 14.7513 7.4987 13.3346 7.4987C11.918 7.4987 11.668 6.41536 11.668 4.9987C11.668 3.58203 11.918 3.33203 13.3346 3.33203Z" fill="#558B2F"/>
<path d="M20.0007 10.8333C20.9211 10.8333 21.6673 10.0871 21.6673 9.16667C21.6673 8.24619 20.9211 7.5 20.0007 7.5C19.0802 7.5 18.334 8.24619 18.334 9.16667C18.334 10.0871 19.0802 10.8333 20.0007 10.8333Z" fill="#558B2F"/>
<path d="M20 24.168C22.7614 24.168 25 21.9294 25 19.168C25 16.4065 22.7614 14.168 20 14.168C17.2386 14.168 15 16.4065 15 19.168C15 21.9294 17.2386 24.168 20 24.168Z" fill="#558B2F"/>
<path d="M33.334 36.668H6.66732C4.83398 36.668 3.33398 35.168 3.33398 33.3346V16.668L20.0007 27.5013L36.6673 16.668V33.3346C36.6673 35.168 35.1673 36.668 33.334 36.668Z" fill="#CFD8DC"/>
</svg>
