<svg width="16" height="16" viewBox="0 0 16 16" fill="none" xmlns="http://www.w3.org/2000/svg">
<g clip-path="url(#clip0_379_24293)">
<path d="M1.11112 7.99999C1.11112 4.19542 4.19482 1.1111 8.00001 1.1111C11.8045 1.1111 14.8889 4.19545 14.8889 7.99999C14.8889 11.8052 11.8046 14.8889 8.00001 14.8889C4.1948 14.8889 1.11112 11.8052 1.11112 7.99999Z" stroke="#88888E" stroke-width="0.888889"/>
<path d="M9.12341 8.17924C9.54263 7.91065 10.1151 7.54389 10.3062 6.712C10.4556 6.06267 10.3169 5.42733 9.91556 4.92333C9.46156 4.35333 8.70422 4 7.93822 4C7.30652 4.00071 6.70089 4.25196 6.2542 4.69865C5.80752 5.14533 5.55626 5.75096 5.55556 6.38267C5.55556 6.5418 5.61877 6.69441 5.73129 6.80693C5.84382 6.91945 5.99643 6.98267 6.15556 6.98267C6.31469 6.98267 6.4673 6.91945 6.57982 6.80693C6.69234 6.69441 6.75556 6.5418 6.75556 6.38267C6.75556 5.73067 7.28622 5.19933 7.93822 5.19933C8.34156 5.19933 8.74889 5.38467 8.97689 5.67067C9.15089 5.88933 9.20423 6.14933 9.13689 6.44333C9.05889 6.782 8.85689 6.92533 8.47556 7.16867L8.47438 7.16942C7.99448 7.47669 7.33822 7.89687 7.33822 8.966C7.33822 9.12513 7.40144 9.27774 7.51396 9.39026C7.62648 9.50279 7.77909 9.566 7.93822 9.566C8.09735 9.566 8.24997 9.50279 8.36249 9.39026C8.47501 9.27774 8.53822 9.12513 8.53822 8.966C8.53822 8.57333 8.68822 8.45733 9.12222 8.18L9.12341 8.17924Z" fill="#88888E"/>
<path d="M7.38321 11.637C7.53324 11.787 7.73672 11.8713 7.94889 11.8713C8.16106 11.8713 8.36455 11.787 8.51458 11.637C8.66461 11.487 8.74889 11.2835 8.74889 11.0713C8.74889 10.8592 8.66461 10.6557 8.51458 10.5056C8.36455 10.3556 8.16106 10.2713 7.94889 10.2713C7.73672 10.2713 7.53324 10.3556 7.38321 10.5056C7.23318 10.6557 7.14889 10.8592 7.14889 11.0713C7.14889 11.2835 7.23318 11.487 7.38321 11.637Z" fill="#88888E"/>
</g>
<defs>
<clipPath id="clip0_379_24293">
<rect width="16" height="16" fill="white"/>
</clipPath>
</defs>
</svg>
