<svg width="18" height="18" viewBox="0 0 18 18" fill="none" xmlns="http://www.w3.org/2000/svg">
<path fill-rule="evenodd" clip-rule="evenodd" d="M9.96173 0.605312L11.9009 4.53448C12.0567 4.85031 12.3584 5.06948 12.7076 5.12031L17.0434 5.75031C17.9217 5.87781 18.2734 6.95865 17.6367 7.57781L14.4992 10.6361C14.3749 10.7574 14.2819 10.9071 14.2281 11.0723C14.1744 11.2375 14.1617 11.4133 14.1909 11.5845L14.9317 15.9028C15.0817 16.7786 14.1634 17.4453 13.3776 17.0328L9.49923 14.9936C9.34557 14.9128 9.17454 14.8705 9.0009 14.8705C8.82725 14.8705 8.65622 14.9128 8.50256 14.9936L4.62423 17.0328C3.83756 17.4453 2.91923 16.7786 3.06923 15.9028L3.81006 11.5845C3.83923 11.4133 3.82642 11.2375 3.77271 11.0723C3.71901 10.9072 3.62602 10.7575 3.50173 10.6361L0.364228 7.57781C-0.271605 6.95865 0.0792284 5.87781 0.958395 5.75031L5.2934 5.12031C5.64256 5.06948 5.94506 4.85031 6.1009 4.53448L8.03923 0.605312C8.43256 -0.191354 9.5684 -0.191354 9.96173 0.605312Z" fill="#FDC800"/>
</svg>
