<svg width="10" height="10" viewBox="0 0 10 10" fill="none" xmlns="http://www.w3.org/2000/svg">
<path d="M5.98791 4.92895L5.9172 4.99966L5.98791 5.07037L9.28432 8.36679L9.28436 8.36683C9.34015 8.42255 9.3844 8.48873 9.4146 8.56157C9.44479 8.6344 9.46033 8.71248 9.46033 8.79133C9.46033 8.87018 9.44479 8.94825 9.4146 9.02109C9.3844 9.09393 9.34015 9.16011 9.28436 9.21583L9.28421 9.21599C9.22858 9.2718 9.16247 9.31608 9.08969 9.3463C9.01691 9.37652 8.93888 9.39207 8.86008 9.39207C8.78127 9.39207 8.70324 9.37652 8.63046 9.3463C8.55768 9.31608 8.49158 9.2718 8.43594 9.21599L8.43583 9.21588L5.13942 5.91887L5.06871 5.84815L4.99799 5.91887L1.70099 9.21587C1.58403 9.33284 1.43072 9.39133 1.27704 9.39133V9.49132L1.27736 9.39133C1.1588 9.39095 1.043 9.35552 0.944527 9.2895C0.846051 9.22348 0.769296 9.12982 0.723913 9.02029C0.67853 8.91076 0.666546 8.79026 0.689468 8.67393C0.712382 8.55766 0.769153 8.45075 0.852644 8.36664C0.852676 8.36661 0.852708 8.36658 0.85274 8.36655L4.14949 5.07038L4.22022 4.99966L4.14949 4.92895L0.853724 1.63376C0.748032 1.52013 0.690414 1.36997 0.692992 1.21476C0.695579 1.05901 0.758577 0.910361 0.868691 0.800183C0.978804 0.690004 1.12742 0.626918 1.28316 0.624239C1.43837 0.62157 1.58855 0.679094 1.70224 0.784709L4.99799 4.08046L5.06871 4.15117L5.13942 4.08045L8.43581 0.783477C8.43582 0.783468 8.43583 0.783459 8.43583 0.78345C8.49158 0.727747 8.55774 0.683567 8.63056 0.653431C8.70339 0.62329 8.78144 0.607789 8.86025 0.607813C8.93907 0.607836 9.01711 0.623383 9.08992 0.653566C9.16273 0.68375 9.22888 0.727978 9.28459 0.783727C9.34031 0.839476 9.3845 0.905652 9.41464 0.978479C9.44478 1.05131 9.46028 1.12936 9.46026 1.20817C9.46024 1.28699 9.44469 1.36503 9.41451 1.43784C9.38432 1.51065 9.34009 1.5768 9.28434 1.63251L9.28432 1.63253L5.98791 4.92895Z" fill="#343337" stroke="white" stroke-width="0.2"/>
</svg>
