<svg width="20" height="21" viewBox="0 0 20 21" fill="none" xmlns="http://www.w3.org/2000/svg">
<path fill-rule="evenodd" clip-rule="evenodd" d="M19.0698 7.20016L10.6228 0.483164C10.4461 0.342321 10.2268 0.265625 10.0008 0.265625C9.7748 0.265625 9.55551 0.342321 9.37878 0.483164L0.930781 7.20016C0.695332 7.38744 0.505166 7.62542 0.374445 7.89639C0.243724 8.16735 0.175817 8.46432 0.175781 8.76516V18.1832C0.175781 18.8197 0.428638 19.4301 0.878725 19.8802C1.32881 20.3303 1.93926 20.5832 2.57578 20.5832H8.00078V15.8312C8.00078 15.5659 8.10614 15.3116 8.29367 15.1241C8.48121 14.9365 8.73556 14.8312 9.00078 14.8312H11.0008C11.266 14.8312 11.5204 14.9365 11.7079 15.1241C11.8954 15.3116 12.0008 15.5659 12.0008 15.8312V20.5832H17.4248C18.0613 20.5832 18.6718 20.3303 19.1218 19.8802C19.5719 19.4301 19.8248 18.8197 19.8248 18.1832V8.76616C19.8247 8.46532 19.7568 8.16835 19.6261 7.89739C19.4954 7.62642 19.3052 7.38844 19.0698 7.20116" fill="#88888E"/>
</svg>
