<svg width="24" height="24" viewBox="0 0 24 24" fill="none" xmlns="http://www.w3.org/2000/svg">
<path d="M20.25 4.30912L21.25 4.30921V4.30912H20.25ZM20.25 2.44977H21.25L21.25 2.44272L20.25 2.44977ZM20.0389 2.05518L20.5597 1.20151V1.20151L20.0389 2.05518ZM19.8319 2.00026L19.7942 1.00097L19.8319 2.00026ZM19.6286 2.07065L20.2021 2.88988L20.2084 2.8854L19.6286 2.07065ZM15.2541 12.1725L14.2586 12.078L14.2583 12.081L15.2541 12.1725ZM15.289 12.5366L14.3292 12.8172L15.289 12.5366ZM15.4532 12.8533L16.231 12.2249H16.231L15.4532 12.8533ZM15.7181 13.0678L15.2745 13.964H15.2745L15.7181 13.0678ZM16.038 13.1428V12.1428L16.0344 12.1428L16.038 13.1428ZM19.2492 21C19.2492 21.5523 19.6969 22 20.2492 22C20.8015 22 21.2492 21.5523 21.2492 21H19.2492ZM20.2492 13.0964L19.2492 13.0963V13.0964H20.2492ZM21.25 4.30912V2.44977H19.25V4.30912H21.25ZM21.25 2.44272C21.2483 2.20435 21.19 1.965 21.0742 1.7485L19.3107 2.69198C19.2691 2.61424 19.2506 2.5334 19.25 2.45682L21.25 2.44272ZM21.0742 1.7485C20.9581 1.53162 20.7845 1.33862 20.5597 1.20151L19.5181 2.90886C19.4201 2.8491 19.3525 2.77008 19.3107 2.69198L21.0742 1.7485ZM20.5597 1.20151C20.3336 1.06357 20.0686 0.99062 19.7942 1.00097L19.8695 2.99955C19.7394 3.00445 19.6174 2.96944 19.5181 2.90886L20.5597 1.20151ZM19.7942 1.00097C19.5199 1.01131 19.2625 1.10378 19.0488 1.2559L20.2084 2.8854C20.1165 2.95078 19.9995 2.99465 19.8695 2.99955L19.7942 1.00097ZM19.0551 1.25145C17.1404 2.59186 16.0107 4.79941 15.3316 6.83219C14.6447 8.8882 14.3687 10.9178 14.2586 12.078L16.2497 12.2669C16.3525 11.1833 16.6088 9.32062 17.2285 7.46594C17.8559 5.58803 18.8069 3.86656 20.2021 2.88985L19.0551 1.25145ZM14.2583 12.081C14.2356 12.3278 14.2593 12.5781 14.3292 12.8172L16.2489 12.256C16.2496 12.2585 16.2498 12.2602 16.2499 12.2612C16.25 12.2622 16.25 12.263 16.2499 12.264L14.2583 12.081ZM14.3292 12.8172C14.3991 13.0563 14.5151 13.2834 14.6753 13.4817L16.231 12.2249C16.2434 12.2402 16.2475 12.2515 16.2489 12.256L14.3292 12.8172ZM14.6753 13.4817C14.8357 13.6803 15.0383 13.8471 15.2745 13.964L16.1617 12.1715C16.1964 12.1887 16.2185 12.2094 16.231 12.2249L14.6753 13.4817ZM15.2745 13.964C15.5113 14.0812 15.7731 14.1438 16.0417 14.1428L16.0344 12.1428C16.0826 12.1426 16.1264 12.1541 16.1617 12.1715L15.2745 13.964ZM16.038 14.1428H20.0389V12.1428H16.038V14.1428ZM21.2492 21V13.0964H19.2492V21H21.2492ZM21.2492 13.0965L21.25 4.30921L19.25 4.30903L19.2492 13.0963L21.2492 13.0965Z" fill="#88888E"/>
<path d="M16 8L18 3L20 2.5V5L20.5 13H17L15.5 12L16 8Z" fill="#88888E"/>
<path d="M7.66286 2V11.3054M7.66286 21V11.3054M3.25 2V6.24881C3.25 8.58168 4.27378 10.538 6.25543 11.0552C6.61219 11.1386 7.39314 11.3054 7.66286 11.3054M12.25 2V6.24881C12.25 8.58168 11.1448 10.538 9.16411 11.0552C8.88464 11.1386 8.19314 11.3054 7.66286 11.3054" stroke="#88888E" stroke-width="2" stroke-linecap="round" stroke-linejoin="round"/>
<path d="M3.5 6.25H12.5L10.5 11.25H5L3.5 6.25Z" fill="#88888E"/>
</svg>
