<svg width="24" height="24" viewBox="0 0 24 24" fill="none" xmlns="http://www.w3.org/2000/svg">
<mask id="path-1-inside-1_1_71" fill="white">
<path fill-rule="evenodd" clip-rule="evenodd" d="M4.11797 6.19687H20.118C20.4362 6.19687 20.7415 6.07045 20.9665 5.8454C21.1915 5.62036 21.318 5.31513 21.318 4.99688C21.318 4.67862 21.1915 4.37339 20.9665 4.14835C20.7415 3.9233 20.4362 3.79688 20.118 3.79688H4.11797C3.79971 3.79687 3.49448 3.9233 3.26944 4.14835C3.0444 4.37339 2.91797 4.67862 2.91797 4.99688C2.91797 5.31513 3.0444 5.62036 3.26944 5.8454C3.49448 6.07045 3.79971 6.19687 4.11797 6.19687ZM20.118 10.7969H4.11797C3.79971 10.7969 3.49448 10.9233 3.26944 11.1483C3.0444 11.3734 2.91797 11.6786 2.91797 11.9969C2.91797 12.3151 3.0444 12.6204 3.26944 12.8454C3.49448 13.0704 3.79971 13.1969 4.11797 13.1969H20.118C20.4362 13.1969 20.7415 13.0704 20.9665 12.8454C21.1915 12.6204 21.318 12.3151 21.318 11.9969C21.318 11.6786 21.1915 11.3734 20.9665 11.1483C20.7415 10.9233 20.4362 10.7969 20.118 10.7969ZM20.118 17.7969H4.11797C3.96038 17.7969 3.80434 17.8279 3.65875 17.8882C3.51316 17.9485 3.38087 18.0369 3.26944 18.1483C3.15801 18.2598 3.06962 18.3921 3.00931 18.5377C2.94901 18.6832 2.91797 18.8393 2.91797 18.9969C2.91797 19.1545 2.94901 19.3105 3.00931 19.4561C3.06962 19.6017 3.15801 19.734 3.26944 19.8454C3.38087 19.9568 3.51316 20.0452 3.65875 20.1055C3.80434 20.1658 3.96038 20.1969 4.11797 20.1969H20.118C20.2756 20.1969 20.4316 20.1658 20.5772 20.1055C20.7228 20.0452 20.8551 19.9568 20.9665 19.8454C21.0779 19.734 21.1663 19.6017 21.2266 19.4561C21.2869 19.3105 21.318 19.1545 21.318 18.9969C21.318 18.8393 21.2869 18.6832 21.2266 18.5377C21.1663 18.3921 21.0779 18.2598 20.9665 18.1483C20.8551 18.0369 20.7228 17.9485 20.5772 17.8882C20.4316 17.8279 20.2756 17.7969 20.118 17.7969Z"/>
</mask>
<path fill-rule="evenodd" clip-rule="evenodd" d="M4.11797 6.19687H20.118C20.4362 6.19687 20.7415 6.07045 20.9665 5.8454C21.1915 5.62036 21.318 5.31513 21.318 4.99688C21.318 4.67862 21.1915 4.37339 20.9665 4.14835C20.7415 3.9233 20.4362 3.79688 20.118 3.79688H4.11797C3.79971 3.79687 3.49448 3.9233 3.26944 4.14835C3.0444 4.37339 2.91797 4.67862 2.91797 4.99688C2.91797 5.31513 3.0444 5.62036 3.26944 5.8454C3.49448 6.07045 3.79971 6.19687 4.11797 6.19687ZM20.118 10.7969H4.11797C3.79971 10.7969 3.49448 10.9233 3.26944 11.1483C3.0444 11.3734 2.91797 11.6786 2.91797 11.9969C2.91797 12.3151 3.0444 12.6204 3.26944 12.8454C3.49448 13.0704 3.79971 13.1969 4.11797 13.1969H20.118C20.4362 13.1969 20.7415 13.0704 20.9665 12.8454C21.1915 12.6204 21.318 12.3151 21.318 11.9969C21.318 11.6786 21.1915 11.3734 20.9665 11.1483C20.7415 10.9233 20.4362 10.7969 20.118 10.7969ZM20.118 17.7969H4.11797C3.96038 17.7969 3.80434 17.8279 3.65875 17.8882C3.51316 17.9485 3.38087 18.0369 3.26944 18.1483C3.15801 18.2598 3.06962 18.3921 3.00931 18.5377C2.94901 18.6832 2.91797 18.8393 2.91797 18.9969C2.91797 19.1545 2.94901 19.3105 3.00931 19.4561C3.06962 19.6017 3.15801 19.734 3.26944 19.8454C3.38087 19.9568 3.51316 20.0452 3.65875 20.1055C3.80434 20.1658 3.96038 20.1969 4.11797 20.1969H20.118C20.2756 20.1969 20.4316 20.1658 20.5772 20.1055C20.7228 20.0452 20.8551 19.9568 20.9665 19.8454C21.0779 19.734 21.1663 19.6017 21.2266 19.4561C21.2869 19.3105 21.318 19.1545 21.318 18.9969C21.318 18.8393 21.2869 18.6832 21.2266 18.5377C21.1663 18.3921 21.0779 18.2598 20.9665 18.1483C20.8551 18.0369 20.7228 17.9485 20.5772 17.8882C20.4316 17.8279 20.2756 17.7969 20.118 17.7969Z" fill="#88888E"/>
<path d="M20.118 6.19687V6.44687V6.19687ZM4.11797 3.79688V4.04688V3.79688ZM20.118 10.7969V10.5469V10.7969ZM4.11797 10.7969V10.5469V10.7969ZM2.91797 11.9969H2.66797H2.91797ZM21.318 11.9969H21.068H21.318ZM4.11797 17.7969V18.0469V17.7969ZM4.11797 20.1969V19.9469V20.1969ZM20.118 20.1969V19.9469V20.1969ZM4.11797 6.44687H20.118V5.94687H4.11797V6.44687ZM20.118 6.44687C20.5025 6.44687 20.8713 6.29411 21.1433 6.02218L20.7897 5.66863C20.6116 5.84679 20.3699 5.94687 20.118 5.94687V6.44687ZM21.1433 6.02218C21.4152 5.75025 21.568 5.38144 21.568 4.99688H21.068C21.068 5.24883 20.9679 5.49047 20.7897 5.66863L21.1433 6.02218ZM21.568 4.99688C21.568 4.61231 21.4152 4.2435 21.1433 3.97157L20.7897 4.32512C20.9679 4.50328 21.068 4.74492 21.068 4.99688H21.568ZM21.1433 3.97157C20.8713 3.69964 20.5025 3.54688 20.118 3.54688V4.04688C20.3699 4.04688 20.6116 4.14696 20.7897 4.32512L21.1433 3.97157ZM20.118 3.54688H4.11797V4.04688H20.118V3.54688ZM4.11797 3.54688C3.7334 3.54688 3.36459 3.69964 3.09266 3.97157L3.44622 4.32512C3.62438 4.14696 3.86601 4.04688 4.11797 4.04688V3.54688ZM3.09266 3.97157C2.82074 4.2435 2.66797 4.61231 2.66797 4.99688H3.16797C3.16797 4.74492 3.26806 4.50328 3.44622 4.32512L3.09266 3.97157ZM2.66797 4.99688C2.66797 5.38144 2.82074 5.75025 3.09266 6.02218L3.44622 5.66863C3.26806 5.49047 3.16797 5.24883 3.16797 4.99688H2.66797ZM3.09266 6.02218C3.36459 6.29411 3.7334 6.44687 4.11797 6.44687V5.94687C3.86601 5.94687 3.62438 5.84679 3.44622 5.66863L3.09266 6.02218ZM20.118 10.5469H4.11797V11.0469H20.118V10.5469ZM4.11797 10.5469C3.7334 10.5469 3.36459 10.6996 3.09266 10.9716L3.44622 11.3251C3.62438 11.147 3.86601 11.0469 4.11797 11.0469V10.5469ZM3.09266 10.9716C2.82074 11.2435 2.66797 11.6123 2.66797 11.9969H3.16797C3.16797 11.7449 3.26806 11.5033 3.44622 11.3251L3.09266 10.9716ZM2.66797 11.9969C2.66797 12.3814 2.82074 12.7503 3.09266 13.0222L3.44622 12.6686C3.26806 12.4905 3.16797 12.2488 3.16797 11.9969H2.66797ZM3.09266 13.0222C3.36459 13.2941 3.7334 13.4469 4.11797 13.4469V12.9469C3.86601 12.9469 3.62438 12.8468 3.44622 12.6686L3.09266 13.0222ZM4.11797 13.4469H20.118V12.9469H4.11797V13.4469ZM20.118 13.4469C20.5025 13.4469 20.8713 13.2941 21.1433 13.0222L20.7897 12.6686C20.6116 12.8468 20.3699 12.9469 20.118 12.9469V13.4469ZM21.1433 13.0222C21.4152 12.7503 21.568 12.3814 21.568 11.9969H21.068C21.068 12.2488 20.9679 12.4905 20.7897 12.6686L21.1433 13.0222ZM21.568 11.9969C21.568 11.6123 21.4152 11.2435 21.1433 10.9716L20.7897 11.3251C20.9679 11.5033 21.068 11.7449 21.068 11.9969H21.568ZM21.1433 10.9716C20.8713 10.6996 20.5025 10.5469 20.118 10.5469V11.0469C20.3699 11.0469 20.6116 11.147 20.7897 11.3251L21.1433 10.9716ZM20.118 17.5469H4.11797V18.0469H20.118V17.5469ZM4.11797 17.5469C3.92755 17.5469 3.739 17.5844 3.56308 17.6572L3.75442 18.1192C3.86968 18.0714 3.99321 18.0469 4.11797 18.0469V17.5469ZM3.56308 17.6572C3.38716 17.7301 3.22731 17.8369 3.09266 17.9716L3.44622 18.3251C3.53443 18.2369 3.63916 18.1669 3.75442 18.1192L3.56308 17.6572ZM3.09266 17.9716C2.95802 18.1062 2.85121 18.2661 2.77834 18.442L3.24028 18.6333C3.28802 18.5181 3.358 18.4133 3.44622 18.3251L3.09266 17.9716ZM2.77834 18.442C2.70547 18.6179 2.66797 18.8065 2.66797 18.9969H3.16797C3.16797 18.8721 3.19254 18.7486 3.24028 18.6333L2.77834 18.442ZM2.66797 18.9969C2.66797 19.1873 2.70547 19.3758 2.77834 19.5518L3.24028 19.3604C3.19254 19.2452 3.16797 19.1216 3.16797 18.9969H2.66797ZM2.77834 19.5518C2.85121 19.7277 2.95802 19.8875 3.09266 20.0222L3.44622 19.6686C3.358 19.5804 3.28803 19.4757 3.24028 19.3604L2.77834 19.5518ZM3.09266 20.0222C3.22731 20.1568 3.38716 20.2636 3.56308 20.3365L3.75442 19.8746C3.63916 19.8268 3.53443 19.7568 3.44622 19.6686L3.09266 20.0222ZM3.56308 20.3365C3.739 20.4094 3.92755 20.4469 4.11797 20.4469V19.9469C3.99321 19.9469 3.86968 19.9223 3.75442 19.8746L3.56308 20.3365ZM4.11797 20.4469H20.118V19.9469H4.11797V20.4469ZM20.118 20.4469C20.3084 20.4469 20.4969 20.4094 20.6729 20.3365L20.4815 19.8746C20.3663 19.9223 20.2427 19.9469 20.118 19.9469V20.4469ZM20.6729 20.3365C20.8488 20.2636 21.0086 20.1568 21.1433 20.0222L20.7897 19.6686C20.7015 19.7568 20.5968 19.8268 20.4815 19.8746L20.6729 20.3365ZM21.1433 20.0222C21.2779 19.8875 21.3847 19.7277 21.4576 19.5518L20.9957 19.3604C20.9479 19.4757 20.8779 19.5804 20.7897 19.6686L21.1433 20.0222ZM21.4576 19.5518C21.5305 19.3758 21.568 19.1873 21.568 18.9969H21.068C21.068 19.1216 21.0434 19.2452 20.9957 19.3604L21.4576 19.5518ZM21.568 18.9969C21.568 18.8065 21.5305 18.6179 21.4576 18.442L20.9957 18.6333C21.0434 18.7486 21.068 18.8721 21.068 18.9969H21.568ZM21.4576 18.442C21.3847 18.2661 21.2779 18.1062 21.1433 17.9716L20.7897 18.3251C20.8779 18.4133 20.9479 18.5181 20.9957 18.6333L21.4576 18.442ZM21.1433 17.9716C21.0086 17.8369 20.8488 17.7301 20.6729 17.6572L20.4815 18.1192C20.5968 18.1669 20.7015 18.2369 20.7897 18.3251L21.1433 17.9716ZM20.6729 17.6572C20.4969 17.5844 20.3084 17.5469 20.118 17.5469V18.0469C20.2427 18.0469 20.3663 18.0714 20.4815 18.1192L20.6729 17.6572Z" fill="white" mask="url(#path-1-inside-1_1_71)"/>
</svg>
