<svg width="24" height="24" viewBox="0 0 24 24" fill="none" xmlns="http://www.w3.org/2000/svg">
<path d="M13.1102 2.68016C12.8157 2.97459 12.4164 3.14 12 3.14C11.5836 3.14 11.1843 2.97459 10.8898 2.68016C10.5954 2.38573 10.43 1.98639 10.43 1.57C10.43 1.15361 10.5954 0.754275 10.8898 0.459842C11.1843 0.16541 11.5836 0 12 0C12.4164 0 12.8157 0.16541 13.1102 0.459842C13.4046 0.754275 13.57 1.15361 13.57 1.57C13.57 1.98639 13.4046 2.38573 13.1102 2.68016Z" fill="#88888E"/>
<path d="M12 4.64C5.80952 4.64 2 10.6842 2 18.14H22C22 10.6842 18.1905 4.64 12 4.64Z" fill="#88888E"/>
<path d="M2.27895 21.3797C2.10034 21.213 2 20.9869 2 20.7511V19.64H22V20.7511C22 20.9869 21.8997 21.213 21.7211 21.3797C21.5424 21.5463 21.3002 21.64 21.0476 21.64H2.95238C2.69979 21.64 2.45755 21.5463 2.27895 21.3797Z" fill="#88888E"/>
</svg>
