<svg width="24" height="24" viewBox="0 0 24 24" fill="none" xmlns="http://www.w3.org/2000/svg">
<path d="M18.518 5.48437L18.518 5.48497L20.478 18.179L20.4781 18.179C20.5223 18.4657 20.5045 18.7569 20.4258 19.0328C20.3467 19.3102 20.2086 19.5672 20.0208 19.7862C19.833 20.0052 19.6001 20.181 19.338 20.3015C19.0759 20.422 18.7909 20.4844 18.5024 20.4844H18.5023H5.50033H5.49989C5.21143 20.4845 4.92636 20.4222 4.66426 20.3017C4.40216 20.1813 4.16923 20.0055 3.98146 19.7866C3.7937 19.5676 3.65556 19.3106 3.57651 19.0331C3.49747 18.7557 3.4794 18.4645 3.52355 18.1794L3.52362 18.179L5.48362 5.48497L5.48371 5.48437L18.518 5.48437Z" stroke="#D5D4D9" stroke-width="2"/>
<rect x="8.5" y="11" width="1.5" height="7.5" rx="0.75" transform="rotate(-90 8.5 11)" fill="#D5D4D9"/>
<path d="M10.5521 2.75527C10.0713 3.23613 9.80079 3.88809 9.8 4.56812H8C8.00132 3.41086 8.46163 2.30138 9.27994 1.48307C10.0983 0.664756 11.2077 0.204448 12.365 0.203125C13.5224 0.204184 14.6322 0.664374 15.4507 1.48271C16.2692 2.30105 16.7297 3.41069 16.731 4.56812H14.931C14.9299 3.888 14.6592 3.23604 14.1782 2.75521C13.6972 2.27438 13.0451 2.00392 12.365 2.00313C11.685 2.00392 11.033 2.27441 10.5521 2.75527Z" fill="#D5D4D9"/>
</svg>
