<svg width="24" height="24" viewBox="0 0 24 24" fill="none" xmlns="http://www.w3.org/2000/svg">
<mask id="path-1-inside-1_1_102" fill="white">
<path fill-rule="evenodd" clip-rule="evenodd" d="M21.0698 8.20016L12.6228 1.48316C12.4461 1.34232 12.2268 1.26562 12.0008 1.26562C11.7748 1.26563 11.5555 1.34232 11.3788 1.48316L2.93078 8.20016C2.69533 8.38744 2.50517 8.62542 2.37444 8.89639C2.24372 9.16735 2.17582 9.46432 2.17578 9.76516V19.1832C2.17578 19.8197 2.42864 20.4301 2.87873 20.8802C3.32881 21.3303 3.93926 21.5832 4.57578 21.5832H10.0008V16.8312C10.0008 16.5659 10.1061 16.3116 10.2937 16.1241C10.4812 15.9365 10.7356 15.8312 11.0008 15.8312H13.0008C13.266 15.8312 13.5204 15.9365 13.7079 16.1241C13.8954 16.3116 14.0008 16.5659 14.0008 16.8312V21.5832H19.4248C20.0613 21.5832 20.6718 21.3303 21.1218 20.8802C21.5719 20.4301 21.8248 19.8197 21.8248 19.1832V9.76616C21.8247 9.46532 21.7568 9.16835 21.6261 8.89739C21.4954 8.62642 21.3052 8.38844 21.0698 8.20116"/>
</mask>
<path d="M12.6228 1.48316L11.3763 3.04722L11.378 3.04856L12.6228 1.48316ZM12.0008 1.26562V-0.734375V1.26562ZM11.3788 1.48316L12.6235 3.04864L12.6253 3.04721L11.3788 1.48316ZM2.93078 8.20016L1.68607 6.63469L1.68578 6.63492L2.93078 8.20016ZM2.17578 9.76516L0.175781 9.76492V9.76516H2.17578ZM10.0008 21.5832V23.5832H12.0008V21.5832H10.0008ZM14.0008 21.5832H12.0008V23.5832H14.0008V21.5832ZM19.4248 21.5832V23.5832V21.5832ZM21.8248 9.76616H23.8248V9.76592L21.8248 9.76616ZM22.3146 6.63476L13.8676 -0.0822376L11.378 3.04856L19.825 9.76556L22.3146 6.63476ZM13.8693 -0.0808873C13.3384 -0.503981 12.6796 -0.734375 12.0008 -0.734375V3.26562C11.7739 3.26562 11.5537 3.18862 11.3763 3.04721L13.8693 -0.0808873ZM12.0008 -0.734375C11.3219 -0.734375 10.6632 -0.503981 10.1323 -0.0808873L12.6253 3.04721C12.4478 3.18862 12.2277 3.26562 12.0008 3.26562V-0.734375ZM10.1341 -0.0823092L1.68607 6.63469L4.17549 9.76564L12.6235 3.04864L10.1341 -0.0823092ZM1.68578 6.63492C1.21488 7.00948 0.83455 7.48544 0.573109 8.02737L4.17578 9.7654H4.17578L1.68578 6.63492ZM0.573109 8.02737C0.311667 8.5693 0.175853 9.16323 0.175781 9.76492L4.17578 9.7654V9.7654L0.573109 8.02737ZM0.175781 9.76516V19.1832H4.17578V9.76516H0.175781ZM0.175781 19.1832C0.175781 20.3501 0.639352 21.4693 1.46451 22.2944L4.29294 19.466C4.21792 19.391 4.17578 19.2893 4.17578 19.1832H0.175781ZM1.46451 22.2944C2.28967 23.1196 3.40883 23.5832 4.57578 23.5832V19.5832C4.46969 19.5832 4.36795 19.541 4.29294 19.466L1.46451 22.2944ZM4.57578 23.5832H10.0008V19.5832H4.57578V23.5832ZM12.0008 21.5832V16.8312H8.00078V21.5832H12.0008ZM12.0008 16.8312C12.0008 17.0964 11.8954 17.3507 11.7079 17.5383L8.87946 14.7098C8.31685 15.2724 8.00078 16.0355 8.00078 16.8312H12.0008ZM11.7079 17.5383C11.5204 17.7258 11.266 17.8312 11.0008 17.8312V13.8312C10.2051 13.8312 9.44207 14.1472 8.87946 14.7098L11.7079 17.5383ZM11.0008 17.8312H13.0008V13.8312H11.0008V17.8312ZM13.0008 17.8312C12.7356 17.8312 12.4812 17.7258 12.2937 17.5383L15.1221 14.7098C14.5595 14.1472 13.7964 13.8312 13.0008 13.8312V17.8312ZM12.2937 17.5383C12.1061 17.3507 12.0008 17.0964 12.0008 16.8312H16.0008C16.0008 16.0355 15.6847 15.2724 15.1221 14.7098L12.2937 17.5383ZM12.0008 16.8312V21.5832H16.0008V16.8312H12.0008ZM14.0008 23.5832H19.4248V19.5832H14.0008V23.5832ZM19.4248 23.5832C20.5917 23.5832 21.7109 23.1196 22.5361 22.2944L19.7076 19.466C19.6326 19.541 19.5309 19.5832 19.4248 19.5832V23.5832ZM22.5361 22.2944C23.3612 21.4693 23.8248 20.3501 23.8248 19.1832H19.8248C19.8248 19.2893 19.7826 19.391 19.7076 19.466L22.5361 22.2944ZM23.8248 19.1832V9.76616H19.8248V19.1832H23.8248ZM23.8248 9.76592C23.8247 9.16423 23.6889 8.5703 23.4275 8.02837L19.8248 9.7664L23.8248 9.76592ZM23.4275 8.02837C23.166 7.48645 22.7857 7.01048 22.3148 6.63592L19.8248 9.7664L23.4275 8.02837Z" fill="#D5D4D9" mask="url(#path-1-inside-1_1_102)"/>
</svg>
