<svg width="24" height="24" viewBox="0 0 24 24" fill="none" xmlns="http://www.w3.org/2000/svg">
<path d="M13.1102 2.68016C12.8157 2.97459 12.4164 3.14 12 3.14C11.5836 3.14 11.1843 2.97459 10.8898 2.68016C10.5954 2.38573 10.43 1.98639 10.43 1.57C10.43 1.15361 10.5954 0.754275 10.8898 0.459842C11.1843 0.16541 11.5836 0 12 0C12.4164 0 12.8157 0.16541 13.1102 0.459842C13.4046 0.754275 13.57 1.15361 13.57 1.57C13.57 1.98639 13.4046 2.38573 13.1102 2.68016Z" fill="#D5D4D9"/>
<path d="M20.9758 17.14H3.02424C3.17855 13.9807 4.06334 11.1977 5.49527 9.17112C7.06075 6.95556 9.27318 5.64 12 5.64C14.7268 5.64 16.9393 6.95556 18.5047 9.17112C19.9367 11.1977 20.8215 13.9807 20.9758 17.14Z" stroke="#D5D4D9" stroke-width="2"/>
<path d="M2.27895 21.3797C2.10034 21.213 2 20.9869 2 20.7511V19.64H22V20.7511C22 20.9869 21.8997 21.213 21.7211 21.3797C21.5424 21.5463 21.3002 21.64 21.0476 21.64H2.95238C2.69979 21.64 2.45755 21.5463 2.27895 21.3797Z" fill="#D5D4D9"/>
</svg>
