<svg width="24" height="24" viewBox="0 0 24 24" fill="none" xmlns="http://www.w3.org/2000/svg">
<path opacity="0.7" fill-rule="evenodd" clip-rule="evenodd" d="M1.5 5.82155C1.5 5.09168 2.09168 4.5 2.82155 4.5H21.3233C22.0531 4.5 22.6448 5.09168 22.6448 5.82155V8.11866C22.6448 8.62862 22.3379 9.07809 21.9379 9.39446C20.9932 10.1418 20.3789 11.3543 20.3789 12.7231C20.3789 14.0919 20.9932 15.3044 21.9379 16.0518C22.3379 16.3681 22.6448 16.8176 22.6448 17.3276V19.6244C22.6448 20.3543 22.0531 20.946 21.3233 20.946H2.82155C2.09168 20.946 1.5 20.3543 1.5 19.6244V17.3272C1.5 16.8173 1.80688 16.3679 2.20677 16.0515C3.15136 15.3042 3.76551 14.0918 3.76551 12.7231C3.76551 11.3545 3.15136 10.142 2.20676 9.39467C1.80688 9.0783 1.5 8.62888 1.5 8.11897V5.82155Z" fill="#2AC769"/>
<line x1="9.09419" y1="4.5" x2="9.09419" y2="20.946" stroke="white" stroke-width="1.98233"/>
</svg>
