<svg width="24" height="24" viewBox="0 0 24 24" fill="none" xmlns="http://www.w3.org/2000/svg">
<path opacity="0.7" d="M21.8601 12.2136C22.2262 11.7965 22.2262 11.1726 21.8601 10.7555L20.4845 9.18824C20.2843 8.96012 20.1867 8.65971 20.2146 8.35747L20.4063 6.28304C20.4573 5.73088 20.0913 5.22638 19.5506 5.10355L17.5124 4.64058C17.2169 4.57346 16.9619 4.38796 16.8071 4.12747L15.7408 2.33345C15.4574 1.85656 14.8643 1.66366 14.3546 1.88255L12.4361 2.70637C12.1577 2.82593 11.8423 2.82593 11.5639 2.70637L9.64542 1.88255C9.13567 1.66366 8.54263 1.85655 8.2592 2.33345L7.19382 4.12598C7.03848 4.38734 6.78234 4.57317 6.48568 4.63974L4.45252 5.09593C3.91038 5.21758 3.54281 5.72279 3.59393 6.27606L3.78546 8.34908C3.81332 8.65064 3.71622 8.95042 3.51686 9.17838L2.13748 10.7556C1.77261 11.1728 1.77316 11.7958 2.13877 12.2123L3.51556 13.781C3.71572 14.009 3.81332 14.3093 3.78548 14.6115L3.59343 16.6958C3.54256 17.2479 3.90857 17.7522 4.44921 17.875L6.48764 18.338C6.78314 18.4052 7.03812 18.5907 7.19294 18.8512L8.25795 20.6431C8.54192 21.1209 9.13653 21.3135 9.6467 21.0929L11.5629 20.2644C11.8419 20.1438 12.1583 20.1434 12.4376 20.2634L14.3546 21.0865C14.8643 21.3054 15.4574 21.1125 15.7408 20.6356L16.8071 18.8416C16.9619 18.5811 17.2169 18.3956 17.5124 18.3285L19.5506 17.8655C20.0913 17.7427 20.4573 17.2382 20.4063 16.686L20.2146 14.6116C20.1867 14.3094 20.2843 14.009 20.4845 13.7808L21.8601 12.2136ZM12.9545 15.3027C12.9545 15.8299 12.5272 16.2573 12 16.2573C11.4728 16.2573 11.0455 15.8299 11.0455 15.3027C11.0455 14.7755 11.4728 14.3482 12 14.3482C12.5272 14.3482 12.9545 14.7755 12.9545 15.3027ZM12.9545 11.4845C12.9545 12.0117 12.5272 12.4391 12 12.4391C11.4728 12.4391 11.0455 12.0117 11.0455 11.4845V7.66636C11.0455 7.13918 11.4728 6.71182 12 6.71182C12.5272 6.71182 12.9545 7.13918 12.9545 7.66636V11.4845Z" fill="#DD5257"/>
</svg>
