<svg width="24" height="24" viewBox="0 0 24 24" fill="none" xmlns="http://www.w3.org/2000/svg">
<circle opacity="0.7" cx="12.2637" cy="12.2637" r="10.7637" fill="#DD5257"/>
<path fill-rule="evenodd" clip-rule="evenodd" d="M3.88916 12.2623C3.88916 13.0975 4.56624 13.7746 5.40146 13.7746C6.08208 13.7746 6.65769 13.325 6.84746 12.7066H10.8184C11.0082 13.325 11.5838 13.7746 12.2644 13.7746C12.945 13.7746 13.5206 13.325 13.7104 12.7066H17.6814C17.8711 13.325 18.4467 13.7746 19.1274 13.7746C19.9626 13.7746 20.6397 13.0975 20.6397 12.2623C20.6397 11.4271 19.9626 10.75 19.1274 10.75C18.4511 10.75 17.8786 11.1938 17.6851 11.8061H13.7067C13.5132 11.1938 12.9406 10.75 12.2644 10.75C11.5882 10.75 11.0156 11.1938 10.8221 11.8061H6.84373C6.65025 11.1938 6.07769 10.75 5.40146 10.75C4.56624 10.75 3.88916 11.4271 3.88916 12.2623Z" fill="white"/>
</svg>
