<svg width="24" height="24" viewBox="0 0 24 24" fill="none" xmlns="http://www.w3.org/2000/svg">
<path fill-rule="evenodd" clip-rule="evenodd" d="M6.74989 17.8732C7.03119 18.1545 7.41272 18.3125 7.81055 18.3125L20.6892 18.3125C21.5177 18.3125 22.1892 17.6409 22.1892 16.8125L22.1892 7.8125C22.1892 6.98407 21.5177 6.3125 20.6892 6.3125L7.81054 6.3125C7.41272 6.3125 7.03119 6.47053 6.74989 6.75184L2.24989 11.2518C1.6641 11.8376 1.6641 12.7874 2.24989 13.3731L6.74989 17.8732ZM7.18922 12.3125C7.18922 13.1409 6.51765 13.8125 5.68922 13.8125C4.8608 13.8125 4.18922 13.1409 4.18922 12.3125C4.18922 11.4841 4.8608 10.8125 5.68922 10.8125C6.51765 10.8125 7.18922 11.4841 7.18922 12.3125Z" fill="#FDC800"/>
</svg>
