<svg width="24" height="24" viewBox="0 0 24 24" fill="none" xmlns="http://www.w3.org/2000/svg">
<g opacity="0.7">
<path d="M9.97059 21H14.2059H18.3854C19.001 21 19.5 20.501 19.5 19.8855V13.4103C19.5 12.9238 19.8944 12.5294 20.3809 12.5294C21.1882 12.5294 21.5703 11.5338 20.9702 10.9938L12.8338 3.67104C12.41 3.28955 11.7665 3.28955 11.3426 3.67104L3.20629 10.9938C2.60621 11.5338 2.98825 12.5294 3.79558 12.5294C4.28208 12.5294 4.67647 12.9238 4.67647 13.4103V19.8854C4.67647 20.501 5.17547 21 5.79102 21H9.97059Z" fill="#DD5257"/>
</g>
<path d="M13.0506 17.4873C13.0506 18.0189 12.6197 18.4499 12.0881 18.4499C11.5564 18.4499 11.1255 18.0189 11.1255 17.4873C11.1255 16.9557 11.5564 16.5248 12.0881 16.5248C12.6197 16.5248 13.0506 16.9557 13.0506 17.4873ZM13.0506 13.6371C13.0506 14.1687 12.6197 14.5996 12.0881 14.5996C11.5564 14.5996 11.1255 14.1687 11.1255 13.6371V9.78678C11.1255 9.25517 11.5564 8.82422 12.0881 8.82422C12.6197 8.82422 13.0506 9.25517 13.0506 9.78679V13.6371Z" fill="white"/>
</svg>
