<svg width="24" height="24" viewBox="0 0 24 24" fill="none" xmlns="http://www.w3.org/2000/svg">
<path fill-rule="evenodd" clip-rule="evenodd" d="M3 4C2.44772 4 2 4.44772 2 5C2 5.55228 2.44772 6 3 6H4.12384C4.12389 6.03978 4.1251 6.07982 4.12752 6.12008L5.02978 21.1201C5.0933 22.1761 5.96824 23 7.02617 23H16.9738C18.0318 23 18.9067 22.1761 18.9702 21.1201L19.8725 6.12008C19.8749 6.07982 19.8761 6.03979 19.8762 6H21C21.5523 6 22 5.55228 22 5C22 4.44772 21.5523 4 21 4H17.8761H6.12392H3ZM17.8761 6L6.12392 6L7.02617 21L16.9738 21L17.8761 6Z" fill="#343337"/>
<line x1="10" y1="2" x2="14" y2="2" stroke="#343337" stroke-width="2" stroke-linecap="round"/>
</svg>
