<svg width="14" height="14" viewBox="0 0 14 14" fill="none" xmlns="http://www.w3.org/2000/svg">
<path d="M7.98791 6.92895L7.9172 6.99966L7.98791 7.07037L11.2843 10.3668L11.2844 10.3668C11.3401 10.4226 11.3844 10.4887 11.4146 10.5616C11.4448 10.6344 11.4603 10.7125 11.4603 10.7913C11.4603 10.8702 11.4448 10.9483 11.4146 11.0211C11.3844 11.0939 11.3401 11.1601 11.2844 11.2158L11.2842 11.216C11.2286 11.2718 11.1625 11.3161 11.0897 11.3463C11.0169 11.3765 10.9389 11.3921 10.8601 11.3921C10.7813 11.3921 10.7032 11.3765 10.6305 11.3463C10.5577 11.3161 10.4916 11.2718 10.4359 11.216L10.4358 11.2159L7.13942 7.91887L7.06871 7.84815L6.99799 7.91887L3.70099 11.2159C3.58403 11.3328 3.43072 11.3913 3.27704 11.3913V11.4913L3.27736 11.3913C3.1588 11.3909 3.043 11.3555 2.94453 11.2895C2.84605 11.2235 2.7693 11.1298 2.72391 11.0203C2.67853 10.9108 2.66655 10.7903 2.68947 10.6739C2.71238 10.5577 2.76915 10.4507 2.85264 10.3666C2.85268 10.3666 2.85271 10.3666 2.85274 10.3665L6.14949 7.07038L6.22022 6.99966L6.14949 6.92895L2.85372 3.63376C2.74803 3.52013 2.69041 3.36997 2.69299 3.21476C2.69558 3.05901 2.75858 2.91036 2.86869 2.80018C2.9788 2.69 3.12742 2.62692 3.28316 2.62424C3.43837 2.62157 3.58855 2.67909 3.70224 2.78471L6.99799 6.08046L7.06871 6.15117L7.13942 6.08045L10.4358 2.78348C10.4358 2.78347 10.4358 2.78346 10.4358 2.78345C10.4916 2.72775 10.5577 2.68357 10.6306 2.65343C10.7034 2.62329 10.7814 2.60779 10.8603 2.60781C10.9391 2.60784 11.0171 2.62338 11.0899 2.65357C11.1627 2.68375 11.2289 2.72798 11.2846 2.78373C11.3403 2.83948 11.3845 2.90565 11.4146 2.97848C11.4448 3.05131 11.4603 3.12936 11.4603 3.20817C11.4602 3.28699 11.4447 3.36503 11.4145 3.43784C11.3843 3.51065 11.3401 3.5768 11.2843 3.63251L11.2843 3.63253L7.98791 6.92895Z" fill="#343337" stroke="white" stroke-width="0.2"/>
</svg>
