<svg width="16" height="16" viewBox="0 0 16 16" fill="none" xmlns="http://www.w3.org/2000/svg">
<g clip-path="url(#clip0_2726_60801)">
<circle cx="7.99984" cy="8.0013" r="6.83333" stroke="#BDBAC1"/>
<path fill-rule="evenodd" clip-rule="evenodd" d="M8.0002 6.13516C7.78802 6.13516 7.58454 6.05087 7.43451 5.90084C7.28448 5.75081 7.2002 5.54733 7.2002 5.33516C7.2002 5.12298 7.28448 4.9195 7.43451 4.76947C7.58454 4.61944 7.78802 4.53516 8.0002 4.53516C8.21237 4.53516 8.41585 4.61944 8.56588 4.76947C8.71591 4.9195 8.80019 5.12298 8.80019 5.33516C8.80019 5.54733 8.71591 5.75081 8.56588 5.90084C8.41585 6.05087 8.21237 6.13516 8.0002 6.13516ZM8.66686 11.0918C8.66686 11.2686 8.59662 11.4382 8.4716 11.5632C8.34658 11.6883 8.17701 11.7585 8.0002 11.7585C7.82338 11.7585 7.65381 11.6883 7.52879 11.5632C7.40377 11.4382 7.33353 11.2686 7.33353 11.0918V7.75849C7.33353 7.58168 7.40377 7.41211 7.52879 7.28708C7.65381 7.16206 7.82338 7.09182 8.0002 7.09182C8.17701 7.09182 8.34658 7.16206 8.4716 7.28708C8.59662 7.41211 8.66686 7.58168 8.66686 7.75849V11.0918Z" fill="#BDBAC1"/>
</g>
<defs>
<clipPath id="clip0_2726_60801">
<rect width="16" height="16" fill="white"/>
</clipPath>
</defs>
</svg>
