<svg width="14" height="3" viewBox="0 0 14 3" fill="none" xmlns="http://www.w3.org/2000/svg">
<mask id="path-1-inside-1_3264_3648" fill="white">
<path d="M0 1.76367C0 1.21139 0.447715 0.763672 1 0.763672H13C13.5523 0.763672 14 1.21139 14 1.76367C14 2.31596 13.5523 2.76367 13 2.76367H1C0.447716 2.76367 0 2.31596 0 1.76367Z"/>
</mask>
<path d="M0 1.76367C0 1.21139 0.447715 0.763672 1 0.763672H13C13.5523 0.763672 14 1.21139 14 1.76367C14 2.31596 13.5523 2.76367 13 2.76367H1C0.447716 2.76367 0 2.31596 0 1.76367Z" fill="#343337"/>
<path d="M1 1.01367H13V0.513672H1V1.01367ZM13 2.51367H1V3.01367H13V2.51367ZM1 2.51367C0.585787 2.51367 0.25 2.17789 0.25 1.76367H-0.25C-0.25 2.45403 0.309645 3.01367 1 3.01367V2.51367ZM13.75 1.76367C13.75 2.17789 13.4142 2.51367 13 2.51367V3.01367C13.6904 3.01367 14.25 2.45403 14.25 1.76367H13.75ZM13 1.01367C13.4142 1.01367 13.75 1.34946 13.75 1.76367H14.25C14.25 1.07332 13.6904 0.513672 13 0.513672V1.01367ZM1 0.513672C0.309644 0.513672 -0.25 1.07332 -0.25 1.76367H0.25C0.25 1.34946 0.585786 1.01367 1 1.01367V0.513672Z" fill="white" mask="url(#path-1-inside-1_3264_3648)"/>
</svg>
