<svg width="14" height="13" viewBox="0 0 14 13" fill="none" xmlns="http://www.w3.org/2000/svg">
<mask id="path-1-inside-1_3264_3846" fill="white">
<path fill-rule="evenodd" clip-rule="evenodd" d="M6.32414 12.0002C6.32414 12.5064 6.73455 12.9168 7.24081 12.9168C7.74707 12.9168 8.15747 12.5064 8.15747 12.0002V7.65853H12.5C13.0063 7.65853 13.4167 7.24812 13.4167 6.74186C13.4167 6.2356 13.0063 5.82519 12.5 5.82519H8.15747V1.00016C8.15747 0.493901 7.74707 0.0834961 7.24081 0.0834961C6.73454 0.0834961 6.32414 0.4939 6.32414 1.00016V5.82519H1.5C0.993742 5.82519 0.583336 6.2356 0.583336 6.74186C0.583336 7.24812 0.993741 7.65853 1.5 7.65853H6.32414V12.0002Z"/>
</mask>
<path fill-rule="evenodd" clip-rule="evenodd" d="M6.32414 12.0002C6.32414 12.5064 6.73455 12.9168 7.24081 12.9168C7.74707 12.9168 8.15747 12.5064 8.15747 12.0002V7.65853H12.5C13.0063 7.65853 13.4167 7.24812 13.4167 6.74186C13.4167 6.2356 13.0063 5.82519 12.5 5.82519H8.15747V1.00016C8.15747 0.493901 7.74707 0.0834961 7.24081 0.0834961C6.73454 0.0834961 6.32414 0.4939 6.32414 1.00016V5.82519H1.5C0.993742 5.82519 0.583336 6.2356 0.583336 6.74186C0.583336 7.24812 0.993741 7.65853 1.5 7.65853H6.32414V12.0002Z" fill="#343337"/>
<path d="M8.15747 7.65853V7.40853H7.90747V7.65853H8.15747ZM8.15747 5.82519H7.90747V6.07519H8.15747V5.82519ZM6.32414 5.82519V6.07519H6.57414V5.82519H6.32414ZM6.32414 7.65853H6.57414V7.40853H6.32414V7.65853ZM7.24081 12.6668C6.87262 12.6668 6.57414 12.3684 6.57414 12.0002H6.07414C6.07414 12.6445 6.59647 13.1668 7.24081 13.1668V12.6668ZM7.90747 12.0002C7.90747 12.3684 7.609 12.6668 7.24081 12.6668V13.1668C7.88514 13.1668 8.40747 12.6445 8.40747 12.0002H7.90747ZM7.90747 7.65853V12.0002H8.40747V7.65853H7.90747ZM12.5 7.40853H8.15747V7.90853H12.5V7.40853ZM13.1667 6.74186C13.1667 7.11005 12.8682 7.40853 12.5 7.40853V7.90853C13.1443 7.90853 13.6667 7.38619 13.6667 6.74186H13.1667ZM12.5 6.07519C12.8682 6.07519 13.1667 6.37367 13.1667 6.74186H13.6667C13.6667 6.09753 13.1443 5.57519 12.5 5.57519V6.07519ZM8.15747 6.07519H12.5V5.57519H8.15747V6.07519ZM7.90747 1.00016V5.82519H8.40747V1.00016H7.90747ZM7.24081 0.333496C7.609 0.333496 7.90747 0.631972 7.90747 1.00016H8.40747C8.40747 0.355829 7.88514 -0.166504 7.24081 -0.166504V0.333496ZM6.57414 1.00016C6.57414 0.631972 6.87262 0.333496 7.24081 0.333496V-0.166504C6.59647 -0.166504 6.07414 0.355828 6.07414 1.00016H6.57414ZM6.57414 5.82519V1.00016H6.07414V5.82519H6.57414ZM1.5 6.07519H6.32414V5.57519H1.5V6.07519ZM0.833336 6.74186C0.833336 6.37367 1.13181 6.07519 1.5 6.07519V5.57519C0.855671 5.57519 0.333336 6.09753 0.333336 6.74186H0.833336ZM1.5 7.40853C1.13181 7.40853 0.833336 7.11005 0.833336 6.74186H0.333336C0.333336 7.38619 0.855669 7.90853 1.5 7.90853V7.40853ZM6.32414 7.40853H1.5V7.90853H6.32414V7.40853ZM6.57414 12.0002V7.65853H6.07414V12.0002H6.57414Z" fill="white" mask="url(#path-1-inside-1_3264_3846)"/>
</svg>
