<svg width="19" height="17" viewBox="0 0 19 17" fill="none" xmlns="http://www.w3.org/2000/svg">
<path d="M6.5625 10.2539L8.49609 12.7734C8.16406 12.8613 7.8125 12.9102 7.44141 12.9102C5.13672 12.9102 3.50586 11.1621 3.51562 7.92969C3.50586 4.69727 5.13672 2.94922 7.44141 2.94922C9.75586 2.94922 11.377 4.69727 11.3672 7.92969C11.377 9.6875 10.8984 10.9961 10.0879 11.8359L8.88672 10.2539H6.5625ZM0.957031 7.92969C0.947266 12.4902 3.7207 15.1953 7.44141 15.1953C8.33008 15.1953 9.16992 15.0391 9.93164 14.7363L11.1133 16.2305H13.5938L11.6309 13.7109C13.0566 12.4707 13.9355 10.498 13.9258 7.92969C13.9355 3.35938 11.1426 0.664062 7.44141 0.664062C3.7207 0.664062 0.947266 3.35938 0.957031 7.92969ZM16.7383 15.1562C17.5488 15.1562 18.2422 14.4727 18.2422 13.6328C18.2422 12.8125 17.5488 12.1387 16.7383 12.1289C15.8984 12.1387 15.2051 12.8125 15.2148 13.6328C15.2051 14.4727 15.8984 15.1562 16.7383 15.1562Z" fill="#DD5257"/>
</svg>
