<svg width="375" height="269" viewBox="0 0 375 269" fill="none" xmlns="http://www.w3.org/2000/svg">
<g opacity="0.8">
<path d="M384.858 208.267C390.922 228.784 374.104 253.3 347.296 263.027C320.487 272.753 293.839 264.007 287.776 243.49C281.713 222.974 298.53 198.457 325.338 188.731C352.147 179.004 378.795 187.751 384.858 208.267Z" fill="#FDC800"/>
<path d="M377.798 197.735C388.971 213.815 368.779 234.529 351.465 245.351C336.067 254.974 295.574 259.228 288.703 243.189C282.211 228.035 294.369 202.641 319.004 191.244C343.64 179.847 368.779 184.756 377.798 197.735Z" fill="#FFDF6C"/>
<path d="M321.825 209.967L332.335 204.821C337.34 202.37 340.399 204.534 341.821 207.438C343.244 210.343 343.077 214.086 338.072 216.537L327.561 221.683L321.825 209.967ZM331.307 229.333L342.652 223.778C353.774 218.332 355.039 209.37 351.72 202.592C348.401 195.814 340.546 191.317 329.424 196.762L313.741 204.441C310.405 206.075 309.128 209.101 310.551 212.006L326.291 244.153C327.524 246.671 330.475 247.207 333.256 245.845C336.036 244.484 337.423 241.824 336.19 239.306L331.307 229.333Z" fill="#FDC800"/>
</g>
<path opacity="0.8" d="M261.724 -7.11046C255.663 13.1144 266.095 34.0365 285.025 39.6203C303.955 45.2042 324.215 33.3353 330.276 13.1105C336.337 -7.11439 325.905 -28.0365 306.975 -33.6203C288.045 -39.2042 267.785 -27.3353 261.724 -7.11046Z" fill="#FFDF6C"/>
<g opacity="0.25">
<mask id="path-5-outside-1_10452_158214" maskUnits="userSpaceOnUse" x="326.455" y="58.4152" width="59.8125" height="59.8125" fill="black">
<rect fill="white" x="326.455" y="58.4152" width="59.8125" height="59.8125"/>
<path fill-rule="evenodd" clip-rule="evenodd" d="M358.709 89.6724L371.669 86.2794C371.925 86.2126 372.165 86.096 372.376 85.9362C372.586 85.7764 372.763 85.5767 372.897 85.3483C373.03 85.12 373.117 84.8675 373.153 84.6053C373.189 84.3431 373.173 84.0764 373.106 83.8203C373.039 83.5642 372.922 83.3237 372.763 83.1127C372.603 82.9017 372.403 82.7242 372.175 82.5904C371.947 82.4566 371.695 82.369 371.433 82.3328C371.171 82.2965 370.905 82.3123 370.649 82.3791L357.689 85.7736L354.289 72.7881C354.139 72.2868 353.801 71.8632 353.346 71.6067C352.891 71.3502 352.354 71.2808 351.849 71.4132C351.343 71.5456 350.91 71.8694 350.639 72.3163C350.368 72.7632 350.281 73.2982 350.396 73.8084L353.797 86.7925L340.835 90.1846C340.451 90.2866 340.106 90.5 339.843 90.7981C339.58 91.0962 339.411 91.4657 339.357 91.86C339.303 92.2543 339.366 92.6559 339.54 93.0142C339.713 93.3726 339.988 93.6717 340.331 93.8739C340.775 94.1344 341.319 94.2254 341.855 94.0849L354.817 90.6913L358.216 103.676C358.282 103.932 358.399 104.173 358.558 104.384C358.718 104.595 358.918 104.773 359.146 104.906C359.374 105.04 359.626 105.128 359.888 105.163C360.15 105.199 360.416 105.183 360.672 105.116C360.928 105.049 361.168 104.932 361.378 104.773C361.589 104.613 361.766 104.413 361.9 104.184C362.033 103.956 362.12 103.703 362.156 103.441C362.192 103.179 362.176 102.912 362.108 102.656L358.709 89.6724Z"/>
</mask>
<path fill-rule="evenodd" clip-rule="evenodd" d="M358.709 89.6724L371.669 86.2794C371.925 86.2126 372.165 86.096 372.376 85.9362C372.586 85.7764 372.763 85.5767 372.897 85.3483C373.03 85.12 373.117 84.8675 373.153 84.6053C373.189 84.3431 373.173 84.0764 373.106 83.8203C373.039 83.5642 372.922 83.3237 372.763 83.1127C372.603 82.9017 372.403 82.7242 372.175 82.5904C371.947 82.4566 371.695 82.369 371.433 82.3328C371.171 82.2965 370.905 82.3123 370.649 82.3791L357.689 85.7736L354.289 72.7881C354.139 72.2868 353.801 71.8632 353.346 71.6067C352.891 71.3502 352.354 71.2808 351.849 71.4132C351.343 71.5456 350.91 71.8694 350.639 72.3163C350.368 72.7632 350.281 73.2982 350.396 73.8084L353.797 86.7925L340.835 90.1846C340.451 90.2866 340.106 90.5 339.843 90.7981C339.58 91.0962 339.411 91.4657 339.357 91.86C339.303 92.2543 339.366 92.6559 339.54 93.0142C339.713 93.3726 339.988 93.6717 340.331 93.8739C340.775 94.1344 341.319 94.2254 341.855 94.0849L354.817 90.6913L358.216 103.676C358.282 103.932 358.399 104.173 358.558 104.384C358.718 104.595 358.918 104.773 359.146 104.906C359.374 105.04 359.626 105.128 359.888 105.163C360.15 105.199 360.416 105.183 360.672 105.116C360.928 105.049 361.168 104.932 361.378 104.773C361.589 104.613 361.766 104.413 361.9 104.184C362.033 103.956 362.12 103.703 362.156 103.441C362.192 103.179 362.176 102.912 362.108 102.656L358.709 89.6724Z" fill="#7441FF"/>
<path d="M358.709 89.6724L356.939 82.9105L350.177 84.6808L351.947 91.4427L358.709 89.6724ZM371.669 86.2794L369.901 79.517L369.899 79.5176L371.669 86.2794ZM370.649 82.3791L368.881 75.6167L368.879 75.6174L370.649 82.3791ZM357.689 85.7736L350.927 87.5438L352.697 94.3063L359.46 92.5353L357.689 85.7736ZM354.289 72.7881L361.051 71.0178L361.021 70.9027L360.987 70.7887L354.289 72.7881ZM350.396 73.8084L343.579 75.3516L343.605 75.4659L343.635 75.5793L350.396 73.8084ZM353.797 86.7925L355.566 93.5545L362.33 91.7845L360.558 85.0216L353.797 86.7925ZM340.835 90.1846L339.066 83.4226L339.054 83.4257L339.042 83.4289L340.835 90.1846ZM340.331 93.8739L336.776 99.8925L336.786 99.8982L336.796 99.9039L340.331 93.8739ZM341.855 94.0849L343.625 100.847L343.625 100.847L341.855 94.0849ZM354.817 90.6913L361.58 88.9216L359.81 82.159L353.047 83.9294L354.817 90.6913ZM358.216 103.676L364.98 101.917L364.978 101.906L358.216 103.676ZM360.672 105.116L358.905 98.3531L358.898 98.355L358.891 98.357L360.672 105.116ZM362.108 102.656L355.347 104.426L355.348 104.43L362.108 102.656ZM360.48 96.4343L373.44 93.0413L369.899 79.5176L356.939 82.9105L360.48 96.4343ZM373.438 93.0418C374.583 92.7424 375.658 92.2199 376.601 91.5045L368.15 80.3679C368.672 79.9721 369.267 79.6828 369.901 79.517L373.438 93.0418ZM376.601 91.5045C377.543 90.7891 378.335 89.8952 378.932 88.8743L366.861 81.8223C367.191 81.2582 367.629 80.7638 368.15 80.3679L376.601 91.5045ZM378.932 88.8743C379.528 87.8534 379.917 86.7255 380.078 85.5551L366.228 83.6555C366.317 83.0095 366.532 82.3865 366.861 81.8223L378.932 88.8743ZM380.078 85.5551C380.239 84.3847 380.167 83.1944 379.869 82.052L366.344 85.5885C366.179 84.9583 366.14 84.3015 366.228 83.6555L380.078 85.5551ZM379.869 82.052C379.57 80.9095 379.049 79.8367 378.336 78.8947L367.189 87.3307C366.796 86.8108 366.509 86.2188 366.344 85.5885L379.869 82.052ZM378.336 78.8947C377.624 77.9527 376.732 77.1597 375.712 76.5614L368.639 88.6193C368.075 88.2887 367.583 87.8507 367.189 87.3307L378.336 78.8947ZM375.712 76.5614C374.692 75.9631 373.564 75.5713 372.392 75.409L370.475 89.2565C369.826 89.1667 369.202 88.95 368.639 88.6193L375.712 76.5614ZM372.392 75.409C371.22 75.2468 370.027 75.3172 368.881 75.6167L372.418 89.1415C371.784 89.3073 371.123 89.3463 370.475 89.2565L372.392 75.409ZM368.879 75.6174L355.918 79.0118L359.46 92.5353L372.42 89.1409L368.879 75.6174ZM364.451 84.0033L361.051 71.0178L347.527 74.5584L350.927 87.5438L364.451 84.0033ZM360.987 70.7887C360.32 68.554 358.811 66.6631 356.777 65.5168L349.915 77.6966C348.791 77.0634 347.959 76.0196 347.591 74.7875L360.987 70.7887ZM356.777 65.5168C354.741 64.3703 352.339 64.0588 350.076 64.6519L353.621 78.1746C352.368 78.5028 351.04 78.3301 349.915 77.6966L356.777 65.5168ZM350.076 64.6519C347.814 65.2449 345.873 66.6949 344.662 68.6924L356.616 75.9403C355.946 77.044 354.873 77.8463 353.621 78.1746L350.076 64.6519ZM344.662 68.6924C343.451 70.6893 343.064 73.077 343.579 75.3516L357.214 72.2653C357.497 73.5195 357.284 74.8371 356.616 75.9403L344.662 68.6924ZM343.635 75.5793L347.035 88.5633L360.558 85.0216L357.158 72.0376L343.635 75.5793ZM352.027 80.0304L339.066 83.4226L342.605 96.9466L355.566 93.5545L352.027 80.0304ZM339.042 83.4289C337.323 83.8853 335.778 84.8405 334.602 86.173L345.084 95.4233C344.434 96.1595 343.58 96.6878 342.629 96.9403L339.042 83.4289ZM334.602 86.173C333.426 87.5054 332.672 89.1548 332.431 90.913L346.282 92.807C346.149 93.7765 345.733 94.6871 345.084 95.4233L334.602 86.173ZM332.431 90.913C332.191 92.6711 332.475 94.4608 333.247 96.0578L345.832 89.9707C346.258 90.8509 346.415 91.8375 346.282 92.807L332.431 90.913ZM333.247 96.0578C334.02 97.6548 335.247 98.9893 336.776 99.8925L343.885 87.8553C344.73 88.354 345.406 89.0904 345.832 89.9707L333.247 96.0578ZM336.796 99.9039C338.772 101.062 341.217 101.477 343.625 100.847L340.085 87.323C341.42 86.9734 342.779 87.2066 343.866 87.8439L336.796 99.9039ZM343.625 100.847L356.588 97.4532L353.047 83.9294L340.085 87.323L343.625 100.847ZM348.055 92.461L351.454 105.446L364.978 101.906L361.58 88.9216L348.055 92.461ZM351.451 105.435C351.749 106.58 352.269 107.655 352.983 108.599L364.134 100.169C364.529 100.69 364.816 101.284 364.98 101.917L351.451 105.435ZM352.983 108.599C353.696 109.543 354.589 110.337 355.611 110.936L362.681 98.8764C363.246 99.2078 363.74 99.6472 364.134 100.169L352.983 108.599ZM355.611 110.936C356.633 111.535 357.763 111.927 358.937 112.088L360.839 98.2387C361.49 98.328 362.115 98.545 362.681 98.8764L355.611 110.936ZM358.937 112.088C360.112 112.25 361.307 112.177 362.453 111.875L358.891 98.357C359.526 98.1895 360.188 98.1494 360.839 98.2387L358.937 112.088ZM362.438 111.879C363.585 111.579 364.66 111.057 365.604 110.341L357.153 99.2044C357.675 98.8083 358.271 98.5188 358.905 98.3531L362.438 111.879ZM365.604 110.341C366.547 109.625 367.339 108.73 367.936 107.709L355.863 100.66C356.193 100.095 356.631 99.6005 357.153 99.2044L365.604 110.341ZM367.936 107.709C368.532 106.687 368.921 105.558 369.081 104.387L355.23 102.495C355.319 101.849 355.534 101.225 355.863 100.66L367.936 107.709ZM369.081 104.387C369.241 103.216 369.169 102.025 368.869 100.882L355.348 104.43C355.182 103.799 355.142 103.142 355.23 102.495L369.081 104.387ZM368.87 100.885L365.471 87.9021L351.947 91.4427L355.347 104.426L368.87 100.885Z" fill="#7441FF" mask="url(#path-5-outside-1_10452_158214)"/>
</g>
<g opacity="0.1">
<mask id="path-7-outside-2_10452_158214" maskUnits="userSpaceOnUse" x="138.618" y="6.69323" width="68.8275" height="68.8275" fill="black">
<rect fill="white" x="138.618" y="6.69323" width="68.8275" height="68.8275"/>
<path fill-rule="evenodd" clip-rule="evenodd" d="M174.836 43.8456L191.247 47.3477C191.57 47.4169 191.905 47.4215 192.23 47.3613C192.556 47.3011 192.866 47.1773 193.144 46.997C193.422 46.8166 193.662 46.5832 193.85 46.3101C194.037 46.037 194.17 45.7296 194.239 45.4053C194.308 45.0811 194.313 44.7464 194.253 44.4204C194.194 44.0943 194.07 43.7833 193.89 43.5052C193.71 43.227 193.478 42.987 193.205 42.799C192.933 42.6111 192.626 42.4787 192.302 42.4095L175.889 38.9086L179.398 22.4654C179.513 21.8204 179.373 21.156 179.008 20.6126C178.643 20.0692 178.082 19.6892 177.442 19.5529C176.802 19.4166 176.135 19.5346 175.58 19.882C175.025 20.2294 174.627 20.779 174.468 21.4149L170.961 37.8569L154.549 34.353C154.062 34.2508 153.556 34.2952 153.093 34.4806C152.631 34.6659 152.234 34.984 151.951 35.3948C151.669 35.8056 151.514 36.2908 151.506 36.7894C151.498 37.2879 151.638 37.7775 151.907 38.1967C152.258 38.7384 152.814 39.1461 153.494 39.2912L169.908 42.7939L166.398 59.2352C166.328 59.5594 166.323 59.8942 166.382 60.2203C166.442 60.5464 166.565 60.8575 166.745 61.1357C166.925 61.4139 167.158 61.6537 167.431 61.8414C167.704 62.0291 168.011 62.161 168.335 62.2296C168.659 62.2989 168.993 62.3035 169.319 62.2433C169.644 62.1831 169.955 62.0592 170.233 61.8787C170.511 61.6982 170.751 61.4646 170.938 61.1912C171.126 60.9179 171.258 60.6102 171.328 60.2858L174.836 43.8456Z"/>
</mask>
<path fill-rule="evenodd" clip-rule="evenodd" d="M174.836 43.8456L191.247 47.3477C191.57 47.4169 191.905 47.4215 192.23 47.3613C192.556 47.3011 192.866 47.1773 193.144 46.997C193.422 46.8166 193.662 46.5832 193.85 46.3101C194.037 46.037 194.17 45.7296 194.239 45.4053C194.308 45.0811 194.313 44.7464 194.253 44.4204C194.194 44.0943 194.07 43.7833 193.89 43.5052C193.71 43.227 193.478 42.987 193.205 42.799C192.933 42.6111 192.626 42.4787 192.302 42.4095L175.889 38.9086L179.398 22.4654C179.513 21.8204 179.373 21.156 179.008 20.6126C178.643 20.0692 178.082 19.6892 177.442 19.5529C176.802 19.4166 176.135 19.5346 175.58 19.882C175.025 20.2294 174.627 20.779 174.468 21.4149L170.961 37.8569L154.549 34.353C154.062 34.2508 153.556 34.2952 153.093 34.4806C152.631 34.6659 152.234 34.984 151.951 35.3948C151.669 35.8056 151.514 36.2908 151.506 36.7894C151.498 37.2879 151.638 37.7775 151.907 38.1967C152.258 38.7384 152.814 39.1461 153.494 39.2912L169.908 42.7939L166.398 59.2352C166.328 59.5594 166.323 59.8942 166.382 60.2203C166.442 60.5464 166.565 60.8575 166.745 61.1357C166.925 61.4139 167.158 61.6537 167.431 61.8414C167.704 62.0291 168.011 62.161 168.335 62.2296C168.659 62.2989 168.993 62.3035 169.319 62.2433C169.644 62.1831 169.955 62.0592 170.233 61.8787C170.511 61.6982 170.751 61.4646 170.938 61.1912C171.126 60.9179 171.258 60.6102 171.328 60.2858L174.836 43.8456Z" fill="#7441FF"/>
<path d="M174.836 43.8456L176.295 37.0097L169.459 35.5509L168 42.3868L174.836 43.8456ZM191.247 47.3477L192.708 40.5123L192.706 40.5118L191.247 47.3477ZM192.302 42.4095L193.763 35.5741L193.76 35.5735L192.302 42.4095ZM175.889 38.9086L169.054 37.4498L167.595 44.2862L174.431 45.7445L175.889 38.9086ZM179.398 22.4654L186.234 23.9242L186.259 23.8079L186.28 23.6907L179.398 22.4654ZM174.468 21.4149L167.685 19.7283L167.657 19.8421L167.633 19.9567L174.468 21.4149ZM170.961 37.8569L169.502 44.6926L176.339 46.1522L177.797 39.3151L170.961 37.8569ZM154.549 34.353L156.009 27.5173L155.997 27.5147L155.984 27.5121L154.549 34.353ZM151.907 38.1967L146.026 41.9747L146.033 41.9842L146.039 41.9936L151.907 38.1967ZM153.494 39.2912L152.035 46.127L152.035 46.127L153.494 39.2912ZM169.908 42.7939L176.743 44.2533L178.203 37.4169L171.366 35.958L169.908 42.7939ZM166.398 59.2352L173.231 60.7052L173.233 60.6946L166.398 59.2352ZM168.335 62.2296L169.797 55.3946L169.79 55.3929L169.782 55.3914L168.335 62.2296ZM171.328 60.2858L164.492 58.827L164.491 58.8308L171.328 60.2858ZM173.377 50.6814L189.788 54.1835L192.706 40.5118L176.295 37.0097L173.377 50.6814ZM189.786 54.1831C191.009 54.4445 192.271 54.4619 193.501 54.2346L190.96 40.488C191.538 40.3811 192.132 40.3892 192.708 40.5123L189.786 54.1831ZM193.501 54.2346C194.73 54.0074 195.902 53.54 196.95 52.8599L189.338 41.134C189.83 40.8147 190.381 40.5949 190.96 40.488L193.501 54.2346ZM196.95 52.8599C197.998 52.1797 198.901 51.3002 199.608 50.2719L188.091 42.3483C188.423 41.8662 188.846 41.4534 189.338 41.134L196.95 52.8599ZM199.608 50.2719C200.316 49.2435 200.814 48.0863 201.075 46.8661L187.404 43.9445C187.526 43.3729 187.759 42.8305 188.091 42.3483L199.608 50.2719ZM201.075 46.8661C201.335 45.646 201.354 44.3862 201.128 43.1585L187.378 45.6822C187.273 45.1066 187.282 44.5162 187.404 43.9445L201.075 46.8661ZM201.128 43.1585C200.903 41.9308 200.438 40.759 199.76 39.71L188.021 47.3003C187.702 46.8077 187.484 46.2578 187.378 45.6822L201.128 43.1585ZM199.76 39.71C199.082 38.6609 198.203 37.7554 197.174 37.0455L189.236 48.5526C188.752 48.2187 188.339 47.793 188.021 47.3003L199.76 39.71ZM197.174 37.0455C196.145 36.3356 194.986 35.8355 193.763 35.5741L190.841 49.2449C190.266 49.1219 189.72 48.8865 189.236 48.5526L197.174 37.0455ZM193.76 35.5735L177.348 32.0726L174.431 45.7445L190.844 49.2455L193.76 35.5735ZM182.725 40.3673L186.234 23.9242L172.563 21.0067L169.054 37.4498L182.725 40.3673ZM186.28 23.6907C186.712 21.2647 186.187 18.7635 184.811 16.7153L173.206 24.5099C172.56 23.5485 172.315 22.3761 172.517 21.2401L186.28 23.6907ZM184.811 16.7153C183.435 14.6666 181.316 13.2316 178.899 12.7166L175.985 26.3892C174.848 26.1468 173.852 25.4717 173.206 24.5099L184.811 16.7153ZM178.899 12.7166C176.482 12.2016 173.962 12.648 171.87 13.9578L179.289 25.8062C178.307 26.4211 177.123 26.6315 175.985 26.3892L178.899 12.7166ZM171.87 13.9578C169.779 15.2672 168.28 17.3369 167.685 19.7283L181.252 23.1015C180.973 24.2212 180.271 25.1916 179.289 25.8062L171.87 13.9578ZM167.633 19.9567L164.125 36.3987L177.797 39.3151L181.304 22.8731L167.633 19.9567ZM172.421 31.0212L156.009 27.5173L153.09 41.1887L169.502 44.6926L172.421 31.0212ZM155.984 27.5121C154.145 27.1264 152.234 27.2941 150.492 27.9931L155.695 40.968C154.877 41.2962 153.979 41.3752 153.114 41.1938L155.984 27.5121ZM150.492 27.9931C148.749 28.6919 147.253 29.8902 146.191 31.4354L157.712 39.3542C157.214 40.0779 156.513 40.64 155.695 40.968L150.492 27.9931ZM146.191 31.4354C145.129 32.9806 144.547 34.8048 144.517 36.679L158.495 36.8997C158.481 37.7769 158.209 38.6307 157.712 39.3542L146.191 31.4354ZM144.517 36.679C144.488 38.5533 145.012 40.3959 146.026 41.9747L157.788 34.4187C158.264 35.1592 158.509 36.0225 158.495 36.8997L144.517 36.679ZM146.039 41.9936C147.353 44.0258 149.463 45.5781 152.035 46.127L154.953 32.4553C156.166 32.7141 157.162 33.4509 157.776 34.3998L146.039 41.9936ZM152.035 46.127L168.449 49.6297L171.366 35.958L154.953 32.4553L152.035 46.127ZM163.072 41.3345L159.562 57.7759L173.233 60.6946L176.743 44.2533L163.072 41.3345ZM159.564 57.7653C159.301 58.9871 159.282 60.2489 159.507 61.4786L173.258 58.9621C173.364 59.5395 173.354 60.1318 173.231 60.7052L159.564 57.7653ZM159.507 61.4786C159.732 62.7083 160.197 63.8821 160.877 64.9326L172.614 57.3388C172.934 57.8329 173.152 58.3846 173.258 58.9621L159.507 61.4786ZM160.877 64.9326C161.556 65.9831 162.437 66.8895 163.469 67.5994L171.394 56.0834C171.88 56.4178 172.294 56.8446 172.614 57.3388L160.877 64.9326ZM163.469 67.5994C164.5 68.3093 165.662 68.8084 166.887 69.0678L169.782 55.3914C170.36 55.5136 170.908 55.7489 171.394 56.0834L163.469 67.5994ZM166.872 69.0646C168.096 69.3265 169.359 69.3441 170.589 69.1166L168.048 55.37C168.627 55.263 169.221 55.2713 169.797 55.3946L166.872 69.0646ZM170.589 69.1166C171.819 68.8892 172.992 68.4214 174.04 67.7405L166.426 56.0169C166.918 55.6971 167.469 55.477 168.048 55.37L170.589 69.1166ZM174.04 67.7405C175.089 67.0596 175.992 66.1791 176.699 65.1497L165.178 57.2328C165.509 56.75 165.933 56.3367 166.426 56.0169L174.04 67.7405ZM176.699 65.1497C177.407 64.1204 177.904 62.962 178.164 61.7408L164.491 58.8308C164.613 58.2585 164.846 57.7154 165.178 57.2328L176.699 65.1497ZM178.163 61.7446L181.672 45.3044L168 42.3868L164.492 58.827L178.163 61.7446Z" fill="#7441FF" mask="url(#path-7-outside-2_10452_158214)"/>
</g>
<path opacity="0.15" d="M55.0711 258.2C55.8985 258.522 56.7811 258.678 57.6687 258.659C58.5575 258.639 59.4335 258.445 60.2469 258.086C61.0601 257.728 61.7947 257.213 62.4087 256.571C63.0223 255.93 63.5037 255.174 63.8255 254.347C63.8258 254.346 63.826 254.346 63.8262 254.345L70.4613 237.308L87.4632 243.929C87.4636 243.929 87.4639 243.929 87.4642 243.929C88.2919 244.252 89.1749 244.408 90.0629 244.389C90.9512 244.369 91.8268 244.175 92.6397 243.817L92.6397 243.817C93.4526 243.46 94.187 242.945 94.801 242.304C95.4151 241.663 95.8969 240.907 96.2193 240.08C96.5417 239.253 96.6984 238.371 96.6803 237.483L96.6803 237.483C96.6621 236.595 96.4696 235.72 96.1133 234.906C95.7569 234.092 95.2437 233.357 94.6028 232.742C93.9619 232.126 93.2058 231.643 92.3778 231.321L92.3766 231.32L75.3716 224.699L82.0087 207.657L82.0303 207.602L82.05 207.545C82.6304 205.891 82.5467 204.075 81.8148 202.48C81.0827 200.885 79.7593 199.637 78.123 199C76.4867 198.364 74.6676 198.389 73.0502 199.07C71.433 199.75 70.1439 201.032 69.4533 202.644L69.4302 202.698L69.4089 202.752L62.7741 219.793L51.2279 249.437L54.4825 250.71L51.2259 249.442L51.227 249.439C50.9037 250.266 50.7464 251.148 50.764 252.036C50.7817 252.925 50.9744 253.802 51.3314 254.616C51.6884 255.431 52.2027 256.167 52.845 256.782C53.4865 257.396 54.2429 257.878 55.0711 258.2ZM55.0711 258.2C55.0699 258.199 55.0687 258.199 55.0675 258.198L56.3376 254.942L55.0747 258.201C55.0735 258.201 55.0723 258.2 55.0711 258.2ZM40.8577 225.779L57.8638 232.402L45.7707 213.17L45.7591 213.165C44.513 212.685 43.1528 212.585 41.85 212.876C40.5473 213.168 39.3604 213.838 38.4381 214.802C37.5158 215.766 36.8986 216.981 36.6638 218.294C36.429 219.608 36.587 220.961 37.1189 222.185L37.1234 222.196C37.8154 223.774 39.1172 225.101 40.8577 225.779Z" fill="#7441FF" stroke="#7441FF" stroke-width="6.98977"/>
<ellipse opacity="0.8" cx="6.86539" cy="144.406" rx="23.9829" ry="44.1791" transform="rotate(-47.9328 6.86539 144.406)" fill="#FFDF6C"/>
<path d="M49.2314 61.7129C49.2314 63.2165 49.514 64.7049 50.0791 66.1782C50.6543 67.6414 51.4717 68.9583 52.5312 70.1289C53.6009 71.2894 54.8522 72.1673 56.2852 72.7627L54.4385 75.4268C52.8542 74.7406 51.4767 73.7264 50.3062 72.3843C49.1356 71.0321 48.2274 69.4629 47.5815 67.6768C46.9357 69.5941 46.0225 71.2894 44.8418 72.7627C43.6611 74.236 42.2887 75.346 40.7246 76.0928L38.7871 73.459C40.1898 72.8132 41.4209 71.8646 42.4805 70.6133C43.54 69.362 44.3574 67.9543 44.9326 66.3901C45.5078 64.826 45.8005 63.2669 45.8105 61.7129V59.4121H39.7861V56.627H55.2256V59.4121H49.2314V61.7129ZM58.2832 53.9326H61.6738V81.2998H58.2832V53.9326ZM86.1484 57.3838V58.2314C86.1484 59.402 86.103 60.5322 86.0122 61.6221C85.9214 62.7119 85.7448 63.8926 85.4824 65.1641H89.2061V67.8887H64.2002V65.1641H82.0767C82.3693 63.832 82.561 62.611 82.6519 61.501C82.7427 60.391 82.7881 59.2103 82.7881 57.959H67.2881V55.2646H86.1484V57.3838ZM67.1973 71.0674H86.1182V80.9668H67.1973V71.0674ZM82.7881 78.2422V73.7012H70.4971V78.2422H82.7881ZM118.145 81.2998H114.784V53.9326H118.145V81.2998ZM96.6958 73.7012C99.3296 73.681 101.333 73.6507 102.705 73.6104V71.0977C101.686 70.9362 100.793 70.6284 100.026 70.1743C99.259 69.7202 98.6636 69.1501 98.2397 68.4639C97.826 67.7676 97.6191 66.9906 97.6191 66.1328C97.6191 65.1136 97.9017 64.2155 98.4668 63.4385C99.0319 62.6615 99.8241 62.061 100.843 61.6372C101.862 61.2033 103.028 60.9863 104.34 60.9863C105.672 60.9863 106.853 61.2033 107.882 61.6372C108.911 62.061 109.713 62.6615 110.289 63.4385C110.864 64.2155 111.151 65.1136 111.151 66.1328C111.151 66.9805 110.939 67.7524 110.516 68.4487C110.102 69.1349 109.512 69.7051 108.745 70.1592C107.978 70.6133 107.085 70.9211 106.065 71.0825V73.4893C108.608 73.3783 110.98 73.1764 113.18 72.8838L113.422 75.3965C110.748 75.8506 107.988 76.1483 105.142 76.2896C102.306 76.4207 99.2438 76.4863 95.9541 76.4863L95.4697 73.7012H96.6958ZM96.0449 57.0811H102.705V54.0234H106.065V57.0811H112.695V59.7451H96.0449V57.0811ZM100.828 66.1328C100.818 66.8997 101.131 67.5052 101.767 67.9492C102.402 68.3932 103.245 68.6152 104.294 68.6152C105.394 68.6152 106.272 68.3983 106.928 67.9644C107.594 67.5203 107.922 66.9098 107.912 66.1328C107.922 65.3457 107.599 64.7251 106.943 64.271C106.287 63.8068 105.42 63.5697 104.34 63.5596C103.28 63.5697 102.428 63.8068 101.782 64.271C101.136 64.7251 100.818 65.3457 100.828 66.1328ZM143.588 74.6699H140.197V72.2783H134.839V69.917H140.197V53.9629H143.588V74.6699ZM120.52 66.2539C124.142 66.2337 127.351 66.1732 130.146 66.0723C132.942 65.9714 135.616 65.7594 138.169 65.4365L138.351 67.8584C136.332 68.2015 134.032 68.4639 131.448 68.6455V73.9131H128.088V68.8271C126.14 68.9079 123.759 68.9482 120.943 68.9482L120.52 66.2539ZM122.608 59.8057C122.608 58.8571 122.896 58.0145 123.471 57.2778C124.046 56.5412 124.849 55.971 125.878 55.5674C126.917 55.1637 128.108 54.9619 129.45 54.9619C130.762 54.9619 131.933 55.1637 132.962 55.5674C133.991 55.971 134.793 56.5412 135.369 57.2778C135.954 58.0145 136.252 58.8571 136.262 59.8057C136.252 60.7643 135.954 61.6069 135.369 62.3335C134.793 63.0601 133.991 63.6252 132.962 64.0288C131.943 64.4224 130.772 64.6191 129.45 64.6191C128.108 64.6191 126.917 64.4224 125.878 64.0288C124.849 63.6252 124.046 63.0651 123.471 62.3486C122.896 61.6221 122.608 60.7744 122.608 59.8057ZM124.152 72.6719H127.513V78.0303H144.224V80.7549H124.152V72.6719ZM125.787 59.8057C125.787 60.5423 126.12 61.1175 126.786 61.5312C127.452 61.945 128.34 62.1569 129.45 62.167C130.52 62.1569 131.383 61.945 132.039 61.5312C132.705 61.1074 133.043 60.5322 133.053 59.8057C133.043 59.0791 132.71 58.5039 132.054 58.0801C131.398 57.6562 130.545 57.4443 129.496 57.4443C128.365 57.4443 127.462 57.6562 126.786 58.0801C126.12 58.4938 125.787 59.069 125.787 59.8057ZM174.706 70.1895H171.346V63.499H166.684V60.7441H171.346V53.9326H174.706V70.1895ZM151.698 67.4648C153.121 66.9805 154.337 66.2791 155.346 65.3608C156.365 64.4425 157.132 63.4032 157.647 62.2427C158.162 61.0822 158.419 59.8864 158.419 58.6553V58.4434H152.728V55.7188H167.501V58.4434H161.84V58.625C161.84 59.7552 162.087 60.8551 162.582 61.9248C163.076 62.9844 163.808 63.938 164.776 64.7856C165.745 65.6232 166.916 66.2741 168.288 66.7383L166.593 69.4023C165.109 68.8978 163.828 68.1561 162.748 67.1772C161.668 66.1883 160.816 65.0329 160.19 63.7109C159.574 65.2044 158.696 66.5062 157.556 67.6162C156.416 68.7262 155.049 69.5638 153.454 70.1289L151.698 67.4648ZM156.148 76.0928C156.138 75.013 156.507 74.0846 157.253 73.3076C158 72.5205 159.07 71.9201 160.462 71.5063C161.865 71.0926 163.525 70.8857 165.442 70.8857C167.37 70.8857 169.035 71.0926 170.438 71.5063C171.84 71.9201 172.915 72.5155 173.662 73.2925C174.418 74.0695 174.797 75.0029 174.797 76.0928C174.797 77.1826 174.418 78.116 173.662 78.8931C172.915 79.6701 171.84 80.2655 170.438 80.6792C169.035 81.0929 167.37 81.2998 165.442 81.2998C163.525 81.2998 161.865 81.0929 160.462 80.6792C159.07 80.2655 158 79.665 157.253 78.8779C156.507 78.1009 156.138 77.1725 156.148 76.0928ZM159.479 76.0928C159.468 76.9303 159.973 77.5762 160.992 78.0303C162.021 78.4743 163.475 78.6963 165.352 78.6963C167.309 78.6963 168.813 78.4743 169.862 78.0303C170.912 77.5863 171.437 76.9404 171.437 76.0928C171.437 75.2451 170.917 74.5942 169.877 74.1401C168.848 73.686 167.37 73.459 165.442 73.459C163.535 73.459 162.062 73.686 161.022 74.1401C159.983 74.5942 159.468 75.2451 159.479 76.0928ZM202.087 78H177.081V75.2451H187.858V69.917H179.836V55.749H183.196V60.2295H195.881V55.749H199.241V69.917H191.188V75.2451H202.087V78ZM195.881 67.1924V62.9238H183.196V67.1924H195.881ZM227.349 68.8877H202.343V66.3447H227.349V68.8877ZM205.249 70.5225H224.321V76.7588H208.64V78.666H225.139V80.9971H205.279V74.5791H220.991V72.8838H205.249V70.5225ZM205.431 54.5381H224.261V60.7139H208.852V62.5H224.745V64.8008H205.521V58.5342H220.9V56.8691H205.431V54.5381ZM256.317 68.6152H252.927V53.9326H256.317V68.6152ZM234.006 61.5615C234.006 60.3203 234.324 59.2103 234.959 58.2314C235.605 57.2526 236.488 56.4958 237.608 55.9609C238.729 55.416 239.99 55.1436 241.393 55.1436C242.785 55.1436 244.042 55.416 245.162 55.9609C246.282 56.4958 247.16 57.2526 247.795 58.2314C248.431 59.2103 248.749 60.3203 248.749 61.5615C248.749 62.7926 248.431 63.8926 247.795 64.8613C247.16 65.82 246.282 66.5718 245.162 67.1167C244.042 67.6515 242.785 67.9189 241.393 67.9189C239.99 67.9189 238.729 67.6515 237.608 67.1167C236.488 66.5718 235.605 65.82 234.959 64.8613C234.324 63.8926 234.006 62.7926 234.006 61.5615ZM237.306 61.5615C237.306 62.278 237.477 62.9087 237.82 63.4536C238.163 63.9985 238.643 64.4224 239.258 64.7251C239.884 65.0177 240.595 65.1641 241.393 65.1641C242.17 65.1641 242.866 65.0177 243.481 64.7251C244.097 64.4224 244.576 63.9985 244.919 63.4536C245.273 62.9087 245.449 62.278 245.449 61.5615C245.449 60.8451 245.273 60.2144 244.919 59.6694C244.576 59.1144 244.097 58.6906 243.481 58.3979C242.866 58.1053 242.17 57.959 241.393 57.959C240.595 57.959 239.884 58.1053 239.258 58.3979C238.643 58.6906 238.163 59.1144 237.82 59.6694C237.477 60.2144 237.306 60.8451 237.306 61.5615ZM238.214 69.8867H241.544V72.7021H252.957V69.8867H256.317V80.9668H238.214V69.8867ZM252.957 78.2422V75.3359H241.544V78.2422H252.957ZM271.892 63.8018H263.264V67.1621C265.564 67.1621 267.421 67.1167 268.834 67.0259C270.257 66.9351 271.67 66.7585 273.072 66.4961L273.405 69.2207C271.861 69.4831 270.287 69.6546 268.683 69.7354C267.088 69.8161 264.838 69.8564 261.932 69.8564H259.934V61.2891H268.531V58.2314H259.873V55.5674H271.892V63.8018ZM263.021 72.0967H281.73V81.2998H278.37V74.791H263.021V72.0967ZM273.526 63.5898H278.37V60.5322H273.526V57.8379H278.37V53.9629H281.73V70.7949H278.37V66.2842H273.526V63.5898ZM305.539 64.8311H309.747V67.6162H305.539V81.2998H302.209V53.9326H305.539V64.8311ZM283.954 58.1406H290.433V54.3262H293.793V58.1406H300.09V60.835H283.954V58.1406ZM285.226 69.0693C285.215 67.8281 285.508 66.7181 286.104 65.7393C286.699 64.7503 287.521 63.9834 288.571 63.4385C289.62 62.8936 290.806 62.6211 292.128 62.6211C293.43 62.6211 294.6 62.8936 295.64 63.4385C296.679 63.9834 297.496 64.7503 298.092 65.7393C298.697 66.7181 299 67.8281 299 69.0693C299 70.3105 298.697 71.4206 298.092 72.3994C297.496 73.3682 296.679 74.125 295.64 74.6699C294.6 75.2148 293.43 75.4873 292.128 75.4873C290.806 75.4873 289.62 75.2148 288.571 74.6699C287.521 74.125 286.699 73.3682 286.104 72.3994C285.508 71.4206 285.215 70.3105 285.226 69.0693ZM288.435 69.0693C288.435 69.7959 288.591 70.4367 288.904 70.9917C289.217 71.5366 289.651 71.9604 290.206 72.2632C290.771 72.5558 291.411 72.7021 292.128 72.7021C292.824 72.7021 293.45 72.5558 294.005 72.2632C294.56 71.9705 294.994 71.5467 295.307 70.9917C295.619 70.4367 295.781 69.7959 295.791 69.0693C295.781 68.3428 295.614 67.702 295.292 67.147C294.979 66.5819 294.545 66.1479 293.99 65.8452C293.445 65.5324 292.824 65.376 292.128 65.376C291.411 65.376 290.771 65.5324 290.206 65.8452C289.651 66.1479 289.217 66.5819 288.904 67.147C288.591 67.702 288.435 68.3428 288.435 69.0693ZM323.444 58.4131H328.954V53.9629H332.314V73.8828H328.954V66.9805H323.444V69.3418H310.578V56.2334H323.444V58.4131ZM320.114 66.708V58.8975H313.938V66.708H320.114ZM314.271 72.0361H317.692V78.0303H332.92V80.7549H314.271V72.0361ZM328.954 64.2861V61.168H323.444V64.2861H328.954Z" fill="#343337"/>
<g filter="url(#filter0_d_10452_158214)">
<path d="M51.1838 113.1C51.1838 117.388 50.0448 120.671 42.8758 126.902C31.1508 137.22 30.6818 140.905 30.6818 145.796V157.722H65.2538V147.002H45.4218V145.796C45.4218 142.513 47.4988 141.039 54.7348 133.267C61.9038 125.562 65.2538 121.408 65.2538 113.1V110.42C65.2538 100.906 57.4148 95.8145 47.9678 95.8145C38.5208 95.8145 31.3518 100.906 31.3518 110.42V115.311H44.7518V110.42C44.7518 108.276 45.8238 106.534 47.9678 106.534C50.1118 106.534 51.1838 108.276 51.1838 110.42V113.1ZM107.853 125.227C100.081 124.155 94.9893 120.47 94.9893 111.961V110.822H107.183V99.4995H95.1903V95.1445H80.7183V99.4995H68.5913V110.822H80.7853V111.961C80.7853 120.47 75.6933 124.155 67.9213 125.227V136.684C76.7653 135.411 83.5323 132.664 87.8873 127.371C92.1753 132.664 98.9423 135.411 107.853 136.684V125.227ZM103.9 122.949H113.481V143.719H128.221V96.4845H113.481V112.229H103.9V122.949ZM129.226 147.739H86.3463V139.431H71.4053V158.727H129.226V147.739ZM202.33 109.281H188.863L187.858 122.882H174.19L173.252 109.281H159.785L160.991 122.882H152.013V133.334H210.303V122.882H201.124L202.33 109.281ZM150.338 157.722H211.978V146.332H188.394V135.21H173.654V146.332H150.338V157.722ZM152.683 107.941H209.633V97.4895H152.683V107.941ZM261.166 141.776H276.241V96.4845H261.166V141.776ZM277.246 147.739H234.433V137.421H219.492V158.727H277.246V147.739ZM216.678 118.862C216.678 128.51 225.187 133.937 235.639 133.937C246.024 133.937 254.533 128.51 254.533 118.862V111.76C254.533 101.911 246.024 96.4845 235.639 96.4845C225.187 96.4845 216.678 101.911 216.678 111.76V118.862ZM231.15 110.956C231.15 108.611 233.026 106.735 235.639 106.735C238.118 106.735 240.128 108.611 240.128 110.956V119.666C240.128 122.011 238.118 123.686 235.639 123.686C233.026 123.686 231.15 122.011 231.15 119.666V110.956ZM280.338 157.722H341.978V145.93H280.338V157.722ZM340.303 125.495H297.624V121.676H339.365V111.157H282.683V136.55H340.303V125.495ZM282.683 108.343H339.633V97.4895H282.683V108.343ZM141.087 192.078H98.4084V179.683H140.417V167.489H83.4674V204.473H141.087V192.078ZM81.1224 227.722H142.762V214.992H81.1224V227.722ZM147.462 180.219H166.557L165.485 190.805H147.462V226.717L190.61 223.3V211.24L161.867 213.451V201.86H178.483L181.967 168.494H147.462V180.219ZM182.369 189.197H192.285V196.098H182.369V207.488H192.285V228.727H207.025V166.484H192.285V177.807H182.369V189.197ZM254.203 202.865C264.119 202.865 271.087 194.892 271.087 185.043C271.087 175.127 264.119 167.154 254.203 167.154H229.614C219.765 167.154 212.797 175.127 212.797 185.043C212.797 194.892 219.765 202.865 229.614 202.865H254.203ZM211.122 227.722H272.762V215.662H262.042V205.143H248.441V215.662H235.711V205.143H222.11V215.662H211.122V227.722ZM227.872 185.043C227.872 181.358 230.351 178.611 234.036 178.611H249.915C253.6 178.611 256.079 181.358 256.079 185.043C256.079 188.795 253.6 191.542 249.915 191.542H234.036C230.351 191.542 227.872 188.795 227.872 185.043ZM277.462 192.614L278.132 211.374H290.862L291.532 192.614V166.484H277.462V192.614ZM278.132 228.727H290.862V216.131H278.132V228.727Z" fill="#3F00EC"/>
</g>
<defs>
<filter id="filter0_d_10452_158214" x="-9.31836" y="55.1445" width="391.296" height="213.582" filterUnits="userSpaceOnUse" color-interpolation-filters="sRGB">
<feFlood flood-opacity="0" result="BackgroundImageFix"/>
<feColorMatrix in="SourceAlpha" type="matrix" values="0 0 0 0 0 0 0 0 0 0 0 0 0 0 0 0 0 0 127 0" result="hardAlpha"/>
<feOffset/>
<feGaussianBlur stdDeviation="20"/>
<feComposite in2="hardAlpha" operator="out"/>
<feColorMatrix type="matrix" values="0 0 0 0 0.992157 0 0 0 0 0.784314 0 0 0 0 0 0 0 0 0.5 0"/>
<feBlend mode="normal" in2="BackgroundImageFix" result="effect1_dropShadow_10452_158214"/>
<feBlend mode="normal" in="SourceGraphic" in2="effect1_dropShadow_10452_158214" result="shape"/>
</filter>
</defs>
</svg>
