<svg width="14" height="15" viewBox="0 0 14 15" fill="none" xmlns="http://www.w3.org/2000/svg">
<g clip-path="url(#clip0_10973_173564)">
<mask id="mask0_10973_173564" style="mask-type:alpha" maskUnits="userSpaceOnUse" x="0" y="0" width="14" height="15">
<rect x="0.5" y="1" width="13" height="13" rx="1.5" fill="white" stroke="#88888E"/>
</mask>
<g mask="url(#mask0_10973_173564)">
<path d="M1 7.27273C1 7.27273 2.14286 6 3.28571 6C5 6 6.30134 9.05301 6.71429 9.47107C7.12723 9.88914 7.28571 10.0496 7.85714 10.0496C8.42857 10.0496 9.18182 9 10.2727 9C11.3636 9 12.1877 9.74469 12.4545 10C12.7214 10.2553 13 10.6236 13 10.6236V13H1.5L1 7.27273Z" fill="#88888E"/>
</g>
<rect x="1" y="1.5" width="12" height="12" rx="2" stroke="#88888E" stroke-width="1.3"/>
<circle cx="9.25" cy="4.75" r="1.25" fill="#88888E"/>
</g>
<defs>
<clipPath id="clip0_10973_173564">
<rect width="14" height="14" fill="white" transform="translate(0 0.5)"/>
</clipPath>
</defs>
</svg>
