<svg width="24" height="24" viewBox="0 0 64 64" fill="none" xmlns="http://www.w3.org/2000/svg">
<path fill-rule="evenodd" clip-rule="evenodd" d="M52.5357 7.45833H48.1891V4.79167C48.1891 4.08442 47.9081 3.40615 47.408 2.90605C46.9079 2.40595 46.2297 2.125 45.5224 2.125C44.8152 2.125 44.1369 2.40595 43.6368 2.90605C43.1367 3.40615 42.8557 4.08442 42.8557 4.79167V7.45833H21.1491V4.79167C21.1491 4.08442 20.8681 3.40615 20.368 2.90605C19.8679 2.40595 19.1897 2.125 18.4824 2.125C17.7752 2.125 17.0969 2.40595 16.5968 2.90605C16.0967 3.40615 15.8157 4.08442 15.8157 4.79167V7.45833H11.4691C10.0546 7.45833 8.69803 8.02024 7.69784 9.02043C6.69765 10.0206 6.13574 11.3772 6.13574 12.7917V53.8583C6.13574 55.2728 6.69765 56.6294 7.69784 57.6296C8.69803 58.6298 10.0546 59.1917 11.4691 59.1917H52.5357C53.9502 59.1917 55.3068 58.6298 56.307 57.6296C57.3072 56.6294 57.8691 55.2728 57.8691 53.8583V12.7917C57.8691 11.3772 57.3072 10.0206 56.307 9.02043C55.3068 8.02024 53.9502 7.45833 52.5357 7.45833Z" fill="#BDBAC1"/>
<path d="M45.5387 26.5109L46.4462 26.8868L45.5387 26.511C45.455 26.7131 45.3322 26.8968 45.1775 27.0515L30.2869 41.9421C30.2869 41.9421 30.2869 41.9422 30.2868 41.9422C29.9743 42.2546 29.5505 42.4301 29.1086 42.4301C28.6667 42.4301 28.2428 42.2545 27.9303 41.9421L18.8211 32.8303L18.821 32.8302C18.6663 32.6755 18.5436 32.4918 18.4598 32.2896C18.3761 32.0875 18.333 31.8708 18.333 31.652C18.333 31.4331 18.3761 31.2165 18.4598 31.0143C18.5436 30.8122 18.6663 30.6285 18.821 30.4737C18.9758 30.319 19.1595 30.1963 19.3616 30.1125C19.5638 30.0288 19.7805 29.9857 19.9993 29.9857C20.2181 29.9857 20.4348 30.0288 20.6369 30.1125C20.8391 30.1963 21.0228 30.319 21.1775 30.4737L28.4015 37.6977L29.1085 38.4048L29.8156 37.6978L42.821 24.6951L42.821 24.6951C42.9758 24.5403 43.1595 24.4176 43.3616 24.3339C43.5638 24.2501 43.7805 24.207 43.9993 24.207C44.2181 24.207 44.4348 24.2501 44.6369 24.3339C44.8391 24.4176 45.0228 24.5403 45.1775 24.6951C45.3322 24.8498 45.455 25.0335 45.5387 25.2356L46.4626 24.853L45.5387 25.2356C45.6224 25.4378 45.6655 25.6545 45.6655 25.8733C45.6655 26.0921 45.6224 26.3088 45.5387 26.5109Z" fill="white" stroke="white" stroke-width="2"/>
</svg>
