<svg width="24" height="24" viewBox="0 0 24 24" fill="none" xmlns="http://www.w3.org/2000/svg">
<path d="M13.1098 2.68016C12.8154 2.97459 12.4161 3.14 11.9997 3.14C11.5833 3.14 11.184 2.97459 10.8895 2.68016C10.5951 2.38573 10.4297 1.98639 10.4297 1.57C10.4297 1.15361 10.5951 0.754275 10.8895 0.459842C11.184 0.16541 11.5833 0 11.9997 0C12.4161 0 12.8154 0.16541 13.1098 0.459842C13.4043 0.754275 13.5697 1.15361 13.5697 1.57C13.5697 1.98639 13.4043 2.38573 13.1098 2.68016Z" fill="#BDBAC1"/>
<path d="M12 4.64062C5.80952 4.64062 2 10.6848 2 18.1406H22C22 10.6848 18.1905 4.64062 12 4.64062Z" fill="#BDBAC1"/>
<path d="M2.27895 21.3803C2.10034 21.2136 2 20.9875 2 20.7517V19.6406H22V20.7517C22 20.9875 21.8997 21.2136 21.7211 21.3803C21.5424 21.547 21.3002 21.6406 21.0476 21.6406H2.95238C2.69979 21.6406 2.45755 21.547 2.27895 21.3803Z" fill="#BDBAC1"/>
</svg>
