<svg width="24" height="24" viewBox="0 0 24 24" fill="none" xmlns="http://www.w3.org/2000/svg">
<path fill-rule="evenodd" clip-rule="evenodd" d="M4.65625 8.99888C4.65625 4.8962 7.98213 1.57031 12.0848 1.57031C16.1875 1.57031 19.5134 4.8962 19.5134 8.99888V9.38843C21.7331 9.84757 23.4141 11.7926 23.4141 14.1429C23.4141 16.5533 21.6459 18.5376 19.3417 18.9296C18.4951 19.7759 17.8442 20.4227 17.3106 20.9043C16.7325 21.426 16.2285 21.8137 15.6892 22.0643C15.1247 22.3265 14.592 22.4065 14.0142 22.4289C13.6946 22.4413 13.3069 22.4358 12.8732 22.4298L12.8728 22.4298C12.5985 22.426 12.3057 22.4219 12 22.4219C11.4477 22.4219 11 21.9742 11 21.4219C11 20.8696 11.4477 20.4219 12 20.4219C12.3919 20.4219 12.7126 20.4268 12.9889 20.431L12.9891 20.431C13.365 20.4367 13.6585 20.4411 13.9367 20.4304C14.3633 20.4138 14.6075 20.3615 14.8465 20.2505C15.1108 20.1277 15.4372 19.901 15.9706 19.4195C16.3764 19.0533 16.8653 18.5744 17.5055 17.9366L17.5055 10.2857V9.28572H17.5134V8.99888C17.5134 6.00077 15.0829 3.57031 12.0848 3.57031C9.0867 3.57031 6.65625 6.00077 6.65625 8.99888V12.8648H6.62341V17.9955V18.9955H5.62341C2.92501 18.9955 0.714844 16.8334 0.714844 14.1384C0.714844 11.7738 2.41636 9.81935 4.65625 9.37572V8.99888ZM19.5134 12.8648H19.5055V16.8271C20.6245 16.425 21.4141 15.3678 21.4141 14.1429C21.4141 12.9208 20.6282 11.8657 19.5134 11.4615V12.8648ZM2.71484 14.1384C2.71484 12.9135 3.50439 11.8562 4.62341 11.4542V16.8226C3.50439 16.4205 2.71484 15.3633 2.71484 14.1384Z" fill="#343337"/>
</svg>
