<svg width="118" height="80" viewBox="0 0 118 80" fill="none" xmlns="http://www.w3.org/2000/svg">
<g clip-path="url(#clip0_15382_130208)">
<rect width="118" height="80" fill="white"/>
<path d="M5.73762 52.9712C9.65421 38.4743 24.7457 35.9028 44.4435 24.3091C55.4482 17.8319 65.6557 6.00027 80.3596 6C112.883 5.99941 117.907 43.8716 102.988 66.0157C88.9934 86.7864 61.8557 93.0362 40.1741 88.3777C8.92603 81.6637 2.54888 64.7739 5.73762 52.9712Z" fill="#E3DDFF"/>
<circle cx="29.5722" cy="19.0097" r="6.26364" fill="#E3DDFF"/>
<circle cx="19.9364" cy="27.6825" r="2.40909" fill="#E3DDFF"/>
<g clip-path="url(#clip1_15382_130208)">
<rect x="26.3906" y="19.6953" width="2.90855" height="33.7392" rx="1.45428" transform="rotate(-9.30387 26.3906 19.6953)" fill="#8866EC"/>
<path d="M29.3024 21.2795C29.4609 21.2535 29.5689 21.1038 29.5378 20.9462C29.0955 18.7024 27.8157 16.7063 25.9526 15.3677C24.0105 13.9724 21.5937 13.4057 19.2338 13.7923C16.874 14.1789 14.7643 15.4871 13.369 17.4292C12.0304 19.2924 11.4544 21.5925 11.7512 23.8601C11.7721 24.0194 11.9221 24.1268 12.0807 24.1009L20.6915 22.6902L29.3024 21.2795Z" fill="#8866EC"/>
<ellipse cx="19.3198" cy="22.9177" rx="7.49758" ry="0.872566" transform="rotate(-8.86446 19.3198 22.9177)" fill="#7252D0"/>
<circle cx="33.045" cy="51.322" r="0.290855" transform="rotate(-9.30387 33.045 51.322)" fill="white"/>
</g>
<path d="M43.1778 76.8956L46.8031 70.9457L53.5388 79.4164L49.5652 92.3855C49.1951 93.2827 45.2567 97.9218 44.6517 98.0123C44.0415 98.1039 37.7971 95.8399 34.3783 94.0944C34.0123 93.9074 33.2928 93.4213 33.5218 92.7617C33.9261 91.5936 37.8744 91.8169 38.6735 90.2745C39.6259 88.4339 40.5908 81.9004 43.1772 76.898" fill="#FFF9E5"/>
<path d="M73.9921 82.6187L72.7282 75.7668L63.4137 81.2769L62.4985 94.8102C62.5242 95.7803 64.5482 101.519 65.0811 101.82C65.6185 102.123 72.2597 102.236 76.0762 101.825C76.4849 101.781 77.3305 101.583 77.3518 100.886C77.3909 99.6502 73.6228 98.45 73.4266 96.7241C73.1936 94.6648 74.6232 88.217 73.9918 82.621" fill="white"/>
<path d="M87.6938 51.8601C95.9166 52.4172 102.157 48.762 103.472 48.2412C103.683 48.1589 104.012 48.0593 104.181 48.3625C104.349 48.6616 104.233 48.9558 103.179 49.3546C103.787 49.1152 104.412 48.8334 104.557 49.4094C104.655 49.7938 103.959 50.08 103.463 50.2514C104.153 50.056 104.654 49.9175 104.801 50.356C104.893 50.632 104.809 50.9407 103.732 51.2522C104.195 51.1836 104.833 50.8618 105.028 51.3172C105.238 51.8083 104.445 52.1406 104.129 52.2193C104.651 52.0659 105.085 51.9348 105.239 52.2686C105.386 52.5846 105.065 52.8841 104.853 53.0411C104.321 53.44 97.889 58.1762 86.0348 57.5791C82.4758 57.4004 80.4807 56.0733 80.9378 53.9324C81.1816 52.7894 82.3715 51.8694 84.1802 51.7869C85.1118 51.7454 86.2633 51.7608 87.6926 51.858L87.6938 51.8601Z" fill="white"/>
<path d="M43.3613 47.148C35.5827 44.4244 31.2838 38.6084 30.2798 37.612C30.1188 37.4536 29.8557 37.2326 29.5803 37.4446C29.3086 37.6536 29.2997 37.9698 30.1111 38.751C29.6465 38.2916 29.1827 37.7866 28.8225 38.259C28.5812 38.5739 29.1087 39.111 29.4973 39.4637C28.9399 39.0126 28.5341 38.6882 28.2261 39.0334C28.0331 39.251 27.9885 39.5676 28.8566 40.2781C28.4575 40.0327 27.9975 39.4856 27.6389 39.8276C27.2531 40.1966 27.8516 40.8143 28.1111 41.011C27.6912 40.6644 27.3439 40.3731 27.0708 40.6193C26.8114 40.852 26.9882 41.2535 27.1215 41.4813C27.4538 42.0575 31.5032 48.9426 42.6358 53.0585C45.978 54.2947 48.3344 53.8598 48.7566 51.7118C48.9823 50.565 48.2505 49.251 46.6201 48.4634C45.7801 48.0587 44.7154 47.6197 43.3631 47.1466L43.3613 47.148Z" fill="white"/>
<path d="M40.9597 58.1826C39.3709 60.0517 38.2988 62.4878 38.2532 65.5506C38.1586 72.0477 41.8585 75.5277 45.5345 77.3083C44.0069 82.3594 44.8763 91.6274 52.9977 94.3074C62.949 97.5887 67.9984 91.5996 69.8145 88.0462C70.356 86.9848 70.8196 85.177 70.9187 83.071C71.1902 83.1054 71.442 83.1325 71.6731 83.1594C75.4902 83.6096 86.8201 81.6914 86.1153 70.0907C86.0492 69.7056 85.9793 69.3321 85.9033 68.9698C90.3051 67.4187 95.1354 63.7387 94.7469 56.7725C94.5858 53.8706 93.8437 51.6173 92.7566 49.872C94.4327 47.75 95.4924 44.9213 95.1608 41.2972C94.3877 32.8116 87.577 29.386 82.8174 29.3154C81.5965 29.2975 80.1996 29.5067 78.7762 29.9621C75.7906 22.0981 70.4378 21.6285 67.2765 21.7364C64.8913 21.8156 61.4001 23.3117 58.9467 26.4149C57.1798 25.2265 54 23.4847 50.0113 23.6989C45.3075 23.9497 39.3136 28.2116 38.9245 35.1824C38.7962 37.4646 39.4404 39.4201 39.8484 40.9905C38.1739 42.8824 37.0627 45.3735 37.1155 48.5303C37.1945 53.1684 38.8222 56.1986 40.9614 58.1876L40.9597 58.1826Z" fill="#5A1EFF"/>
<path d="M82.1311 35.5197C82.0547 35.4789 80.3345 34.5507 80.7516 33.3991C81.3241 31.8162 83.5799 32.0014 84.8959 32.5784C86.1617 33.1347 86.9205 34.133 86.3079 35.3893C85.6952 36.6456 83.5772 36.3196 82.1311 35.5197Z" fill="#431DCE"/>
<path d="M84.9826 51.2815C84.9062 51.2406 83.1861 50.3124 83.6031 49.1609C84.1756 47.5779 86.4314 47.7631 87.7474 48.3401C89.0133 48.8964 89.7721 49.8947 89.1594 51.151C88.5467 52.4073 86.4288 52.0813 84.9826 51.2815Z" fill="#431DCE"/>
<path d="M48.5315 45.6408C48.4551 45.6 46.7349 44.6718 47.152 43.5202C47.7245 41.9373 49.9803 42.1225 51.2963 42.6995C52.5621 43.2558 53.3209 44.2541 52.7082 45.5104C52.0956 46.7667 49.9776 46.4407 48.5315 45.6408Z" fill="#431DCE"/>
<path d="M60.9533 74.3791C60.877 74.3382 59.1568 73.4101 59.5738 72.2585C60.1463 70.6756 62.4021 70.8607 63.7181 71.4378C64.984 71.9941 65.7428 72.9924 65.1301 74.2487C64.5174 75.505 62.3995 75.179 60.9533 74.3791Z" fill="#431DCE"/>
<path d="M75.2366 66.1682C75.1602 66.1273 73.44 65.1991 73.857 64.0476C74.4295 62.4647 76.6853 62.6498 78.0013 63.2269C79.2672 63.7832 80.026 64.7814 79.4133 66.0377C78.8007 67.2941 76.6827 66.9681 75.2366 66.1682Z" fill="#431DCE"/>
<path d="M51.9241 58.1799C51.8477 58.139 50.1275 57.2108 50.5445 56.0593C51.117 54.4764 53.3728 54.6615 54.6888 55.2386C55.9547 55.7949 56.7135 56.7931 56.1008 58.0495C55.4882 59.3058 53.3702 58.9798 51.9241 58.1799Z" fill="#431DCE"/>
<path d="M47.3186 29.508C47.2422 29.4671 45.522 28.539 45.9391 27.3874C46.5116 25.8045 48.7674 25.9896 50.0834 26.5667C51.3492 27.123 52.108 28.1213 51.4954 29.3776C50.8827 30.6339 48.7647 30.3079 47.3186 29.508Z" fill="#431DCE"/>
<path d="M62.1984 57.6375C61.7794 57.5166 52.2397 54.9098 52.0067 46.719C51.687 35.4588 62.2815 32.2637 69.3284 33.4123C76.1041 34.5172 81.4018 39.449 80.9406 48.6948C80.4791 57.9429 70.2504 59.9585 62.1962 57.6371L62.1984 57.6375Z" fill="white"/>
<path d="M71.2636 45.6649C71.8998 45.655 72.4075 45.1314 72.3977 44.4952C72.3879 43.8591 71.8642 43.3513 71.228 43.3611C70.5919 43.3709 70.0841 43.8946 70.094 44.5308C70.1038 45.1669 70.6274 45.6747 71.2636 45.6649Z" fill="#7A706C"/>
<path d="M63.0429 44.286C63.6791 44.2761 64.1868 43.7525 64.177 43.1163C64.1672 42.4802 63.6435 41.9724 63.0073 41.9822C62.3712 41.992 61.8634 42.5157 61.8732 43.1519C61.8831 43.788 62.4067 44.2958 63.0429 44.286Z" fill="#7A706C"/>
<path d="M59.7955 46.3641C60.7209 46.3498 61.4594 45.5881 61.4451 44.6628C61.4308 43.7375 60.6691 42.9989 59.7438 43.0132C58.8185 43.0275 58.0799 43.7892 58.0942 44.7145C58.1085 45.6398 58.8702 46.3784 59.7955 46.3641Z" fill="#F9AE85"/>
<path d="M70.0256 47.7792C68.4823 47.7268 66.8363 47.0428 66.0318 45.6603C65.824 45.3041 65.6482 44.8688 65.7799 44.4549C65.8639 44.1918 66.0794 43.9599 66.3594 43.908C66.6395 43.8561 66.9217 43.9398 67.1131 44.1535C67.4741 44.5645 67.4595 45.1574 67.0511 45.5351C66.7155 45.845 66.2483 45.9617 65.8117 46.0541C64.7227 46.2852 63.5989 46.2739 62.5166 46.0145C62.2633 45.9541 62.0802 45.6594 62.1572 45.4059C62.2389 45.1428 62.4935 44.9817 62.7659 45.0466C62.9546 45.0913 63.1432 45.1288 63.3341 45.1592C63.3795 45.1656 63.4248 45.1721 63.4725 45.1785C63.4963 45.1805 63.5178 45.1849 63.5417 45.1869C63.5322 45.1871 63.4654 45.1786 63.5226 45.1849C63.6227 45.1928 63.7228 45.2032 63.8229 45.2112C64.2161 45.2361 64.6111 45.2252 65.0008 45.1835C65.046 45.178 65.0935 45.1725 65.1387 45.1671C65.1624 45.1643 65.1838 45.1616 65.2076 45.1589C65.198 45.159 65.1316 45.1719 65.1886 45.1615C65.2883 45.1457 65.3856 45.1275 65.4853 45.107C65.668 45.0684 65.8506 45.0251 66.0307 44.9724C66.0899 44.9548 66.1914 44.8937 66.2509 44.8928C66.2461 44.8929 66.1682 44.9345 66.213 44.9077C66.2271 44.8979 66.2461 44.8905 66.2602 44.8831C66.2956 44.8635 66.3286 44.8392 66.364 44.8173C66.4111 44.788 66.331 44.8392 66.331 44.844C66.331 44.8392 66.3639 44.8125 66.3686 44.8077C66.3733 44.8028 66.3966 44.7715 66.4037 44.769C66.3942 44.7692 66.3549 44.8484 66.3756 44.8028C66.3779 44.798 66.3964 44.7596 66.4011 44.7572C66.3964 44.7573 66.3716 44.8505 66.3828 44.8027C66.3915 44.7502 66.3813 44.8622 66.3789 44.8623C66.3789 44.8623 66.378 44.8028 66.378 44.8004C66.3874 44.7931 66.3797 44.9146 66.386 44.8574C66.3859 44.8526 66.3711 44.8148 66.3734 44.8124C66.3663 44.8172 66.4272 44.902 66.3956 44.8596C66.3882 44.8478 66.3785 44.8313 66.3735 44.8195C66.3343 44.7463 66.4364 44.8828 66.376 44.829C66.376 44.829 66.4674 44.8847 66.4218 44.864C66.3667 44.8386 66.5246 44.8933 66.4673 44.8799C66.4147 44.8689 66.5412 44.8859 66.534 44.8861C66.5293 44.8861 66.6527 44.8604 66.5981 44.8755C66.5484 44.8906 66.6525 44.8509 66.6502 44.8533C66.6502 44.8533 66.7252 44.7784 66.6948 44.8169C66.6598 44.8579 66.7321 44.7616 66.7298 44.7664C66.7205 44.7832 66.7045 44.8239 66.7296 44.7545C66.757 44.6803 66.7387 44.7305 66.7342 44.7473C66.7211 44.8189 66.7408 44.7115 66.7359 44.6996C66.7433 44.7162 66.7373 44.7925 66.7375 44.8067C66.7311 44.8544 66.7368 44.7591 66.7272 44.7521C66.732 44.7568 66.7349 44.7925 66.7374 44.7996C66.745 44.8304 66.7527 44.8613 66.7626 44.892C66.7676 44.9063 66.7726 44.9228 66.7776 44.937C66.7977 45.001 66.7774 44.9251 66.7605 44.904C66.7994 44.9605 66.8243 45.0339 66.8586 45.0953C66.8954 45.1614 66.9368 45.2274 66.9783 45.2934C67.0173 45.3523 67.061 45.4088 67.1024 45.4653C67.134 45.51 67.0805 45.437 67.0781 45.4347C67.0902 45.444 67.1023 45.4629 67.112 45.4746C67.1387 45.5052 67.1654 45.5381 67.1921 45.5686C67.2914 45.679 67.3977 45.7821 67.5087 45.8779C67.5352 45.9013 67.5618 45.9247 67.5907 45.9457C67.6099 45.9597 67.6292 45.9737 67.6461 45.9901C67.6895 46.0251 67.6172 45.9691 67.6148 45.9668C67.6819 45.9967 67.7448 46.06 67.8049 46.0995C67.9299 46.1809 68.0597 46.2575 68.194 46.3244C68.2684 46.3637 68.3451 46.3983 68.4242 46.4327C68.4434 46.442 68.5608 46.4901 68.4985 46.4649C68.4362 46.4397 68.5535 46.4855 68.5751 46.4923C68.7355 46.5517 68.8981 46.6016 69.063 46.6419C69.2351 46.6845 69.407 46.7199 69.5835 46.7434C69.6026 46.7454 69.6193 46.7476 69.6384 46.7496C69.7051 46.7581 69.643 46.7448 69.6145 46.7476C69.6526 46.7447 69.7027 46.7558 69.7409 46.76C69.8315 46.7681 69.922 46.7715 70.0125 46.7748C70.2721 46.7827 70.5276 46.9883 70.52 47.2669C70.5121 47.5265 70.309 47.7843 70.0279 47.7744L70.0256 47.7792Z" fill="#7A706C"/>
<path d="M73.6569 48.8993C74.5822 48.885 75.3207 48.1233 75.3064 47.1979C75.2922 46.2726 74.5305 45.5341 73.6051 45.5484C72.6798 45.5626 71.9413 46.3243 71.9555 47.2497C71.9698 48.175 72.7315 48.9135 73.6569 48.8993Z" fill="#F9AE85"/>
<path d="M73.3489 26.7728C72.6691 25.8822 72.0147 24.9719 71.4262 24.0181C71.2879 23.7945 71.1546 23.5695 71.0242 23.3425C70.9544 23.221 70.8869 23.0998 70.8199 22.9763C70.7875 22.9148 70.7528 22.8528 70.7205 22.7913C70.706 22.7645 70.6026 22.5618 70.6775 22.7085C70.4247 22.2101 70.1951 21.7038 69.9923 21.183C69.7933 20.6678 69.6227 20.1432 69.4831 19.6073C69.4661 19.5413 69.4495 19.473 69.4325 19.407C69.4333 19.4023 69.3936 19.2354 69.4155 19.341C69.4427 19.4572 69.3961 19.2479 69.391 19.2228C69.3768 19.1549 69.3649 19.0874 69.3506 19.0195C69.2966 18.7314 69.2547 18.4432 69.223 18.1519C69.1948 17.8952 69.1759 17.6401 69.1648 17.3817C69.16 17.2623 69.1574 17.1433 69.1577 17.0223C69.1579 16.9546 69.1585 16.8846 69.1588 16.8169C69.1575 16.8239 69.1678 16.5282 69.162 16.653C69.1554 16.7824 69.168 16.567 69.1703 16.5408C69.1756 16.4716 69.1806 16.4047 69.1882 16.336C69.2002 16.2172 69.2121 16.0984 69.2292 15.9781C69.2658 15.6969 69.3142 15.4178 69.3809 15.1445C69.4109 15.0193 69.4499 14.8982 69.4772 14.7749C69.5068 14.6521 69.4651 14.8017 69.4597 14.8177C69.4806 14.7562 69.5011 14.697 69.5238 14.6383C69.6184 14.3845 69.7285 14.1384 69.8608 13.9036C69.8925 13.8489 69.9242 13.7942 69.9555 13.7419C70.0186 13.6348 69.9442 13.764 69.9323 13.7763C70.0086 13.6765 70.0801 13.5758 70.1629 13.4796C70.2453 13.3857 70.3301 13.2923 70.4225 13.2099C70.3876 13.2423 70.276 13.3236 70.4351 13.2074C70.4964 13.1629 70.5558 13.1156 70.619 13.0739C70.7072 13.015 70.7964 12.9635 70.886 12.9096C70.6965 13.0203 70.9825 12.8715 71.0478 12.8447C71.16 12.7998 71.2709 12.762 71.3861 12.7273C71.4447 12.7113 71.5009 12.6949 71.5594 12.679C71.7527 12.6271 71.4736 12.6851 71.5995 12.6717C71.8268 12.6454 72.0521 12.6041 72.282 12.5903C72.4042 12.5835 72.5283 12.5795 72.652 12.5778C72.715 12.5772 72.7753 12.5785 72.8378 12.5802C72.9513 12.5815 72.929 12.5847 72.8285 12.5785C73.3422 12.6139 73.8499 12.6822 74.3555 12.7887C74.6188 12.8439 74.8805 12.9084 75.138 12.9819C75.2023 13.0009 75.2666 13.0199 75.3309 13.0388C75.3426 13.0409 75.5004 13.0914 75.3858 13.0561C75.26 13.0162 75.461 13.0818 75.4882 13.0916C75.5681 13.1183 75.6475 13.1472 75.7241 13.1781C76.2246 13.366 76.7131 13.5928 77.178 13.8564C77.2944 13.9212 77.4073 13.9925 77.5229 14.0619C77.5512 14.0792 77.6938 14.1729 77.5427 14.0728C77.5988 14.1096 77.6523 14.1484 77.7085 14.1852C77.9273 14.3388 78.1397 14.5008 78.3434 14.671C78.6585 14.9339 78.9496 15.2216 79.2344 15.5178C79.3543 15.6436 79.4713 15.7714 79.5907 15.8996C79.6901 16.0047 79.4588 15.7473 79.5546 15.8591C79.5865 15.8964 79.6212 15.9317 79.6531 15.969C79.7274 16.0526 79.8012 16.1387 79.8728 16.2243C80.3842 16.8302 80.8103 17.4666 81.2226 18.1392C81.2975 18.2593 81.1357 17.9517 81.1902 18.0777C81.2072 18.1171 81.2289 18.1573 81.2483 18.1971C81.2851 18.274 81.3192 18.3528 81.3504 18.4335C81.3768 18.5012 81.4013 18.5661 81.4249 18.6357C81.4422 18.6873 81.5139 18.9713 81.4736 18.7801C81.4324 18.5814 81.4813 18.8444 81.4862 18.884C81.4924 18.9432 81.4911 19.0034 81.4972 19.0626C81.5153 19.2159 81.4936 18.9361 81.5032 18.9234C81.4909 18.938 81.5055 19.0036 81.4909 19.0179C81.4913 19.0155 81.4685 19.1009 81.4719 19.1088C81.464 19.0856 81.5807 18.8165 81.5085 18.9872C81.4968 19.0117 81.4717 19.0434 81.4693 19.0696C81.4544 19.1782 81.6341 18.8819 81.5462 18.953C81.5209 18.9725 81.4438 19.0504 81.4368 19.0758C81.4672 18.9217 81.6326 18.93 81.5253 18.9879C81.4985 19.0023 81.4625 19.0272 81.4395 19.0473C81.3299 19.1313 81.4562 18.9559 81.5349 19.0017C81.5217 18.9945 81.3795 19.0581 81.3657 19.0677C81.2584 19.1256 81.5451 19.0786 81.4317 19.0507C81.4082 19.0464 81.3533 19.0558 81.3286 19.0585C81.1287 19.0802 81.4044 19.0409 81.4076 19.0632C81.4076 19.0632 81.2858 19.0411 81.2694 19.0381C81.057 19.0091 81.3476 19.0474 81.3371 19.0649C81.3363 19.0696 81.1909 19.0044 81.2022 19.0089C81.1575 18.9887 81.1109 18.9657 81.067 18.9407C81.034 18.9226 80.8609 18.7968 80.9836 18.8941C81.0934 18.9818 80.9882 18.895 80.9697 18.8771C80.9276 18.8428 80.8827 18.8104 80.8409 18.7738C80.7547 18.7025 80.6721 18.6245 80.5919 18.547C80.551 18.5057 80.5125 18.4648 80.4716 18.4235C80.5002 18.4529 80.607 18.5836 80.4802 18.4299C80.4048 18.3388 80.3318 18.2481 80.262 18.1531C80.1243 17.966 79.9953 17.7707 79.8798 17.5682C79.8523 17.5197 79.8253 17.4688 79.7978 17.4203C79.8165 17.4503 79.8927 17.6166 79.8108 17.442C79.7623 17.3364 79.7138 17.2308 79.6676 17.1256C79.4541 16.6368 79.2601 16.1345 79.1037 15.6246C79.0646 15.4941 79.0258 15.3613 78.9894 15.2288C78.9724 15.1628 78.9554 15.0968 78.9388 15.0285C78.9503 15.0717 78.9741 15.2067 78.9318 15.0006C78.8801 14.7396 78.8386 14.4756 78.8149 14.2076C78.8042 14.0798 78.7964 13.9502 78.796 13.8195C78.7954 13.7565 78.7952 13.6911 78.7969 13.6285C78.7958 13.6743 78.7753 13.8399 78.8011 13.6317C78.8141 13.5204 78.8295 13.4095 78.8495 13.2994C78.861 13.2362 78.8819 13.1746 78.8934 13.1114C78.91 12.9935 78.8248 13.2489 78.9066 13.0654C78.9592 12.9492 79.0091 12.8349 79.0725 12.7255C78.9709 12.8981 79.1406 12.6701 79.1766 12.6186C79.2678 12.4901 79.0414 12.7102 79.16 12.6301C79.2043 12.5995 79.2471 12.5637 79.291 12.5354C79.321 12.5167 79.4683 12.425 79.344 12.4967C79.2113 12.5741 79.4274 12.4635 79.4404 12.4586C79.5109 12.4303 79.8117 12.3592 79.559 12.4052C79.6544 12.3862 79.7489 12.372 79.8449 12.3629C79.9559 12.3516 80.0683 12.3454 80.1822 12.3444C80.2186 12.3438 80.4012 12.3504 80.2526 12.3427C80.0896 12.3348 80.3616 12.3553 80.3667 12.3538C80.8274 12.4014 81.2706 12.5183 81.7128 12.6544C81.4997 12.589 81.733 12.663 81.8147 12.6924C81.9237 12.7315 82.0346 12.7735 82.1432 12.815C82.3735 12.9053 82.5998 13.0046 82.8248 13.1109C83.2325 13.3036 83.6261 13.5204 84.0084 13.7593C84.0367 13.7766 84.1929 13.8752 84.0759 13.8006C83.9588 13.7261 84.1146 13.827 84.1429 13.8443C84.227 13.9007 84.3107 13.9595 84.3943 14.0183C84.5957 14.1614 84.793 14.3134 84.9852 14.4669C85.3479 14.7604 85.697 15.0755 86.0263 15.4064C86.108 15.489 86.1917 15.5744 86.2706 15.6589C86.3192 15.7113 86.4948 15.9029 86.3562 15.7471C86.5228 15.9347 86.6844 16.1237 86.84 16.319C87.1335 16.6869 87.4095 17.071 87.6666 17.4662C87.9161 17.8503 88.1466 18.2455 88.3581 18.6517C88.2519 18.4509 88.4041 18.7447 88.4317 18.8054C88.4826 18.9114 88.5335 19.0175 88.5815 19.1254C88.6805 19.3394 88.7716 19.5568 88.8599 19.7761C89.0342 20.2142 89.1857 20.6579 89.3163 21.1099C89.4727 21.6464 90.1751 21.9605 90.6855 21.7486C91.2482 21.5147 91.4929 20.9545 91.3242 20.3794C90.1196 16.2579 87.094 12.4508 83.0292 10.8715C81.9693 10.4609 80.8063 10.1113 79.6571 10.2312C79.0676 10.2932 78.4551 10.4817 77.9778 10.8448C77.3682 11.3097 77.0029 11.9472 76.8042 12.6804C76.4648 13.9202 76.7573 15.304 77.1398 16.4986C77.4873 17.5804 77.9459 18.6896 78.6676 19.5758C79.3951 20.4703 80.4547 21.3478 81.6906 21.1638C82.8217 20.9971 83.5993 20.1008 83.6212 18.9702C83.6378 18.1216 83.2154 17.2923 82.7876 16.5854C82.2872 15.7589 81.6581 15.0154 81.0089 14.3021C80.3578 13.586 79.662 12.9295 78.8524 12.3927C77.736 11.6548 76.5247 11.132 75.2281 10.7992C72.9443 10.2142 70.0654 10.1741 68.4539 12.196C66.8739 14.1777 66.7856 17.1349 67.2891 19.5128C67.8292 22.0618 69.0294 24.373 70.5099 26.5004C70.8585 27.0042 71.2238 27.4965 71.5949 27.9826C71.9327 28.4263 72.6078 28.612 73.0819 28.2532C73.5252 27.9178 73.7138 27.2408 73.3526 26.7662L73.3489 26.7728Z" fill="#99D651"/>
<path d="M71.8886 21.7021C71.8886 21.7021 77.0731 18.847 80.5375 24.3224C82.6806 27.7109 82.416 33.8426 77.8377 38.0304C77.5477 38.294 76.8442 38.7398 76.3888 38.6258C75.4801 38.4003 75.5602 35.6061 75.5602 35.6061C75.5602 35.6061 70.0109 42.2475 65.5737 41.2044C61.4485 40.2344 61.8307 30.3865 61.8307 30.3865C61.8307 30.3865 60.1918 31.6984 59.3361 31.1679C58.0192 30.3521 57.6218 23.7135 61.9939 20.024C66.152 16.5146 70.0337 18.2779 71.8886 21.7021Z" fill="#99D651"/>
<path d="M70.3645 25.054C69.6675 26.4517 69.0334 27.8818 68.5458 29.3653C68.4161 29.7586 68.2979 30.1557 68.1864 30.5562L68.2573 30.2968C67.8649 31.733 67.6075 33.2018 67.4137 34.6792C67.3442 35.1958 66.8221 35.6323 66.2898 35.5368C65.7574 35.4412 65.3597 34.9699 65.4322 34.4128C65.6117 33.0416 65.8457 31.6754 66.1938 30.3364C66.5363 29.0208 66.9663 27.7337 67.4972 26.4818C67.8142 25.7319 68.1602 24.9978 68.5247 24.2687C68.6403 24.0345 68.8127 23.8415 69.0596 23.7378C69.2887 23.6413 69.6071 23.6313 69.8349 23.7412C70.0627 23.851 70.2739 24.0307 70.3658 24.276C70.4577 24.5213 70.4833 24.813 70.3624 25.0513L70.3645 25.054Z" fill="#80B45D"/>
<path d="M75.7408 26.2065C75.5531 26.102 75.3546 26.0249 75.1487 25.966L75.4082 26.0369C75.0516 25.9385 74.6843 25.9012 74.315 25.8972L74.584 25.8973C74.07 25.8979 73.5606 25.9711 73.0635 26.0964C72.8297 26.1562 72.4974 26.0371 72.3148 25.8949C72.1322 25.7527 71.9617 25.4848 71.9391 25.2416C71.9164 24.9816 71.9666 24.6978 72.1406 24.493L72.3233 24.3134C72.4624 24.2072 72.6201 24.142 72.7939 24.1173C73.4429 23.9524 74.1039 23.8947 74.7726 23.9222C75.045 23.9323 75.3166 23.9665 75.5794 24.0306C75.9069 24.113 76.2285 24.2043 76.5261 24.3668C76.7608 24.4968 76.9498 24.6447 77.057 24.9016C77.1535 25.1307 77.1635 25.4491 77.0536 25.6769C76.9434 25.907 76.7641 26.1159 76.5188 26.2078C76.2812 26.2959 75.9738 26.3315 75.7435 26.2045L75.7408 26.2065Z" fill="#80B45D"/>
<path d="M74.7865 29.6576L74.7751 29.6177L74.8425 29.8669C74.6728 29.2533 74.4202 28.667 74.1032 28.1128L74.2319 28.3343C73.8402 27.6572 73.3594 27.0354 72.8098 26.4788L72.9894 26.6615C72.7463 26.4151 72.4896 26.1812 72.2158 25.9667C72.0183 25.8105 71.8738 25.5629 71.8401 25.3134C71.8064 25.0639 71.8789 24.7567 72.0416 24.5648C72.392 24.1556 73.0047 24.0458 73.4435 24.3906C74.6098 25.3086 75.5708 26.5209 76.2174 27.8567C76.4561 28.3498 76.6206 28.8595 76.7633 29.3878C76.8258 29.6195 76.701 29.9582 76.5618 30.1364C76.4139 30.3255 76.1517 30.4896 75.9085 30.5121C75.6485 30.5348 75.3646 30.4846 75.1599 30.3106L74.9803 30.128C74.8741 29.9888 74.8088 29.8312 74.7842 29.6573L74.7865 29.6576Z" fill="#80B45D"/>
<path d="M68.5268 25.0507C68.4597 24.8351 68.3698 24.6285 68.2591 24.4335L68.3878 24.655C68.2123 24.3528 67.9943 24.0809 67.7492 23.8318L67.9288 24.0145C67.5415 23.6262 67.0951 23.302 66.6236 23.0225L66.8461 23.1533C66.6056 23.0129 66.3588 22.8837 66.1078 22.7683C65.8746 22.6625 65.6768 22.4726 65.5769 22.2334C65.4769 21.9942 65.4703 21.6859 65.5802 21.4581C65.8102 20.9799 66.3811 20.6988 66.8903 20.9306C67.9946 21.4344 69.0991 22.1689 69.8045 23.1739C70.0423 23.5132 70.2494 23.8845 70.3712 24.2827C70.4511 24.5456 70.4798 24.7968 70.3678 25.058C70.2734 25.2782 70.0628 25.5045 69.833 25.5889C69.588 25.6784 69.3014 25.7024 69.0577 25.5856C68.8367 25.479 68.6019 25.2961 68.5268 25.0507Z" fill="#80B45D"/>
<path d="M68.4966 24.7115C68.3771 24.7075 68.2575 24.7034 68.1397 24.7044L68.4087 24.7045C67.5773 24.7081 66.7454 24.822 65.943 25.0384L66.1922 24.971C65.5937 25.1355 65.0095 25.3548 64.4684 25.6639L64.6899 25.5352C64.6168 25.5782 64.5435 25.6236 64.4701 25.6689C64.2418 25.8136 64.0065 25.902 63.7305 25.8649C63.4876 25.8323 63.212 25.6848 63.0689 25.4806C62.9258 25.2765 62.8256 25.0036 62.8729 24.741C62.9183 24.4925 63.0366 24.2202 63.2573 24.0794C64.5022 23.2861 65.9779 22.8672 67.4463 22.7524C67.8832 22.7174 68.3255 22.7145 68.765 22.7327C69.0061 22.7435 69.2837 22.9297 69.4266 23.117C69.5695 23.3043 69.6677 23.6105 69.6226 23.8566C69.5762 24.1122 69.4558 24.365 69.2382 24.5182C69.0103 24.6773 68.7781 24.7254 68.4986 24.7142L68.4966 24.7115Z" fill="#80B45D"/>
</g>
<defs>
<clipPath id="clip0_15382_130208">
<rect width="118" height="80" fill="white"/>
</clipPath>
<clipPath id="clip1_15382_130208">
<rect width="20.3599" height="43.0466" fill="white" transform="translate(9 14.293) rotate(-9.30387)"/>
</clipPath>
</defs>
</svg>
