<svg width="24" height="24" viewBox="0 0 24 24" fill="none" xmlns="http://www.w3.org/2000/svg">
<path d="M19.5063 5.33238L21.4663 18.0264C21.5324 18.454 21.5062 18.8909 21.3875 19.307C21.2689 19.7231 21.0616 20.1086 20.7799 20.4371C20.4983 20.7656 20.1489 21.0293 19.7558 21.2101C19.3626 21.3908 18.935 21.4844 18.5023 21.4844H5.50033C5.06758 21.4846 4.6399 21.3911 4.24668 21.2104C3.85346 21.0297 3.504 20.766 3.22231 20.4375C2.94062 20.1089 2.73337 19.7233 2.61479 19.3072C2.4962 18.891 2.4691 18.454 2.53533 18.0264L4.49533 5.33238C4.53163 5.09634 4.6512 4.88109 4.83242 4.72555C5.01363 4.57002 5.24452 4.48447 5.48333 4.48438H18.5183C18.7571 4.48447 18.988 4.57002 19.1693 4.72555C19.3505 4.88109 19.47 5.09634 19.5063 5.33238Z" fill="#BDBAC1"/>
<rect x="8.5" y="11" width="1.5" height="7.5" rx="0.75" transform="rotate(-90 8.5 11)" fill="white"/>
<path d="M10.5521 2.75527C10.0713 3.23613 9.80079 3.88809 9.8 4.56812H8C8.00132 3.41086 8.46163 2.30138 9.27994 1.48307C10.0983 0.664756 11.2077 0.204448 12.365 0.203125C13.5224 0.204184 14.6322 0.664374 15.4507 1.48271C16.2692 2.30105 16.7297 3.41069 16.731 4.56812H14.931C14.9299 3.888 14.6592 3.23604 14.1782 2.75521C13.6972 2.27438 13.0451 2.00392 12.365 2.00313C11.685 2.00392 11.033 2.27441 10.5521 2.75527Z" fill="#BDBAC1"/>
</svg>
