<svg width="24" height="24" viewBox="0 0 24 24" fill="none" xmlns="http://www.w3.org/2000/svg">
<path fill-rule="evenodd" clip-rule="evenodd" d="M16.9894 8.318L10.9634 14.3289L7.01104 10.3864C6.84223 10.2027 6.75104 9.96105 6.75647 9.7119C6.76191 9.46275 6.86356 9.22531 7.04022 9.04909C7.21687 8.87287 7.45491 8.77148 7.70469 8.76606C7.95446 8.76064 8.19669 8.8516 8.38087 9.01999L10.9634 11.5961L15.6196 6.95159C15.7095 6.86188 15.8163 6.79071 15.9338 6.74215C16.0513 6.69359 16.1773 6.6686 16.3045 6.6686C16.4317 6.6686 16.5576 6.69359 16.6752 6.74215C16.7927 6.79071 16.8995 6.86188 16.9894 6.95159C17.0794 7.04131 17.1507 7.14783 17.1994 7.26505C17.2481 7.38227 17.2731 7.50792 17.2731 7.6348C17.2731 7.76168 17.2481 7.88732 17.1994 8.00454C17.1507 8.12177 17.0794 8.22828 16.9894 8.318ZM21.8425 10.3542C21.9433 10.2535 22 10.1171 22 9.97475C22 9.83244 21.9433 9.69596 21.8425 9.59532L20.2822 8.03892C20.2153 7.97238 20.1672 7.88938 20.1428 7.79834C20.1184 7.70729 20.1186 7.61143 20.1434 7.52048L20.7137 5.3952C20.7505 5.2577 20.731 5.11126 20.6596 4.98807C20.5881 4.86488 20.4706 4.77504 20.3327 4.7383L18.2021 4.16941C18.1106 4.14496 18.0272 4.09686 17.9603 4.02995C17.8934 3.96304 17.8455 3.8797 17.8212 3.78836L17.2509 1.66308C17.2138 1.52551 17.1235 1.40824 16.9999 1.337C16.8762 1.26576 16.7292 1.24637 16.5913 1.2831L14.4596 1.85307C14.3685 1.8774 14.2725 1.87731 14.1814 1.85281C14.0904 1.82831 14.0074 1.78026 13.9409 1.71353L12.3806 0.157135C12.2797 0.0565215 12.1429 0 12.0002 0C11.8576 0 11.7207 0.0565215 11.6198 0.157135L10.0595 1.7146C9.99275 1.78124 9.90959 1.82921 9.81837 1.8537C9.72716 1.87819 9.63109 1.87834 9.5398 1.85414L7.40918 1.2831C7.34086 1.26477 7.26958 1.26006 7.19943 1.26924C7.12927 1.27842 7.06163 1.30132 7.00035 1.33661C6.93908 1.37191 6.88539 1.41891 6.84236 1.47493C6.79932 1.53095 6.76779 1.59489 6.74955 1.66308L6.17816 3.78836C6.15384 3.87938 6.10594 3.9624 6.03926 4.0291C5.97259 4.0958 5.88949 4.14382 5.79831 4.16833L3.66662 4.7383C3.52899 4.77527 3.41169 4.86521 3.34047 4.98837C3.26925 5.11153 3.24994 5.25785 3.28677 5.3952L3.85709 7.52048C3.88182 7.61143 3.882 7.70729 3.85762 7.79834C3.83325 7.88938 3.78517 7.97238 3.71827 8.03892L2.15798 9.59532C2.1079 9.64508 2.06817 9.70421 2.04106 9.76932C2.01395 9.83444 2 9.90425 2 9.97475C2 10.0453 2.01395 10.1151 2.04106 10.1802C2.06817 10.2453 2.1079 10.3044 2.15798 10.3542L3.71827 11.9106C3.78517 11.9774 3.83323 12.0605 3.8576 12.1518C3.88197 12.243 3.88179 12.339 3.85709 12.4301L3.28677 14.5554C3.24994 14.6927 3.26925 14.839 3.34047 14.9622C3.41169 15.0854 3.52899 15.1753 3.66662 15.2123L5.79831 15.7822C5.88949 15.8068 5.97259 15.8548 6.03926 15.9215C6.10594 15.9882 6.15384 16.0712 6.17816 16.1622L6.74848 18.2875C6.76735 18.3564 6.79982 18.4208 6.84398 18.4771C6.88814 18.5333 6.94311 18.5801 7.00566 18.6149L5.0031 24H10.5804L11.9997 20.1809L13.4212 24H18.9974L16.9948 18.6149C17.0573 18.5803 17.1122 18.5334 17.1562 18.4772C17.2002 18.4209 17.2324 18.3564 17.2509 18.2875L17.8212 16.1622C17.8455 16.071 17.8936 15.9879 17.9604 15.9211C18.0273 15.8544 18.1107 15.8065 18.2021 15.7822L20.3327 15.2134C20.4011 15.1952 20.4652 15.1637 20.5214 15.1208C20.5775 15.0779 20.6247 15.0243 20.66 14.9632C20.6954 14.9021 20.7184 14.8346 20.7276 14.7646C20.7368 14.6946 20.7321 14.6235 20.7137 14.5554L20.1434 12.4301C20.1186 12.3391 20.1184 12.2433 20.1428 12.1522C20.1672 12.0612 20.2153 11.9782 20.2822 11.9117L21.8425 10.3553V10.3542Z" fill="#BDBAC1"/>
</svg>
