<svg width="18" height="18" viewBox="0 0 18 18" fill="none" xmlns="http://www.w3.org/2000/svg">
<path d="M10.0239 7.85106V7.97606H10.1489H16.8511C17.1226 7.97606 17.3831 8.08394 17.5751 8.27597C17.7671 8.46799 17.875 8.72843 17.875 9C17.875 9.27157 17.7671 9.53201 17.5751 9.72403C17.3831 9.91606 17.1226 10.0239 16.8511 10.0239H10.1489H10.0239V10.1489V16.8511C10.0239 17.1226 9.91606 17.3831 9.72403 17.5751C9.53201 17.7671 9.27157 17.875 9 17.875C8.72843 17.875 8.46799 17.7671 8.27597 17.5751C8.08394 17.3831 7.97606 17.1226 7.97606 16.8511V10.1489V10.0239H7.85106H1.14894C0.877372 10.0239 0.616929 9.91606 0.424904 9.72403C0.232879 9.53201 0.125 9.27157 0.125 9C0.125 8.72843 0.232879 8.46799 0.424904 8.27597C0.616929 8.08394 0.877371 7.97606 1.14894 7.97606H7.85106H7.97606V7.85106V1.14894C7.97606 0.877371 8.08394 0.616929 8.27597 0.424904C8.46799 0.232879 8.72843 0.125 9 0.125C9.27157 0.125 9.53201 0.232879 9.72403 0.424904C9.91606 0.616929 10.0239 0.877372 10.0239 1.14894V7.85106Z" fill="#1D1C21" stroke="#FDC800" stroke-width="0.25"/>
</svg>
