<svg width="40" height="40" viewBox="0 0 40 40" fill="none" xmlns="http://www.w3.org/2000/svg">
<path d="M8.33333 18.3333H15C16.8333 18.3333 18.3333 16.8333 18.3333 15V8.33333C18.3333 6.5 16.8333 5 15 5H8.33333C6.5 5 5 6.5 5 8.33333V15C5 16.8333 6.5 18.3333 8.33333 18.3333ZM8.33333 8.33333H15V15H8.33333V8.33333ZM8.33333 35H15C16.8333 35 18.3333 33.5 18.3333 31.6667V25C18.3333 23.1667 16.8333 21.6667 15 21.6667H8.33333C6.5 21.6667 5 23.1667 5 25V31.6667C5 33.5 6.5 35 8.33333 35ZM8.33333 25H15V31.6667H8.33333V25ZM21.6667 8.33333V15C21.6667 16.8333 23.1667 18.3333 25 18.3333H31.6667C33.5 18.3333 35 16.8333 35 15V8.33333C35 6.5 33.5 5 31.6667 5H25C23.1667 5 21.6667 6.5 21.6667 8.33333ZM31.6667 15H25V8.33333H31.6667V15ZM35 34.1667V32.5C35 32.0333 34.6333 31.6667 34.1667 31.6667H32.5C32.0333 31.6667 31.6667 32.0333 31.6667 32.5V34.1667C31.6667 34.6333 32.0333 35 32.5 35H34.1667C34.6333 35 35 34.6333 35 34.1667ZM21.6667 22.5V24.1667C21.6667 24.6333 22.0333 25 22.5 25H24.1667C24.6333 25 25 24.6333 25 24.1667V22.5C25 22.0333 24.6333 21.6667 24.1667 21.6667H22.5C22.0333 21.6667 21.6667 22.0333 21.6667 22.5ZM27.5 25H25.8333C25.3667 25 25 25.3667 25 25.8333V27.5C25 27.9667 25.3667 28.3333 25.8333 28.3333H27.5C27.9667 28.3333 28.3333 27.9667 28.3333 27.5V25.8333C28.3333 25.3667 27.9667 25 27.5 25ZM21.6667 29.1667V30.8333C21.6667 31.3 22.0333 31.6667 22.5 31.6667H24.1667C24.6333 31.6667 25 31.3 25 30.8333V29.1667C25 28.7 24.6333 28.3333 24.1667 28.3333H22.5C22.0333 28.3333 21.6667 28.7 21.6667 29.1667ZM25.8333 35H27.5C27.9667 35 28.3333 34.6333 28.3333 34.1667V32.5C28.3333 32.0333 27.9667 31.6667 27.5 31.6667H25.8333C25.3667 31.6667 25 32.0333 25 32.5V34.1667C25 34.6333 25.3667 35 25.8333 35ZM29.1667 31.6667H30.8333C31.3 31.6667 31.6667 31.3 31.6667 30.8333V29.1667C31.6667 28.7 31.3 28.3333 30.8333 28.3333H29.1667C28.7 28.3333 28.3333 28.7 28.3333 29.1667V30.8333C28.3333 31.3 28.7 31.6667 29.1667 31.6667ZM30.8333 21.6667H29.1667C28.7 21.6667 28.3333 22.0333 28.3333 22.5V24.1667C28.3333 24.6333 28.7 25 29.1667 25H30.8333C31.3 25 31.6667 24.6333 31.6667 24.1667V22.5C31.6667 22.0333 31.3 21.6667 30.8333 21.6667ZM32.5 28.3333H34.1667C34.6333 28.3333 35 27.9667 35 27.5V25.8333C35 25.3667 34.6333 25 34.1667 25H32.5C32.0333 25 31.6667 25.3667 31.6667 25.8333V27.5C31.6667 27.9667 32.0333 28.3333 32.5 28.3333Z" fill="#343337"/>
</svg>
