<svg width="56" height="56" viewBox="0 0 56 56" fill="none" xmlns="http://www.w3.org/2000/svg">
<g clip-path="url(#clip0_15260_86671)">
<g filter="url(#filter0_d_15260_86671)">
<path d="M28.0003 51.3346C40.887 51.3346 51.3337 40.888 51.3337 28.0013C51.3337 15.1147 40.887 4.66797 28.0003 4.66797C15.1137 4.66797 4.66699 15.1147 4.66699 28.0013C4.66699 40.888 15.1137 51.3346 28.0003 51.3346Z" fill="#FDC800"/>
</g>
<path d="M38.2714 14.669C38.2716 14.3209 38.168 13.9806 37.9738 13.6917C37.7796 13.4028 37.5037 13.1784 37.1813 13.0472C36.8589 12.9159 36.5047 12.8838 36.164 12.9549C35.8232 13.026 35.5114 13.1971 35.2684 13.4463L33.5184 15.2383C31.0311 14.0954 28.2504 13.7528 25.5601 14.2577C22.8697 14.7625 20.4024 16.0901 18.4987 18.057C13.2791 23.4003 13.2791 32.0476 18.4987 37.3933C19.732 38.6665 21.2086 39.6789 22.8408 40.3703C24.473 41.0617 26.2275 41.4179 28.0001 41.4179C29.7727 41.4179 31.5272 41.0617 33.1594 40.3703C34.7916 39.6789 36.2681 38.6665 37.5014 37.3933C38.9489 35.9048 40.0432 34.1098 40.7032 32.1412C41.3631 30.1727 41.5719 28.0808 41.3141 26.0206C41.2862 25.7923 41.2136 25.5718 41.1005 25.3716C40.9874 25.1713 40.8359 24.9953 40.6548 24.8536C40.4736 24.7119 40.2664 24.6073 40.0448 24.5457C39.8232 24.4841 39.5917 24.4667 39.3634 24.4946C39.1351 24.5225 38.9146 24.5951 38.7143 24.7082C38.5141 24.8213 38.3381 24.9728 38.1964 25.1539C38.0547 25.3351 37.9501 25.5423 37.8885 25.7639C37.8269 25.9855 37.8095 26.217 37.8374 26.4453C38.2107 29.4786 37.2541 32.6356 34.9977 34.9456C34.0905 35.8852 33.0033 36.6324 31.8011 37.1427C30.5988 37.6531 29.3061 37.9161 28.0001 37.9161C26.694 37.9161 25.4013 37.6531 24.1991 37.1427C22.9968 36.6324 21.9097 35.8852 21.0024 34.9456C17.1104 30.9626 17.1104 24.4853 21.0024 20.5023C22.2505 19.2101 23.832 18.2888 25.5716 17.8403C27.3113 17.3918 29.1411 17.4337 30.8584 17.9613L29.0827 19.7813C28.843 20.0277 28.6812 20.3392 28.6174 20.677C28.5536 21.0148 28.5908 21.3639 28.7242 21.6807C28.8576 21.9976 29.0813 22.2681 29.3675 22.4585C29.6537 22.649 29.9896 22.7509 30.3334 22.7516H36.5214C36.9855 22.7516 37.4306 22.5673 37.7588 22.2391C38.087 21.9109 38.2714 21.4658 38.2714 21.0016V14.669Z" fill="white"/>
</g>
<defs>
<filter id="filter0_d_15260_86671" x="1.66699" y="1.66797" width="56.667" height="56.668" filterUnits="userSpaceOnUse" color-interpolation-filters="sRGB">
<feFlood flood-opacity="0" result="BackgroundImageFix"/>
<feColorMatrix in="SourceAlpha" type="matrix" values="0 0 0 0 0 0 0 0 0 0 0 0 0 0 0 0 0 0 127 0" result="hardAlpha"/>
<feOffset dx="2" dy="2"/>
<feGaussianBlur stdDeviation="2.5"/>
<feComposite in2="hardAlpha" operator="out"/>
<feColorMatrix type="matrix" values="0 0 0 0 0 0 0 0 0 0 0 0 0 0 0 0 0 0 0.15 0"/>
<feBlend mode="normal" in2="BackgroundImageFix" result="effect1_dropShadow_15260_86671"/>
<feBlend mode="normal" in="SourceGraphic" in2="effect1_dropShadow_15260_86671" result="shape"/>
</filter>
<clipPath id="clip0_15260_86671">
<rect width="56" height="56" fill="white"/>
</clipPath>
</defs>
</svg>
