<svg width="24" height="24" viewBox="0 0 24 24" fill="none" xmlns="http://www.w3.org/2000/svg">
<path fill-rule="evenodd" clip-rule="evenodd" d="M13.8151 12.0011L19.4661 6.35009C19.5775 6.23867 19.666 6.10637 19.7264 5.96076C19.7867 5.81515 19.8178 5.65908 19.8179 5.50145C19.8179 5.34382 19.7869 5.18773 19.7266 5.04208C19.6664 4.89643 19.578 4.76409 19.4666 4.6526C19.3551 4.5411 19.2228 4.45265 19.0772 4.39228C18.9316 4.33192 18.7755 4.30083 18.6179 4.30078C18.4603 4.30073 18.3042 4.33174 18.1585 4.39201C18.0129 4.45229 17.8805 4.54067 17.7691 4.65209L12.1181 10.3041L6.46605 4.65209C6.23841 4.43947 5.93706 4.32361 5.62561 4.32897C5.31416 4.33432 5.01698 4.46048 4.79678 4.6808C4.57658 4.90113 4.4506 5.19839 4.44543 5.50984C4.44026 5.8213 4.5563 6.12258 4.76905 6.35009L10.4211 12.0011L4.76905 17.6521C4.60201 17.8203 4.48843 18.0341 4.4426 18.2667C4.39677 18.4993 4.42073 18.7402 4.51147 18.9592C4.60221 19.1782 4.75568 19.3655 4.95258 19.4975C5.14947 19.6295 5.381 19.7003 5.61805 19.7011C5.92505 19.7011 6.23205 19.5841 6.46605 19.3501L12.1181 13.6981L17.7691 19.3501C17.8803 19.4618 18.0126 19.5504 18.1582 19.6108C18.3038 19.6713 18.4599 19.7024 18.6176 19.7024C18.7752 19.7024 18.9313 19.6713 19.0769 19.6108C19.2225 19.5504 19.3548 19.4618 19.4661 19.3501C19.5776 19.2386 19.6661 19.1063 19.7265 18.9606C19.7869 18.8149 19.818 18.6588 19.818 18.5011C19.818 18.3434 19.7869 18.1872 19.7265 18.0416C19.6661 17.8959 19.5776 17.7635 19.4661 17.6521L13.8151 12.0011Z" fill="#343337"/>
</svg>
