<svg width="24" height="24" viewBox="0 0 24 24" fill="none" xmlns="http://www.w3.org/2000/svg">
<path d="M5 16.9612V7.64987C5 7.25468 5.23273 6.89656 5.59386 6.73606L9.11433 5.17141C9.36091 5.06182 9.64132 5.05653 9.89186 5.15674L14.1081 6.84326C14.3587 6.94347 14.6391 6.93818 14.8857 6.82859L17.5939 5.62495C18.2551 5.33105 19 5.8151 19 6.53876V15.8501C19 16.2453 18.7673 16.6034 18.4061 16.7639L14.8857 18.3286C14.6391 18.4382 14.3587 18.4435 14.1081 18.3433L9.89186 16.6567C9.64132 16.5565 9.36091 16.5618 9.11433 16.6714L6.40614 17.875C5.74485 18.169 5 17.6849 5 16.9612Z" stroke="white" stroke-width="1.5"/>
<path d="M9.5 5V16.5" stroke="white" stroke-width="1.5"/>
<path d="M14.5 7V18.5" stroke="white" stroke-width="1.5"/>
</svg>
