<svg width="16" height="16" viewBox="0 0 16 16" fill="none" xmlns="http://www.w3.org/2000/svg">
<path d="M13.3208 3.62361L14.0708 3.62368V3.62361H13.3208ZM13.3208 2.42319H14.0709L14.0708 2.4179L13.3208 2.42319ZM13.2837 2.275L13.945 1.9212L13.945 1.92119L13.2837 2.275ZM13.1846 2.16844L13.5752 1.52818L13.5752 1.52818L13.1846 2.16844ZM13.0509 2.13298L13.0791 2.88245L13.0509 2.13298ZM12.9196 2.17843L13.3498 2.79285L13.3545 2.78949L12.9196 2.17843ZM10.0954 8.70031L9.34879 8.62945L9.34859 8.63169L10.0954 8.70031ZM10.118 8.93541L9.3981 9.14585L9.3981 9.14585L10.118 8.93541ZM10.2239 9.13988L10.8073 8.66857H10.8073L10.2239 9.13988ZM10.395 9.27832L10.7277 8.60615H10.7277L10.395 9.27832ZM10.6015 9.32676V8.57676L10.5988 8.57677L10.6015 9.32676ZM12.5703 14.3995C12.5703 14.8137 12.9061 15.1495 13.3203 15.1495C13.7346 15.1495 14.0703 14.8137 14.0703 14.3995H12.5703ZM13.3203 9.29683L12.5703 9.29676V9.29683H13.3203ZM14.0708 3.62361V2.42319H12.5708V3.62361H14.0708ZM14.0708 2.4179C14.0696 2.24757 14.028 2.07633 13.945 1.9212L12.6224 2.6288C12.5873 2.56326 12.5713 2.49436 12.5709 2.42848L14.0708 2.4179ZM13.945 1.92119C13.8618 1.76578 13.7371 1.62698 13.5752 1.52818L12.7939 2.8087C12.7139 2.75984 12.6576 2.69463 12.6224 2.62881L13.945 1.92119ZM13.5752 1.52818C13.4122 1.42876 13.2209 1.37603 13.0226 1.38351L13.0791 2.88245C12.974 2.88641 12.875 2.85817 12.794 2.8087L13.5752 1.52818ZM13.0226 1.38351C12.8245 1.39098 12.6387 1.4578 12.4848 1.56737L13.3545 2.78949C13.2792 2.84305 13.1841 2.87849 13.0791 2.88245L13.0226 1.38351ZM12.4895 1.56402C11.2263 2.4484 10.4876 3.899 10.0464 5.21947C9.59943 6.55737 9.42025 7.87644 9.34879 8.62945L10.8421 8.77116C10.9081 8.07556 11.0726 6.88168 11.4691 5.69478C11.8715 4.49046 12.4762 3.40442 13.3498 2.79283L12.4895 1.56402ZM9.34859 8.63169C9.33276 8.80399 9.34927 8.9788 9.3981 9.14585L10.8378 8.72497C10.8424 8.74056 10.8436 8.75517 10.8423 8.76893L9.34859 8.63169ZM9.3981 9.14585C9.44694 9.31292 9.5281 9.47203 9.64053 9.61119L10.8073 8.66857C10.8243 8.68958 10.8333 8.70935 10.8378 8.72497L9.3981 9.14585ZM9.64053 9.61119C9.75311 9.75055 9.89565 9.86801 10.0623 9.9505L10.7277 8.60615C10.7642 8.62424 10.7902 8.64737 10.8073 8.66857L9.64053 9.61119ZM10.0623 9.9505C10.2294 10.0332 10.4144 10.0775 10.6043 10.0768L10.5988 8.57677C10.6465 8.5766 10.6907 8.58785 10.7277 8.60615L10.0623 9.9505ZM10.6015 10.0768H13.1846V8.57676H10.6015V10.0768ZM14.0703 14.3995V9.29683H12.5703V14.3995H14.0703ZM14.0703 9.29689L14.0708 3.62368L12.5708 3.62354L12.5703 9.29676L14.0703 9.29689Z" fill="#BDBAC1"/>
<path d="M2.3457 2.13281V4.87591C2.3457 6.38204 3.00667 7.64506 4.28606 7.97897C4.51639 8.03283 5.02058 8.14054 5.19471 8.14054C5.53707 8.14054 5.98351 8.03283 6.16394 7.97897C7.44272 7.64506 8.15624 6.38204 8.15624 4.87591V2.13281M5.19471 8.26615V14.3995M5.19471 4.87591V2.13324" stroke="#BDBAC1" stroke-width="1.5" stroke-linecap="round" stroke-linejoin="round"/>
</svg>
