<svg width="20" height="20" viewBox="0 0 20 20" fill="none" xmlns="http://www.w3.org/2000/svg">
<g clip-path="url(#clip0_13818_240260)">
<mask id="path-1-inside-1_13818_240260" fill="white">
<path fill-rule="evenodd" clip-rule="evenodd" d="M18.6165 14.0951L15.3007 11.5284C15.1405 11.4048 14.9408 11.3439 14.739 11.3569C14.5371 11.3699 14.3469 11.4561 14.204 11.5993L12.444 13.3601C12.3129 13.4925 12.141 13.5768 11.956 13.5993C11.771 13.6219 11.5839 13.5813 11.4248 13.4843C10.8582 13.1368 9.90983 12.4634 8.72316 11.2759C7.5365 10.0901 6.86316 9.14093 6.51566 8.57509C6.41847 8.41617 6.37792 8.22903 6.40061 8.04413C6.42331 7.85923 6.50792 7.68746 6.64066 7.55676L8.40066 5.79593C8.54402 5.65309 8.63025 5.4628 8.64314 5.26084C8.65603 5.05888 8.5947 4.85917 8.47066 4.69926L5.90483 1.38259C5.3215 0.630093 4.2215 0.510927 3.50483 1.14009C2.56066 1.96843 1.4265 3.20926 1.0965 4.60176C0.498997 7.11009 1.44316 10.2576 5.59316 14.4076C9.74316 18.5568 12.8907 19.5018 15.3982 18.9051C16.7907 18.5734 18.0323 17.4384 18.8607 16.4951C19.489 15.7784 19.3698 14.6784 18.6165 14.0951"/>
</mask>
<path fill-rule="evenodd" clip-rule="evenodd" d="M18.6165 14.0951L15.3007 11.5284C15.1405 11.4048 14.9408 11.3439 14.739 11.3569C14.5371 11.3699 14.3469 11.4561 14.204 11.5993L12.444 13.3601C12.3129 13.4925 12.141 13.5768 11.956 13.5993C11.771 13.6219 11.5839 13.5813 11.4248 13.4843C10.8582 13.1368 9.90983 12.4634 8.72316 11.2759C7.5365 10.0901 6.86316 9.14093 6.51566 8.57509C6.41847 8.41617 6.37792 8.22903 6.40061 8.04413C6.42331 7.85923 6.50792 7.68746 6.64066 7.55676L8.40066 5.79593C8.54402 5.65309 8.63025 5.4628 8.64314 5.26084C8.65603 5.05888 8.5947 4.85917 8.47066 4.69926L5.90483 1.38259C5.3215 0.630093 4.2215 0.510927 3.50483 1.14009C2.56066 1.96843 1.4265 3.20926 1.0965 4.60176C0.498997 7.11009 1.44316 10.2576 5.59316 14.4076C9.74316 18.5568 12.8907 19.5018 15.3982 18.9051C16.7907 18.5734 18.0323 17.4384 18.8607 16.4951C19.489 15.7784 19.3698 14.6784 18.6165 14.0951" fill="white"/>
<path d="M15.3007 11.5284L16.2188 10.3423L16.2171 10.3409L15.3007 11.5284ZM14.204 11.5993L15.2649 12.6597L15.2656 12.659L14.204 11.5993ZM12.444 13.3601L11.3831 12.2997L11.378 12.3048L12.444 13.3601ZM11.4248 13.4843L10.6407 14.763L10.6434 14.7646L11.4248 13.4843ZM8.72316 11.2759L9.7842 10.2156L9.78345 10.2149L8.72316 11.2759ZM6.51566 8.57509L5.23602 9.35772L5.23747 9.36008L6.51566 8.57509ZM6.64066 7.55676L7.69307 8.62568L7.70158 8.61717L6.64066 7.55676ZM8.40066 5.79593L7.34193 4.73334L7.33975 4.73552L8.40066 5.79593ZM8.47066 4.69926L7.28425 5.61709L7.28542 5.61861L8.47066 4.69926ZM5.90483 1.38259L7.09125 0.46476L7.09034 0.463592L5.90483 1.38259ZM3.50483 1.14009L4.49407 2.26766L4.49444 2.26733L3.50483 1.14009ZM1.0965 4.60176L2.55567 4.94934L2.55607 4.94766L1.0965 4.60176ZM5.59316 14.4076L4.5325 15.4683L4.53261 15.4684L5.59316 14.4076ZM15.3982 18.9051L15.7454 20.3643L15.7457 20.3643L15.3982 18.9051ZM18.8607 16.4951L19.9878 17.4848L19.9886 17.484L18.8607 16.4951ZM19.5347 12.9089L16.2188 10.3423L14.3825 12.7146L17.6983 15.2813L19.5347 12.9089ZM16.2171 10.3409C15.7681 9.99443 15.2082 9.82347 14.6423 9.86002L14.8356 12.8538C14.6734 12.8643 14.513 12.8153 14.3843 12.7159L16.2171 10.3409ZM14.6423 9.86002C14.0763 9.89658 13.5431 10.1381 13.1424 10.5395L15.2656 12.659C15.1507 12.7741 14.9979 12.8433 14.8356 12.8538L14.6423 9.86002ZM13.1431 10.5389L11.3831 12.2997L13.5049 14.4205L15.2649 12.6597L13.1431 10.5389ZM11.378 12.3048C11.4845 12.1972 11.6243 12.1287 11.7746 12.1104L12.1374 15.0883C12.6576 15.025 13.1413 14.7878 13.51 14.4154L11.378 12.3048ZM11.7746 12.1104C11.9249 12.092 12.077 12.125 12.2063 12.2039L10.6434 14.7646C11.0908 15.0377 11.6172 15.1517 12.1374 15.0883L11.7746 12.1104ZM12.209 12.2055C11.7435 11.9201 10.888 11.3202 9.7842 10.2156L7.66213 12.3362C8.93164 13.6066 9.97279 14.3534 10.6407 14.763L12.209 12.2055ZM9.78345 10.2149C8.68012 9.11233 8.07989 8.25584 7.79386 7.7901L5.23747 9.36008C5.64644 10.026 6.39288 11.0679 7.66288 12.337L9.78345 10.2149ZM7.79531 7.79246C7.87483 7.92249 7.90801 8.0756 7.88944 8.22688L4.91179 7.86138C4.84783 8.38246 4.9621 8.90985 5.23602 9.35772L7.79531 7.79246ZM7.88944 8.22688C7.87087 8.37817 7.80165 8.51871 7.69304 8.62564L5.58829 6.48788C5.21419 6.8562 4.97575 7.3403 4.91179 7.86138L7.88944 8.22688ZM7.70158 8.61717L9.46157 6.85634L7.33975 4.73552L5.57975 6.49635L7.70158 8.61717ZM9.4594 6.85851C9.86184 6.45753 10.1039 5.92333 10.1401 5.35639L7.14619 5.16529C7.1566 5.00226 7.2262 4.84865 7.34193 4.73335L9.4594 6.85851ZM10.1401 5.35639C10.1763 4.78944 10.0041 4.2288 9.65591 3.77991L7.28542 5.61861C7.1853 5.48953 7.13578 5.32831 7.14619 5.16529L10.1401 5.35639ZM9.65708 3.78143L7.09125 0.464761L4.71841 2.30043L7.28425 5.61709L9.65708 3.78143ZM7.09034 0.463592C5.99091 -0.954676 3.89793 -1.20104 2.51522 0.0128537L4.49444 2.26733C4.52232 2.24286 4.55608 2.23067 4.60065 2.23527C4.64709 2.24007 4.68874 2.26215 4.71932 2.30159L7.09034 0.463592ZM2.51559 0.0125239C1.52774 0.879185 0.0807933 2.38287 -0.363077 4.25586L2.55607 4.94766C2.7722 4.03565 3.59359 3.05767 4.49407 2.26766L2.51559 0.0125239ZM-0.362676 4.25418C-1.13839 7.51067 0.232613 11.1684 4.5325 15.4683L6.65382 13.3469C2.65372 9.34682 2.13639 6.70952 2.55567 4.94934L-0.362676 4.25418ZM4.53261 15.4684C8.83228 19.7672 12.4898 21.139 15.7454 20.3643L15.0509 17.4458C13.2915 17.8645 10.654 17.3464 6.65372 13.3468L4.53261 15.4684ZM15.7457 20.3643C17.6174 19.9185 19.1213 18.4716 19.9878 17.4848L17.7335 15.5054C16.9433 16.4053 15.9639 17.2284 15.0506 17.4459L15.7457 20.3643ZM19.9886 17.484C21.2009 16.1012 20.9545 14.0083 19.5349 12.9091L17.6981 15.2811C17.7378 15.3118 17.7599 15.3536 17.7647 15.4C17.7694 15.4447 17.7571 15.4785 17.7328 15.5062L19.9886 17.484Z" fill="#BDBAC1" mask="url(#path-1-inside-1_13818_240260)"/>
</g>
<defs>
<clipPath id="clip0_13818_240260">
<rect width="20" height="20" fill="white"/>
</clipPath>
</defs>
</svg>
