<svg width="16" height="16" viewBox="0 0 16 16" fill="none" xmlns="http://www.w3.org/2000/svg">
<g clip-path="url(#clip0_12262_226438)">
<path d="M16 0H0V16H16V0Z" fill="white"/>
<path d="M5.72834 7.01556C5.49634 7.11156 5.24834 7.15956 5.00034 7.15956C4.49634 7.15956 4.01634 6.95956 3.65634 6.59956C3.29634 6.23956 3.09634 5.75956 3.09634 5.25556C3.09634 4.75156 3.29634 4.27156 3.65634 3.91156C4.01634 3.55156 4.49634 3.35156 5.00034 3.35156C5.24834 3.35156 5.49634 3.39956 5.72834 3.49556C5.96034 3.60756 6.16834 3.74356 6.34434 3.91956C6.52034 4.09556 6.66434 4.30356 6.75234 4.53556C6.84834 4.76756 6.89634 5.01556 6.89634 5.26356C6.89634 5.51156 6.84834 5.75956 6.75234 5.99156C6.65634 6.22356 6.52034 6.43156 6.34434 6.60756C6.16834 6.78356 5.96034 6.91956 5.72834 7.01556ZM5.81634 9.18356C5.08834 10.0796 4.73634 11.0876 4.73634 11.8876C4.73634 12.1516 4.77634 12.4076 4.86434 12.6396C3.96834 12.6316 2.92034 12.5596 2.09634 12.3756C1.65634 12.2796 1.32034 12.1596 1.12034 12.0316C1.01634 11.9676 0.968336 11.9196 0.952336 11.8956C0.944336 11.8876 0.944336 11.8876 0.944336 11.8796C0.944336 11.1756 1.95234 9.12756 5.00834 9.12756C5.28834 9.12756 5.56034 9.14356 5.81634 9.18356Z" stroke="#BDBAC1" stroke-width="1.2"/>
<path d="M6.94404 11.8956C6.93604 11.8876 6.93604 11.8876 6.93604 11.8796C6.93604 11.1756 7.94404 9.12756 11 9.12756C14.056 9.12756 15.064 11.1756 15.064 11.8796C15.064 11.8796 15.064 11.8876 15.056 11.8956C15.04 11.9196 14.992 11.9676 14.888 12.0316C14.68 12.1596 14.352 12.2716 13.912 12.3756C13.04 12.5676 11.92 12.6396 11 12.6396C10.08 12.6396 8.96003 12.5676 8.08803 12.3756C7.64803 12.2796 7.31204 12.1596 7.11204 12.0316C7.00804 11.9676 6.96004 11.9196 6.94404 11.8956ZM11.728 7.01556C11.496 7.11156 11.248 7.15956 11 7.15956C10.496 7.15956 10.016 6.95956 9.65603 6.59956C9.29603 6.23956 9.09604 5.75956 9.09604 5.25556C9.09604 4.75156 9.29603 4.27156 9.65603 3.91156C10.016 3.55156 10.496 3.35156 11 3.35156C11.248 3.35156 11.496 3.39956 11.728 3.49556C11.96 3.59156 12.168 3.72756 12.344 3.90356C12.52 4.07956 12.664 4.28756 12.752 4.51956C12.848 4.75156 12.896 4.99956 12.896 5.24756C12.896 5.49556 12.848 5.74356 12.752 5.97556C12.656 6.20756 12.52 6.41556 12.344 6.59156C12.168 6.78356 11.96 6.91956 11.728 7.01556Z" stroke="#BDBAC1" stroke-width="1.2"/>
<path d="M3.90388 11.9922C3.90388 11.9922 4.41588 12.0482 5.71988 11.9922L6.35188 9.86423C6.35188 9.86423 5.14388 9.56823 3.87988 9.83223L3.90388 11.9922Z" fill="white"/>
</g>
<defs>
<clipPath id="clip0_12262_226438">
<rect width="16" height="16" fill="white"/>
</clipPath>
</defs>
</svg>
