<svg width="88" height="16" viewBox="0 0 88 16" fill="none" xmlns="http://www.w3.org/2000/svg">
<line x1="15" y1="8" x2="87" y2="8.00001" stroke="#D5D4D9" stroke-width="2"/>
<g clip-path="url(#clip0_1335_40139)">
<path d="M1.66602 7.99935C1.66602 4.50163 4.50163 1.66602 7.99935 1.66602C11.4971 1.66602 14.3327 4.50163 14.3327 7.99935C14.3327 11.4971 11.4971 14.3327 7.99935 14.3327C4.50163 14.3327 1.66602 11.4971 1.66602 7.99935Z" fill="white" stroke="#343337" stroke-width="2"/>
<path fill-rule="evenodd" clip-rule="evenodd" d="M8 4.5C6.06705 4.5 4.5 6.06705 4.5 8C4.5 9.93295 6.06705 11.5 8 11.5C9.93295 11.5 11.5 9.93295 11.5 8C11.5 6.06705 9.93295 4.5 8 4.5Z" fill="#343337"/>
</g>
<g clip-path="url(#clip1_1335_40139)">
<path d="M25.666 7.99935C25.666 4.50163 28.5016 1.66602 31.9993 1.66602C35.4971 1.66602 38.3327 4.50163 38.3327 7.99935C38.3327 11.4971 35.4971 14.3327 31.9993 14.3327C28.5016 14.3327 25.666 11.4971 25.666 7.99935Z" fill="white" stroke="#D5D4D9" stroke-width="2"/>
</g>
<g clip-path="url(#clip2_1335_40139)">
<path d="M49.666 7.99935C49.666 4.50163 52.5016 1.66602 55.9993 1.66602C59.4971 1.66602 62.3327 4.50163 62.3327 7.99935C62.3327 11.4971 59.4971 14.3327 55.9993 14.3327C52.5016 14.3327 49.666 11.4971 49.666 7.99935Z" fill="white" stroke="#D5D4D9" stroke-width="2"/>
</g>
<g clip-path="url(#clip3_1335_40139)">
<path d="M73.666 7.99935C73.666 4.50163 76.5016 1.66602 79.9993 1.66602C83.4971 1.66602 86.3327 4.50163 86.3327 7.99935C86.3327 11.4971 83.4971 14.3327 79.9993 14.3327C76.5016 14.3327 73.666 11.4971 73.666 7.99935Z" fill="white" stroke="#D5D4D9" stroke-width="2"/>
</g>
<defs>
<clipPath id="clip0_1335_40139">
<rect width="16" height="16" fill="white"/>
</clipPath>
<clipPath id="clip1_1335_40139">
<rect width="16" height="16" fill="white" transform="translate(24)"/>
</clipPath>
<clipPath id="clip2_1335_40139">
<rect width="16" height="16" fill="white" transform="translate(48)"/>
</clipPath>
<clipPath id="clip3_1335_40139">
<rect width="16" height="16" fill="white" transform="translate(72)"/>
</clipPath>
</defs>
</svg>
