<svg width="88" height="16" viewBox="0 0 88 16" fill="none" xmlns="http://www.w3.org/2000/svg">
<line x1="15" y1="8" x2="87" y2="8.00001" stroke="#D5D4D9" stroke-width="2"/>
<line x1="15" y1="8" x2="63" y2="8" stroke="#343337" stroke-width="2"/>
<g clip-path="url(#clip0_1335_36368)">
<path fill-rule="evenodd" clip-rule="evenodd" d="M11.4707 6.80935L7.74868 10.532C7.62329 10.6565 7.45374 10.7264 7.27702 10.7264C7.10029 10.7264 6.93074 10.6565 6.80535 10.532L4.52802 8.25468C4.46612 8.19279 4.41702 8.1193 4.38352 8.03843C4.35002 7.95756 4.33278 7.87088 4.33278 7.78335C4.33278 7.60656 4.40301 7.43702 4.52802 7.31202C4.65302 7.18701 4.82256 7.11678 4.99935 7.11678C5.17613 7.11678 5.34568 7.18701 5.47068 7.31202L7.27668 9.11802L10.528 5.86668C10.5899 5.80479 10.6634 5.75569 10.7443 5.72219C10.8251 5.68869 10.9118 5.67145 10.9993 5.67145C11.0869 5.67145 11.1736 5.68869 11.2544 5.72219C11.3353 5.75569 11.4088 5.80479 11.4707 5.86668C11.5326 5.92858 11.5817 6.00206 11.6152 6.08293C11.6487 6.1638 11.6659 6.25048 11.6659 6.33802C11.6659 6.42555 11.6487 6.51223 11.6152 6.5931C11.5817 6.67397 11.5326 6.74745 11.4707 6.80935ZM7.99935 0.666016C3.94935 0.666016 0.666016 3.94935 0.666016 7.99935C0.666016 12.0493 3.94935 15.3327 7.99935 15.3327C12.0493 15.3327 15.3327 12.0493 15.3327 7.99935C15.3327 3.94935 12.0493 0.666016 7.99935 0.666016Z" fill="#343337"/>
<path d="M7.74988 10.5324L11.4719 6.80977C11.5338 6.74788 11.5829 6.6744 11.6164 6.59352C11.6499 6.51265 11.6671 6.42598 11.6671 6.33844C11.6671 6.25091 11.6499 6.16423 11.6164 6.08336C11.5829 6.00249 11.5338 5.929 11.4719 5.86711C11.41 5.80521 11.3365 5.75611 11.2556 5.72261C11.1748 5.68912 11.0881 5.67188 11.0006 5.67188C10.913 5.67188 10.8263 5.68912 10.7455 5.72261C10.6646 5.75611 10.5911 5.80521 10.5292 5.86711L7.27788 9.11844L5.47188 7.31244C5.34688 7.18744 5.17733 7.11721 5.00055 7.11721C4.82377 7.11721 4.65422 7.18744 4.52922 7.31244C4.40421 7.43745 4.33398 7.60699 4.33398 7.78377C4.33398 7.87131 4.35123 7.95799 4.38472 8.03886C4.41822 8.11973 4.46732 8.19321 4.52922 8.25511L6.80655 10.5324C6.93194 10.657 7.10149 10.7269 7.27822 10.7269C7.45494 10.7269 7.62449 10.657 7.74988 10.5324Z" fill="#FDC800"/>
</g>
<g clip-path="url(#clip1_1335_36368)">
<path fill-rule="evenodd" clip-rule="evenodd" d="M35.4707 6.80935L31.7487 10.532C31.6233 10.6565 31.4537 10.7264 31.277 10.7264C31.1003 10.7264 30.9307 10.6565 30.8053 10.532L28.528 8.25468C28.4661 8.19279 28.417 8.1193 28.3835 8.03843C28.35 7.95756 28.3328 7.87088 28.3328 7.78335C28.3328 7.60656 28.403 7.43702 28.528 7.31202C28.653 7.18701 28.8226 7.11678 28.9993 7.11678C29.1761 7.11678 29.3457 7.18701 29.4707 7.31202L31.2767 9.11802L34.528 5.86668C34.5899 5.80479 34.6634 5.75569 34.7443 5.72219C34.8251 5.68869 34.9118 5.67145 34.9993 5.67145C35.0869 5.67145 35.1736 5.68869 35.2544 5.72219C35.3353 5.75569 35.4088 5.80479 35.4707 5.86668C35.5326 5.92858 35.5817 6.00206 35.6152 6.08293C35.6487 6.1638 35.6659 6.25048 35.6659 6.33802C35.6659 6.42555 35.6487 6.51223 35.6152 6.5931C35.5817 6.67397 35.5326 6.74745 35.4707 6.80935ZM31.9993 0.666016C27.9493 0.666016 24.666 3.94935 24.666 7.99935C24.666 12.0493 27.9493 15.3327 31.9993 15.3327C36.0493 15.3327 39.3327 12.0493 39.3327 7.99935C39.3327 3.94935 36.0493 0.666016 31.9993 0.666016Z" fill="#343337"/>
<path d="M31.7499 10.5324L35.4719 6.80977C35.5338 6.74788 35.5829 6.6744 35.6164 6.59352C35.6499 6.51265 35.6671 6.42598 35.6671 6.33844C35.6671 6.25091 35.6499 6.16423 35.6164 6.08336C35.5829 6.00249 35.5338 5.929 35.4719 5.86711C35.41 5.80521 35.3365 5.75611 35.2556 5.72261C35.1748 5.68912 35.0881 5.67188 35.0006 5.67188C34.913 5.67188 34.8263 5.68912 34.7455 5.72261C34.6646 5.75611 34.5911 5.80521 34.5292 5.86711L31.2779 9.11844L29.4719 7.31244C29.3469 7.18744 29.1773 7.11721 29.0006 7.11721C28.8238 7.11721 28.6542 7.18744 28.5292 7.31244C28.4042 7.43745 28.334 7.60699 28.334 7.78377C28.334 7.87131 28.3512 7.95799 28.3847 8.03886C28.4182 8.11973 28.4673 8.19321 28.5292 8.25511L30.8066 10.5324C30.9319 10.657 31.1015 10.7269 31.2782 10.7269C31.4549 10.7269 31.6245 10.657 31.7499 10.5324Z" fill="#FDC800"/>
</g>
<g clip-path="url(#clip2_1335_36368)">
<path d="M49.666 7.99935C49.666 4.50163 52.5016 1.66602 55.9993 1.66602C59.4971 1.66602 62.3327 4.50163 62.3327 7.99935C62.3327 11.4971 59.4971 14.3327 55.9993 14.3327C52.5016 14.3327 49.666 11.4971 49.666 7.99935Z" fill="white" stroke="#343337" stroke-width="2"/>
<path fill-rule="evenodd" clip-rule="evenodd" d="M56 4.5C54.067 4.5 52.5 6.06705 52.5 8C52.5 9.93295 54.067 11.5 56 11.5C57.933 11.5 59.5 9.93295 59.5 8C59.5 6.06705 57.933 4.5 56 4.5Z" fill="#343337"/>
</g>
<g clip-path="url(#clip3_1335_36368)">
<path d="M73.666 7.99935C73.666 4.50163 76.5016 1.66602 79.9993 1.66602C83.4971 1.66602 86.3327 4.50163 86.3327 7.99935C86.3327 11.4971 83.4971 14.3327 79.9993 14.3327C76.5016 14.3327 73.666 11.4971 73.666 7.99935Z" fill="white" stroke="#D5D4D9" stroke-width="2"/>
</g>
<defs>
<clipPath id="clip0_1335_36368">
<rect width="16" height="16" fill="white"/>
</clipPath>
<clipPath id="clip1_1335_36368">
<rect width="16" height="16" fill="white" transform="translate(24)"/>
</clipPath>
<clipPath id="clip2_1335_36368">
<rect width="16" height="16" fill="white" transform="translate(48)"/>
</clipPath>
<clipPath id="clip3_1335_36368">
<rect width="16" height="16" fill="white" transform="translate(72)"/>
</clipPath>
</defs>
</svg>
