<svg width="160" height="16" viewBox="0 0 160 16" fill="none" xmlns="http://www.w3.org/2000/svg">
<line x1="15" y1="8" x2="152" y2="8" stroke="#D5D4D9" stroke-width="2"/>
<line x1="15" y1="8" x2="104" y2="8" stroke="#343337" stroke-width="2"/>
<g clip-path="url(#clip0_10115_138915)">
<path fill-rule="evenodd" clip-rule="evenodd" d="M11.4717 6.8113L7.74966 10.534C7.62427 10.6585 7.45472 10.7284 7.27799 10.7284C7.10127 10.7284 6.93172 10.6585 6.80632 10.534L4.52899 8.25664C4.4671 8.19474 4.418 8.12126 4.3845 8.04039C4.351 7.95951 4.33376 7.87284 4.33376 7.7853C4.33376 7.60852 4.40399 7.43897 4.52899 7.31397C4.654 7.18896 4.82354 7.11874 5.00033 7.11874C5.17711 7.11874 5.34665 7.18896 5.47166 7.31397L7.27766 9.11997L10.529 5.86863C10.5909 5.80674 10.6644 5.75764 10.7452 5.72414C10.8261 5.69064 10.9128 5.6734 11.0003 5.6734C11.0879 5.6734 11.1745 5.69064 11.2554 5.72414C11.3363 5.75764 11.4098 5.80674 11.4717 5.86863C11.5336 5.93053 11.5827 6.00401 11.6162 6.08489C11.6496 6.16576 11.6669 6.25243 11.6669 6.33997C11.6669 6.4275 11.6496 6.51418 11.6162 6.59505C11.5827 6.67592 11.5336 6.74941 11.4717 6.8113ZM8.00033 0.667969C3.95033 0.667969 0.666992 3.9513 0.666992 8.0013C0.666992 12.0513 3.95033 15.3346 8.00033 15.3346C12.0503 15.3346 15.3337 12.0513 15.3337 8.0013C15.3337 3.9513 12.0503 0.667969 8.00033 0.667969Z" fill="#343337"/>
<path d="M7.74988 10.5324L11.4719 6.80977C11.5338 6.74788 11.5829 6.6744 11.6164 6.59352C11.6499 6.51265 11.6671 6.42598 11.6671 6.33844C11.6671 6.25091 11.6499 6.16423 11.6164 6.08336C11.5829 6.00249 11.5338 5.929 11.4719 5.86711C11.41 5.80521 11.3365 5.75611 11.2556 5.72261C11.1748 5.68912 11.0881 5.67188 11.0006 5.67188C10.913 5.67188 10.8263 5.68912 10.7455 5.72261C10.6646 5.75611 10.5911 5.80521 10.5292 5.86711L7.27788 9.11844L5.47188 7.31244C5.34688 7.18744 5.17733 7.11721 5.00055 7.11721C4.82377 7.11721 4.65422 7.18744 4.52922 7.31244C4.40421 7.43745 4.33398 7.60699 4.33398 7.78377C4.33398 7.87131 4.35123 7.95799 4.38472 8.03886C4.41822 8.11973 4.46732 8.19321 4.52922 8.25511L6.80655 10.5324C6.93194 10.657 7.10149 10.7269 7.27822 10.7269C7.45494 10.7269 7.62449 10.657 7.74988 10.5324Z" fill="#FDC800"/>
</g>
<g clip-path="url(#clip1_10115_138915)">
<path fill-rule="evenodd" clip-rule="evenodd" d="M35.4717 6.8113L31.7497 10.534C31.6243 10.6585 31.4547 10.7284 31.278 10.7284C31.1013 10.7284 30.9317 10.6585 30.8063 10.534L28.529 8.25664C28.4671 8.19474 28.418 8.12126 28.3845 8.04039C28.351 7.95951 28.3338 7.87284 28.3338 7.7853C28.3338 7.60852 28.404 7.43897 28.529 7.31397C28.654 7.18896 28.8235 7.11874 29.0003 7.11874C29.1771 7.11874 29.3467 7.18896 29.4717 7.31397L31.2777 9.11997L34.529 5.86863C34.5909 5.80674 34.6644 5.75764 34.7452 5.72414C34.8261 5.69064 34.9128 5.6734 35.0003 5.6734C35.0879 5.6734 35.1745 5.69064 35.2554 5.72414C35.3363 5.75764 35.4098 5.80674 35.4717 5.86863C35.5336 5.93053 35.5827 6.00401 35.6162 6.08489C35.6496 6.16576 35.6669 6.25243 35.6669 6.33997C35.6669 6.4275 35.6496 6.51418 35.6162 6.59505C35.5827 6.67592 35.5336 6.74941 35.4717 6.8113ZM32.0003 0.667969C27.9503 0.667969 24.667 3.9513 24.667 8.0013C24.667 12.0513 27.9503 15.3346 32.0003 15.3346C36.0503 15.3346 39.3337 12.0513 39.3337 8.0013C39.3337 3.9513 36.0503 0.667969 32.0003 0.667969Z" fill="#343337"/>
<path d="M31.7499 10.5324L35.4719 6.80977C35.5338 6.74788 35.5829 6.6744 35.6164 6.59352C35.6499 6.51265 35.6671 6.42598 35.6671 6.33844C35.6671 6.25091 35.6499 6.16423 35.6164 6.08336C35.5829 6.00249 35.5338 5.929 35.4719 5.86711C35.41 5.80521 35.3365 5.75611 35.2556 5.72261C35.1748 5.68912 35.0881 5.67188 35.0006 5.67188C34.913 5.67188 34.8263 5.68912 34.7455 5.72261C34.6646 5.75611 34.5911 5.80521 34.5292 5.86711L31.2779 9.11844L29.4719 7.31244C29.3469 7.18744 29.1773 7.11721 29.0006 7.11721C28.8238 7.11721 28.6542 7.18744 28.5292 7.31244C28.4042 7.43745 28.334 7.60699 28.334 7.78377C28.334 7.87131 28.3512 7.95799 28.3847 8.03886C28.4182 8.11973 28.4673 8.19321 28.5292 8.25511L30.8066 10.5324C30.9319 10.657 31.1015 10.7269 31.2782 10.7269C31.4549 10.7269 31.6245 10.657 31.7499 10.5324Z" fill="#FDC800"/>
</g>
<g clip-path="url(#clip2_10115_138915)">
<path fill-rule="evenodd" clip-rule="evenodd" d="M59.4717 6.8113L55.7497 10.534C55.6243 10.6585 55.4547 10.7284 55.278 10.7284C55.1013 10.7284 54.9317 10.6585 54.8063 10.534L52.529 8.25664C52.4671 8.19474 52.418 8.12126 52.3845 8.04039C52.351 7.95951 52.3338 7.87284 52.3338 7.7853C52.3338 7.60852 52.404 7.43897 52.529 7.31397C52.654 7.18896 52.8235 7.11874 53.0003 7.11874C53.1771 7.11874 53.3467 7.18896 53.4717 7.31397L55.2777 9.11997L58.529 5.86863C58.5909 5.80674 58.6644 5.75764 58.7452 5.72414C58.8261 5.69064 58.9128 5.6734 59.0003 5.6734C59.0879 5.6734 59.1745 5.69064 59.2554 5.72414C59.3363 5.75764 59.4098 5.80674 59.4717 5.86863C59.5336 5.93053 59.5827 6.00401 59.6162 6.08489C59.6496 6.16576 59.6669 6.25243 59.6669 6.33997C59.6669 6.4275 59.6496 6.51418 59.6162 6.59505C59.5827 6.67592 59.5336 6.74941 59.4717 6.8113ZM56.0003 0.667969C51.9503 0.667969 48.667 3.9513 48.667 8.0013C48.667 12.0513 51.9503 15.3346 56.0003 15.3346C60.0503 15.3346 63.3337 12.0513 63.3337 8.0013C63.3337 3.9513 60.0503 0.667969 56.0003 0.667969Z" fill="#343337"/>
<path d="M55.7499 10.5324L59.4719 6.80977C59.5338 6.74788 59.5829 6.6744 59.6164 6.59352C59.6499 6.51265 59.6671 6.42598 59.6671 6.33844C59.6671 6.25091 59.6499 6.16423 59.6164 6.08336C59.5829 6.00249 59.5338 5.929 59.4719 5.86711C59.41 5.80521 59.3365 5.75611 59.2556 5.72261C59.1748 5.68912 59.0881 5.67188 59.0006 5.67188C58.913 5.67188 58.8263 5.68912 58.7455 5.72261C58.6646 5.75611 58.5911 5.80521 58.5292 5.86711L55.2779 9.11844L53.4719 7.31244C53.3469 7.18744 53.1773 7.11721 53.0006 7.11721C52.8238 7.11721 52.6542 7.18744 52.5292 7.31244C52.4042 7.43745 52.334 7.60699 52.334 7.78377C52.334 7.87131 52.3512 7.95799 52.3847 8.03886C52.4182 8.11973 52.4673 8.19321 52.5292 8.25511L54.8066 10.5324C54.9319 10.657 55.1015 10.7269 55.2782 10.7269C55.4549 10.7269 55.6245 10.657 55.7499 10.5324Z" fill="#FDC800"/>
</g>
<g clip-path="url(#clip3_10115_138915)">
<path fill-rule="evenodd" clip-rule="evenodd" d="M83.4717 6.8113L79.7497 10.534C79.6243 10.6585 79.4547 10.7284 79.278 10.7284C79.1013 10.7284 78.9317 10.6585 78.8063 10.534L76.529 8.25664C76.4671 8.19474 76.418 8.12126 76.3845 8.04039C76.351 7.95951 76.3338 7.87284 76.3338 7.7853C76.3338 7.60852 76.404 7.43897 76.529 7.31397C76.654 7.18896 76.8235 7.11874 77.0003 7.11874C77.1771 7.11874 77.3467 7.18896 77.4717 7.31397L79.2777 9.11997L82.529 5.86863C82.5909 5.80674 82.6644 5.75764 82.7452 5.72414C82.8261 5.69064 82.9128 5.6734 83.0003 5.6734C83.0879 5.6734 83.1745 5.69064 83.2554 5.72414C83.3363 5.75764 83.4098 5.80674 83.4717 5.86863C83.5336 5.93053 83.5827 6.00401 83.6162 6.08489C83.6496 6.16576 83.6669 6.25243 83.6669 6.33997C83.6669 6.4275 83.6496 6.51418 83.6162 6.59505C83.5827 6.67592 83.5336 6.74941 83.4717 6.8113ZM80.0003 0.667969C75.9503 0.667969 72.667 3.9513 72.667 8.0013C72.667 12.0513 75.9503 15.3346 80.0003 15.3346C84.0503 15.3346 87.3337 12.0513 87.3337 8.0013C87.3337 3.9513 84.0503 0.667969 80.0003 0.667969Z" fill="#343337"/>
<path d="M79.7499 10.5324L83.4719 6.80977C83.5338 6.74788 83.5829 6.6744 83.6164 6.59352C83.6499 6.51265 83.6671 6.42598 83.6671 6.33844C83.6671 6.25091 83.6499 6.16423 83.6164 6.08336C83.5829 6.00249 83.5338 5.929 83.4719 5.86711C83.41 5.80521 83.3365 5.75611 83.2556 5.72261C83.1748 5.68912 83.0881 5.67188 83.0006 5.67188C82.913 5.67188 82.8263 5.68912 82.7455 5.72261C82.6646 5.75611 82.5911 5.80521 82.5292 5.86711L79.2779 9.11844L77.4719 7.31244C77.3469 7.18744 77.1773 7.11721 77.0006 7.11721C76.8238 7.11721 76.6542 7.18744 76.5292 7.31244C76.4042 7.43745 76.334 7.60699 76.334 7.78377C76.334 7.87131 76.3512 7.95799 76.3847 8.03886C76.4182 8.11973 76.4673 8.19321 76.5292 8.25511L78.8066 10.5324C78.9319 10.657 79.1015 10.7269 79.2782 10.7269C79.4549 10.7269 79.6245 10.657 79.7499 10.5324Z" fill="#FDC800"/>
</g>
<g clip-path="url(#clip4_10115_138915)">
<path d="M97.667 8.0013C97.667 4.50359 100.503 1.66797 104 1.66797C107.498 1.66797 110.334 4.50359 110.334 8.0013C110.334 11.499 107.498 14.3346 104 14.3346C100.503 14.3346 97.667 11.499 97.667 8.0013Z" fill="white" stroke="#343337" stroke-width="2"/>
<path fill-rule="evenodd" clip-rule="evenodd" d="M104 4.5C102.067 4.5 100.5 6.06705 100.5 8C100.5 9.93295 102.067 11.5 104 11.5C105.933 11.5 107.5 9.93295 107.5 8C107.5 6.06705 105.933 4.5 104 4.5Z" fill="#343337"/>
</g>
<g clip-path="url(#clip5_10115_138915)">
<path d="M121.667 8.0013C121.667 4.50359 124.503 1.66797 128 1.66797C131.498 1.66797 134.334 4.50359 134.334 8.0013C134.334 11.499 131.498 14.3346 128 14.3346C124.503 14.3346 121.667 11.499 121.667 8.0013Z" fill="white" stroke="#D5D4D9" stroke-width="2"/>
</g>
<g clip-path="url(#clip6_10115_138915)">
<path d="M145.667 8.0013C145.667 4.50359 148.503 1.66797 152 1.66797C155.498 1.66797 158.334 4.50359 158.334 8.0013C158.334 11.499 155.498 14.3346 152 14.3346C148.503 14.3346 145.667 11.499 145.667 8.0013Z" fill="white" stroke="#D5D4D9" stroke-width="2"/>
</g>
<defs>
<clipPath id="clip0_10115_138915">
<rect width="16" height="16" fill="white"/>
</clipPath>
<clipPath id="clip1_10115_138915">
<rect width="16" height="16" fill="white" transform="translate(24)"/>
</clipPath>
<clipPath id="clip2_10115_138915">
<rect width="16" height="16" fill="white" transform="translate(48)"/>
</clipPath>
<clipPath id="clip3_10115_138915">
<rect width="16" height="16" fill="white" transform="translate(72)"/>
</clipPath>
<clipPath id="clip4_10115_138915">
<rect width="16" height="16" fill="white" transform="translate(96)"/>
</clipPath>
<clipPath id="clip5_10115_138915">
<rect width="16" height="16" fill="white" transform="translate(120)"/>
</clipPath>
<clipPath id="clip6_10115_138915">
<rect width="16" height="16" fill="white" transform="translate(144)"/>
</clipPath>
</defs>
</svg>
