<svg width="160" height="16" viewBox="0 0 160 16" fill="none" xmlns="http://www.w3.org/2000/svg">
<line x1="15" y1="8" x2="152" y2="8" stroke="#D5D4D9" stroke-width="2"/>
<line x1="15" y1="8" x2="80" y2="8" stroke="#343337" stroke-width="2"/>
<g clip-path="url(#clip0_10115_138772)">
<path fill-rule="evenodd" clip-rule="evenodd" d="M11.4712 6.8113L7.74917 10.534C7.62378 10.6585 7.45423 10.7284 7.2775 10.7284C7.10078 10.7284 6.93123 10.6585 6.80584 10.534L4.5285 8.25664C4.46661 8.19474 4.41751 8.12126 4.38401 8.04039C4.35051 7.95951 4.33327 7.87284 4.33327 7.7853C4.33327 7.60852 4.4035 7.43897 4.5285 7.31397C4.65351 7.18896 4.82305 7.11874 4.99984 7.11874C5.17662 7.11874 5.34616 7.18896 5.47117 7.31397L7.27717 9.11997L10.5285 5.86863C10.5904 5.80674 10.6639 5.75764 10.7448 5.72414C10.8256 5.69064 10.9123 5.6734 10.9998 5.6734C11.0874 5.6734 11.174 5.69064 11.2549 5.72414C11.3358 5.75764 11.4093 5.80674 11.4712 5.86863C11.5331 5.93053 11.5822 6.00401 11.6157 6.08489C11.6492 6.16576 11.6664 6.25243 11.6664 6.33997C11.6664 6.4275 11.6492 6.51418 11.6157 6.59505C11.5822 6.67592 11.5331 6.74941 11.4712 6.8113ZM7.99984 0.667969C3.94984 0.667969 0.666504 3.9513 0.666504 8.0013C0.666504 12.0513 3.94984 15.3346 7.99984 15.3346C12.0498 15.3346 15.3332 12.0513 15.3332 8.0013C15.3332 3.9513 12.0498 0.667969 7.99984 0.667969Z" fill="#343337"/>
<path d="M7.74988 10.5324L11.4719 6.80977C11.5338 6.74788 11.5829 6.6744 11.6164 6.59352C11.6499 6.51265 11.6671 6.42598 11.6671 6.33844C11.6671 6.25091 11.6499 6.16423 11.6164 6.08336C11.5829 6.00249 11.5338 5.929 11.4719 5.86711C11.41 5.80521 11.3365 5.75611 11.2556 5.72261C11.1748 5.68912 11.0881 5.67188 11.0006 5.67188C10.913 5.67188 10.8263 5.68912 10.7455 5.72261C10.6646 5.75611 10.5911 5.80521 10.5292 5.86711L7.27788 9.11844L5.47188 7.31244C5.34688 7.18744 5.17733 7.11721 5.00055 7.11721C4.82377 7.11721 4.65422 7.18744 4.52922 7.31244C4.40421 7.43745 4.33398 7.60699 4.33398 7.78377C4.33398 7.87131 4.35123 7.95799 4.38472 8.03886C4.41822 8.11973 4.46732 8.19321 4.52922 8.25511L6.80655 10.5324C6.93194 10.657 7.10149 10.7269 7.27822 10.7269C7.45494 10.7269 7.62449 10.657 7.74988 10.5324Z" fill="#FDC800"/>
</g>
<g clip-path="url(#clip1_10115_138772)">
<path fill-rule="evenodd" clip-rule="evenodd" d="M35.4712 6.8113L31.7492 10.534C31.6238 10.6585 31.4542 10.7284 31.2775 10.7284C31.1008 10.7284 30.9312 10.6585 30.8058 10.534L28.5285 8.25664C28.4666 8.19474 28.4175 8.12126 28.384 8.04039C28.3505 7.95951 28.3333 7.87284 28.3333 7.7853C28.3333 7.60852 28.4035 7.43897 28.5285 7.31397C28.6535 7.18896 28.8231 7.11874 28.9998 7.11874C29.1766 7.11874 29.3462 7.18896 29.4712 7.31397L31.2772 9.11997L34.5285 5.86863C34.5904 5.80674 34.6639 5.75764 34.7448 5.72414C34.8256 5.69064 34.9123 5.6734 34.9998 5.6734C35.0874 5.6734 35.174 5.69064 35.2549 5.72414C35.3358 5.75764 35.4093 5.80674 35.4712 5.86863C35.5331 5.93053 35.5822 6.00401 35.6157 6.08489C35.6492 6.16576 35.6664 6.25243 35.6664 6.33997C35.6664 6.4275 35.6492 6.51418 35.6157 6.59505C35.5822 6.67592 35.5331 6.74941 35.4712 6.8113ZM31.9998 0.667969C27.9498 0.667969 24.6665 3.9513 24.6665 8.0013C24.6665 12.0513 27.9498 15.3346 31.9998 15.3346C36.0498 15.3346 39.3332 12.0513 39.3332 8.0013C39.3332 3.9513 36.0498 0.667969 31.9998 0.667969Z" fill="#343337"/>
<path d="M31.7499 10.5324L35.4719 6.80977C35.5338 6.74788 35.5829 6.6744 35.6164 6.59352C35.6499 6.51265 35.6671 6.42598 35.6671 6.33844C35.6671 6.25091 35.6499 6.16423 35.6164 6.08336C35.5829 6.00249 35.5338 5.929 35.4719 5.86711C35.41 5.80521 35.3365 5.75611 35.2556 5.72261C35.1748 5.68912 35.0881 5.67188 35.0006 5.67188C34.913 5.67188 34.8263 5.68912 34.7455 5.72261C34.6646 5.75611 34.5911 5.80521 34.5292 5.86711L31.2779 9.11844L29.4719 7.31244C29.3469 7.18744 29.1773 7.11721 29.0006 7.11721C28.8238 7.11721 28.6542 7.18744 28.5292 7.31244C28.4042 7.43745 28.334 7.60699 28.334 7.78377C28.334 7.87131 28.3512 7.95799 28.3847 8.03886C28.4182 8.11973 28.4673 8.19321 28.5292 8.25511L30.8066 10.5324C30.9319 10.657 31.1015 10.7269 31.2782 10.7269C31.4549 10.7269 31.6245 10.657 31.7499 10.5324Z" fill="#FDC800"/>
</g>
<g clip-path="url(#clip2_10115_138772)">
<path fill-rule="evenodd" clip-rule="evenodd" d="M59.4712 6.8113L55.7492 10.534C55.6238 10.6585 55.4542 10.7284 55.2775 10.7284C55.1008 10.7284 54.9312 10.6585 54.8058 10.534L52.5285 8.25664C52.4666 8.19474 52.4175 8.12126 52.384 8.04039C52.3505 7.95951 52.3333 7.87284 52.3333 7.7853C52.3333 7.60852 52.4035 7.43897 52.5285 7.31397C52.6535 7.18896 52.8231 7.11874 52.9998 7.11874C53.1766 7.11874 53.3462 7.18896 53.4712 7.31397L55.2772 9.11997L58.5285 5.86863C58.5904 5.80674 58.6639 5.75764 58.7448 5.72414C58.8256 5.69064 58.9123 5.6734 58.9998 5.6734C59.0874 5.6734 59.174 5.69064 59.2549 5.72414C59.3358 5.75764 59.4093 5.80674 59.4712 5.86863C59.5331 5.93053 59.5822 6.00401 59.6157 6.08489C59.6492 6.16576 59.6664 6.25243 59.6664 6.33997C59.6664 6.4275 59.6492 6.51418 59.6157 6.59505C59.5822 6.67592 59.5331 6.74941 59.4712 6.8113ZM55.9998 0.667969C51.9498 0.667969 48.6665 3.9513 48.6665 8.0013C48.6665 12.0513 51.9498 15.3346 55.9998 15.3346C60.0498 15.3346 63.3332 12.0513 63.3332 8.0013C63.3332 3.9513 60.0498 0.667969 55.9998 0.667969Z" fill="#343337"/>
<path d="M55.7499 10.5324L59.4719 6.80977C59.5338 6.74788 59.5829 6.6744 59.6164 6.59352C59.6499 6.51265 59.6671 6.42598 59.6671 6.33844C59.6671 6.25091 59.6499 6.16423 59.6164 6.08336C59.5829 6.00249 59.5338 5.929 59.4719 5.86711C59.41 5.80521 59.3365 5.75611 59.2556 5.72261C59.1748 5.68912 59.0881 5.67188 59.0006 5.67188C58.913 5.67188 58.8263 5.68912 58.7455 5.72261C58.6646 5.75611 58.5911 5.80521 58.5292 5.86711L55.2779 9.11844L53.4719 7.31244C53.3469 7.18744 53.1773 7.11721 53.0006 7.11721C52.8238 7.11721 52.6542 7.18744 52.5292 7.31244C52.4042 7.43745 52.334 7.60699 52.334 7.78377C52.334 7.87131 52.3512 7.95799 52.3847 8.03886C52.4182 8.11973 52.4673 8.19321 52.5292 8.25511L54.8066 10.5324C54.9319 10.657 55.1015 10.7269 55.2782 10.7269C55.4549 10.7269 55.6245 10.657 55.7499 10.5324Z" fill="#FDC800"/>
</g>
<g clip-path="url(#clip3_10115_138772)">
<path d="M73.6665 8.0013C73.6665 4.50359 76.5021 1.66797 79.9998 1.66797C83.4976 1.66797 86.3332 4.50359 86.3332 8.0013C86.3332 11.499 83.4976 14.3346 79.9998 14.3346C76.5021 14.3346 73.6665 11.499 73.6665 8.0013Z" fill="white" stroke="#343337" stroke-width="2"/>
<path fill-rule="evenodd" clip-rule="evenodd" d="M80 4.5C78.067 4.5 76.5 6.06705 76.5 8C76.5 9.93295 78.067 11.5 80 11.5C81.933 11.5 83.5 9.93295 83.5 8C83.5 6.06705 81.933 4.5 80 4.5Z" fill="#343337"/>
</g>
<g clip-path="url(#clip4_10115_138772)">
<path d="M97.6665 8.0013C97.6665 4.50359 100.502 1.66797 104 1.66797C107.498 1.66797 110.333 4.50359 110.333 8.0013C110.333 11.499 107.498 14.3346 104 14.3346C100.502 14.3346 97.6665 11.499 97.6665 8.0013Z" fill="white" stroke="#D5D4D9" stroke-width="2"/>
</g>
<g clip-path="url(#clip5_10115_138772)">
<path d="M121.667 8.0013C121.667 4.50359 124.502 1.66797 128 1.66797C131.498 1.66797 134.333 4.50359 134.333 8.0013C134.333 11.499 131.498 14.3346 128 14.3346C124.502 14.3346 121.667 11.499 121.667 8.0013Z" fill="white" stroke="#D5D4D9" stroke-width="2"/>
</g>
<g clip-path="url(#clip6_10115_138772)">
<path d="M145.667 8.0013C145.667 4.50359 148.502 1.66797 152 1.66797C155.498 1.66797 158.333 4.50359 158.333 8.0013C158.333 11.499 155.498 14.3346 152 14.3346C148.502 14.3346 145.667 11.499 145.667 8.0013Z" fill="white" stroke="#D5D4D9" stroke-width="2"/>
</g>
<defs>
<clipPath id="clip0_10115_138772">
<rect width="16" height="16" fill="white"/>
</clipPath>
<clipPath id="clip1_10115_138772">
<rect width="16" height="16" fill="white" transform="translate(24)"/>
</clipPath>
<clipPath id="clip2_10115_138772">
<rect width="16" height="16" fill="white" transform="translate(48)"/>
</clipPath>
<clipPath id="clip3_10115_138772">
<rect width="16" height="16" fill="white" transform="translate(72)"/>
</clipPath>
<clipPath id="clip4_10115_138772">
<rect width="16" height="16" fill="white" transform="translate(96)"/>
</clipPath>
<clipPath id="clip5_10115_138772">
<rect width="16" height="16" fill="white" transform="translate(120)"/>
</clipPath>
<clipPath id="clip6_10115_138772">
<rect width="16" height="16" fill="white" transform="translate(144)"/>
</clipPath>
</defs>
</svg>
