<svg width="160" height="16" viewBox="0 0 160 16" fill="none" xmlns="http://www.w3.org/2000/svg">
<line x1="15" y1="8" x2="152" y2="8" stroke="#D5D4D9" stroke-width="2"/>
<line x1="15" y1="8" x2="39" y2="8" stroke="#343337" stroke-width="2"/>
<g clip-path="url(#clip0_10115_138452)">
<path fill-rule="evenodd" clip-rule="evenodd" d="M11.4712 6.8113L7.74917 10.534C7.62378 10.6585 7.45423 10.7284 7.2775 10.7284C7.10078 10.7284 6.93123 10.6585 6.80584 10.534L4.5285 8.25664C4.46661 8.19474 4.41751 8.12126 4.38401 8.04039C4.35051 7.95951 4.33327 7.87284 4.33327 7.7853C4.33327 7.60852 4.4035 7.43897 4.5285 7.31397C4.65351 7.18896 4.82305 7.11874 4.99984 7.11874C5.17662 7.11874 5.34616 7.18896 5.47117 7.31397L7.27717 9.11997L10.5285 5.86863C10.5904 5.80674 10.6639 5.75764 10.7448 5.72414C10.8256 5.69064 10.9123 5.6734 10.9998 5.6734C11.0874 5.6734 11.174 5.69064 11.2549 5.72414C11.3358 5.75764 11.4093 5.80674 11.4712 5.86863C11.5331 5.93053 11.5822 6.00401 11.6157 6.08489C11.6492 6.16576 11.6664 6.25243 11.6664 6.33997C11.6664 6.4275 11.6492 6.51418 11.6157 6.59505C11.5822 6.67592 11.5331 6.74941 11.4712 6.8113ZM7.99984 0.667969C3.94984 0.667969 0.666504 3.9513 0.666504 8.0013C0.666504 12.0513 3.94984 15.3346 7.99984 15.3346C12.0498 15.3346 15.3332 12.0513 15.3332 8.0013C15.3332 3.9513 12.0498 0.667969 7.99984 0.667969Z" fill="#343337"/>
<path d="M7.74988 10.5324L11.4719 6.80977C11.5338 6.74788 11.5829 6.6744 11.6164 6.59352C11.6499 6.51265 11.6671 6.42598 11.6671 6.33844C11.6671 6.25091 11.6499 6.16423 11.6164 6.08336C11.5829 6.00249 11.5338 5.929 11.4719 5.86711C11.41 5.80521 11.3365 5.75611 11.2556 5.72261C11.1748 5.68912 11.0881 5.67188 11.0006 5.67188C10.913 5.67188 10.8263 5.68912 10.7455 5.72261C10.6646 5.75611 10.5911 5.80521 10.5292 5.86711L7.27788 9.11844L5.47188 7.31244C5.34688 7.18744 5.17733 7.11721 5.00055 7.11721C4.82377 7.11721 4.65422 7.18744 4.52922 7.31244C4.40421 7.43745 4.33398 7.60699 4.33398 7.78377C4.33398 7.87131 4.35123 7.95799 4.38472 8.03886C4.41822 8.11973 4.46732 8.19321 4.52922 8.25511L6.80655 10.5324C6.93194 10.657 7.10149 10.7269 7.27822 10.7269C7.45494 10.7269 7.62449 10.657 7.74988 10.5324Z" fill="#FDC800"/>
</g>
<g clip-path="url(#clip1_10115_138452)">
<path d="M25.6665 8.0013C25.6665 4.50359 28.5021 1.66797 31.9998 1.66797C35.4976 1.66797 38.3332 4.50359 38.3332 8.0013C38.3332 11.499 35.4976 14.3346 31.9998 14.3346C28.5021 14.3346 25.6665 11.499 25.6665 8.0013Z" fill="white" stroke="#343337" stroke-width="2"/>
<path fill-rule="evenodd" clip-rule="evenodd" d="M32 4.5C30.067 4.5 28.5 6.06705 28.5 8C28.5 9.93295 30.067 11.5 32 11.5C33.933 11.5 35.5 9.93295 35.5 8C35.5 6.06705 33.933 4.5 32 4.5Z" fill="#343337"/>
</g>
<g clip-path="url(#clip2_10115_138452)">
<path d="M49.6665 8.0013C49.6665 4.50359 52.5021 1.66797 55.9998 1.66797C59.4976 1.66797 62.3332 4.50359 62.3332 8.0013C62.3332 11.499 59.4976 14.3346 55.9998 14.3346C52.5021 14.3346 49.6665 11.499 49.6665 8.0013Z" fill="white" stroke="#D5D4D9" stroke-width="2"/>
</g>
<g clip-path="url(#clip3_10115_138452)">
<path d="M73.6665 8.0013C73.6665 4.50359 76.5021 1.66797 79.9998 1.66797C83.4976 1.66797 86.3332 4.50359 86.3332 8.0013C86.3332 11.499 83.4976 14.3346 79.9998 14.3346C76.5021 14.3346 73.6665 11.499 73.6665 8.0013Z" fill="white" stroke="#D5D4D9" stroke-width="2"/>
</g>
<g clip-path="url(#clip4_10115_138452)">
<path d="M97.6665 8.0013C97.6665 4.50359 100.502 1.66797 104 1.66797C107.498 1.66797 110.333 4.50359 110.333 8.0013C110.333 11.499 107.498 14.3346 104 14.3346C100.502 14.3346 97.6665 11.499 97.6665 8.0013Z" fill="white" stroke="#D5D4D9" stroke-width="2"/>
</g>
<g clip-path="url(#clip5_10115_138452)">
<path d="M121.667 8.0013C121.667 4.50359 124.502 1.66797 128 1.66797C131.498 1.66797 134.333 4.50359 134.333 8.0013C134.333 11.499 131.498 14.3346 128 14.3346C124.502 14.3346 121.667 11.499 121.667 8.0013Z" fill="white" stroke="#D5D4D9" stroke-width="2"/>
</g>
<g clip-path="url(#clip6_10115_138452)">
<path d="M145.667 8.0013C145.667 4.50359 148.502 1.66797 152 1.66797C155.498 1.66797 158.333 4.50359 158.333 8.0013C158.333 11.499 155.498 14.3346 152 14.3346C148.502 14.3346 145.667 11.499 145.667 8.0013Z" fill="white" stroke="#D5D4D9" stroke-width="2"/>
</g>
<defs>
<clipPath id="clip0_10115_138452">
<rect width="16" height="16" fill="white"/>
</clipPath>
<clipPath id="clip1_10115_138452">
<rect width="16" height="16" fill="white" transform="translate(24)"/>
</clipPath>
<clipPath id="clip2_10115_138452">
<rect width="16" height="16" fill="white" transform="translate(48)"/>
</clipPath>
<clipPath id="clip3_10115_138452">
<rect width="16" height="16" fill="white" transform="translate(72)"/>
</clipPath>
<clipPath id="clip4_10115_138452">
<rect width="16" height="16" fill="white" transform="translate(96)"/>
</clipPath>
<clipPath id="clip5_10115_138452">
<rect width="16" height="16" fill="white" transform="translate(120)"/>
</clipPath>
<clipPath id="clip6_10115_138452">
<rect width="16" height="16" fill="white" transform="translate(144)"/>
</clipPath>
</defs>
</svg>
