<svg width="20" height="20" viewBox="0 0 20 20" fill="none" xmlns="http://www.w3.org/2000/svg">
<path d="M16.592 12.9243H12.817C12.596 12.9243 12.384 13.0121 12.2277 13.1684C12.0715 13.3247 11.9837 13.5367 11.9837 13.7577C11.9837 13.9787 12.0715 14.1907 12.2277 14.3469C12.384 14.5032 12.596 14.591 12.817 14.591H14.817C13.8978 15.5516 12.7123 16.2154 11.413 16.4972C10.1136 16.7789 8.75967 16.6657 7.52514 16.1721C6.29061 15.6784 5.23188 14.8269 4.48498 13.727C3.73809 12.627 3.33714 11.3289 3.33366 9.99935C3.33366 9.77833 3.24586 9.56637 3.08958 9.41009C2.9333 9.25381 2.72134 9.16602 2.50033 9.16602C2.27931 9.16602 2.06735 9.25381 1.91107 9.41009C1.75479 9.56637 1.66699 9.77833 1.66699 9.99935C1.6714 11.6267 2.15218 13.2171 3.04999 14.5744C3.94781 15.9316 5.22338 16.9963 6.71928 17.637C8.21517 18.2778 9.86594 18.4665 11.4678 18.1799C13.0697 17.8933 14.5527 17.144 15.7337 16.0243V17.4993C15.7337 17.7204 15.8215 17.9323 15.9777 18.0886C16.134 18.2449 16.346 18.3327 16.567 18.3327C16.788 18.3327 17 18.2449 17.1562 18.0886C17.3125 17.9323 17.4003 17.7204 17.4003 17.4993V13.7493C17.3983 13.534 17.313 13.3279 17.1623 13.1741C17.0116 13.0203 16.8072 12.9308 16.592 12.9243ZM10.0003 1.66602C7.86398 1.67211 5.81157 2.49844 4.26699 3.97435V2.49935C4.26699 2.27834 4.17919 2.06637 4.02291 1.91009C3.86663 1.75381 3.65467 1.66602 3.43366 1.66602C3.21264 1.66602 3.00068 1.75381 2.8444 1.91009C2.68812 2.06637 2.60033 2.27834 2.60033 2.49935V6.24935C2.60033 6.47036 2.68812 6.68232 2.8444 6.8386C3.00068 6.99488 3.21264 7.08268 3.43366 7.08268H7.18366C7.40467 7.08268 7.61663 6.99488 7.77291 6.8386C7.92919 6.68232 8.01699 6.47036 8.01699 6.24935C8.01699 6.02834 7.92919 5.81637 7.77291 5.66009C7.61663 5.50381 7.40467 5.41602 7.18366 5.41602H5.18366C6.10238 4.45591 7.28707 3.79227 8.58566 3.51027C9.88425 3.22828 11.2375 3.3408 12.4717 3.8334C13.7058 4.326 14.7647 5.17619 15.5122 6.27485C16.2597 7.37351 16.6619 8.6705 16.667 9.99935C16.667 10.2204 16.7548 10.4323 16.9111 10.5886C17.0673 10.7449 17.2793 10.8327 17.5003 10.8327C17.7213 10.8327 17.9333 10.7449 18.0896 10.5886C18.2459 10.4323 18.3337 10.2204 18.3337 9.99935C18.3337 8.905 18.1181 7.82137 17.6993 6.81032C17.2805 5.79927 16.6667 4.88061 15.8929 4.10679C15.1191 3.33297 14.2004 2.71914 13.1894 2.30035C12.1783 1.88156 11.0947 1.66602 10.0003 1.66602Z" fill="#BDBAC1"/>
</svg>
