<svg width="40" height="40" viewBox="0 0 40 40" fill="none" xmlns="http://www.w3.org/2000/svg">
<rect width="40" height="40" rx="20" fill="#F5F5F5"/>
<path d="M26.9224 15.302C26.9224 15.302 25.1507 12.6283 21.6302 13.9066C20.1775 14.3947 19.4056 14.2092 18.4977 13.861C17.5884 13.5115 15.6801 12.9537 13.6377 15.3944C11.594 17.8365 12.9113 22.1373 13.3878 23.2529C13.8642 24.3685 15.7946 28.9264 18.9064 27.2524C21.5625 25.788 22.835 29.3449 25.3089 26.5079C25.3089 26.5079 26.8078 24.7414 27.3988 22.7186C27.3988 22.7186 24.9919 21.6492 24.9919 18.8128C24.9926 16.2315 26.9224 15.302 26.9224 15.302Z" fill="#F5F5F5"/>
<path d="M23.607 9C23.607 9 19.998 9.23236 19.9512 13.3009C19.9512 13.3009 23.5387 13.3243 23.607 9Z" fill="#F5F5F5"/>
<path d="M26.9224 15.5855C26.9224 15.5855 25.1507 12.9736 21.6302 14.2226C20.1775 14.6996 19.4056 14.5181 18.4977 14.1777C17.5884 13.8366 15.6801 13.2918 13.6377 15.6759C11.594 18.0613 12.9113 22.262 13.3878 23.3515C13.8642 24.441 15.7946 28.8929 18.9064 27.2573C21.5625 25.8274 22.835 29.3016 25.3089 26.5309C25.3089 26.5309 26.8078 24.8055 27.3988 22.8289C27.3988 22.8289 24.9919 21.7849 24.9919 19.0142C24.9926 16.4934 26.9224 15.5855 26.9224 15.5855Z" fill="white"/>
<path d="M23.6051 9.43359C23.6051 9.43359 19.9961 9.66075 19.9492 13.6349C19.9492 13.6342 23.5367 13.657 23.6051 9.43359Z" fill="white"/>
</svg>
