<svg width="40" height="40" viewBox="0 0 40 40" fill="none" xmlns="http://www.w3.org/2000/svg">
<path d="M0 20C0 31.0457 8.95431 40 20 40C31.0457 40 40 31.0457 40 20C40 8.95431 31.0457 0 20 0C8.95431 0 0 8.95431 0 20Z" fill="#F5F5F5"/>
<path d="M20.2022 13.0798C20.9586 13.0798 21.9068 12.5527 22.4714 11.8499C22.9828 11.213 23.3556 10.3236 23.3556 9.43415C23.3556 9.31336 23.345 9.19258 23.3237 9.09375C22.4821 9.12669 21.47 9.67573 20.8627 10.4114C20.3833 10.9715 19.9466 11.8499 19.9466 12.7503C19.9466 12.8821 19.9679 13.0139 19.9785 13.0578C20.0318 13.0688 20.117 13.0798 20.2022 13.0798ZM17.5389 26.3665C18.5723 26.3665 19.0304 25.6527 20.3194 25.6527C21.6298 25.6527 21.9174 26.3445 23.068 26.3445C24.1973 26.3445 24.9537 25.2684 25.6674 24.2142C26.4664 23.0064 26.7967 21.8204 26.818 21.7655C26.7434 21.7436 24.5808 20.8322 24.5808 18.2737C24.5808 16.0555 26.2853 15.0563 26.3812 14.9794C25.252 13.3104 23.5368 13.2664 23.068 13.2664C21.8002 13.2664 20.7669 14.0571 20.117 14.0571C19.4139 14.0571 18.487 13.3104 17.3897 13.3104C15.3017 13.3104 13.1816 15.0892 13.1816 18.4494C13.1816 20.5357 13.97 22.7428 14.9395 24.1703C15.7704 25.3782 16.4949 26.3665 17.5389 26.3665Z" fill="white"/>
</svg>
