<svg width="40" height="40" viewBox="0 0 40 40" fill="none" xmlns="http://www.w3.org/2000/svg">
<g clip-path="url(#clip0_2436_52064)">
<path d="M39.9883 0H0.0117188C0.00524666 0 0 0.00524666 0 0.0117188V39.9883C0 39.9948 0.00524666 40 0.0117188 40H39.9883C39.9948 40 40 39.9948 40 39.9883V0.0117188C40 0.00524666 39.9948 0 39.9883 0Z" fill="#F5F5F5"/>
<path d="M26.9682 27.9834C29.3856 25.7271 30.4601 21.9665 29.8154 18.3672H20.1992V22.3426H25.6788C25.4639 23.6319 24.7118 24.7063 23.6374 25.4047L26.9682 27.9834Z" fill="white"/>
<path d="M11.0664 24.816C11.7731 26.2081 12.7866 27.4216 14.0306 28.3651C15.2745 29.3086 16.7163 29.9574 18.2475 30.2626C19.7786 30.5678 21.359 30.5214 22.8696 30.127C24.3802 29.7325 25.7816 29.0003 26.968 27.9855L23.6373 25.4069C20.79 27.2872 16.0625 26.5888 14.4509 22.1836L11.0664 24.816Z" fill="white"/>
<path d="M14.4509 22.183C14.0212 20.8399 14.0212 19.6043 14.4509 18.2613L11.0665 15.6289C9.83088 18.1001 9.45483 21.592 11.0665 24.8153L14.4509 22.183Z" fill="white"/>
<path d="M14.4509 18.26C15.6327 14.5532 20.6826 12.4044 24.0671 15.5739L27.0217 12.673C22.8315 8.64385 14.6658 8.80501 11.0664 15.6277L14.4509 18.26Z" fill="white"/>
</g>
<defs>
<clipPath id="clip0_2436_52064">
<rect width="40" height="40" rx="20" fill="white"/>
</clipPath>
</defs>
</svg>
