<svg width="40" height="40" viewBox="0 0 40 40" fill="none" xmlns="http://www.w3.org/2000/svg">
<g clip-path="url(#clip0_2436_52149)">
<path d="M39.9883 0H0.0117188C0.00524666 0 0 0.00524666 0 0.0117188V39.9883C0 39.9948 0.00524666 40 0.0117188 40H39.9883C39.9948 40 40 39.9948 40 39.9883V0.0117188C40 0.00524666 39.9948 0 39.9883 0Z" fill="#FFE812"/>
<path d="M20 13C15.5817 13 12 15.8692 12 19.4082C12 21.6962 13.4973 23.7039 15.7497 24.8377C15.6274 25.2669 14.9624 27.5998 14.936 27.7829C14.936 27.7829 14.9201 27.9206 15.0078 27.9731C15.0956 28.0256 15.1986 27.985 15.1986 27.985C15.4504 27.9493 18.1175 26.046 18.579 25.7157C19.0403 25.7819 19.515 25.8164 20 25.8164C24.4183 25.8164 28 22.9475 28 19.4082C28 15.8692 24.4183 13 20 13Z" fill="#422714"/>
</g>
<defs>
<clipPath id="clip0_2436_52149">
<rect width="40" height="40" rx="20" fill="white"/>
</clipPath>
</defs>
</svg>
