<svg width="40" height="40" viewBox="0 0 40 40" fill="none" xmlns="http://www.w3.org/2000/svg">
<g clip-path="url(#clip0_2436_52057)">
<path d="M39.9883 0H0.0117188C0.00524666 0 0 0.00524666 0 0.0117188V39.9883C0 39.9948 0.00524666 40 0.0117188 40H39.9883C39.9948 40 40 39.9948 40 39.9883V0.0117188C40 0.00524666 39.9948 0 39.9883 0Z" fill="#F5F5F5"/>
<path d="M13.0399 14L13 25.9613L17.8462 25.9806L17.8661 21.1419L17.547 19.6323L22.1339 25.9613L27 26L26.9801 14.0387L22.114 14.0194L22.2137 18.9548L22.5328 20.7161L17.8661 14.0194L13.0399 14Z" fill="white"/>
</g>
<defs>
<clipPath id="clip0_2436_52057">
<rect width="40" height="40" rx="20" fill="white"/>
</clipPath>
</defs>
</svg>
