<svg width="11" height="11" viewBox="0 0 11 11" fill="none" xmlns="http://www.w3.org/2000/svg">
<path fill-rule="evenodd" clip-rule="evenodd" d="M6.07733 0.963969L7.24083 3.32147C7.33433 3.51097 7.51533 3.64247 7.72483 3.67297L10.3263 4.05097C10.8533 4.12747 11.0643 4.77597 10.6823 5.14747L8.79983 6.98247C8.72522 7.05524 8.6694 7.14505 8.63718 7.24416C8.60495 7.34328 8.59728 7.44873 8.61483 7.55147L9.05933 10.1425C9.14933 10.668 8.59833 11.068 8.12683 10.8205L5.79983 9.59697C5.70763 9.54845 5.60501 9.52309 5.50083 9.52309C5.39665 9.52309 5.29403 9.54845 5.20183 9.59697L2.87483 10.8205C2.40283 11.068 1.85183 10.668 1.94183 10.1425L2.38633 7.55147C2.40383 7.44873 2.39614 7.34329 2.36392 7.24418C2.3317 7.14507 2.2759 7.05527 2.20133 6.98247L0.31883 5.14747C-0.06267 4.77597 0.14783 4.12747 0.67533 4.05097L3.27633 3.67297C3.48583 3.64247 3.66733 3.51097 3.76083 3.32147L4.92383 0.963969C5.15983 0.485969 5.84133 0.485969 6.07733 0.963969Z" fill="#FDC800"/>
</svg>
