<svg width="112" height="16" viewBox="0 0 112 16" fill="none" xmlns="http://www.w3.org/2000/svg">
<line x1="15" y1="8" x2="111" y2="8.00001" stroke="#D5D4D9" stroke-width="2"/>
<g clip-path="url(#clip0_1996_44546)">
<path d="M1.66675 8.0013C1.66675 4.50359 4.50237 1.66797 8.00008 1.66797C11.4978 1.66797 14.3334 4.50359 14.3334 8.0013C14.3334 11.499 11.4978 14.3346 8.00008 14.3346C4.50237 14.3346 1.66675 11.499 1.66675 8.0013Z" fill="white" stroke="#343337" stroke-width="2"/>
<path fill-rule="evenodd" clip-rule="evenodd" d="M8 4.5C6.06705 4.5 4.5 6.06705 4.5 8C4.5 9.93295 6.06705 11.5 8 11.5C9.93295 11.5 11.5 9.93295 11.5 8C11.5 6.06705 9.93295 4.5 8 4.5Z" fill="#343337"/>
</g>
<g clip-path="url(#clip1_1996_44546)">
<path d="M25.6667 8.0013C25.6667 4.50359 28.5024 1.66797 32.0001 1.66797C35.4978 1.66797 38.3334 4.50359 38.3334 8.0013C38.3334 11.499 35.4978 14.3346 32.0001 14.3346C28.5024 14.3346 25.6667 11.499 25.6667 8.0013Z" fill="white" stroke="#D5D4D9" stroke-width="2"/>
</g>
<g clip-path="url(#clip2_1996_44546)">
<path d="M49.6667 8.0013C49.6667 4.50359 52.5024 1.66797 56.0001 1.66797C59.4978 1.66797 62.3334 4.50359 62.3334 8.0013C62.3334 11.499 59.4978 14.3346 56.0001 14.3346C52.5024 14.3346 49.6667 11.499 49.6667 8.0013Z" fill="white" stroke="#D5D4D9" stroke-width="2"/>
</g>
<g clip-path="url(#clip3_1996_44546)">
<path d="M73.6667 8.0013C73.6667 4.50359 76.5024 1.66797 80.0001 1.66797C83.4978 1.66797 86.3334 4.50359 86.3334 8.0013C86.3334 11.499 83.4978 14.3346 80.0001 14.3346C76.5024 14.3346 73.6667 11.499 73.6667 8.0013Z" fill="white" stroke="#D5D4D9" stroke-width="2"/>
</g>
<g clip-path="url(#clip4_1996_44546)">
<path d="M97.6667 8.0013C97.6667 4.50359 100.502 1.66797 104 1.66797C107.498 1.66797 110.333 4.50359 110.333 8.0013C110.333 11.499 107.498 14.3346 104 14.3346C100.502 14.3346 97.6667 11.499 97.6667 8.0013Z" fill="white" stroke="#D5D4D9" stroke-width="2"/>
</g>
<line x1="15" y1="8" x2="111" y2="8.00001" stroke="#D5D4D9" stroke-width="2"/>
<line x1="15" y1="8" x2="100" y2="8" stroke="#343337" stroke-width="2"/>
<g clip-path="url(#clip5_1996_44546)">
<path fill-rule="evenodd" clip-rule="evenodd" d="M11.4714 6.8113L7.74941 10.534C7.62402 10.6585 7.45447 10.7284 7.27775 10.7284C7.10102 10.7284 6.93147 10.6585 6.80608 10.534L4.52875 8.25664C4.46685 8.19474 4.41775 8.12126 4.38425 8.04039C4.35076 7.95951 4.33352 7.87284 4.33352 7.7853C4.33352 7.60852 4.40374 7.43897 4.52875 7.31397C4.65375 7.18896 4.8233 7.11874 5.00008 7.11874C5.17687 7.11874 5.34641 7.18896 5.47141 7.31397L7.27741 9.11997L10.5287 5.86863C10.5906 5.80674 10.6641 5.75764 10.745 5.72414C10.8259 5.69064 10.9125 5.6734 11.0001 5.6734C11.0876 5.6734 11.1743 5.69064 11.2552 5.72414C11.336 5.75764 11.4095 5.80674 11.4714 5.86863C11.5333 5.93053 11.5824 6.00401 11.6159 6.08489C11.6494 6.16576 11.6666 6.25243 11.6666 6.33997C11.6666 6.4275 11.6494 6.51418 11.6159 6.59505C11.5824 6.67592 11.5333 6.74941 11.4714 6.8113ZM8.00008 0.667969C3.95008 0.667969 0.666748 3.9513 0.666748 8.0013C0.666748 12.0513 3.95008 15.3346 8.00008 15.3346C12.0501 15.3346 15.3334 12.0513 15.3334 8.0013C15.3334 3.9513 12.0501 0.667969 8.00008 0.667969Z" fill="#343337"/>
<path d="M7.74988 10.5324L11.4719 6.80977C11.5338 6.74788 11.5829 6.6744 11.6164 6.59352C11.6499 6.51265 11.6671 6.42598 11.6671 6.33844C11.6671 6.25091 11.6499 6.16423 11.6164 6.08336C11.5829 6.00249 11.5338 5.929 11.4719 5.86711C11.41 5.80521 11.3365 5.75611 11.2556 5.72261C11.1748 5.68912 11.0881 5.67188 11.0006 5.67188C10.913 5.67188 10.8263 5.68912 10.7455 5.72261C10.6646 5.75611 10.5911 5.80521 10.5292 5.86711L7.27788 9.11844L5.47188 7.31244C5.34688 7.18744 5.17733 7.11721 5.00055 7.11721C4.82377 7.11721 4.65422 7.18744 4.52922 7.31244C4.40421 7.43745 4.33398 7.60699 4.33398 7.78377C4.33398 7.87131 4.35123 7.95799 4.38472 8.03886C4.41822 8.11973 4.46732 8.19321 4.52922 8.25511L6.80655 10.5324C6.93194 10.657 7.10149 10.7269 7.27822 10.7269C7.45494 10.7269 7.62449 10.657 7.74988 10.5324Z" fill="#FDC800"/>
</g>
<g clip-path="url(#clip6_1996_44546)">
<path fill-rule="evenodd" clip-rule="evenodd" d="M35.4714 6.8113L31.7494 10.534C31.624 10.6585 31.4545 10.7284 31.2777 10.7284C31.101 10.7284 30.9315 10.6585 30.8061 10.534L28.5287 8.25664C28.4669 8.19474 28.4178 8.12126 28.3843 8.04039C28.3508 7.95951 28.3335 7.87284 28.3335 7.7853C28.3335 7.60852 28.4037 7.43897 28.5287 7.31397C28.6538 7.18896 28.8233 7.11874 29.0001 7.11874C29.1769 7.11874 29.3464 7.18896 29.4714 7.31397L31.2774 9.11997L34.5287 5.86863C34.5906 5.80674 34.6641 5.75764 34.745 5.72414C34.8259 5.69064 34.9125 5.6734 35.0001 5.6734C35.0876 5.6734 35.1743 5.69064 35.2552 5.72414C35.336 5.75764 35.4095 5.80674 35.4714 5.86863C35.5333 5.93053 35.5824 6.00401 35.6159 6.08489C35.6494 6.16576 35.6666 6.25243 35.6666 6.33997C35.6666 6.4275 35.6494 6.51418 35.6159 6.59505C35.5824 6.67592 35.5333 6.74941 35.4714 6.8113ZM32.0001 0.667969C27.9501 0.667969 24.6667 3.9513 24.6667 8.0013C24.6667 12.0513 27.9501 15.3346 32.0001 15.3346C36.0501 15.3346 39.3334 12.0513 39.3334 8.0013C39.3334 3.9513 36.0501 0.667969 32.0001 0.667969Z" fill="#343337"/>
<path d="M31.7499 10.5324L35.4719 6.80977C35.5338 6.74788 35.5829 6.6744 35.6164 6.59352C35.6499 6.51265 35.6671 6.42598 35.6671 6.33844C35.6671 6.25091 35.6499 6.16423 35.6164 6.08336C35.5829 6.00249 35.5338 5.929 35.4719 5.86711C35.41 5.80521 35.3365 5.75611 35.2556 5.72261C35.1748 5.68912 35.0881 5.67188 35.0006 5.67188C34.913 5.67188 34.8263 5.68912 34.7455 5.72261C34.6646 5.75611 34.5911 5.80521 34.5292 5.86711L31.2779 9.11844L29.4719 7.31244C29.3469 7.18744 29.1773 7.11721 29.0006 7.11721C28.8238 7.11721 28.6542 7.18744 28.5292 7.31244C28.4042 7.43745 28.334 7.60699 28.334 7.78377C28.334 7.87131 28.3512 7.95799 28.3847 8.03886C28.4182 8.11973 28.4673 8.19321 28.5292 8.25511L30.8066 10.5324C30.9319 10.657 31.1015 10.7269 31.2782 10.7269C31.4549 10.7269 31.6245 10.657 31.7499 10.5324Z" fill="#FDC800"/>
</g>
<g clip-path="url(#clip7_1996_44546)">
<path fill-rule="evenodd" clip-rule="evenodd" d="M59.4714 6.8113L55.7494 10.534C55.624 10.6585 55.4545 10.7284 55.2777 10.7284C55.101 10.7284 54.9315 10.6585 54.8061 10.534L52.5287 8.25664C52.4669 8.19474 52.4178 8.12126 52.3843 8.04039C52.3508 7.95951 52.3335 7.87284 52.3335 7.7853C52.3335 7.60852 52.4037 7.43897 52.5287 7.31397C52.6538 7.18896 52.8233 7.11874 53.0001 7.11874C53.1769 7.11874 53.3464 7.18896 53.4714 7.31397L55.2774 9.11997L58.5287 5.86863C58.5906 5.80674 58.6641 5.75764 58.745 5.72414C58.8259 5.69064 58.9125 5.6734 59.0001 5.6734C59.0876 5.6734 59.1743 5.69064 59.2552 5.72414C59.336 5.75764 59.4095 5.80674 59.4714 5.86863C59.5333 5.93053 59.5824 6.00401 59.6159 6.08489C59.6494 6.16576 59.6666 6.25243 59.6666 6.33997C59.6666 6.4275 59.6494 6.51418 59.6159 6.59505C59.5824 6.67592 59.5333 6.74941 59.4714 6.8113ZM56.0001 0.667969C51.9501 0.667969 48.6667 3.9513 48.6667 8.0013C48.6667 12.0513 51.9501 15.3346 56.0001 15.3346C60.0501 15.3346 63.3334 12.0513 63.3334 8.0013C63.3334 3.9513 60.0501 0.667969 56.0001 0.667969Z" fill="#343337"/>
<path d="M55.7499 10.5324L59.4719 6.80977C59.5338 6.74788 59.5829 6.6744 59.6164 6.59352C59.6499 6.51265 59.6671 6.42598 59.6671 6.33844C59.6671 6.25091 59.6499 6.16423 59.6164 6.08336C59.5829 6.00249 59.5338 5.929 59.4719 5.86711C59.41 5.80521 59.3365 5.75611 59.2556 5.72261C59.1748 5.68912 59.0881 5.67188 59.0006 5.67188C58.913 5.67188 58.8263 5.68912 58.7455 5.72261C58.6646 5.75611 58.5911 5.80521 58.5292 5.86711L55.2779 9.11844L53.4719 7.31244C53.3469 7.18744 53.1773 7.11721 53.0006 7.11721C52.8238 7.11721 52.6542 7.18744 52.5292 7.31244C52.4042 7.43745 52.334 7.60699 52.334 7.78377C52.334 7.87131 52.3512 7.95799 52.3847 8.03886C52.4182 8.11973 52.4673 8.19321 52.5292 8.25511L54.8066 10.5324C54.9319 10.657 55.1015 10.7269 55.2782 10.7269C55.4549 10.7269 55.6245 10.657 55.7499 10.5324Z" fill="#FDC800"/>
</g>
<g clip-path="url(#clip8_1996_44546)">
<path fill-rule="evenodd" clip-rule="evenodd" d="M83.4714 6.8113L79.7494 10.534C79.624 10.6585 79.4545 10.7284 79.2777 10.7284C79.101 10.7284 78.9315 10.6585 78.8061 10.534L76.5287 8.25664C76.4669 8.19474 76.4178 8.12126 76.3843 8.04039C76.3508 7.95951 76.3335 7.87284 76.3335 7.7853C76.3335 7.60852 76.4037 7.43897 76.5287 7.31397C76.6538 7.18896 76.8233 7.11874 77.0001 7.11874C77.1769 7.11874 77.3464 7.18896 77.4714 7.31397L79.2774 9.11997L82.5287 5.86863C82.5906 5.80674 82.6641 5.75764 82.745 5.72414C82.8259 5.69064 82.9125 5.6734 83.0001 5.6734C83.0876 5.6734 83.1743 5.69064 83.2552 5.72414C83.336 5.75764 83.4095 5.80674 83.4714 5.86863C83.5333 5.93053 83.5824 6.00401 83.6159 6.08489C83.6494 6.16576 83.6666 6.25243 83.6666 6.33997C83.6666 6.4275 83.6494 6.51418 83.6159 6.59505C83.5824 6.67592 83.5333 6.74941 83.4714 6.8113ZM80.0001 0.667969C75.9501 0.667969 72.6667 3.9513 72.6667 8.0013C72.6667 12.0513 75.9501 15.3346 80.0001 15.3346C84.0501 15.3346 87.3334 12.0513 87.3334 8.0013C87.3334 3.9513 84.0501 0.667969 80.0001 0.667969Z" fill="#343337"/>
<path d="M79.7499 10.5324L83.4719 6.80977C83.5338 6.74788 83.5829 6.6744 83.6164 6.59352C83.6499 6.51265 83.6671 6.42598 83.6671 6.33844C83.6671 6.25091 83.6499 6.16423 83.6164 6.08336C83.5829 6.00249 83.5338 5.929 83.4719 5.86711C83.41 5.80521 83.3365 5.75611 83.2556 5.72261C83.1748 5.68912 83.0881 5.67188 83.0006 5.67188C82.913 5.67188 82.8263 5.68912 82.7455 5.72261C82.6646 5.75611 82.5911 5.80521 82.5292 5.86711L79.2779 9.11844L77.4719 7.31244C77.3469 7.18744 77.1773 7.11721 77.0006 7.11721C76.8238 7.11721 76.6542 7.18744 76.5292 7.31244C76.4042 7.43745 76.334 7.60699 76.334 7.78377C76.334 7.87131 76.3512 7.95799 76.3847 8.03886C76.4182 8.11973 76.4673 8.19321 76.5292 8.25511L78.8066 10.5324C78.9319 10.657 79.1015 10.7269 79.2782 10.7269C79.4549 10.7269 79.6245 10.657 79.7499 10.5324Z" fill="#FDC800"/>
</g>
<g clip-path="url(#clip9_1996_44546)">
<path d="M97.6667 8.0013C97.6667 4.50359 100.502 1.66797 104 1.66797C107.498 1.66797 110.333 4.50359 110.333 8.0013C110.333 11.499 107.498 14.3346 104 14.3346C100.502 14.3346 97.6667 11.499 97.6667 8.0013Z" fill="white" stroke="#343337" stroke-width="2"/>
<path fill-rule="evenodd" clip-rule="evenodd" d="M104 4.5C102.067 4.5 100.5 6.06705 100.5 8C100.5 9.93295 102.067 11.5 104 11.5C105.933 11.5 107.5 9.93295 107.5 8C107.5 6.06705 105.933 4.5 104 4.5Z" fill="#343337"/>
</g>
<defs>
<clipPath id="clip0_1996_44546">
<rect width="16" height="16" fill="white"/>
</clipPath>
<clipPath id="clip1_1996_44546">
<rect width="16" height="16" fill="white" transform="translate(24)"/>
</clipPath>
<clipPath id="clip2_1996_44546">
<rect width="16" height="16" fill="white" transform="translate(48)"/>
</clipPath>
<clipPath id="clip3_1996_44546">
<rect width="16" height="16" fill="white" transform="translate(72)"/>
</clipPath>
<clipPath id="clip4_1996_44546">
<rect width="16" height="16" fill="white" transform="translate(96)"/>
</clipPath>
<clipPath id="clip5_1996_44546">
<rect width="16" height="16" fill="white"/>
</clipPath>
<clipPath id="clip6_1996_44546">
<rect width="16" height="16" fill="white" transform="translate(24)"/>
</clipPath>
<clipPath id="clip7_1996_44546">
<rect width="16" height="16" fill="white" transform="translate(48)"/>
</clipPath>
<clipPath id="clip8_1996_44546">
<rect width="16" height="16" fill="white" transform="translate(72)"/>
</clipPath>
<clipPath id="clip9_1996_44546">
<rect width="16" height="16" fill="white" transform="translate(96)"/>
</clipPath>
</defs>
</svg>
