<svg width="112" height="16" viewBox="0 0 112 16" fill="none" xmlns="http://www.w3.org/2000/svg">
<line x1="15" y1="8" x2="111" y2="8.00001" stroke="#D5D4D9" stroke-width="2"/>
<line x1="15" y1="8" x2="86" y2="8" stroke="#343337" stroke-width="2"/>
<g clip-path="url(#clip0_1335_41832)">
<path fill-rule="evenodd" clip-rule="evenodd" d="M11.4707 6.8113L7.74868 10.534C7.62329 10.6585 7.45374 10.7284 7.27702 10.7284C7.10029 10.7284 6.93074 10.6585 6.80535 10.534L4.52802 8.25664C4.46612 8.19474 4.41702 8.12126 4.38352 8.04039C4.35002 7.95951 4.33278 7.87284 4.33278 7.7853C4.33278 7.60852 4.40301 7.43897 4.52802 7.31397C4.65302 7.18896 4.82256 7.11874 4.99935 7.11874C5.17613 7.11874 5.34568 7.18896 5.47068 7.31397L7.27668 9.11997L10.528 5.86863C10.5899 5.80674 10.6634 5.75764 10.7443 5.72414C10.8251 5.69064 10.9118 5.6734 10.9993 5.6734C11.0869 5.6734 11.1736 5.69064 11.2544 5.72414C11.3353 5.75764 11.4088 5.80674 11.4707 5.86863C11.5326 5.93053 11.5817 6.00401 11.6152 6.08489C11.6487 6.16576 11.6659 6.25243 11.6659 6.33997C11.6659 6.4275 11.6487 6.51418 11.6152 6.59505C11.5817 6.67592 11.5326 6.74941 11.4707 6.8113ZM7.99935 0.667969C3.94935 0.667969 0.666016 3.9513 0.666016 8.0013C0.666016 12.0513 3.94935 15.3346 7.99935 15.3346C12.0493 15.3346 15.3327 12.0513 15.3327 8.0013C15.3327 3.9513 12.0493 0.667969 7.99935 0.667969Z" fill="#343337"/>
<path d="M7.74988 10.5324L11.4719 6.80977C11.5338 6.74788 11.5829 6.6744 11.6164 6.59352C11.6499 6.51265 11.6671 6.42598 11.6671 6.33844C11.6671 6.25091 11.6499 6.16423 11.6164 6.08336C11.5829 6.00249 11.5338 5.929 11.4719 5.86711C11.41 5.80521 11.3365 5.75611 11.2556 5.72261C11.1748 5.68912 11.0881 5.67188 11.0006 5.67188C10.913 5.67188 10.8263 5.68912 10.7455 5.72261C10.6646 5.75611 10.5911 5.80521 10.5292 5.86711L7.27788 9.11844L5.47188 7.31244C5.34688 7.18744 5.17733 7.11721 5.00055 7.11721C4.82377 7.11721 4.65422 7.18744 4.52922 7.31244C4.40421 7.43745 4.33398 7.60699 4.33398 7.78377C4.33398 7.87131 4.35123 7.95799 4.38472 8.03886C4.41822 8.11973 4.46732 8.19321 4.52922 8.25511L6.80655 10.5324C6.93194 10.657 7.10149 10.7269 7.27822 10.7269C7.45494 10.7269 7.62449 10.657 7.74988 10.5324Z" fill="#FDC800"/>
</g>
<g clip-path="url(#clip1_1335_41832)">
<path fill-rule="evenodd" clip-rule="evenodd" d="M35.4707 6.8113L31.7487 10.534C31.6233 10.6585 31.4537 10.7284 31.277 10.7284C31.1003 10.7284 30.9307 10.6585 30.8053 10.534L28.528 8.25664C28.4661 8.19474 28.417 8.12126 28.3835 8.04039C28.35 7.95951 28.3328 7.87284 28.3328 7.7853C28.3328 7.60852 28.403 7.43897 28.528 7.31397C28.653 7.18896 28.8226 7.11874 28.9993 7.11874C29.1761 7.11874 29.3457 7.18896 29.4707 7.31397L31.2767 9.11997L34.528 5.86863C34.5899 5.80674 34.6634 5.75764 34.7443 5.72414C34.8251 5.69064 34.9118 5.6734 34.9993 5.6734C35.0869 5.6734 35.1736 5.69064 35.2544 5.72414C35.3353 5.75764 35.4088 5.80674 35.4707 5.86863C35.5326 5.93053 35.5817 6.00401 35.6152 6.08489C35.6487 6.16576 35.6659 6.25243 35.6659 6.33997C35.6659 6.4275 35.6487 6.51418 35.6152 6.59505C35.5817 6.67592 35.5326 6.74941 35.4707 6.8113ZM31.9993 0.667969C27.9493 0.667969 24.666 3.9513 24.666 8.0013C24.666 12.0513 27.9493 15.3346 31.9993 15.3346C36.0493 15.3346 39.3327 12.0513 39.3327 8.0013C39.3327 3.9513 36.0493 0.667969 31.9993 0.667969Z" fill="#343337"/>
<path d="M31.7499 10.5324L35.4719 6.80977C35.5338 6.74788 35.5829 6.6744 35.6164 6.59352C35.6499 6.51265 35.6671 6.42598 35.6671 6.33844C35.6671 6.25091 35.6499 6.16423 35.6164 6.08336C35.5829 6.00249 35.5338 5.929 35.4719 5.86711C35.41 5.80521 35.3365 5.75611 35.2556 5.72261C35.1748 5.68912 35.0881 5.67188 35.0006 5.67188C34.913 5.67188 34.8263 5.68912 34.7455 5.72261C34.6646 5.75611 34.5911 5.80521 34.5292 5.86711L31.2779 9.11844L29.4719 7.31244C29.3469 7.18744 29.1773 7.11721 29.0006 7.11721C28.8238 7.11721 28.6542 7.18744 28.5292 7.31244C28.4042 7.43745 28.334 7.60699 28.334 7.78377C28.334 7.87131 28.3512 7.95799 28.3847 8.03886C28.4182 8.11973 28.4673 8.19321 28.5292 8.25511L30.8066 10.5324C30.9319 10.657 31.1015 10.7269 31.2782 10.7269C31.4549 10.7269 31.6245 10.657 31.7499 10.5324Z" fill="#FDC800"/>
</g>
<g clip-path="url(#clip2_1335_41832)">
<path fill-rule="evenodd" clip-rule="evenodd" d="M59.4707 6.8113L55.7487 10.534C55.6233 10.6585 55.4537 10.7284 55.277 10.7284C55.1003 10.7284 54.9307 10.6585 54.8053 10.534L52.528 8.25664C52.4661 8.19474 52.417 8.12126 52.3835 8.04039C52.35 7.95951 52.3328 7.87284 52.3328 7.7853C52.3328 7.60852 52.403 7.43897 52.528 7.31397C52.653 7.18896 52.8226 7.11874 52.9993 7.11874C53.1761 7.11874 53.3457 7.18896 53.4707 7.31397L55.2767 9.11997L58.528 5.86863C58.5899 5.80674 58.6634 5.75764 58.7443 5.72414C58.8251 5.69064 58.9118 5.6734 58.9993 5.6734C59.0869 5.6734 59.1736 5.69064 59.2544 5.72414C59.3353 5.75764 59.4088 5.80674 59.4707 5.86863C59.5326 5.93053 59.5817 6.00401 59.6152 6.08489C59.6487 6.16576 59.6659 6.25243 59.6659 6.33997C59.6659 6.4275 59.6487 6.51418 59.6152 6.59505C59.5817 6.67592 59.5326 6.74941 59.4707 6.8113ZM55.9993 0.667969C51.9493 0.667969 48.666 3.9513 48.666 8.0013C48.666 12.0513 51.9493 15.3346 55.9993 15.3346C60.0493 15.3346 63.3327 12.0513 63.3327 8.0013C63.3327 3.9513 60.0493 0.667969 55.9993 0.667969Z" fill="#343337"/>
<path d="M55.7499 10.5324L59.4719 6.80977C59.5338 6.74788 59.5829 6.6744 59.6164 6.59352C59.6499 6.51265 59.6671 6.42598 59.6671 6.33844C59.6671 6.25091 59.6499 6.16423 59.6164 6.08336C59.5829 6.00249 59.5338 5.929 59.4719 5.86711C59.41 5.80521 59.3365 5.75611 59.2556 5.72261C59.1748 5.68912 59.0881 5.67188 59.0006 5.67188C58.913 5.67188 58.8263 5.68912 58.7455 5.72261C58.6646 5.75611 58.5911 5.80521 58.5292 5.86711L55.2779 9.11844L53.4719 7.31244C53.3469 7.18744 53.1773 7.11721 53.0006 7.11721C52.8238 7.11721 52.6542 7.18744 52.5292 7.31244C52.4042 7.43745 52.334 7.60699 52.334 7.78377C52.334 7.87131 52.3512 7.95799 52.3847 8.03886C52.4182 8.11973 52.4673 8.19321 52.5292 8.25511L54.8066 10.5324C54.9319 10.657 55.1015 10.7269 55.2782 10.7269C55.4549 10.7269 55.6245 10.657 55.7499 10.5324Z" fill="#FDC800"/>
</g>
<g clip-path="url(#clip3_1335_41832)">
<path d="M73.666 8.0013C73.666 4.50359 76.5016 1.66797 79.9993 1.66797C83.4971 1.66797 86.3327 4.50359 86.3327 8.0013C86.3327 11.499 83.4971 14.3346 79.9993 14.3346C76.5016 14.3346 73.666 11.499 73.666 8.0013Z" fill="white" stroke="#343337" stroke-width="2"/>
<path fill-rule="evenodd" clip-rule="evenodd" d="M80 4.5C78.067 4.5 76.5 6.06705 76.5 8C76.5 9.93295 78.067 11.5 80 11.5C81.933 11.5 83.5 9.93295 83.5 8C83.5 6.06705 81.933 4.5 80 4.5Z" fill="#343337"/>
</g>
<g clip-path="url(#clip4_1335_41832)">
<path d="M97.666 8.0013C97.666 4.50359 100.502 1.66797 103.999 1.66797C107.497 1.66797 110.333 4.50359 110.333 8.0013C110.333 11.499 107.497 14.3346 103.999 14.3346C100.502 14.3346 97.666 11.499 97.666 8.0013Z" fill="white" stroke="#D5D4D9" stroke-width="2"/>
</g>
<defs>
<clipPath id="clip0_1335_41832">
<rect width="16" height="16" fill="white"/>
</clipPath>
<clipPath id="clip1_1335_41832">
<rect width="16" height="16" fill="white" transform="translate(24)"/>
</clipPath>
<clipPath id="clip2_1335_41832">
<rect width="16" height="16" fill="white" transform="translate(48)"/>
</clipPath>
<clipPath id="clip3_1335_41832">
<rect width="16" height="16" fill="white" transform="translate(72)"/>
</clipPath>
<clipPath id="clip4_1335_41832">
<rect width="16" height="16" fill="white" transform="translate(96)"/>
</clipPath>
</defs>
</svg>
