<svg width="20" height="20" viewBox="0 0 20 20" fill="none" xmlns="http://www.w3.org/2000/svg">
<path d="M12.316 3.89156C11.5593 3.7099 10.786 3.60156 10.0001 3.60156C6.49012 3.60156 3.17095 5.48573 0.985117 8.6249C0.415117 9.44323 0.415117 10.5541 0.985117 11.3724C1.51845 12.1382 2.12095 12.8257 2.77512 13.4332L12.316 3.89156Z" fill="#E4E3E7"/>
<path d="M19.0159 8.62662C18.1409 7.36995 17.0784 6.32578 15.8993 5.51578L18.0401 3.37495C18.431 2.98411 18.431 2.35078 18.0401 1.96078C17.6493 1.57078 17.0159 1.56995 16.6259 1.96078L1.96012 16.6249C1.56928 17.0158 1.56928 17.6491 1.96012 18.0391C2.15512 18.2341 2.41178 18.3324 2.66762 18.3324C2.92345 18.3324 3.17928 18.2349 3.37512 18.0391L5.91178 15.5024C7.20262 16.0783 8.58345 16.3966 10.0001 16.3966C13.5109 16.3966 16.8301 14.5124 19.0159 11.3733C19.5851 10.5558 19.5851 9.44495 19.0159 8.62662ZM9.99928 13.3116C9.45012 13.3116 8.93762 13.1691 8.48345 12.9299L12.9293 8.48411C13.1684 8.93828 13.3109 9.44995 13.3109 9.99911C13.3109 11.8266 11.8251 13.3116 9.99928 13.3116Z" fill="#E4E3E7"/>
</svg>
