<svg width="20" height="20" viewBox="0 0 20 20" fill="none" xmlns="http://www.w3.org/2000/svg">
<path fill-rule="evenodd" clip-rule="evenodd" d="M10.1042 7.6875C8.77083 7.6875 7.6875 8.77083 7.6875 10.1042C7.6875 11.4375 8.77083 12.5208 10.1042 12.5208C11.4375 12.5208 12.5208 11.4375 12.5208 10.1042C12.5208 8.77083 11.4375 7.6875 10.1042 7.6875Z" fill="#BDBAC1"/>
<path fill-rule="evenodd" clip-rule="evenodd" d="M10.1042 14.2708C7.77083 14.2708 5.9375 12.3542 5.9375 10.1042C5.9375 7.85417 7.85417 5.9375 10.1042 5.9375C12.3542 5.9375 14.2708 7.85417 14.2708 10.1042C14.2708 12.3542 12.4375 14.2708 10.1042 14.2708ZM19.2708 9.02083C17.1042 5.6875 13.6875 3.6875 10.1042 3.6875C6.52083 3.6875 3.10417 5.6875 0.9375 9.02083C0.520833 9.6875 0.520833 10.5208 0.9375 11.1875C3.10417 14.5208 6.52083 16.5208 10.1042 16.5208C13.6875 16.5208 17.1042 14.5208 19.2708 11.1875C19.7708 10.5208 19.7708 9.6875 19.2708 9.02083Z" fill="#BDBAC1"/>
</svg>

