<svg width="107" height="107" viewBox="0 0 107 107" fill="none" xmlns="http://www.w3.org/2000/svg">
<g clip-path="url(#clip0_14421_241221)">
<rect width="107" height="107" rx="7" fill="#F5F5F5"/>
<path d="M54.0938 79.25C67.9866 79.25 79.25 67.9866 79.25 54.0938C79.25 40.2009 67.9866 28.9375 54.0938 28.9375C40.2009 28.9375 28.9375 40.2009 28.9375 54.0938C28.9375 67.9866 40.2009 79.25 54.0938 79.25Z" fill="#D5D4D9"/>
<path d="M54.0938 71.5938C58.735 71.5938 63.1862 69.75 66.4681 66.4681C69.75 63.1862 71.5938 58.735 71.5938 54.0938C71.5938 49.4525 69.75 45.0013 66.4681 41.7194C63.1862 38.4375 58.735 36.5938 54.0938 36.5938C49.4525 36.5938 45.0013 38.4375 41.7194 41.7194C38.4375 45.0013 36.5938 49.4525 36.5938 54.0938C36.5938 58.735 38.4375 63.1862 41.7194 66.4681C45.0013 69.75 49.4525 71.5938 54.0938 71.5938Z" fill="#E4E3E7"/>
<path d="M32.9188 31.8032C32.5242 31.8032 32.1459 31.96 31.8669 32.2389C31.588 32.5179 31.4313 32.8962 31.4313 33.2907V39.1751C31.4313 39.6126 31.0813 39.9407 30.6656 39.9407C30.2281 39.9407 29.9 39.5907 29.9 39.1751V33.3564C29.9 32.547 29.2656 31.8251 28.4563 31.8032C27.6031 31.7814 26.9031 32.4595 26.9031 33.2907V39.1751C26.9031 39.6126 26.5531 39.9407 26.1375 39.9407C25.7 39.9407 25.3719 39.5907 25.3719 39.1751V33.3564C25.3719 32.547 24.7375 31.8251 23.9281 31.8032C23.075 31.7814 22.375 32.4595 22.375 33.2907V43.3095C22.375 45.2826 23.3309 47.0436 24.8009 48.1417C26.1156 48.8833 26.1156 52.2782 26.1156 52.2782V74.197C26.1156 75.3345 27.0344 76.2532 28.1719 76.2532H28.675C29.8125 76.2532 30.7313 75.3345 30.7313 74.197V52.2782C30.7313 52.2782 30.7313 49.0167 32.0459 48.1417C32.7985 47.5806 33.4096 46.8516 33.8308 46.0127C34.2519 45.1738 34.4715 44.2482 34.4719 43.3095V33.2907C34.4497 32.8921 34.277 32.5168 33.9887 32.2407C33.7004 31.9645 33.318 31.8082 32.9188 31.8032ZM80.0375 31.8032C82.0063 31.8032 83.6031 33.4001 83.6031 35.3689V74.2189C83.6031 75.3564 82.6844 76.2751 81.5469 76.2751H81.0438C79.9063 76.2751 78.9875 75.3564 78.9875 74.2189V55.3692C77.7771 54.8196 76.7512 53.932 76.0333 52.8132C75.3153 51.6944 74.9359 50.392 74.9406 49.0626V36.922C74.9354 36.2502 75.0635 35.584 75.3176 34.9621C75.5716 34.3401 75.9465 33.7747 76.4205 33.2986C76.8946 32.8226 77.4583 32.4453 78.0792 32.1886C78.7001 31.9319 79.3657 31.8009 80.0375 31.8032Z" fill="#E4E3E7"/>
</g>
<defs>
<clipPath id="clip0_14421_241221">
<rect width="107" height="107" fill="white"/>
</clipPath>
</defs>
</svg>
