<svg width="16" height="16" viewBox="0 0 16 16" fill="none" xmlns="http://www.w3.org/2000/svg">
<rect width="16" height="16" rx="8" fill="#FDC800"/>
<path d="M7.99414 12.1172C9.82812 12.1172 11.1699 11.0801 11.1582 9.64453C11.1699 8.57812 10.4902 7.81055 9.29492 7.65234V7.58203C10.2207 7.38867 10.8535 6.70312 10.8418 5.75391C10.8535 4.45312 9.74023 3.39844 8.01758 3.39844C6.35938 3.39844 5.06445 4.37695 5.0293 5.80078H6.49414C6.52344 5.08594 7.20898 4.64062 8.00586 4.64062C8.83203 4.64062 9.37109 5.12109 9.36523 5.83594C9.37109 6.57422 8.74414 7.07812 7.8418 7.07812H7.08008V8.25H7.8418C8.94336 8.25586 9.59961 8.80078 9.59961 9.5625C9.59961 10.3184 8.92578 10.834 7.99414 10.8281C7.10938 10.834 6.42969 10.3828 6.38867 9.70312H4.85352C4.88867 11.1328 6.18359 12.1172 7.99414 12.1172Z" fill="#1D1C21"/>
</svg>
