<svg width="24" height="24" viewBox="0 0 24 24" fill="none" xmlns="http://www.w3.org/2000/svg">
<path d="M5.6875 6.14062H19.5896C19.8713 6.14064 20.1499 6.19967 20.4074 6.31393C20.6649 6.42819 20.8955 6.59513 21.0846 6.80399C21.2736 7.01286 21.4167 7.25901 21.5048 7.52658C21.5928 7.79416 21.6239 8.07721 21.5958 8.35751L20.991 14.4063C20.9412 14.9038 20.7084 15.3651 20.3376 15.7006C19.9669 16.0361 19.4848 16.2219 18.9848 16.222H9.3571C8.89081 16.2221 8.43887 16.0607 8.07823 15.7651C7.71759 15.4696 7.47054 15.0581 7.37915 14.6009L5.6875 6.14062Z" stroke="#343337" stroke-width="2" stroke-linejoin="round"/>
<path d="M5.79532 6.13887C5.79532 6.13887 5.94231 6.72957 5.37912 4.48193C4.81594 2.2343 3.12637 2.51078 2 2.51078" stroke="#343337" stroke-width="2.25275" stroke-linecap="round" stroke-linejoin="round"/>
<circle cx="7.80709" cy="20.5258" r="1.97116" fill="#343337"/>
<circle cx="19.6352" cy="20.5258" r="1.97116" fill="#343337"/>
</svg>
