<svg width="22" height="23" viewBox="0 0 22 23" fill="none" xmlns="http://www.w3.org/2000/svg">
<path fill-rule="evenodd" clip-rule="evenodd" d="M1.1014 2.71495C1.267 2.71495 1.41589 2.71224 1.55187 2.70977H1.55187C1.99911 2.70163 2.30681 2.69604 2.61077 2.79766C2.76154 2.84807 2.88042 2.9213 2.98484 3.04003C3.09434 3.16453 3.23236 3.39018 3.33722 3.8087C3.57486 4.75707 3.68338 5.18942 3.72997 5.37451C3.73023 5.37585 3.73049 5.37719 3.73076 5.37853L5.38488 13.6511L5.3849 13.6512C5.5242 14.348 5.90072 14.9751 6.45034 15.4255C6.99988 15.8759 7.6885 16.1219 8.39902 16.1218H8.39945H17.8132H17.8132C18.5753 16.1217 19.3101 15.8386 19.8751 15.3272C20.4401 14.8159 20.795 14.1128 20.8708 13.3546L21.4623 7.4399C21.505 7.01271 21.4577 6.5813 21.3235 6.1735C21.1893 5.76569 20.9711 5.39053 20.6831 5.07221C20.395 4.75388 20.0434 4.49945 19.651 4.32531C19.2586 4.15118 18.834 4.0612 18.4047 4.06118H18.4047H5.67144C5.61841 3.8497 5.55343 3.59043 5.47396 3.2733C5.30348 2.59292 5.02848 2.02819 4.63891 1.58525C4.24426 1.13654 3.77802 0.865267 3.30925 0.708539C2.60097 0.471732 1.79993 0.494261 1.33016 0.507473C1.24101 0.509981 1.16379 0.512152 1.1014 0.512152C0.493113 0.512152 0 1.00527 0 1.61355C0 2.22184 0.493113 2.71495 1.1014 2.71495ZM7.54494 13.2193L6.15421 6.26398H18.4046H18.4047C18.5262 6.26399 18.6464 6.28947 18.7575 6.33877C18.8687 6.38808 18.9682 6.46013 19.0498 6.55027C19.1314 6.64041 19.1931 6.74664 19.2311 6.86212C19.2691 6.97759 19.2825 7.09975 19.2704 7.22072L18.679 13.1354L19.7749 13.245L18.679 13.1354C18.6575 13.3501 18.557 13.5492 18.397 13.694C18.237 13.8388 18.029 13.9189 17.8132 13.919H17.8132H8.39902H8.39858C8.19734 13.919 8.0023 13.8494 7.84666 13.7218C7.69101 13.5943 7.5844 13.4167 7.54495 13.2194L7.54494 13.2193Z" fill="#88888E"/>
<circle cx="6.88497" cy="19.7087" r="1.92745" fill="#88888E"/>
<circle cx="18.4504" cy="19.7087" r="1.92745" fill="#88888E"/>
</svg>
