<svg width="14" height="15" viewBox="0 0 14 15" fill="none" xmlns="http://www.w3.org/2000/svg">
<path d="M7.98791 7.42895L7.9172 7.49966L7.98791 7.57037L11.2843 10.8668L11.2844 10.8668C11.3401 10.9226 11.3844 10.9887 11.4146 11.0616C11.4448 11.1344 11.4603 11.2125 11.4603 11.2913C11.4603 11.3702 11.4448 11.4483 11.4146 11.5211C11.3844 11.5939 11.3401 11.6601 11.2844 11.7158L11.2842 11.716C11.2286 11.7718 11.1625 11.8161 11.0897 11.8463C11.0169 11.8765 10.9389 11.8921 10.8601 11.8921C10.7813 11.8921 10.7032 11.8765 10.6305 11.8463C10.5577 11.8161 10.4916 11.7718 10.4359 11.716L10.4358 11.7159L7.13942 8.41887L7.06871 8.34815L6.99799 8.41887L3.70099 11.7159C3.58403 11.8328 3.43072 11.8913 3.27704 11.8913V11.9913L3.27736 11.8913C3.1588 11.8909 3.043 11.8555 2.94453 11.7895C2.84605 11.7235 2.7693 11.6298 2.72391 11.5203C2.67853 11.4108 2.66655 11.2903 2.68947 11.1739C2.71238 11.0577 2.76915 10.9507 2.85264 10.8666C2.85268 10.8666 2.85271 10.8666 2.85274 10.8665L6.14949 7.57038L6.22022 7.49966L6.14949 7.42895L2.85372 4.13376C2.74803 4.02013 2.69041 3.86997 2.69299 3.71476C2.69558 3.55901 2.75858 3.41036 2.86869 3.30018C2.9788 3.19 3.12742 3.12692 3.28316 3.12424C3.43837 3.12157 3.58855 3.17909 3.70224 3.28471L6.99799 6.58046L7.06871 6.65117L7.13942 6.58045L10.4358 3.28348C10.4358 3.28347 10.4358 3.28346 10.4358 3.28345C10.4916 3.22775 10.5577 3.18357 10.6306 3.15343C10.7034 3.12329 10.7814 3.10779 10.8603 3.10781C10.9391 3.10784 11.0171 3.12338 11.0899 3.15357C11.1627 3.18375 11.2289 3.22798 11.2846 3.28373C11.3403 3.33948 11.3845 3.40565 11.4146 3.47848C11.4448 3.55131 11.4603 3.62936 11.4603 3.70817C11.4602 3.78699 11.4447 3.86503 11.4145 3.93784C11.3843 4.01065 11.3401 4.0768 11.2843 4.13251L11.2843 4.13253L7.98791 7.42895Z" fill="#343337" stroke="white" stroke-width="0.2"/>
</svg>
