<svg width="14" height="15" viewBox="0 0 14 15" fill="none" xmlns="http://www.w3.org/2000/svg">
<path fill-rule="evenodd" clip-rule="evenodd" d="M6.99967 10.4881C6.81402 10.4881 6.63598 10.4144 6.5047 10.2831C6.37342 10.1518 6.29967 9.97376 6.29967 9.7881C6.29967 9.60245 6.37342 9.4244 6.5047 9.29313C6.63598 9.16185 6.81402 9.0881 6.99967 9.0881C7.18533 9.0881 7.36337 9.16185 7.49465 9.29313C7.62592 9.4244 7.69967 9.60245 7.69967 9.7881C7.69967 9.97376 7.62592 10.1518 7.49465 10.2831C7.36337 10.4144 7.18533 10.4881 6.99967 10.4881V10.4881ZM6.41634 4.75102C6.41634 4.59631 6.4778 4.44794 6.5872 4.33854C6.69659 4.22915 6.84496 4.16769 6.99967 4.16769C7.15438 4.16769 7.30276 4.22915 7.41215 4.33854C7.52155 4.44794 7.58301 4.59631 7.58301 4.75102V7.66769C7.58301 7.8224 7.52155 7.97077 7.41215 8.08017C7.30276 8.18956 7.15438 8.25102 6.99967 8.25102C6.84496 8.25102 6.69659 8.18956 6.5872 8.08017C6.4778 7.97077 6.41634 7.8224 6.41634 7.66769V4.75102ZM6.99967 1.08594C3.45592 1.08594 0.583008 3.95885 0.583008 7.5026C0.583008 11.0469 3.45592 13.9193 6.99967 13.9193C10.5434 13.9193 13.4163 11.0469 13.4163 7.5026C13.4163 3.95885 10.5434 1.08594 6.99967 1.08594Z" fill="#E4E3E7"/>
</svg>
