<svg width="16" height="16" viewBox="0 0 16 16" fill="none" xmlns="http://www.w3.org/2000/svg">
<path fill-rule="evenodd" clip-rule="evenodd" d="M11.3264 5.54533L7.30912 9.5526L4.67419 6.92426C4.56165 6.80178 4.50085 6.6407 4.50448 6.4746C4.5081 6.3085 4.57587 6.15021 4.69364 6.03273C4.81141 5.91525 4.9701 5.84765 5.13662 5.84404C5.30314 5.84042 5.46463 5.90107 5.58741 6.01332L7.30912 7.73072L10.4132 4.6344C10.4732 4.57458 10.5444 4.52714 10.6227 4.49477C10.7011 4.4624 10.785 4.44573 10.8698 4.44573C10.9546 4.44573 11.0386 4.4624 11.1169 4.49477C11.1953 4.52714 11.2665 4.57458 11.3264 4.6344C11.3864 4.69421 11.434 4.76522 11.4664 4.84337C11.4989 4.92152 11.5156 5.00528 11.5156 5.08986C11.5156 5.17445 11.4989 5.25821 11.4664 5.33636C11.434 5.41451 11.3864 5.48552 11.3264 5.54533ZM14.5618 6.90279C14.6291 6.8357 14.6668 6.74471 14.6668 6.64984C14.6668 6.55496 14.6291 6.46397 14.5618 6.39688L13.5216 5.35928C13.477 5.31492 13.445 5.25959 13.4287 5.19889C13.4125 5.13819 13.4126 5.07429 13.4291 5.01366L13.8093 3.5968C13.8338 3.50514 13.8208 3.40751 13.7732 3.32538C13.7256 3.24325 13.6472 3.18336 13.5553 3.15886L12.1349 2.77961C12.0739 2.76331 12.0183 2.73124 11.9737 2.68663C11.9291 2.64203 11.8971 2.58647 11.881 2.52557L11.5008 1.10872C11.476 1.01701 11.4159 0.938823 11.3334 0.891331C11.251 0.843838 11.153 0.830917 11.061 0.855403L9.63988 1.23538C9.57914 1.2516 9.51517 1.25154 9.45446 1.23521C9.39375 1.21887 9.33843 1.18684 9.2941 1.14235L8.25391 0.104757C8.18664 0.037681 8.09542 0 8.00031 0C7.9052 0 7.81398 0.037681 7.74672 0.104757L6.70652 1.14307C6.662 1.18749 6.60656 1.21947 6.54574 1.2358C6.48493 1.25213 6.42089 1.25223 6.36003 1.23609L4.93962 0.855403C4.89407 0.843181 4.84655 0.84004 4.79978 0.846161C4.75301 0.852282 4.70791 0.867544 4.66707 0.891074C4.62622 0.914604 4.59043 0.945939 4.56173 0.983286C4.53304 1.02063 4.51202 1.06326 4.49987 1.10872L4.11894 2.52557C4.10273 2.58625 4.07079 2.6416 4.02634 2.68607C3.98189 2.73053 3.92649 2.76255 3.8657 2.77889L2.44458 3.15886C2.35282 3.18351 2.27462 3.24347 2.22714 3.32558C2.17966 3.40769 2.16679 3.50523 2.19134 3.5968L2.57155 5.01366C2.58804 5.07429 2.58816 5.13819 2.57191 5.19889C2.55566 5.25959 2.52361 5.31492 2.47901 5.35928L1.43881 6.39688C1.40543 6.43005 1.37895 6.46947 1.36087 6.51288C1.3428 6.55629 1.3335 6.60283 1.3335 6.64984C1.3335 6.69684 1.3428 6.74338 1.36087 6.78679C1.37895 6.8302 1.40543 6.86962 1.43881 6.90279L2.47901 7.94039C2.52361 7.9849 2.55565 8.04036 2.5719 8.10117C2.58814 8.16198 2.58803 8.22598 2.57155 8.28673L2.19134 9.70359C2.16679 9.79515 2.17966 9.8927 2.22714 9.97481C2.27462 10.0569 2.35282 10.1169 2.44458 10.1415L3.8657 10.5215C3.92649 10.5378 3.98189 10.5699 4.02634 10.6143C4.07079 10.6588 4.10273 10.7141 4.11894 10.7748L4.49915 12.1917C4.51173 12.2376 4.53338 12.2806 4.56282 12.318C4.59226 12.3555 4.6289 12.3868 4.6706 12.4099L3.33556 16H7.05373L7.99995 13.454L8.94761 16H12.6651L11.33 12.4099C11.3717 12.3868 11.4083 12.3556 11.4377 12.3181C11.467 12.2806 11.4884 12.2376 11.5008 12.1917L11.881 10.7748C11.8972 10.714 11.9292 10.6586 11.9738 10.6141C12.0184 10.5696 12.074 10.5377 12.1349 10.5215L13.5553 10.1422C13.6009 10.1301 13.6436 10.1091 13.6811 10.0805C13.7185 10.0519 13.7499 10.0162 13.7735 9.97546C13.7971 9.93471 13.8124 9.88972 13.8185 9.84307C13.8247 9.79642 13.8215 9.74902 13.8093 9.70359L13.4291 8.28673C13.4126 8.2261 13.4125 8.16219 13.4287 8.1015C13.445 8.0408 13.477 7.98547 13.5216 7.9411L14.5618 6.90351V6.90279Z" fill="#2AC769"/>
</svg>
