<svg width="16" height="16" viewBox="0 0 16 16" fill="none" xmlns="http://www.w3.org/2000/svg">
<path d="M7.39209 0.465435C7.75083 0.190774 8.24917 0.190773 8.60791 0.465434L9.80132 1.37914C9.98265 1.51797 10.206 1.59056 10.4343 1.58482L11.9369 1.54709C12.3886 1.53574 12.7917 1.82866 12.9205 2.26173L13.3489 3.7024C13.414 3.9213 13.5521 4.11133 13.7402 4.24088L14.9779 5.09353C15.35 5.34984 15.504 5.82379 15.3537 6.24985L14.8534 7.6672C14.7774 7.88256 14.7774 8.11744 14.8534 8.3328L15.3537 9.75015C15.504 10.1762 15.35 10.6502 14.9779 10.9065L13.7402 11.7591C13.5521 11.8887 13.414 12.0787 13.3489 12.2976L12.9205 13.7383C12.7917 14.1713 12.3886 14.4643 11.9369 14.4529L10.4343 14.4152C10.206 14.4094 9.98265 14.482 9.80132 14.6209L8.60791 15.5346C8.24917 15.8092 7.75083 15.8092 7.39209 15.5346L6.19868 14.6209C6.01735 14.482 5.79396 14.4094 5.56566 14.4152L4.0631 14.4529C3.61144 14.4643 3.20827 14.1713 3.07948 13.7383L2.65106 12.2976C2.58596 12.0787 2.4479 11.8887 2.25983 11.7591L1.02206 10.9065C0.649983 10.6502 0.495985 10.1762 0.646347 9.75015L1.14655 8.3328C1.22255 8.11744 1.22255 7.88256 1.14655 7.6672L0.646347 6.24985C0.495986 5.82379 0.649983 5.34984 1.02206 5.09353L2.25983 4.24088C2.4479 4.11133 2.58596 3.9213 2.65106 3.7024L3.07948 2.26173C3.20827 1.82866 3.61144 1.53574 4.0631 1.54709L5.56566 1.58482C5.79396 1.59056 6.01735 1.51797 6.19868 1.37914L7.39209 0.465435Z" fill="#5A1EFF"/>
<path d="M13.2954 9.82232C13.2954 10.2886 12.9233 10.6646 12.4657 10.6646C12.008 10.6646 11.636 10.2886 11.636 9.82232C11.636 9.35903 12.008 8.97998 12.4657 8.97998C12.9233 8.97998 13.2954 9.35903 13.2954 9.82232Z" fill="#FDC800"/>
<path fill-rule="evenodd" clip-rule="evenodd" d="M5.98763 5.06313C5.80838 4.77478 5.4911 4.59766 5.14909 4.59766C4.60312 4.59766 4.16016 5.03842 4.16016 5.58422V10.5633H5.55703V6.8756L7.04347 9.13171C7.15777 9.22351 7.28705 9.30746 7.36198 9.29875C7.46361 9.28692 7.63384 9.17611 7.73967 9.09758L9.22227 6.84677V10.5633H10.6397V5.58628C10.6397 5.04048 10.1988 4.59766 9.65286 4.59766C9.31086 4.59766 8.99564 4.77272 8.81433 5.06313L7.40098 7.33696L5.98763 5.06313Z" fill="#FDC800"/>
</svg>
