<svg width="16" height="16" viewBox="0 0 16 16" fill="none" xmlns="http://www.w3.org/2000/svg">
<path d="M9.139 7.93002L9.06829 8.00073L9.139 8.07144L12.9063 11.8388L12.9064 11.8388C12.9715 11.9038 13.0231 11.981 13.0583 12.066C13.0935 12.151 13.1117 12.2421 13.1117 12.3341C13.1117 12.4261 13.0935 12.5171 13.0583 12.6021C13.0231 12.6871 12.9715 12.7643 12.9064 12.8293L12.9062 12.8295C12.8413 12.8946 12.7642 12.9463 12.6793 12.9815C12.5944 13.0168 12.5033 13.0349 12.4114 13.0349C12.3194 13.0349 12.2284 13.0168 12.1435 12.9815C12.0586 12.9463 11.9814 12.8946 11.9165 12.8295L11.9164 12.8294L8.14909 9.06136L8.07838 8.99063L8.00767 9.06135L4.23967 12.8294C4.10328 12.9657 3.92451 13.034 3.74535 13.0341C3.60704 13.0336 3.47196 12.9923 3.35708 12.9153C3.2422 12.8382 3.15265 12.729 3.09971 12.6012C3.04676 12.4734 3.03278 12.3328 3.05952 12.1971C3.08625 12.0615 3.15246 11.9368 3.24984 11.8387C3.24989 11.8386 3.24995 11.8386 3.25 11.8385L7.01775 8.07145L7.08848 8.00073L7.01775 7.93001L3.25098 4.16391C3.12756 4.03131 3.06027 3.85605 3.06328 3.67489C3.0663 3.49319 3.1398 3.31977 3.26826 3.19123C3.39672 3.06269 3.5701 2.98909 3.7518 2.98596C3.93295 2.98285 4.10825 3.05002 4.24091 3.17335L8.00767 6.94011L8.07838 7.01082L8.14909 6.9401L11.9164 3.17213C11.9164 3.17212 11.9164 3.17211 11.9164 3.1721C11.9815 3.10711 12.0587 3.05557 12.1436 3.02041C12.2286 2.98524 12.3196 2.96716 12.4116 2.96719C12.5035 2.96721 12.5946 2.98535 12.6795 3.02057C12.7645 3.05578 12.8416 3.10738 12.9066 3.17242C12.9716 3.23746 13.0232 3.31466 13.0584 3.39963C13.0935 3.48459 13.1116 3.57565 13.1116 3.6676C13.1116 3.75956 13.0934 3.8506 13.0582 3.93555C13.023 4.02049 12.9714 4.09766 12.9064 4.16266L12.9063 4.16269L9.139 7.93002Z" fill="#343337" stroke="white" stroke-width="0.2"/>
</svg>


