<svg width="244" height="145" viewBox="0 0 244 145" fill="none" xmlns="http://www.w3.org/2000/svg">
<path fill-rule="evenodd" clip-rule="evenodd" d="M161.073 108.675C165.383 112.818 167.568 119.149 166.548 125.043C164.452 137.181 151.726 145.029 140.077 145C128.429 145 115.732 137.122 113.635 125.014C112.965 121.075 113.635 117.02 115.528 113.518C113.984 113.956 112.383 114.335 110.752 114.627C98.8413 116.728 80.262 114.248 75.6899 101.031C74.1465 96.6252 74.758 91.4318 77.146 87.3179C65.5848 90.1188 44.2972 93.0073 37.6867 79.8195C29.2998 62.9263 54.6644 47.8129 66.8953 44.0491C78.34 40.4896 93.483 39.3808 104.141 47.0543C111.305 35.1211 127.788 31.3281 140.164 31.3281C152.512 31.3281 168.82 35.1211 176.071 46.9084C186.729 39.41 201.756 40.5187 213.142 44.0491C225.402 47.842 250.796 63.1889 242.293 79.7903C235.187 93.7076 212.152 90.0605 200.038 86.501C195.32 85.1297 190.69 83.0581 186.409 80.6365C177.148 89.3019 168.761 98.58 161.073 108.675Z" fill="#FFF3CC"/>
<path d="M171.963 118.539C184.893 120.99 205.54 118.977 211.102 104.534C218.091 86.2696 195.522 72.7901 181.515 70.0183C167.478 67.2465 141.531 71.4188 141.386 90.7045C141.24 105.905 158.655 116.03 171.963 118.539Z" fill="#FFF3CB"/>
<path fill-rule="evenodd" clip-rule="evenodd" d="M170.922 47.8996C169.493 47.9407 168.063 47.6532 166.715 47.1192C165.367 46.5852 164.141 45.8047 163.12 44.7778C162.099 43.7509 161.282 42.5597 160.71 41.2041C160.138 39.8897 159.852 38.452 159.852 36.9733C159.852 35.5356 160.138 34.0979 160.71 32.7424C161.282 31.4279 162.099 30.1956 163.12 29.1687C164.141 28.1418 165.367 27.3613 166.715 26.8274C168.063 26.2934 169.493 26.0469 170.922 26.0469C173.741 26.088 176.437 27.2792 178.438 29.2919C180.44 31.3458 181.543 34.0568 181.543 36.8911C181.543 39.7254 180.44 42.4775 178.438 44.5313C176.437 46.6673 173.741 47.8585 170.922 47.8996ZM162.426 0.949136C145.392 4.76925 133.464 20.8713 134.117 38.4109C134.648 52.1716 143.063 64.4945 168.022 88.6475C169.615 90.1674 172.148 90.1674 173.7 88.6475C199.557 63.673 207.645 51.3501 207.645 36.9733C207.727 13.8061 186.445 -4.43189 162.426 0.949136Z" fill="#5A1EFF"/>
<path d="M88.3445 100.01H86.6005C86.5343 100.01 86.4687 100.024 86.4076 100.051C86.3465 100.078 86.2911 100.117 86.2446 100.167C86.1982 100.217 86.1616 100.277 86.137 100.342C86.1124 100.407 86.1002 100.476 86.1013 100.546V105.932C86.1013 106.073 86.1541 106.208 86.2481 106.307C86.3421 106.407 86.4696 106.462 86.6025 106.462H88.3445C88.4103 106.462 88.4753 106.449 88.536 106.422C88.5967 106.395 88.6519 106.356 88.6982 106.307C88.7446 106.258 88.7813 106.199 88.8063 106.135C88.8313 106.071 88.844 106.002 88.8437 105.932V100.546C88.8445 100.476 88.8322 100.407 88.8075 100.342C88.7828 100.277 88.7462 100.218 88.6998 100.168C88.6534 100.118 88.5981 100.079 88.5371 100.051C88.4762 100.024 88.4107 100.01 88.3445 100.01Z" fill="#FFAB4D"/>
<path d="M53.1826 84.9629H87.5043C87.8574 84.9704 88.1929 85.1081 88.437 85.3458C88.6811 85.5836 88.814 85.9018 88.8063 86.2307V105.444C88.814 105.773 88.6811 106.091 88.437 106.329C88.1929 106.567 87.8574 106.704 87.5043 106.712H53.1826C52.8295 106.704 52.494 106.567 52.2499 106.329C52.0058 106.091 51.8729 105.773 51.8806 105.444V86.2307C51.8729 85.9018 52.0058 85.5836 52.2499 85.3458C52.494 85.1081 52.8295 84.9704 53.1826 84.9629Z" fill="#FDC800"/>
<path d="M97.5986 111.191C97.5986 110.232 97.3296 109.294 96.8257 108.497C96.3217 107.699 95.6055 107.078 94.7674 106.711C93.9294 106.344 93.0073 106.248 92.1178 106.435C91.2282 106.622 90.4111 107.084 89.7699 107.763C89.1287 108.441 88.6921 109.305 88.5153 110.246C88.3386 111.187 88.4297 112.162 88.777 113.048C89.1244 113.934 89.7124 114.691 90.4668 115.223C91.2211 115.756 92.1079 116.04 93.0149 116.04C93.617 116.04 94.2132 115.914 94.7695 115.671C95.3257 115.427 95.8311 115.07 96.2567 114.619C96.6824 114.169 97.02 113.634 97.2503 113.046C97.4805 112.458 97.5989 111.827 97.5986 111.191V111.191Z" fill="#FDC800"/>
<path d="M66.8184 111.195C66.8191 110.236 66.551 109.298 66.048 108.501C65.545 107.703 64.8296 107.081 63.9923 106.713C63.155 106.345 62.2334 106.248 61.3439 106.434C60.4544 106.62 59.6369 107.08 58.9949 107.757C58.3528 108.434 57.915 109.297 57.7367 110.237C57.5584 111.177 57.6477 112.152 57.9932 113.039C58.3388 113.925 58.9251 114.683 59.678 115.217C60.431 115.752 61.3168 116.038 62.2235 116.04C62.8262 116.041 63.4233 115.917 63.9806 115.674C64.5379 115.432 65.0444 115.075 65.4712 114.625C65.898 114.175 66.2367 113.64 66.4678 113.052C66.699 112.463 66.8181 111.832 66.8184 111.195Z" fill="#FDC800"/>
<path d="M94.5 111.194C94.5 110.883 94.4128 110.579 94.2493 110.32C94.0858 110.062 93.8535 109.86 93.5817 109.741C93.3098 109.622 93.0107 109.591 92.7222 109.651C92.4336 109.712 92.1685 109.862 91.9605 110.082C91.7524 110.302 91.6107 110.582 91.5533 110.887C91.4959 111.192 91.5254 111.509 91.638 111.796C91.7506 112.084 91.9413 112.329 92.1859 112.502C92.4305 112.675 92.7182 112.767 93.0124 112.767C93.4069 112.767 93.7853 112.601 94.0643 112.306C94.3433 112.011 94.5 111.611 94.5 111.194Z" fill="#FDC800"/>
<path d="M63.7109 111.194C63.7109 110.883 63.6237 110.579 63.4602 110.32C63.2968 110.062 63.0644 109.86 62.7926 109.741C62.5208 109.622 62.2217 109.591 61.9331 109.651C61.6445 109.712 61.3795 109.862 61.1714 110.082C60.9634 110.302 60.8217 110.582 60.7643 110.887C60.7069 111.192 60.7363 111.509 60.8489 111.796C60.9615 112.084 61.1522 112.329 61.3968 112.502C61.6415 112.675 61.9291 112.767 62.2233 112.767C62.6179 112.767 62.9962 112.601 63.2752 112.306C63.5542 112.011 63.7109 111.611 63.7109 111.194Z" fill="#FDC800"/>
<path fill-rule="evenodd" clip-rule="evenodd" d="M53.8789 80.6641C52.7743 80.6641 51.8789 81.5595 51.8789 82.6641V106.089H86.8053C87.5373 106.089 88.1775 105.696 88.5261 105.109C88.5631 105.461 88.661 105.795 88.809 106.1H51.8779V109.111H107.017V106.1H106.98C106.981 106.057 106.982 106.014 106.981 105.971V101.75C106.981 101.715 106.98 101.68 106.979 101.645V101.037L102.078 88.3308V88.3242H102.075H100.488H88.8053V82.6641C88.8053 81.5595 87.9099 80.6641 86.8053 80.6641H53.8789Z" fill="#FDC800"/>
<path d="M99.35 91.6895H93.5498V97.7041H101.554L99.35 91.6895Z" fill="#FFF9E5"/>
<path d="M71.0381 76.6506C72.5597 53.0044 107.156 11.4922 144.077 11.4922" stroke="#FDC800" stroke-linecap="round" stroke-dasharray="3 3"/>
<path d="M47.0252 98.7045C44.9407 94.1936 31.0444 83.668 22.0117 83.668" stroke="#FDC800" stroke-linecap="round" stroke-dasharray="3 3"/>
<path fill-rule="evenodd" clip-rule="evenodd" d="M9.9511 83.7818C9.56497 83.7818 9.17884 83.7227 8.81201 83.5651C8.44519 83.4272 8.11698 83.1908 7.84669 82.915C7.5764 82.6392 7.34471 82.3043 7.19026 81.9299C7.03581 81.5556 6.95858 81.1616 6.95858 80.7676C6.95858 80.3736 7.03581 79.9796 7.19026 79.6052C7.34471 79.2309 7.55709 78.9157 7.84669 78.6202C8.11698 78.3444 8.44519 78.1277 8.81201 77.9701C9.17884 77.8322 9.56497 77.7534 9.9511 77.7534C10.7234 77.7731 11.457 78.0883 11.9783 78.6399C12.5189 79.1915 12.8085 79.9402 12.8085 80.7282C12.8085 81.5162 12.4996 82.2649 11.9783 82.8165C11.4377 83.4469 10.7041 83.7621 9.9511 83.7818ZM7.65362 70.8975C3.03936 71.9416 -0.184838 76.3743 0.00822702 81.1813C0.143373 84.9639 2.42155 88.3524 9.17884 94.9719C9.60358 95.3856 10.2986 95.3856 10.7234 94.9719C17.7123 88.116 19.9133 84.7275 19.9133 80.7873C19.894 74.4239 14.1406 69.4199 7.65362 70.8975Z" fill="#FFEEB1"/>
</svg>
