<svg width="227" height="158" viewBox="0 0 227 158" fill="none" xmlns="http://www.w3.org/2000/svg">
<rect y="86" width="227" height="72" rx="36" fill="#F5F2FF"/>
<rect x="45.5234" y="52.1777" width="42.3225" height="105.226" fill="#5A1EFF"/>
<rect x="139.154" y="52.1777" width="42.3225" height="105.226" fill="#5A1EFF"/>
<rect x="58.5674" y="145.23" width="14.2041" height="12.175" fill="#F5F2FF"/>
<rect x="138.574" y="145.23" width="14.2041" height="12.175" fill="#F5F2FF"/>
<rect x="74.2217" y="145.23" width="14.2041" height="12.175" fill="#F5F2FF"/>
<rect x="154.229" y="145.23" width="14.2041" height="12.175" fill="#F5F2FF"/>
<rect x="60.5967" y="65.2227" width="7.247" height="10.1458" fill="#F5F2FF"/>
<rect x="79.4385" y="65.2227" width="7.247" height="10.1458" fill="#F5F2FF"/>
<rect x="60.5967" y="88.4121" width="7.247" height="10.1458" fill="#F5F2FF"/>
<rect x="79.4385" y="88.4121" width="7.247" height="10.1458" fill="#F5F2FF"/>
<rect x="60.5967" y="111.604" width="7.247" height="10.1458" fill="#F5F2FF"/>
<rect x="79.4385" y="111.604" width="7.247" height="10.1458" fill="#F5F2FF"/>
<rect x="140.313" y="65.2227" width="7.247" height="10.1458" fill="#F5F2FF"/>
<rect x="159.155" y="65.2227" width="7.247" height="10.1458" fill="#F5F2FF"/>
<rect x="140.313" y="88.4121" width="7.247" height="10.1458" fill="#F5F2FF"/>
<rect x="159.155" y="88.4121" width="7.247" height="10.1458" fill="#F5F2FF"/>
<rect x="140.313" y="111.604" width="7.247" height="10.1458" fill="#F5F2FF"/>
<rect x="159.155" y="111.604" width="7.247" height="10.1458" fill="#F5F2FF"/>
<rect x="87.8457" y="29.8574" width="51.3087" height="127.547" fill="#5A1EFF"/>
<rect x="100.601" y="39.1328" width="7.247" height="10.1458" fill="#F5F2FF"/>
<rect x="119.442" y="39.1328" width="7.247" height="10.1458" fill="#F5F2FF"/>
<rect x="100.601" y="62.3223" width="7.247" height="10.1458" fill="#F5F2FF"/>
<rect x="119.442" y="62.3223" width="7.247" height="10.1458" fill="#F5F2FF"/>
<rect x="100.601" y="85.5137" width="7.247" height="10.1458" fill="#F5F2FF"/>
<rect x="119.442" y="85.5137" width="7.247" height="10.1458" fill="#F5F2FF"/>
<rect x="100.601" y="108.703" width="7.247" height="10.1458" fill="#F5F2FF"/>
<rect x="119.442" y="108.703" width="7.247" height="10.1458" fill="#F5F2FF"/>
<rect x="43.2041" y="46.6699" width="44.6415" height="5.50772" fill="#7D56FF"/>
<rect x="43.2041" y="136.533" width="44.6415" height="5.50772" fill="#7D56FF"/>
<rect x="84.9473" y="24.3496" width="57.1063" height="5.50772" fill="#7D56FF"/>
<rect x="84.9473" y="128.127" width="57.1063" height="5.50772" fill="#7D56FF"/>
<rect x="139.154" y="46.6699" width="44.6415" height="5.50772" fill="#7D56FF"/>
<rect x="139.154" y="136.533" width="44.6415" height="5.50772" fill="#7D56FF"/>
<rect x="98.5713" y="136.824" width="14.2041" height="20.5815" fill="#F5F2FF"/>
<rect x="114.225" y="136.824" width="14.2041" height="20.5815" fill="#F5F2FF"/>
</svg>
