<svg width="124" height="86" viewBox="0 0 124 86" fill="none" xmlns="http://www.w3.org/2000/svg">
<path opacity="0.15" d="M0 64.5C0 52.6259 9.62588 43 21.5 43H124V86H21.5C9.62588 86 0 76.3741 0 64.5Z" fill="#5A1EFF"/>
<rect x="25.0205" y="28.4863" width="23.1049" height="57.4458" fill="#5A1EFF"/>
<rect x="76.1357" y="28.4863" width="23.1049" height="57.4458" fill="#5A1EFF"/>
<rect x="32.1416" y="79.2852" width="7.7544" height="6.64662" fill="#F5F2FF"/>
<rect x="75.8193" y="79.2852" width="7.7544" height="6.64662" fill="#F5F2FF"/>
<rect x="40.6875" y="79.2852" width="7.7544" height="6.64662" fill="#F5F2FF"/>
<rect x="84.3652" y="79.2852" width="7.7544" height="6.64662" fill="#F5F2FF"/>
<rect x="33.25" y="35.6074" width="3.95632" height="5.53885" fill="#F5F2FF"/>
<rect x="43.5361" y="35.6074" width="3.95632" height="5.53885" fill="#F5F2FF"/>
<rect x="33.25" y="48.2676" width="3.95632" height="5.53885" fill="#F5F2FF"/>
<rect x="43.5361" y="48.2676" width="3.95632" height="5.53885" fill="#F5F2FF"/>
<rect x="33.25" y="60.9277" width="3.95632" height="5.53885" fill="#F5F2FF"/>
<rect x="43.5361" y="60.9277" width="3.95632" height="5.53885" fill="#F5F2FF"/>
<rect x="76.7695" y="35.6074" width="3.95632" height="5.53885" fill="#F5F2FF"/>
<rect x="87.0557" y="35.6074" width="3.95632" height="5.53885" fill="#F5F2FF"/>
<rect x="76.7695" y="48.2676" width="3.95632" height="5.53885" fill="#F5F2FF"/>
<rect x="87.0557" y="48.2676" width="3.95632" height="5.53885" fill="#F5F2FF"/>
<rect x="76.7695" y="60.9277" width="3.95632" height="5.53885" fill="#F5F2FF"/>
<rect x="87.0557" y="60.9277" width="3.95632" height="5.53885" fill="#F5F2FF"/>
<rect x="48.125" y="16.3008" width="28.0108" height="69.6313" fill="#5A1EFF"/>
<rect x="55.0889" y="21.3633" width="3.95632" height="5.53885" fill="#F5F2FF"/>
<rect x="65.375" y="21.3633" width="3.95632" height="5.53885" fill="#F5F2FF"/>
<rect x="55.0889" y="34.0234" width="3.95632" height="5.53885" fill="#F5F2FF"/>
<rect x="65.375" y="34.0234" width="3.95632" height="5.53885" fill="#F5F2FF"/>
<rect x="55.0889" y="46.6836" width="3.95632" height="5.53885" fill="#F5F2FF"/>
<rect x="65.375" y="46.6836" width="3.95632" height="5.53885" fill="#F5F2FF"/>
<rect x="55.0889" y="59.3438" width="3.95632" height="5.53885" fill="#F5F2FF"/>
<rect x="65.375" y="59.3438" width="3.95632" height="5.53885" fill="#F5F2FF"/>
<rect x="23.7549" y="25.4785" width="24.371" height="3.00681" fill="#7D56FF"/>
<rect x="23.7549" y="74.5371" width="24.371" height="3.00681" fill="#7D56FF"/>
<rect x="46.543" y="13.293" width="31.1758" height="3.00681" fill="#7D56FF"/>
<rect x="46.543" y="69.9473" width="31.1758" height="3.00681" fill="#7D56FF"/>
<rect x="76.1357" y="25.4785" width="24.371" height="3.00681" fill="#7D56FF"/>
<rect x="76.1357" y="74.5371" width="24.371" height="3.00681" fill="#7D56FF"/>
<rect x="53.9805" y="74.6953" width="7.7544" height="11.236" fill="#F5F2FF"/>
<rect x="62.5264" y="74.6953" width="7.7544" height="11.236" fill="#F5F2FF"/>
</svg>
