<svg width="20" height="20" viewBox="0 0 20 20" fill="none" xmlns="http://www.w3.org/2000/svg">
<path fill-rule="evenodd" clip-rule="evenodd" d="M18.6167 14.0951L15.3009 11.5284C15.1408 11.4048 14.9411 11.3439 14.7392 11.3569C14.5373 11.3699 14.3472 11.4561 14.2042 11.5993L12.4442 13.3601C12.3132 13.4925 12.1412 13.5768 11.9562 13.5993C11.7713 13.6219 11.5841 13.5813 11.4251 13.4843C10.8584 13.1368 9.91007 12.4634 8.72341 11.2759C7.53674 10.0901 6.86341 9.14093 6.51591 8.57509C6.41871 8.41617 6.37816 8.22903 6.40086 8.04413C6.42355 7.85923 6.50816 7.68746 6.64091 7.55676L8.40091 5.79593C8.54426 5.65309 8.6305 5.4628 8.64339 5.26084C8.65628 5.05888 8.59494 4.85917 8.47091 4.69926L5.90507 1.38259C5.32174 0.630093 4.22174 0.510927 3.50507 1.14009C2.56091 1.96843 1.42674 3.20926 1.09674 4.60176C0.499242 7.11009 1.44341 10.2576 5.59341 14.4076C9.74341 18.5568 12.8909 19.5018 15.3984 18.9051C16.7909 18.5734 18.0326 17.4384 18.8609 16.4951C19.4892 15.7784 19.3701 14.6784 18.6167 14.0951Z" fill="#5F5E62"/>
</svg>
