<svg width="18" height="18" viewBox="0 0 18 18" fill="none" xmlns="http://www.w3.org/2000/svg">
<path fill-rule="evenodd" clip-rule="evenodd" d="M13.1494 9.6225C12.9784 9.62681 12.8083 9.59683 12.649 9.53435C12.4898 9.47187 12.3447 9.37815 12.2222 9.2587C12.0998 9.13926 12.0025 8.99651 11.9361 8.83887C11.8696 8.68122 11.8354 8.51188 11.8355 8.34082C11.8356 8.16976 11.8699 8.00044 11.9364 7.84284C12.0029 7.68525 12.1003 7.54256 12.2228 7.42319C12.3453 7.30383 12.4905 7.2102 12.6498 7.14782C12.8091 7.08544 12.9793 7.05558 13.1503 7.06C13.4844 7.06863 13.802 7.20746 14.0352 7.44689C14.2685 7.68632 14.3989 8.0074 14.3988 8.34166C14.3987 8.67592 14.268 8.99691 14.0346 9.23619C13.8012 9.47546 13.4836 9.61409 13.1494 9.6225ZM9.05443 9.6225C8.88331 9.62681 8.71306 9.59682 8.55372 9.53429C8.39437 9.47177 8.24916 9.37799 8.12663 9.25846C8.0041 9.13894 7.90673 8.9961 7.84027 8.83835C7.77381 8.68061 7.7396 8.51116 7.73966 8.33999C7.73971 8.16882 7.77403 7.99939 7.8406 7.84169C7.90716 7.68399 8.00461 7.54121 8.12722 7.42177C8.24983 7.30232 8.39511 7.20863 8.55449 7.14621C8.71388 7.0838 8.88415 7.05392 9.05526 7.05833C9.38963 7.06697 9.70739 7.20589 9.9408 7.44547C10.1742 7.68505 10.3048 8.00634 10.3047 8.34082C10.3046 8.6753 10.1738 8.99651 9.94022 9.23594C9.70666 9.47537 9.3888 9.61408 9.05443 9.6225ZM4.95859 9.6225C4.78759 9.62681 4.61745 9.59683 4.45821 9.53435C4.29896 9.47187 4.15384 9.37815 4.03139 9.2587C3.90894 9.13926 3.81163 8.99651 3.74522 8.83887C3.6788 8.68122 3.64461 8.51188 3.64467 8.34082C3.64472 8.16976 3.67902 8.00044 3.74554 7.84284C3.81206 7.68525 3.90946 7.54256 4.03199 7.42319C4.15451 7.30383 4.2997 7.2102 4.45898 7.14782C4.61827 7.08544 4.78842 7.05558 4.95943 7.06C5.29358 7.06863 5.61113 7.20746 5.84438 7.44689C6.07763 7.68632 6.20811 8.0074 6.208 8.34166C6.20789 8.67592 6.0772 8.99691 5.8438 9.23619C5.6104 9.47546 5.29275 9.61409 4.95859 9.6225ZM8.99943 0.25C4.13859 0.25 0.183594 3.845 0.183594 8.26417C0.183594 10.1558 0.983594 12.73 3.21193 14.3917L2.94943 17.1367C2.93957 17.2378 2.95743 17.3397 3.00108 17.4315C3.04474 17.5233 3.11255 17.6015 3.19724 17.6576C3.28194 17.7138 3.38033 17.7459 3.48186 17.7504C3.58339 17.7549 3.68424 17.7318 3.77359 17.6833L6.63276 16.145C6.98859 16.1817 8.03359 16.2783 8.99943 16.2783C13.8603 16.2783 17.8153 12.6833 17.8153 8.26417C17.8153 3.845 13.8603 0.25 8.99943 0.25Z" fill="#1D1C21"/>
</svg>
