<svg width="16" height="16" viewBox="0 0 16 16" fill="none" xmlns="http://www.w3.org/2000/svg">
<path fill-rule="evenodd" clip-rule="evenodd" d="M0.625902 13.9602C0.235377 14.3507 0.235377 14.9839 0.625902 15.3744C1.01643 15.7649 1.64959 15.7649 2.04012 15.3744L7.99967 9.41486L13.9592 15.3744C14.3498 15.765 14.9829 15.765 15.3734 15.3744C15.764 14.9839 15.764 14.3507 15.3734 13.9602L9.41389 8.00065L15.3734 2.04109C15.764 1.65057 15.764 1.0174 15.3734 0.626878C14.9829 0.236354 14.3498 0.236354 13.9592 0.626878L7.99968 6.58644L2.04011 0.626877C1.64959 0.236353 1.01643 0.236353 0.625901 0.626877C0.235377 1.0174 0.235377 1.65057 0.625901 2.04109L6.58546 8.00065L0.625902 13.9602Z" fill="#343337"/>
</svg>
