<svg width="186" height="204" viewBox="0 0 186 204" fill="none" xmlns="http://www.w3.org/2000/svg">
<rect width="185.105" height="204" fill="white"/>
<rect x="58.082" y="76.9805" width="66.8336" height="50.7376" fill="#FFF7D7"/>
<path d="M141.702 89.2162C139.801 87.2652 137.85 85.2141 137.099 83.4632C136.349 81.7122 136.399 79.1108 136.349 76.4594C136.299 71.6068 136.199 66.0538 132.347 62.2018C128.494 58.3497 122.942 58.2496 118.089 58.1996C115.438 58.1496 112.736 58.0996 111.085 57.4492C109.434 56.7989 107.283 54.7478 105.332 52.8467C101.88 49.545 97.9281 45.793 92.7253 45.793C87.5225 45.793 83.5704 49.545 80.1186 52.8467C78.1675 54.7478 76.1164 56.6988 74.3655 57.4492C72.6146 58.1996 70.0132 58.1496 67.3617 58.1996C62.5091 58.2496 56.9562 58.3497 53.1041 62.2018C49.252 66.0538 49.152 71.6068 49.102 76.4594C49.0519 79.1108 49.0019 81.8123 48.3516 83.4632C47.7012 85.114 45.6501 87.2652 43.7491 89.2162C40.4473 92.6681 36.6953 96.6202 36.6953 101.823C36.6953 107.026 40.4473 110.978 43.7491 114.43C45.6501 116.381 47.6012 118.432 48.3516 120.183C49.102 121.934 49.0519 124.535 49.102 127.187C49.152 132.039 49.252 137.592 53.1041 141.444C56.9562 145.296 62.5091 145.396 67.3617 145.446C70.0132 145.496 72.7146 145.546 74.3655 146.197C76.0164 146.847 78.1675 148.898 80.1186 150.799C83.5704 154.101 87.5225 157.853 92.7253 157.853C97.9281 157.853 101.88 154.101 105.332 150.799C107.283 148.898 109.334 146.947 111.085 146.197C112.836 145.446 115.438 145.496 118.089 145.446C122.942 145.396 128.494 145.296 132.347 141.444C136.199 137.592 136.299 132.039 136.349 127.187C136.399 124.535 136.449 121.834 137.099 120.183C137.749 118.532 139.801 116.381 141.702 114.43C145.003 110.978 148.755 107.026 148.755 101.823C148.755 96.6202 145.003 92.6681 141.702 89.2162ZM117.489 92.7181L88.1729 120.733C87.415 121.446 86.4119 121.84 85.3714 121.834C84.3462 121.838 83.3596 121.443 82.6199 120.733L67.9621 106.726C67.5555 106.371 67.2249 105.938 66.99 105.452C66.7552 104.966 66.621 104.438 66.5955 103.899C66.57 103.36 66.6537 102.822 66.8416 102.316C67.0296 101.81 67.3178 101.348 67.6891 100.956C68.0603 100.565 68.5069 100.252 69.002 100.038C69.497 99.8231 70.0304 99.7109 70.5699 99.7078C71.1094 99.7047 71.644 99.8107 72.1415 100.019C72.6391 100.228 73.0892 100.535 73.465 100.923L85.3714 112.279L111.986 86.915C112.764 86.2361 113.774 85.8842 114.806 85.9331C115.837 85.9819 116.81 86.4275 117.521 87.1769C118.231 87.9262 118.625 88.9213 118.619 89.954C118.613 90.9867 118.208 91.9771 117.489 92.7181Z" fill="#FDC800"/>
<circle cx="21.5215" cy="83.8067" r="7.87307" fill="#5A1EFF"/>
<circle cx="124.744" cy="26.4199" r="7.87307" fill="#FF5500"/>
<circle cx="72.7822" cy="171.458" r="5.59863" fill="#FDC800"/>
<circle cx="165.686" cy="119.846" r="6.1235" fill="#FDC800"/>
<rect x="167.793" y="62.5898" width="16.7069" height="9.46645" transform="rotate(143.955 167.793 62.5898)" fill="#5A1EFF"/>
<rect x="40" y="142.734" width="16.7069" height="9.46645" transform="rotate(116.133 40 142.734)" fill="#FF9600"/>
<path fill-rule="evenodd" clip-rule="evenodd" d="M164.15 176.016L151.838 159.627L145.069 164.712L145.071 164.714L140.2 168.392L131.94 157.63L125.224 162.785L133.903 174.092L138.548 180.246L150.156 171.483L157.381 181.101L164.15 176.016Z" fill="#FF5500"/>
<path d="M27.294 27.6723C37.2439 22.9891 55.2944 23.0148 64.0278 42.3033" stroke="#FDC800" stroke-width="9.3198"/>
</svg>
