<svg width="124" height="86" viewBox="0 0 124 86" fill="none" xmlns="http://www.w3.org/2000/svg">
<path opacity="0.15" d="M0 64.5C0 52.6259 9.62588 43 21.5 43H124V86H21.5C9.62588 86 0 76.3741 0 64.5Z" fill="#FDC800"/>
<rect x="32.458" y="30.0684" width="26.4282" height="55.8633" fill="#FFE17E"/>
<rect x="65.5332" y="14.875" width="18.1991" height="71.0556" fill="#FFE17E"/>
<path d="M97.0254 24.6875L73.9205 27.8707V85.9314H97.0254V24.6875Z" fill="#FDC800"/>
<rect x="28.1855" y="7.91211" width="25.637" height="78.0187" fill="#FDC800"/>
<rect x="79.459" y="35.1328" width="3.79807" height="6.33012" fill="#FFF9E5"/>
<rect x="87.5303" y="35.1328" width="3.79807" height="6.33012" fill="#FFF9E5"/>
<rect x="79.459" y="45.7363" width="3.79807" height="6.33012" fill="#FFF9E5"/>
<rect x="87.5303" y="45.7363" width="3.79807" height="6.33012" fill="#FFF9E5"/>
<rect x="79.459" y="56.3379" width="3.79807" height="6.33012" fill="#FFF9E5"/>
<rect x="87.5303" y="56.3379" width="3.79807" height="6.33012" fill="#FFF9E5"/>
<rect x="79.459" y="66.9414" width="3.79807" height="6.33012" fill="#FFF9E5"/>
<rect x="87.5303" y="66.9414" width="3.79807" height="6.33012" fill="#FFF9E5"/>
<path d="M81.9912 36.5566L58.8863 39.1229V85.9316H81.9912V36.5566Z" fill="#FDC800"/>
<rect x="32.2998" y="14.2422" width="3.16506" height="4.74759" fill="#FFF9E5"/>
<rect x="39.4209" y="14.2422" width="3.16506" height="4.74759" fill="#FFF9E5"/>
<rect x="46.543" y="14.2422" width="3.16506" height="4.74759" fill="#FFF9E5"/>
<rect x="32.2998" y="25.3203" width="3.16506" height="4.74759" fill="#FFF9E5"/>
<rect x="39.4209" y="25.3203" width="3.16506" height="4.74759" fill="#FFF9E5"/>
<rect x="46.543" y="25.3203" width="3.16506" height="4.74759" fill="#FFF9E5"/>
<rect x="32.2998" y="36.3984" width="3.16506" height="4.74759" fill="#FFF9E5"/>
<rect x="39.4209" y="36.3984" width="3.16506" height="4.74759" fill="#FFF9E5"/>
<rect x="46.543" y="36.3984" width="3.16506" height="4.74759" fill="#FFF9E5"/>
<rect x="32.2998" y="47.4746" width="3.16506" height="4.74759" fill="#FFF9E5"/>
<rect x="39.4209" y="47.4746" width="3.16506" height="4.74759" fill="#FFF9E5"/>
<rect x="46.543" y="47.4746" width="3.16506" height="4.74759" fill="#FFF9E5"/>
<rect x="32.2998" y="58.5527" width="3.16506" height="4.74759" fill="#FFF9E5"/>
<rect x="39.4209" y="58.5527" width="3.16506" height="4.74759" fill="#FFF9E5"/>
<rect x="46.543" y="58.5527" width="3.16506" height="4.74759" fill="#FFF9E5"/>
<rect x="35.4648" y="73.2715" width="10.9195" height="12.6602" fill="#FFF9E5"/>
<rect x="64.4258" y="45.7344" width="3.79807" height="6.33012" fill="#FFF9E5"/>
<rect x="72.4971" y="45.7344" width="3.79807" height="6.33012" fill="#FFF9E5"/>
<rect x="64.4258" y="56.3379" width="3.79807" height="6.33012" fill="#FFF9E5"/>
<rect x="72.4971" y="56.3379" width="3.79807" height="6.33012" fill="#FFF9E5"/>
<rect x="64.4258" y="66.9395" width="3.79807" height="6.33012" fill="#FFF9E5"/>
<rect x="72.4971" y="66.9395" width="3.79807" height="6.33012" fill="#FFF9E5"/>
<rect x="65.5332" y="18.6738" width="18.1991" height="0.474759" fill="#FDC800"/>
<rect x="65.5332" y="22.9473" width="18.1991" height="0.474759" fill="#FDC800"/>
</svg>
