<svg width="227" height="158" viewBox="0 0 227 158" fill="none" xmlns="http://www.w3.org/2000/svg">
<rect y="86" width="227" height="72" rx="36" fill="#FFF9E5"/>
<rect x="59.6475" y="55.0781" width="48.4099" height="102.328" fill="#FFE17E"/>
<rect x="120.232" y="27.248" width="33.3362" height="130.156" fill="#FFE17E"/>
<path d="M177.919 45.2207L135.596 51.0514V157.404H177.919V45.2207Z" fill="#FDC800"/>
<rect x="51.8203" y="14.4941" width="46.9605" height="142.911" fill="#FDC800"/>
<rect x="145.742" y="64.3535" width="6.95712" height="11.5952" fill="#FFF9E5"/>
<rect x="160.526" y="64.3535" width="6.95712" height="11.5952" fill="#FFF9E5"/>
<rect x="145.742" y="83.7754" width="6.95712" height="11.5952" fill="#FFF9E5"/>
<rect x="160.526" y="83.7754" width="6.95712" height="11.5952" fill="#FFF9E5"/>
<rect x="145.742" y="103.197" width="6.95712" height="11.5952" fill="#FFF9E5"/>
<rect x="160.526" y="103.197" width="6.95712" height="11.5952" fill="#FFF9E5"/>
<rect x="145.742" y="122.619" width="6.95712" height="11.5952" fill="#FFF9E5"/>
<rect x="160.526" y="122.619" width="6.95712" height="11.5952" fill="#FFF9E5"/>
<path d="M150.38 66.9629L108.057 71.6636V157.405H150.38V66.9629Z" fill="#FDC800"/>
<rect x="59.3574" y="26.0898" width="5.7976" height="8.6964" fill="#FFF9E5"/>
<rect x="72.4023" y="26.0898" width="5.7976" height="8.6964" fill="#FFF9E5"/>
<rect x="85.4463" y="26.0898" width="5.7976" height="8.6964" fill="#FFF9E5"/>
<rect x="59.3574" y="46.3809" width="5.7976" height="8.6964" fill="#FFF9E5"/>
<rect x="72.4023" y="46.3809" width="5.7976" height="8.6964" fill="#FFF9E5"/>
<rect x="85.4473" y="46.3809" width="5.7976" height="8.6964" fill="#FFF9E5"/>
<rect x="59.3574" y="66.6738" width="5.7976" height="8.6964" fill="#FFF9E5"/>
<rect x="72.4023" y="66.6738" width="5.7976" height="8.6964" fill="#FFF9E5"/>
<rect x="85.4463" y="66.6738" width="5.7976" height="8.6964" fill="#FFF9E5"/>
<rect x="59.3574" y="86.9648" width="5.7976" height="8.6964" fill="#FFF9E5"/>
<rect x="72.4023" y="86.9648" width="5.7976" height="8.6964" fill="#FFF9E5"/>
<rect x="85.4463" y="86.9648" width="5.7976" height="8.6964" fill="#FFF9E5"/>
<rect x="59.3574" y="107.256" width="5.7976" height="8.6964" fill="#FFF9E5"/>
<rect x="72.4023" y="107.256" width="5.7976" height="8.6964" fill="#FFF9E5"/>
<rect x="85.4463" y="107.256" width="5.7976" height="8.6964" fill="#FFF9E5"/>
<rect x="65.1553" y="134.215" width="20.0017" height="23.1904" fill="#FFF9E5"/>
<rect x="118.203" y="83.7754" width="6.95712" height="11.5952" fill="#FFF9E5"/>
<rect x="132.987" y="83.7754" width="6.95712" height="11.5952" fill="#FFF9E5"/>
<rect x="118.203" y="103.197" width="6.95712" height="11.5952" fill="#FFF9E5"/>
<rect x="132.987" y="103.197" width="6.95712" height="11.5952" fill="#FFF9E5"/>
<rect x="118.203" y="122.619" width="6.95712" height="11.5952" fill="#FFF9E5"/>
<rect x="132.987" y="122.619" width="6.95712" height="11.5952" fill="#FFF9E5"/>
<rect x="120.232" y="34.2051" width="33.3362" height="0.86964" fill="#FDC800"/>
<rect x="120.232" y="42.0332" width="33.3362" height="0.86964" fill="#FDC800"/>
</svg>
