<svg width="14" height="14" viewBox="0 0 14 14" fill="none" xmlns="http://www.w3.org/2000/svg">
<path fill-rule="evenodd" clip-rule="evenodd" d="M7.19633 3.181L1.91016 8.46717L1.18916 11.1563L0.714909 12.9279C0.701737 12.9774 0.701802 13.0295 0.7151 13.079C0.728398 13.1284 0.75446 13.1735 0.790676 13.2097C0.826892 13.246 0.87199 13.272 0.921451 13.2853C0.970912 13.2986 1.023 13.2987 1.07249 13.2855L2.84291 12.8107L5.53266 12.0897H5.53324L10.8194 6.8035L7.19691 3.181H7.19633ZM13.0052 3.7935L10.2075 0.995253C10.1534 0.941034 10.0891 0.898021 10.0183 0.868673C9.94755 0.839325 9.87169 0.824219 9.79508 0.824219C9.71847 0.824219 9.64261 0.839325 9.57184 0.868673C9.50107 0.898021 9.43679 0.941034 9.38266 0.995253L7.93891 2.43842L11.562 6.0615L13.0052 4.61775C13.0594 4.56363 13.1024 4.49934 13.1317 4.42857C13.1611 4.35781 13.1762 4.28195 13.1762 4.20534C13.1762 4.12873 13.1611 4.05287 13.1317 3.9821C13.1024 3.91133 13.0594 3.84705 13.0052 3.79292" fill="#343337"/>
</svg>
