<svg width="13" height="13" viewBox="0 0 13 13" fill="none" xmlns="http://www.w3.org/2000/svg">
<path fill-rule="evenodd" clip-rule="evenodd" d="M5.41406 12.102C5.41406 12.5806 5.80206 12.9686 6.28068 12.9686H6.34744C6.82606 12.9686 7.21406 12.5806 7.21406 12.102L7.21406 8.06941H11.4848C11.9634 8.06941 12.3514 7.68141 12.3514 7.20279V7.13603C12.3514 6.65741 11.9634 6.26941 11.4848 6.26941L7.21406 6.26941L7.21406 1.70256C7.21406 1.22394 6.82606 0.835938 6.34744 0.835938H6.28068C5.80206 0.835938 5.41406 1.22394 5.41406 1.70256L5.41406 6.26941H1.08537C0.606749 6.26941 0.21875 6.65741 0.21875 7.13603V7.20279C0.21875 7.68141 0.60675 8.06941 1.08537 8.06941H5.41406L5.41406 12.102Z" fill="#343337"/>
</svg>
