<svg width="24" height="24" viewBox="0 0 24 24" fill="none" xmlns="http://www.w3.org/2000/svg">
<path fill-rule="evenodd" clip-rule="evenodd" d="M4.10156 10.3516C4.10156 6.89978 6.89978 4.10156 10.3516 4.10156C13.8033 4.10156 16.6016 6.89978 16.6016 10.3516C16.6016 13.8033 13.8033 16.6016 10.3516 16.6016C6.89978 16.6016 4.10156 13.8033 4.10156 10.3516ZM10.3516 2.10156C5.79521 2.10156 2.10156 5.79521 2.10156 10.3516C2.10156 14.9079 5.79521 18.6016 10.3516 18.6016C12.2694 18.6016 14.0343 17.9472 15.4353 16.8495L20.2929 21.7071C20.6834 22.0976 21.3166 22.0976 21.7071 21.7071C22.0976 21.3166 22.0976 20.6834 21.7071 20.2929L16.8495 15.4353C17.9472 14.0343 18.6016 12.2694 18.6016 10.3516C18.6016 5.79521 14.9079 2.10156 10.3516 2.10156Z" fill="#343337"/>
</svg>
