<svg width="20" height="20" viewBox="0 0 20 20" fill="none" xmlns="http://www.w3.org/2000/svg">
<g clip-path="url(#clip0_1103_24439)">
<path fill-rule="evenodd" clip-rule="evenodd" d="M10.0007 0.832031C4.93815 0.832031 0.833984 4.9362 0.833984 9.9987C0.833984 15.0612 4.93815 19.1654 10.0007 19.1654C15.0631 19.1654 19.1673 15.0612 19.1673 9.9987C19.1673 4.9362 15.0631 0.832031 10.0007 0.832031Z" fill="white"/>
<path d="M9.68719 13.1642L14.3397 8.51092C14.4171 8.43354 14.4784 8.34169 14.5203 8.2406C14.5622 8.13951 14.5837 8.03117 14.5837 7.92175C14.5837 7.81233 14.5622 7.70398 14.5203 7.60289C14.4784 7.5018 14.4171 7.40995 14.3397 7.33258C14.2623 7.25521 14.1705 7.19384 14.0694 7.15197C13.9683 7.11009 13.8599 7.08854 13.7505 7.08854C13.6411 7.08854 13.5328 7.11009 13.4317 7.15197C13.3306 7.19384 13.2387 7.25521 13.1614 7.33258L9.09719 11.3967L6.83969 9.13925C6.68343 8.98299 6.4715 8.89521 6.25052 8.89521C6.02954 8.89521 5.81762 8.98299 5.66136 9.13925C5.5051 9.2955 5.41732 9.50743 5.41732 9.72841C5.41732 9.83783 5.43887 9.94618 5.48074 10.0473C5.52261 10.1484 5.58399 10.2402 5.66136 10.3176L8.50802 13.1642C8.66476 13.3199 8.8767 13.4073 9.09761 13.4073C9.31851 13.4073 9.53045 13.3199 9.68719 13.1642Z" fill="#2AC769"/>
<g clip-path="url(#clip1_1103_24439)">
<path fill-rule="evenodd" clip-rule="evenodd" d="M10.0007 0.832031C4.93815 0.832031 0.833984 4.9362 0.833984 9.9987C0.833984 15.0612 4.93815 19.1654 10.0007 19.1654C15.0631 19.1654 19.1673 15.0612 19.1673 9.9987C19.1673 4.9362 15.0631 0.832031 10.0007 0.832031Z" fill="#D5D4D9"/>
<path d="M13.6866 12.5977C13.6447 12.4966 13.5834 12.4047 13.506 12.3274L11.1785 9.99987L13.506 7.67237C13.5834 7.595 13.6447 7.50315 13.6866 7.40206C13.7285 7.30097 13.75 7.19263 13.75 7.08321C13.75 6.97379 13.7285 6.86544 13.6866 6.76435C13.6447 6.66326 13.5834 6.57141 13.506 6.49404C13.4286 6.41667 13.3368 6.3553 13.2357 6.31342C13.1346 6.27155 13.0263 6.25 12.9168 6.25C12.8074 6.25 12.6991 6.27155 12.598 6.31342C12.4969 6.3553 12.405 6.41667 12.3277 6.49404L10.0002 8.82154L7.67267 6.49404C7.5953 6.41667 7.50345 6.3553 7.40236 6.31342C7.30127 6.27155 7.19292 6.25 7.0835 6.25C6.97408 6.25 6.86574 6.27155 6.76465 6.31342C6.66356 6.3553 6.5717 6.41667 6.49433 6.49404C6.41696 6.57141 6.35559 6.66326 6.31372 6.76435C6.27185 6.86544 6.25029 6.97379 6.25029 7.08321C6.25029 7.19263 6.27185 7.30097 6.31372 7.40206C6.35559 7.50315 6.41696 7.595 6.49433 7.67237L8.82183 9.99987L6.49433 12.3274C6.41688 12.4047 6.35543 12.4965 6.31351 12.5976C6.27158 12.6987 6.25 12.8071 6.25 12.9165C6.25 13.026 6.27158 13.1344 6.31351 13.2355C6.35543 13.3365 6.41688 13.4284 6.49433 13.5057C6.57155 13.5834 6.66335 13.645 6.76446 13.687C6.86557 13.7291 6.97399 13.7507 7.0835 13.7507C7.19301 13.7507 7.30143 13.7291 7.40254 13.687C7.50366 13.645 7.59546 13.5834 7.67267 13.5057L10.0002 11.1782L12.3277 13.5057C12.405 13.5831 12.4969 13.6445 12.598 13.6863C12.6991 13.7282 12.8074 13.7497 12.9168 13.7497C13.0263 13.7497 13.1346 13.7282 13.2357 13.6863C13.3368 13.6445 13.4286 13.5831 13.506 13.5057C13.5834 13.4283 13.6447 13.3365 13.6866 13.2354C13.7285 13.1343 13.75 13.026 13.75 12.9165C13.75 12.8071 13.7285 12.6988 13.6866 12.5977Z" fill="white"/>
</g>
</g>
<defs>
<clipPath id="clip0_1103_24439">
<rect width="20" height="20" fill="white"/>
</clipPath>
<clipPath id="clip1_1103_24439">
<rect width="20" height="20" fill="white"/>
</clipPath>
</defs>
</svg>
