<svg width="40" height="40" viewBox="0 0 40 40" fill="none" xmlns="http://www.w3.org/2000/svg">
<circle cx="20" cy="20" r="20" fill="#475993"/>
<path d="M18.4108 21.2234L18.3979 28.9999L21.6598 29L21.6726 21.2236H24.2557C24.488 21.2236 24.6837 21.0428 24.711 20.8029L24.9967 18.2963C25.0291 18.0127 24.8161 17.7634 24.5415 17.7634H21.6598V15.6666C21.6598 14.7156 21.9137 14.0677 23.2252 14.0677L24.4396 14.0671C24.6926 14.0669 24.8978 13.8536 24.8978 13.5904V11.4767C24.8978 11.2134 24.6925 11 24.4393 11H22.4605C20.049 11 18.398 12.5305 18.398 15.3413V17.7634H16.4585C16.2046 17.7634 15.999 17.9779 16 18.2419L16.0093 20.7486C16.0103 21.0111 16.2152 21.2234 16.4678 21.2234H18.4108Z" fill="white"/>
</svg>
