<svg width="40" height="40" viewBox="0 0 40 40" fill="none" xmlns="http://www.w3.org/2000/svg">
<g clip-path="url(#clip0_3955_48883)">
<path d="M39.9883 0H0.0117188C0.00524666 0 0 0.00524666 0 0.0117188V39.9883C0 39.9948 0.00524666 40 0.0117188 40H39.9883C39.9948 40 40 39.9948 40 39.9883V0.0117188C40 0.00524666 39.9948 0 39.9883 0Z" fill="#F5F5F5"/>
<path d="M13.0399 14L13 25.9613L17.8462 25.9806L17.8661 21.1419L17.547 19.6323L22.1339 25.9613L27 26L26.9801 14.0387L22.114 14.0194L22.2137 18.9548L22.5328 20.7161L17.8661 14.0194L13.0399 14Z" fill="white"/>
<rect x="0.5" y="0.5" width="39" height="39" rx="19.5" fill="white" stroke="#E4E3E7"/>
<g clip-path="url(#clip1_3955_48883)">
<path fill-rule="evenodd" clip-rule="evenodd" d="M16.4285 21.1719L16.4285 18.8281L14.0476 18.8281L14.0476 21.1719L16.4285 21.1719ZM11.6666 15.3125L11.6666 24.6875C11.6666 25.1019 11.8339 25.4993 12.1315 25.7924C12.4292 26.0854 12.8329 26.25 13.2539 26.25L26.746 26.25C27.167 26.25 27.5707 26.0854 27.8684 25.7924C28.1661 25.4993 28.3333 25.1019 28.3333 24.6875L28.3333 15.3125C28.3333 14.8981 28.1661 14.5007 27.8684 14.2076C27.5707 13.9146 27.167 13.75 26.746 13.75L13.2539 13.75C12.8329 13.75 12.4292 13.9146 12.1315 14.2076C11.8339 14.5007 11.6666 14.8981 11.6666 15.3125Z" fill="#343337"/>
<rect x="13.3334" y="18.332" width="4.16667" height="3.33333" fill="#343337"/>
<path d="M10.8334 15L19.059 20.9822C19.62 21.3903 20.3801 21.3903 20.9411 20.9822L29.1667 15" stroke="white" stroke-width="1.2" stroke-linejoin="round"/>
</g>
</g>
<defs>
<clipPath id="clip0_3955_48883">
<rect width="40" height="40" rx="20" fill="white"/>
</clipPath>
<clipPath id="clip1_3955_48883">
<rect width="20" height="20" fill="white" transform="translate(10 30) rotate(-90)"/>
</clipPath>
</defs>
</svg>
